<?xml version="1.0" encoding="utf-8" standalone="no"?>
<!DOCTYPE svg PUBLIC "-//W3C//DTD SVG 1.1//EN"
  "http://www.w3.org/Graphics/SVG/1.1/DTD/svg11.dtd">
<svg xmlns:xlink="http://www.w3.org/1999/xlink" width="718.781174pt" height="374.944062pt" viewBox="0 0 718.781174 374.944062" xmlns="http://www.w3.org/2000/svg" version="1.1">
 <metadata>
  <rdf:RDF xmlns:dc="http://purl.org/dc/elements/1.1/" xmlns:cc="http://creativecommons.org/ns#" xmlns:rdf="http://www.w3.org/1999/02/22-rdf-syntax-ns#">
   <cc:Work>
    <dc:type rdf:resource="http://purl.org/dc/dcmitype/StillImage"/>
    <dc:date>2026-07-01T01:20:41.355910</dc:date>
    <dc:format>image/svg+xml</dc:format>
    <dc:creator>
     <cc:Agent>
      <dc:title>Matplotlib v3.9.4, https://matplotlib.org/</dc:title>
     </cc:Agent>
    </dc:creator>
   </cc:Work>
  </rdf:RDF>
 </metadata>
 <defs>
  <style type="text/css">*{stroke-linejoin: round; stroke-linecap: butt}</style>
 </defs>
 <g id="figure_1">
  <g id="patch_1">
   <path d="M 0 374.944062 
L 718.781174 374.944062 
L 718.781174 0 
L 0 0 
z
" style="fill: #ffffff"/>
  </g>
  <g id="axes_1">
   <g id="patch_2">
    <path d="M 25.970956 138.334132 
L 109.018215 138.334132 
Q 112.999933 138.334132 112.999933 127.467892 
L 112.999933 80.898292 
Q 112.999933 70.032052 109.018215 70.032052 
L 25.970956 70.032052 
Q 21.989238 70.032052 21.989238 80.898292 
L 21.989238 127.467892 
Q 21.989238 138.334132 25.970956 138.334132 
z
" clip-path="url(#pe93dac6dd9)" style="fill: #f3f4f6; stroke: #6b7280; stroke-linejoin: miter"/>
   </g>
   <g id="patch_3">
    <path d="M 35.072025 259.415092 
L 99.917146 259.415092 
Q 103.898864 259.415092 103.898864 248.548852 
L 103.898864 201.979252 
Q 103.898864 191.113012 99.917146 191.113012 
L 35.072025 191.113012 
Q 31.090307 191.113012 31.090307 201.979252 
L 31.090307 248.548852 
Q 31.090307 259.415092 35.072025 259.415092 
z
" clip-path="url(#pe93dac6dd9)" style="fill: #d9f0eb; stroke: #1b9e77; stroke-linejoin: miter"/>
   </g>
   <g id="text_1">
    <text style="font: 700 11px 'Arial', 'Helvetica', 'DejaVu Sans', sans-serif; text-anchor: start" x="7.2" y="15.812846" transform="rotate(-0 7.2 15.812846)">A</text>
   </g>
   <g id="text_2">
    <text style="fill: #202124; font: 8px 'Arial', 'Helvetica', 'DejaVu Sans', sans-serif" transform="translate(33.143961 102.163624)">Released PTB-XL+</text>
    <text style="fill: #202124; font: 8px 'Arial', 'Helvetica', 'DejaVu Sans', sans-serif" transform="translate(45.258336 110.338811)">531 features</text>
   </g>
   <g id="patch_4">
    <path d="M 67.494586 137.229962 
Q 67.494586 161.619653 67.494586 184.332293 
" style="fill: none; stroke: #6b7280; stroke-width: 1.5; stroke-linecap: round"/>
    <path d="M 69.094586 181.132293 
L 67.494586 184.332293 
L 65.894586 181.132293 
" style="fill: none; stroke: #6b7280; stroke-width: 1.5; stroke-linecap: round"/>
   </g>
   <g id="text_3">
    <text style="fill: #202124; font: 8px 'Arial', 'Helvetica', 'DejaVu Sans', sans-serif" transform="translate(40.815836 223.244584)">Allclose subset</text>
    <text style="fill: #202124; font: 8px 'Arial', 'Helvetica', 'DejaVu Sans', sans-serif" transform="translate(45.258336 231.419771)">138 features</text>
   </g>
   <g id="text_4">
    <text style="font: 700 10px 'Arial', 'Helvetica', 'DejaVu Sans', sans-serif; text-anchor: start" x="10.612901" y="14.357812" transform="rotate(-0 10.612901 14.357812)">Schema reduction</text>
   </g>
  </g>
  <g id="axes_2">
   <g id="patch_5">
    <path d="M 184.443329 330.821812 
L 326.64754 330.821812 
L 326.64754 20.357812 
L 184.443329 20.357812 
z
" style="fill: #ffffff"/>
   </g>
   <g id="PathCollection_1">
    <defs>
     <path id="mf008efc8ec" d="M 0 3.24037 
C 0.859356 3.24037 1.683631 2.898944 2.291288 2.291288 
C 2.898944 1.683631 3.24037 0.859356 3.24037 0 
C 3.24037 -0.859356 2.898944 -1.683631 2.291288 -2.291288 
C 1.683631 -2.898944 0.859356 -3.24037 0 -3.24037 
C -0.859356 -3.24037 -1.683631 -2.898944 -2.291288 -2.291288 
C -2.898944 -1.683631 -3.24037 -0.859356 -3.24037 0 
C -3.24037 0.859356 -2.898944 1.683631 -2.291288 2.291288 
C -1.683631 2.898944 -0.859356 3.24037 0 3.24037 
z
" style="stroke: #3b73b9"/>
    </defs>
    <g clip-path="url(#p8be730f4b9)">
     <use xlink:href="#mf008efc8ec" x="311.228142" y="77.523372" style="fill: #3b73b9; stroke: #3b73b9"/>
     <use xlink:href="#mf008efc8ec" x="263.966154" y="197.116592" style="fill: #3b73b9; stroke: #3b73b9"/>
     <use xlink:href="#mf008efc8ec" x="311.269967" y="316.709812" style="fill: #3b73b9; stroke: #3b73b9"/>
    </g>
   </g>
   <g id="PathCollection_2">
    <defs>
     <path id="mf244a94743" d="M 0 3.24037 
C 0.859356 3.24037 1.683631 2.898944 2.291288 2.291288 
C 2.898944 1.683631 3.24037 0.859356 3.24037 0 
C 3.24037 -0.859356 2.898944 -1.683631 2.291288 -2.291288 
C 1.683631 -2.898944 0.859356 -3.24037 0 -3.24037 
C -0.859356 -3.24037 -1.683631 -2.898944 -2.291288 -2.291288 
C -2.898944 -1.683631 -3.24037 -0.859356 -3.24037 0 
C -3.24037 0.859356 -2.898944 1.683631 -2.291288 2.291288 
C -1.683631 2.898944 -0.859356 3.24037 0 3.24037 
z
" style="stroke: #e69f00"/>
    </defs>
    <g clip-path="url(#p8be730f4b9)">
     <use xlink:href="#mf244a94743" x="292.100282" y="55.996592" style="fill: #e69f00; stroke: #e69f00"/>
     <use xlink:href="#mf244a94743" x="226.895468" y="175.589812" style="fill: #e69f00; stroke: #e69f00"/>
     <use xlink:href="#mf244a94743" x="292.225756" y="295.183033" style="fill: #e69f00; stroke: #e69f00"/>
    </g>
   </g>
   <g id="PathCollection_3">
    <defs>
     <path id="m177630f5ff" d="M 0 3.24037 
C 0.859356 3.24037 1.683631 2.898944 2.291288 2.291288 
C 2.898944 1.683631 3.24037 0.859356 3.24037 0 
C 3.24037 -0.859356 2.898944 -1.683631 2.291288 -2.291288 
C 1.683631 -2.898944 0.859356 -3.24037 0 -3.24037 
C -0.859356 -3.24037 -1.683631 -2.898944 -2.291288 -2.291288 
C -2.898944 -1.683631 -3.24037 -0.859356 -3.24037 0 
C -3.24037 0.859356 -2.898944 1.683631 -2.291288 2.291288 
C -1.683631 2.898944 -0.859356 3.24037 0 3.24037 
z
" style="stroke: #1b9e77"/>
    </defs>
    <g clip-path="url(#p8be730f4b9)">
     <use xlink:href="#m177630f5ff" x="281.769564" y="34.469812" style="fill: #1b9e77; stroke: #1b9e77"/>
     <use xlink:href="#m177630f5ff" x="184.443329" y="154.063033" style="fill: #1b9e77; stroke: #1b9e77"/>
     <use xlink:href="#m177630f5ff" x="281.170076" y="273.656253" style="fill: #1b9e77; stroke: #1b9e77"/>
    </g>
   </g>
   <g id="matplotlib.axis_1">
    <g id="xtick_1">
     <g id="line2d_1">
      <path d="M 184.443329 330.821812 
L 184.443329 20.357812 
" clip-path="url(#p8be730f4b9)" style="fill: none; stroke: #e5e7eb; stroke-width: 0.7; stroke-linecap: square"/>
     </g>
     <g id="line2d_2">
      <defs>
       <path id="mb44353c44e" d="M 0 0 
L 0 3.5 
" style="stroke: #000000; stroke-width: 0.8"/>
      </defs>
      <g>
       <use xlink:href="#mb44353c44e" x="184.443329" y="330.821812" style="stroke: #000000; stroke-width: 0.8"/>
      </g>
     </g>
     <g id="text_5">
      <text style="font: 8px 'Arial', 'Helvetica', 'DejaVu Sans', sans-serif; text-anchor: middle" x="184.443329" y="343.548062" transform="rotate(-0 184.443329 343.548062)">0.00</text>
     </g>
    </g>
    <g id="xtick_2">
     <g id="line2d_3">
      <path d="M 219.297302 330.821812 
L 219.297302 20.357812 
" clip-path="url(#p8be730f4b9)" style="fill: none; stroke: #e5e7eb; stroke-width: 0.7; stroke-linecap: square"/>
     </g>
     <g id="line2d_4">
      <g>
       <use xlink:href="#mb44353c44e" x="219.297302" y="330.821812" style="stroke: #000000; stroke-width: 0.8"/>
      </g>
     </g>
     <g id="text_6">
      <text style="font: 8px 'Arial', 'Helvetica', 'DejaVu Sans', sans-serif; text-anchor: middle" x="219.297302" y="343.548062" transform="rotate(-0 219.297302 343.548062)">0.25</text>
     </g>
    </g>
    <g id="xtick_3">
     <g id="line2d_5">
      <path d="M 254.151276 330.821812 
L 254.151276 20.357812 
" clip-path="url(#p8be730f4b9)" style="fill: none; stroke: #e5e7eb; stroke-width: 0.7; stroke-linecap: square"/>
     </g>
     <g id="line2d_6">
      <g>
       <use xlink:href="#mb44353c44e" x="254.151276" y="330.821812" style="stroke: #000000; stroke-width: 0.8"/>
      </g>
     </g>
     <g id="text_7">
      <text style="font: 8px 'Arial', 'Helvetica', 'DejaVu Sans', sans-serif; text-anchor: middle" x="254.151276" y="343.548062" transform="rotate(-0 254.151276 343.548062)">0.50</text>
     </g>
    </g>
    <g id="xtick_4">
     <g id="line2d_7">
      <path d="M 289.005249 330.821812 
L 289.005249 20.357812 
" clip-path="url(#p8be730f4b9)" style="fill: none; stroke: #e5e7eb; stroke-width: 0.7; stroke-linecap: square"/>
     </g>
     <g id="line2d_8">
      <g>
       <use xlink:href="#mb44353c44e" x="289.005249" y="330.821812" style="stroke: #000000; stroke-width: 0.8"/>
      </g>
     </g>
     <g id="text_8">
      <text style="font: 8px 'Arial', 'Helvetica', 'DejaVu Sans', sans-serif; text-anchor: middle" x="289.005249" y="343.548062" transform="rotate(-0 289.005249 343.548062)">0.75</text>
     </g>
    </g>
    <g id="xtick_5">
     <g id="line2d_9">
      <path d="M 323.859222 330.821812 
L 323.859222 20.357812 
" clip-path="url(#p8be730f4b9)" style="fill: none; stroke: #e5e7eb; stroke-width: 0.7; stroke-linecap: square"/>
     </g>
     <g id="line2d_10">
      <g>
       <use xlink:href="#mb44353c44e" x="323.859222" y="330.821812" style="stroke: #000000; stroke-width: 0.8"/>
      </g>
     </g>
     <g id="text_9">
      <text style="font: 8px 'Arial', 'Helvetica', 'DejaVu Sans', sans-serif; text-anchor: middle" x="323.859222" y="343.548062" transform="rotate(-0 323.859222 343.548062)">1.00</text>
     </g>
    </g>
    <g id="text_10">
     <text style="font: 8px 'Arial', 'Helvetica', 'DejaVu Sans', sans-serif; text-anchor: middle" x="255.545434" y="354.864312" transform="rotate(-0 255.545434 354.864312)">Internal test metric</text>
    </g>
   </g>
   <g id="matplotlib.axis_2">
    <g id="ytick_1">
     <g id="line2d_11">
      <defs>
       <path id="m8f4c41b670" d="M 0 0 
L -3.5 0 
" style="stroke: #000000; stroke-width: 0.8"/>
      </defs>
      <g>
       <use xlink:href="#m8f4c41b670" x="184.443329" y="55.996592" style="stroke: #000000; stroke-width: 0.8"/>
      </g>
     </g>
     <g id="text_11">
      <text style="font: 7.5px 'Arial', 'Helvetica', 'DejaVu Sans', sans-serif; text-anchor: end" x="177.443329" y="58.680772" transform="rotate(-0 177.443329 58.680772)">signal-embedding MLP</text>
     </g>
    </g>
    <g id="ytick_2">
     <g id="line2d_12">
      <g>
       <use xlink:href="#m8f4c41b670" x="184.443329" y="175.589812" style="stroke: #000000; stroke-width: 0.8"/>
      </g>
     </g>
     <g id="text_12">
      <text style="font: 7.5px 'Arial', 'Helvetica', 'DejaVu Sans', sans-serif; text-anchor: end" x="177.443329" y="178.273992" transform="rotate(-0 177.443329 178.273992)">reduced structured MLP</text>
     </g>
    </g>
    <g id="ytick_3">
     <g id="line2d_13">
      <g>
       <use xlink:href="#m8f4c41b670" x="184.443329" y="295.183033" style="stroke: #000000; stroke-width: 0.8"/>
      </g>
     </g>
     <g id="text_13">
      <text style="font: 7.5px 'Arial', 'Helvetica', 'DejaVu Sans', sans-serif; text-anchor: end" x="177.443329" y="297.867213" transform="rotate(-0 177.443329 297.867213)">reduced fair concat</text>
     </g>
    </g>
   </g>
   <g id="patch_6">
    <path d="M 184.443329 330.821812 
L 184.443329 20.357812 
" style="fill: none; stroke: #000000; stroke-width: 0.7; stroke-linejoin: miter; stroke-linecap: square"/>
   </g>
   <g id="patch_7">
    <path d="M 184.443329 330.821812 
L 326.64754 330.821812 
" style="fill: none; stroke: #000000; stroke-width: 0.7; stroke-linejoin: miter; stroke-linecap: square"/>
   </g>
   <g id="text_14">
    <text style="font: 700 11px 'Arial', 'Helvetica', 'DejaVu Sans', sans-serif; text-anchor: start" x="180.177203" y="15.812846" transform="rotate(-0 180.177203 15.812846)">B</text>
   </g>
   <g id="text_15">
    <text style="fill: #c75d5d; font: 7.5px 'Arial', 'Helvetica', 'DejaVu Sans', sans-serif" transform="translate(190.019965 344.896413)">Structured-only collapsed;</text>
    <text style="fill: #c75d5d; font: 7.5px 'Arial', 'Helvetica', 'DejaVu Sans', sans-serif" transform="translate(190.019965 353.026648)">fair concat did not preserve</text>
    <text style="fill: #c75d5d; font: 7.5px 'Arial', 'Helvetica', 'DejaVu Sans', sans-serif" transform="translate(190.019965 360.959304)">stable multimodal gain.</text>
   </g>
   <g id="text_16">
    <text style="font: 700 10px 'Arial', 'Helvetica', 'DejaVu Sans', sans-serif; text-anchor: start" x="184.443329" y="14.357812" transform="rotate(-0 184.443329 14.357812)">Reduced-schema internal test</text>
   </g>
   <g id="legend_1">
    <g id="PathCollection_4">
     <g>
      <use xlink:href="#mf008efc8ec" x="197.743329" y="29.830781" style="fill: #3b73b9; stroke: #3b73b9"/>
     </g>
    </g>
    <g id="text_17">
     <text style="font: 7px 'Arial', 'Helvetica', 'DejaVu Sans', sans-serif; text-anchor: start" x="210.343329" y="31.668281" transform="rotate(-0 210.343329 31.668281)">AUROC</text>
    </g>
    <g id="PathCollection_5">
     <g>
      <use xlink:href="#mf244a94743" x="197.743329" y="39.7325" style="fill: #e69f00; stroke: #e69f00"/>
     </g>
    </g>
    <g id="text_18">
     <text style="font: 7px 'Arial', 'Helvetica', 'DejaVu Sans', sans-serif; text-anchor: start" x="210.343329" y="41.57" transform="rotate(-0 210.343329 41.57)">AP</text>
    </g>
    <g id="PathCollection_6">
     <g>
      <use xlink:href="#m177630f5ff" x="197.743329" y="49.634219" style="fill: #1b9e77; stroke: #1b9e77"/>
     </g>
    </g>
    <g id="text_19">
     <text style="font: 7px 'Arial', 'Helvetica', 'DejaVu Sans', sans-serif; text-anchor: start" x="210.343329" y="51.471719" transform="rotate(-0 210.343329 51.471719)">F1</text>
    </g>
   </g>
  </g>
  <g id="axes_3">
   <g id="patch_8">
    <path d="M 386.714599 330.821812 
L 511.854305 330.821812 
L 511.854305 20.357812 
L 386.714599 20.357812 
z
" style="fill: #ffffff"/>
   </g>
   <g id="patch_9">
    <path d="M -24516.086872 102.891631 
L 419.330913 102.891631 
L 419.330913 34.469812 
L -24516.086872 34.469812 
z
" clip-path="url(#p521f14c9e8)" style="fill: #c75d5d"/>
   </g>
   <g id="patch_10">
    <path d="M -24516.086872 316.709812 
L 402.818895 316.709812 
L 402.818895 248.287994 
L -24516.086872 248.287994 
z
" clip-path="url(#p521f14c9e8)" style="fill: #c75d5d"/>
   </g>
   <g id="matplotlib.axis_3">
    <g id="xtick_6">
     <g id="line2d_14">
      <path d="M 386.714599 330.821812 
L 386.714599 20.357812 
" clip-path="url(#p521f14c9e8)" style="fill: none; stroke: #e5e7eb; stroke-width: 0.7; stroke-linecap: square"/>
     </g>
     <g id="line2d_15">
      <g>
       <use xlink:href="#mb44353c44e" x="386.714599" y="330.821812" style="stroke: #000000; stroke-width: 0.8"/>
      </g>
     </g>
     <g id="text_20">
      <!-- $\mathdefault{10^{-5}}$ -->
      <g transform="translate(378.794599 345.991812)">
       <text>
        <tspan style="font: 8px 'Arial'" x="0 4.449219" y="-0.46512500000000045">10</tspan>
        <tspan style="font: 5.6px 'Arial'" x="9.037825 12.308137" y="-6.040625">−5</tspan>
       </text>
      </g>
     </g>
    </g>
    <g id="xtick_7">
     <g id="line2d_16">
      <path d="M 436.770481 330.821812 
L 436.770481 20.357812 
" clip-path="url(#p521f14c9e8)" style="fill: none; stroke: #e5e7eb; stroke-width: 0.7; stroke-linecap: square"/>
     </g>
     <g id="line2d_17">
      <g>
       <use xlink:href="#mb44353c44e" x="436.770481" y="330.821812" style="stroke: #000000; stroke-width: 0.8"/>
      </g>
     </g>
     <g id="text_21">
      <!-- $\mathdefault{10^{-3}}$ -->
      <g transform="translate(428.850481 346.071812)">
       <text>
        <tspan style="font: 8px 'Arial'" x="0 4.449219" y="-0.39949999999999974">10</tspan>
        <tspan style="font: 5.6px 'Arial'" x="9.037825 12.308137" y="-5.975">−3</tspan>
       </text>
      </g>
     </g>
    </g>
    <g id="xtick_8">
     <g id="line2d_18">
      <path d="M 486.826364 330.821812 
L 486.826364 20.357812 
" clip-path="url(#p521f14c9e8)" style="fill: none; stroke: #e5e7eb; stroke-width: 0.7; stroke-linecap: square"/>
     </g>
     <g id="line2d_19">
      <g>
       <use xlink:href="#mb44353c44e" x="486.826364" y="330.821812" style="stroke: #000000; stroke-width: 0.8"/>
      </g>
     </g>
     <g id="text_22">
      <!-- $\mathdefault{10^{-1}}$ -->
      <g transform="translate(478.906364 346.071812)">
       <text>
        <tspan style="font: 8px 'Arial'" x="0 4.449219" y="-0.39949999999999974">10</tspan>
        <tspan style="font: 5.6px 'Arial'" x="9.037825 12.308137" y="-5.975">−1</tspan>
       </text>
      </g>
     </g>
    </g>
    <g id="text_23">
     <text style="font: 8px 'Arial', 'Helvetica', 'DejaVu Sans', sans-serif" transform="translate(397.925077 357.388062)">Joinable structured coverage</text>
     <text style="font: 8px 'Arial', 'Helvetica', 'DejaVu Sans', sans-serif" transform="translate(430.834452 366.060312)">(log scale)</text>
    </g>
   </g>
   <g id="matplotlib.axis_4">
    <g id="ytick_4">
     <g id="line2d_20">
      <g>
       <use xlink:href="#m8f4c41b670" x="386.714599" y="68.680722" style="stroke: #000000; stroke-width: 0.8"/>
      </g>
     </g>
     <g id="text_24">
      <text style="font: 8px 'Arial', 'Helvetica', 'DejaVu Sans', sans-serif; text-anchor: end" x="379.714599" y="71.543847" transform="rotate(-0 379.714599 71.543847)">CPSC2018</text>
     </g>
    </g>
    <g id="ytick_5">
     <g id="line2d_21">
      <g>
       <use xlink:href="#m8f4c41b670" x="386.714599" y="282.498903" style="stroke: #000000; stroke-width: 0.8"/>
      </g>
     </g>
     <g id="text_25">
      <text style="font: 8px 'Arial', 'Helvetica', 'DejaVu Sans', sans-serif; text-anchor: end" x="379.714599" y="285.410778" transform="rotate(-0 379.714599 285.410778)">Chapman-Shaoxing</text>
     </g>
    </g>
   </g>
   <g id="patch_11">
    <path d="M 386.714599 330.821812 
L 386.714599 20.357812 
" style="fill: none; stroke: #000000; stroke-width: 0.7; stroke-linejoin: miter; stroke-linecap: square"/>
   </g>
   <g id="patch_12">
    <path d="M 386.714599 330.821812 
L 511.854305 330.821812 
" style="fill: none; stroke: #000000; stroke-width: 0.7; stroke-linejoin: miter; stroke-linecap: square"/>
   </g>
   <g id="text_26">
    <text style="font: 700 11px 'Arial', 'Helvetica', 'DejaVu Sans', sans-serif; text-anchor: start" x="382.960408" y="15.812846" transform="rotate(-0 382.960408 15.812846)">C</text>
   </g>
   <g id="text_27">
    <text style="font: 7.5px 'Arial', 'Helvetica', 'DejaVu Sans', sans-serif; text-anchor: start" x="422.988197" y="70.619589" transform="rotate(-0 422.988197 70.619589)">2/9,944</text>
   </g>
   <g id="text_28">
    <text style="font: 7.5px 'Arial', 'Helvetica', 'DejaVu Sans', sans-serif; text-anchor: start" x="406.476179" y="284.437771" transform="rotate(-0 406.476179 284.437771)">2/45,150</text>
   </g>
   <g id="text_29">
    <text style="font: 700 10px 'Arial', 'Helvetica', 'DejaVu Sans', sans-serif; text-anchor: start" x="386.714599" y="14.357812" transform="rotate(-0 386.714599 14.357812)">External coverage</text>
   </g>
  </g>
  <g id="axes_4">
   <g id="patch_13">
    <path d="M 580.880229 175.589812 
L 682.414036 175.589812 
Q 686.59484 175.589812 686.59484 164.723572 
L 686.59484 99.526132 
Q 686.59484 88.659892 682.414036 88.659892 
L 580.880229 88.659892 
Q 576.699425 88.659892 576.699425 99.526132 
L 576.699425 164.723572 
Q 576.699425 175.589812 580.880229 175.589812 
z
" clip-path="url(#pee280805f4)" style="fill: #f7dddd; stroke: #c75d5d; stroke-linejoin: miter"/>
   </g>
   <g id="patch_14">
    <path d="M 580.880229 259.415092 
L 682.414036 259.415092 
Q 686.59484 259.415092 686.59484 248.548852 
L 686.59484 201.979252 
Q 686.59484 191.113012 682.414036 191.113012 
L 580.880229 191.113012 
Q 576.699425 191.113012 576.699425 201.979252 
L 576.699425 248.548852 
Q 576.699425 259.415092 580.880229 259.415092 
z
" clip-path="url(#pee280805f4)" style="fill: #f3f4f6; stroke: #6b7280; stroke-linejoin: miter"/>
   </g>
   <g id="text_30">
    <text style="font: 700 11px 'Arial', 'Helvetica', 'DejaVu Sans', sans-serif; text-anchor: start" x="568.337818" y="15.812846" transform="rotate(-0 568.337818 15.812846)">D</text>
   </g>
   <g id="text_31">
    <text style="fill: #202124; font: 10px 'Arial', 'Helvetica', 'DejaVu Sans', sans-serif" transform="translate(587.743226 129.600517)">External multimodal</text>
    <text style="fill: #202124; font: 10px 'Arial', 'Helvetica', 'DejaVu Sans', sans-serif" transform="translate(590.80182 139.819501)">validation: NO-GO</text>
   </g>
   <g id="text_32">
    <text style="fill: #202124; font: 8px 'Arial', 'Helvetica', 'DejaVu Sans', sans-serif" transform="translate(581.470257 223.141646)">Reason: insufficient external</text>
    <text style="fill: #202124; font: 8px 'Arial', 'Helvetica', 'DejaVu Sans', sans-serif" transform="translate(589.184632 231.428959)">coverage/fidelity checks</text>
   </g>
   <g id="text_33">
    <text style="fill: #6b7280; font: 7.6px 'Arial', 'Helvetica', 'DejaVu Sans', sans-serif" transform="translate(581.477487 297.857205)">Reproducibility/feasibility finding,</text>
    <text style="fill: #6b7280; font: 7.6px 'Arial', 'Helvetica', 'DejaVu Sans', sans-serif" transform="translate(581.477487 305.984692)">not a failed external multimodal model.</text>
   </g>
   <g id="text_34">
    <text style="font: 700 10px 'Arial', 'Helvetica', 'DejaVu Sans', sans-serif; text-anchor: start" x="571.921364" y="14.357812" transform="rotate(-0 571.921364 14.357812)">Audit decision</text>
   </g>
  </g>
 </g>
 <defs>
  <clipPath id="pe93dac6dd9">
   <rect x="10.612901" y="20.357812" width="113.763369" height="310.464"/>
  </clipPath>
  <clipPath id="p8be730f4b9">
   <rect x="184.443329" y="20.357812" width="142.204211" height="310.464"/>
  </clipPath>
  <clipPath id="p521f14c9e8">
   <rect x="386.714599" y="20.357812" width="125.139706" height="310.464"/>
  </clipPath>
  <clipPath id="pee280805f4">
   <rect x="571.921364" y="20.357812" width="119.451537" height="310.464"/>
  </clipPath>
 </defs>
</svg>
