<?xml version="1.0" encoding="utf-8" standalone="no"?>
<!DOCTYPE svg PUBLIC "-//W3C//DTD SVG 1.1//EN"
  "http://www.w3.org/Graphics/SVG/1.1/DTD/svg11.dtd">
<svg xmlns:xlink="http://www.w3.org/1999/xlink" width="504pt" height="360pt" viewBox="0 0 504 360" xmlns="http://www.w3.org/2000/svg" version="1.1">
 <metadata>
  <rdf:RDF xmlns:dc="http://purl.org/dc/elements/1.1/" xmlns:cc="http://creativecommons.org/ns#" xmlns:rdf="http://www.w3.org/1999/02/22-rdf-syntax-ns#">
   <cc:Work>
    <dc:type rdf:resource="http://purl.org/dc/dcmitype/StillImage"/>
    <dc:date>2026-06-29T01:32:08.473482</dc:date>
    <dc:format>image/svg+xml</dc:format>
    <dc:creator>
     <cc:Agent>
      <dc:title>Matplotlib v3.9.4, https://matplotlib.org/</dc:title>
     </cc:Agent>
    </dc:creator>
   </cc:Work>
  </rdf:RDF>
 </metadata>
 <defs>
  <style type="text/css">*{stroke-linejoin: round; stroke-linecap: butt}</style>
 </defs>
 <g id="figure_1">
  <g id="patch_1">
   <path d="M 0 360 
L 504 360 
L 504 0 
L 0 0 
z
" style="fill: #ffffff"/>
  </g>
  <g id="axes_1">
   <g id="patch_2">
    <path d="M 56.18 318.04 
L 493.2 318.04 
L 493.2 26.16 
L 56.18 26.16 
z
" style="fill: #ffffff"/>
   </g>
   <g id="matplotlib.axis_1">
    <g id="xtick_1">
     <g id="line2d_1">
      <defs>
       <path id="m1490483490" d="M 0 0 
L 0 3.5 
" style="stroke: #000000; stroke-width: 0.8"/>
      </defs>
      <g>
       <use xlink:href="#m1490483490" x="76.044545" y="318.04" style="stroke: #000000; stroke-width: 0.8"/>
      </g>
     </g>
     <g id="text_1">
      <!-- 0.05 -->
      <g transform="translate(64.911733 332.638438) scale(0.1 -0.1)">
       <defs>
        <path id="DejaVuSans-30" d="M 2034 4250 
Q 1547 4250 1301 3770 
Q 1056 3291 1056 2328 
Q 1056 1369 1301 889 
Q 1547 409 2034 409 
Q 2525 409 2770 889 
Q 3016 1369 3016 2328 
Q 3016 3291 2770 3770 
Q 2525 4250 2034 4250 
z
M 2034 4750 
Q 2819 4750 3233 4129 
Q 3647 3509 3647 2328 
Q 3647 1150 3233 529 
Q 2819 -91 2034 -91 
Q 1250 -91 836 529 
Q 422 1150 422 2328 
Q 422 3509 836 4129 
Q 1250 4750 2034 4750 
z
" transform="scale(0.015625)"/>
        <path id="DejaVuSans-2e" d="M 684 794 
L 1344 794 
L 1344 0 
L 684 0 
L 684 794 
z
" transform="scale(0.015625)"/>
        <path id="DejaVuSans-35" d="M 691 4666 
L 3169 4666 
L 3169 4134 
L 1269 4134 
L 1269 2991 
Q 1406 3038 1543 3061 
Q 1681 3084 1819 3084 
Q 2600 3084 3056 2656 
Q 3513 2228 3513 1497 
Q 3513 744 3044 326 
Q 2575 -91 1722 -91 
Q 1428 -91 1123 -41 
Q 819 9 494 109 
L 494 744 
Q 775 591 1075 516 
Q 1375 441 1709 441 
Q 2250 441 2565 725 
Q 2881 1009 2881 1497 
Q 2881 1984 2565 2268 
Q 2250 2553 1709 2553 
Q 1456 2553 1204 2497 
Q 953 2441 691 2322 
L 691 4666 
z
" transform="scale(0.015625)"/>
       </defs>
       <use xlink:href="#DejaVuSans-30"/>
       <use xlink:href="#DejaVuSans-2e" x="63.623047"/>
       <use xlink:href="#DejaVuSans-30" x="95.410156"/>
       <use xlink:href="#DejaVuSans-35" x="159.033203"/>
      </g>
     </g>
    </g>
    <g id="xtick_2">
     <g id="line2d_2">
      <g>
       <use xlink:href="#m1490483490" x="132.80039" y="318.04" style="stroke: #000000; stroke-width: 0.8"/>
      </g>
     </g>
     <g id="text_2">
      <!-- 0.10 -->
      <g transform="translate(121.667577 332.638438) scale(0.1 -0.1)">
       <defs>
        <path id="DejaVuSans-31" d="M 794 531 
L 1825 531 
L 1825 4091 
L 703 3866 
L 703 4441 
L 1819 4666 
L 2450 4666 
L 2450 531 
L 3481 531 
L 3481 0 
L 794 0 
L 794 531 
z
" transform="scale(0.015625)"/>
       </defs>
       <use xlink:href="#DejaVuSans-30"/>
       <use xlink:href="#DejaVuSans-2e" x="63.623047"/>
       <use xlink:href="#DejaVuSans-31" x="95.410156"/>
       <use xlink:href="#DejaVuSans-30" x="159.033203"/>
      </g>
     </g>
    </g>
    <g id="xtick_3">
     <g id="line2d_3">
      <g>
       <use xlink:href="#m1490483490" x="189.556234" y="318.04" style="stroke: #000000; stroke-width: 0.8"/>
      </g>
     </g>
     <g id="text_3">
      <!-- 0.15 -->
      <g transform="translate(178.423421 332.638438) scale(0.1 -0.1)">
       <use xlink:href="#DejaVuSans-30"/>
       <use xlink:href="#DejaVuSans-2e" x="63.623047"/>
       <use xlink:href="#DejaVuSans-31" x="95.410156"/>
       <use xlink:href="#DejaVuSans-35" x="159.033203"/>
      </g>
     </g>
    </g>
    <g id="xtick_4">
     <g id="line2d_4">
      <g>
       <use xlink:href="#m1490483490" x="246.312078" y="318.04" style="stroke: #000000; stroke-width: 0.8"/>
      </g>
     </g>
     <g id="text_4">
      <!-- 0.20 -->
      <g transform="translate(235.179265 332.638438) scale(0.1 -0.1)">
       <defs>
        <path id="DejaVuSans-32" d="M 1228 531 
L 3431 531 
L 3431 0 
L 469 0 
L 469 531 
Q 828 903 1448 1529 
Q 2069 2156 2228 2338 
Q 2531 2678 2651 2914 
Q 2772 3150 2772 3378 
Q 2772 3750 2511 3984 
Q 2250 4219 1831 4219 
Q 1534 4219 1204 4116 
Q 875 4013 500 3803 
L 500 4441 
Q 881 4594 1212 4672 
Q 1544 4750 1819 4750 
Q 2544 4750 2975 4387 
Q 3406 4025 3406 3419 
Q 3406 3131 3298 2873 
Q 3191 2616 2906 2266 
Q 2828 2175 2409 1742 
Q 1991 1309 1228 531 
z
" transform="scale(0.015625)"/>
       </defs>
       <use xlink:href="#DejaVuSans-30"/>
       <use xlink:href="#DejaVuSans-2e" x="63.623047"/>
       <use xlink:href="#DejaVuSans-32" x="95.410156"/>
       <use xlink:href="#DejaVuSans-30" x="159.033203"/>
      </g>
     </g>
    </g>
    <g id="xtick_5">
     <g id="line2d_5">
      <g>
       <use xlink:href="#m1490483490" x="303.067922" y="318.04" style="stroke: #000000; stroke-width: 0.8"/>
      </g>
     </g>
     <g id="text_5">
      <!-- 0.25 -->
      <g transform="translate(291.93511 332.638438) scale(0.1 -0.1)">
       <use xlink:href="#DejaVuSans-30"/>
       <use xlink:href="#DejaVuSans-2e" x="63.623047"/>
       <use xlink:href="#DejaVuSans-32" x="95.410156"/>
       <use xlink:href="#DejaVuSans-35" x="159.033203"/>
      </g>
     </g>
    </g>
    <g id="xtick_6">
     <g id="line2d_6">
      <g>
       <use xlink:href="#m1490483490" x="359.823766" y="318.04" style="stroke: #000000; stroke-width: 0.8"/>
      </g>
     </g>
     <g id="text_6">
      <!-- 0.30 -->
      <g transform="translate(348.690954 332.638438) scale(0.1 -0.1)">
       <defs>
        <path id="DejaVuSans-33" d="M 2597 2516 
Q 3050 2419 3304 2112 
Q 3559 1806 3559 1356 
Q 3559 666 3084 287 
Q 2609 -91 1734 -91 
Q 1441 -91 1130 -33 
Q 819 25 488 141 
L 488 750 
Q 750 597 1062 519 
Q 1375 441 1716 441 
Q 2309 441 2620 675 
Q 2931 909 2931 1356 
Q 2931 1769 2642 2001 
Q 2353 2234 1838 2234 
L 1294 2234 
L 1294 2753 
L 1863 2753 
Q 2328 2753 2575 2939 
Q 2822 3125 2822 3475 
Q 2822 3834 2567 4026 
Q 2313 4219 1838 4219 
Q 1578 4219 1281 4162 
Q 984 4106 628 3988 
L 628 4550 
Q 988 4650 1302 4700 
Q 1616 4750 1894 4750 
Q 2613 4750 3031 4423 
Q 3450 4097 3450 3541 
Q 3450 3153 3228 2886 
Q 3006 2619 2597 2516 
z
" transform="scale(0.015625)"/>
       </defs>
       <use xlink:href="#DejaVuSans-30"/>
       <use xlink:href="#DejaVuSans-2e" x="63.623047"/>
       <use xlink:href="#DejaVuSans-33" x="95.410156"/>
       <use xlink:href="#DejaVuSans-30" x="159.033203"/>
      </g>
     </g>
    </g>
    <g id="xtick_7">
     <g id="line2d_7">
      <g>
       <use xlink:href="#m1490483490" x="416.57961" y="318.04" style="stroke: #000000; stroke-width: 0.8"/>
      </g>
     </g>
     <g id="text_7">
      <!-- 0.35 -->
      <g transform="translate(405.446798 332.638438) scale(0.1 -0.1)">
       <use xlink:href="#DejaVuSans-30"/>
       <use xlink:href="#DejaVuSans-2e" x="63.623047"/>
       <use xlink:href="#DejaVuSans-33" x="95.410156"/>
       <use xlink:href="#DejaVuSans-35" x="159.033203"/>
      </g>
     </g>
    </g>
    <g id="xtick_8">
     <g id="line2d_8">
      <g>
       <use xlink:href="#m1490483490" x="473.335455" y="318.04" style="stroke: #000000; stroke-width: 0.8"/>
      </g>
     </g>
     <g id="text_8">
      <!-- 0.40 -->
      <g transform="translate(462.202642 332.638438) scale(0.1 -0.1)">
       <defs>
        <path id="DejaVuSans-34" d="M 2419 4116 
L 825 1625 
L 2419 1625 
L 2419 4116 
z
M 2253 4666 
L 3047 4666 
L 3047 1625 
L 3713 1625 
L 3713 1100 
L 3047 1100 
L 3047 0 
L 2419 0 
L 2419 1100 
L 313 1100 
L 313 1709 
L 2253 4666 
z
" transform="scale(0.015625)"/>
       </defs>
       <use xlink:href="#DejaVuSans-30"/>
       <use xlink:href="#DejaVuSans-2e" x="63.623047"/>
       <use xlink:href="#DejaVuSans-34" x="95.410156"/>
       <use xlink:href="#DejaVuSans-30" x="159.033203"/>
      </g>
     </g>
    </g>
    <g id="text_9">
     <!-- Threshold probability -->
     <g transform="translate(221.786875 346.316563) scale(0.1 -0.1)">
      <defs>
       <path id="DejaVuSans-54" d="M -19 4666 
L 3928 4666 
L 3928 4134 
L 2272 4134 
L 2272 0 
L 1638 0 
L 1638 4134 
L -19 4134 
L -19 4666 
z
" transform="scale(0.015625)"/>
       <path id="DejaVuSans-68" d="M 3513 2113 
L 3513 0 
L 2938 0 
L 2938 2094 
Q 2938 2591 2744 2837 
Q 2550 3084 2163 3084 
Q 1697 3084 1428 2787 
Q 1159 2491 1159 1978 
L 1159 0 
L 581 0 
L 581 4863 
L 1159 4863 
L 1159 2956 
Q 1366 3272 1645 3428 
Q 1925 3584 2291 3584 
Q 2894 3584 3203 3211 
Q 3513 2838 3513 2113 
z
" transform="scale(0.015625)"/>
       <path id="DejaVuSans-72" d="M 2631 2963 
Q 2534 3019 2420 3045 
Q 2306 3072 2169 3072 
Q 1681 3072 1420 2755 
Q 1159 2438 1159 1844 
L 1159 0 
L 581 0 
L 581 3500 
L 1159 3500 
L 1159 2956 
Q 1341 3275 1631 3429 
Q 1922 3584 2338 3584 
Q 2397 3584 2469 3576 
Q 2541 3569 2628 3553 
L 2631 2963 
z
" transform="scale(0.015625)"/>
       <path id="DejaVuSans-65" d="M 3597 1894 
L 3597 1613 
L 953 1613 
Q 991 1019 1311 708 
Q 1631 397 2203 397 
Q 2534 397 2845 478 
Q 3156 559 3463 722 
L 3463 178 
Q 3153 47 2828 -22 
Q 2503 -91 2169 -91 
Q 1331 -91 842 396 
Q 353 884 353 1716 
Q 353 2575 817 3079 
Q 1281 3584 2069 3584 
Q 2775 3584 3186 3129 
Q 3597 2675 3597 1894 
z
M 3022 2063 
Q 3016 2534 2758 2815 
Q 2500 3097 2075 3097 
Q 1594 3097 1305 2825 
Q 1016 2553 972 2059 
L 3022 2063 
z
" transform="scale(0.015625)"/>
       <path id="DejaVuSans-73" d="M 2834 3397 
L 2834 2853 
Q 2591 2978 2328 3040 
Q 2066 3103 1784 3103 
Q 1356 3103 1142 2972 
Q 928 2841 928 2578 
Q 928 2378 1081 2264 
Q 1234 2150 1697 2047 
L 1894 2003 
Q 2506 1872 2764 1633 
Q 3022 1394 3022 966 
Q 3022 478 2636 193 
Q 2250 -91 1575 -91 
Q 1294 -91 989 -36 
Q 684 19 347 128 
L 347 722 
Q 666 556 975 473 
Q 1284 391 1588 391 
Q 1994 391 2212 530 
Q 2431 669 2431 922 
Q 2431 1156 2273 1281 
Q 2116 1406 1581 1522 
L 1381 1569 
Q 847 1681 609 1914 
Q 372 2147 372 2553 
Q 372 3047 722 3315 
Q 1072 3584 1716 3584 
Q 2034 3584 2315 3537 
Q 2597 3491 2834 3397 
z
" transform="scale(0.015625)"/>
       <path id="DejaVuSans-6f" d="M 1959 3097 
Q 1497 3097 1228 2736 
Q 959 2375 959 1747 
Q 959 1119 1226 758 
Q 1494 397 1959 397 
Q 2419 397 2687 759 
Q 2956 1122 2956 1747 
Q 2956 2369 2687 2733 
Q 2419 3097 1959 3097 
z
M 1959 3584 
Q 2709 3584 3137 3096 
Q 3566 2609 3566 1747 
Q 3566 888 3137 398 
Q 2709 -91 1959 -91 
Q 1206 -91 779 398 
Q 353 888 353 1747 
Q 353 2609 779 3096 
Q 1206 3584 1959 3584 
z
" transform="scale(0.015625)"/>
       <path id="DejaVuSans-6c" d="M 603 4863 
L 1178 4863 
L 1178 0 
L 603 0 
L 603 4863 
z
" transform="scale(0.015625)"/>
       <path id="DejaVuSans-64" d="M 2906 2969 
L 2906 4863 
L 3481 4863 
L 3481 0 
L 2906 0 
L 2906 525 
Q 2725 213 2448 61 
Q 2172 -91 1784 -91 
Q 1150 -91 751 415 
Q 353 922 353 1747 
Q 353 2572 751 3078 
Q 1150 3584 1784 3584 
Q 2172 3584 2448 3432 
Q 2725 3281 2906 2969 
z
M 947 1747 
Q 947 1113 1208 752 
Q 1469 391 1925 391 
Q 2381 391 2643 752 
Q 2906 1113 2906 1747 
Q 2906 2381 2643 2742 
Q 2381 3103 1925 3103 
Q 1469 3103 1208 2742 
Q 947 2381 947 1747 
z
" transform="scale(0.015625)"/>
       <path id="DejaVuSans-20" transform="scale(0.015625)"/>
       <path id="DejaVuSans-70" d="M 1159 525 
L 1159 -1331 
L 581 -1331 
L 581 3500 
L 1159 3500 
L 1159 2969 
Q 1341 3281 1617 3432 
Q 1894 3584 2278 3584 
Q 2916 3584 3314 3078 
Q 3713 2572 3713 1747 
Q 3713 922 3314 415 
Q 2916 -91 2278 -91 
Q 1894 -91 1617 61 
Q 1341 213 1159 525 
z
M 3116 1747 
Q 3116 2381 2855 2742 
Q 2594 3103 2138 3103 
Q 1681 3103 1420 2742 
Q 1159 2381 1159 1747 
Q 1159 1113 1420 752 
Q 1681 391 2138 391 
Q 2594 391 2855 752 
Q 3116 1113 3116 1747 
z
" transform="scale(0.015625)"/>
       <path id="DejaVuSans-62" d="M 3116 1747 
Q 3116 2381 2855 2742 
Q 2594 3103 2138 3103 
Q 1681 3103 1420 2742 
Q 1159 2381 1159 1747 
Q 1159 1113 1420 752 
Q 1681 391 2138 391 
Q 2594 391 2855 752 
Q 3116 1113 3116 1747 
z
M 1159 2969 
Q 1341 3281 1617 3432 
Q 1894 3584 2278 3584 
Q 2916 3584 3314 3078 
Q 3713 2572 3713 1747 
Q 3713 922 3314 415 
Q 2916 -91 2278 -91 
Q 1894 -91 1617 61 
Q 1341 213 1159 525 
L 1159 0 
L 581 0 
L 581 4863 
L 1159 4863 
L 1159 2969 
z
" transform="scale(0.015625)"/>
       <path id="DejaVuSans-61" d="M 2194 1759 
Q 1497 1759 1228 1600 
Q 959 1441 959 1056 
Q 959 750 1161 570 
Q 1363 391 1709 391 
Q 2188 391 2477 730 
Q 2766 1069 2766 1631 
L 2766 1759 
L 2194 1759 
z
M 3341 1997 
L 3341 0 
L 2766 0 
L 2766 531 
Q 2569 213 2275 61 
Q 1981 -91 1556 -91 
Q 1019 -91 701 211 
Q 384 513 384 1019 
Q 384 1609 779 1909 
Q 1175 2209 1959 2209 
L 2766 2209 
L 2766 2266 
Q 2766 2663 2505 2880 
Q 2244 3097 1772 3097 
Q 1472 3097 1187 3025 
Q 903 2953 641 2809 
L 641 3341 
Q 956 3463 1253 3523 
Q 1550 3584 1831 3584 
Q 2591 3584 2966 3190 
Q 3341 2797 3341 1997 
z
" transform="scale(0.015625)"/>
       <path id="DejaVuSans-69" d="M 603 3500 
L 1178 3500 
L 1178 0 
L 603 0 
L 603 3500 
z
M 603 4863 
L 1178 4863 
L 1178 4134 
L 603 4134 
L 603 4863 
z
" transform="scale(0.015625)"/>
       <path id="DejaVuSans-74" d="M 1172 4494 
L 1172 3500 
L 2356 3500 
L 2356 3053 
L 1172 3053 
L 1172 1153 
Q 1172 725 1289 603 
Q 1406 481 1766 481 
L 2356 481 
L 2356 0 
L 1766 0 
Q 1100 0 847 248 
Q 594 497 594 1153 
L 594 3053 
L 172 3053 
L 172 3500 
L 594 3500 
L 594 4494 
L 1172 4494 
z
" transform="scale(0.015625)"/>
       <path id="DejaVuSans-79" d="M 2059 -325 
Q 1816 -950 1584 -1140 
Q 1353 -1331 966 -1331 
L 506 -1331 
L 506 -850 
L 844 -850 
Q 1081 -850 1212 -737 
Q 1344 -625 1503 -206 
L 1606 56 
L 191 3500 
L 800 3500 
L 1894 763 
L 2988 3500 
L 3597 3500 
L 2059 -325 
z
" transform="scale(0.015625)"/>
      </defs>
      <use xlink:href="#DejaVuSans-54"/>
      <use xlink:href="#DejaVuSans-68" x="61.083984"/>
      <use xlink:href="#DejaVuSans-72" x="124.462891"/>
      <use xlink:href="#DejaVuSans-65" x="163.326172"/>
      <use xlink:href="#DejaVuSans-73" x="224.849609"/>
      <use xlink:href="#DejaVuSans-68" x="276.949219"/>
      <use xlink:href="#DejaVuSans-6f" x="340.328125"/>
      <use xlink:href="#DejaVuSans-6c" x="401.509766"/>
      <use xlink:href="#DejaVuSans-64" x="429.292969"/>
      <use xlink:href="#DejaVuSans-20" x="492.769531"/>
      <use xlink:href="#DejaVuSans-70" x="524.556641"/>
      <use xlink:href="#DejaVuSans-72" x="588.033203"/>
      <use xlink:href="#DejaVuSans-6f" x="626.896484"/>
      <use xlink:href="#DejaVuSans-62" x="688.078125"/>
      <use xlink:href="#DejaVuSans-61" x="751.554688"/>
      <use xlink:href="#DejaVuSans-62" x="812.833984"/>
      <use xlink:href="#DejaVuSans-69" x="876.310547"/>
      <use xlink:href="#DejaVuSans-6c" x="904.09375"/>
      <use xlink:href="#DejaVuSans-69" x="931.876953"/>
      <use xlink:href="#DejaVuSans-74" x="959.660156"/>
      <use xlink:href="#DejaVuSans-79" x="998.869141"/>
     </g>
    </g>
   </g>
   <g id="matplotlib.axis_2">
    <g id="ytick_1">
     <g id="line2d_9">
      <defs>
       <path id="m35c59c8541" d="M 0 0 
L -3.5 0 
" style="stroke: #000000; stroke-width: 0.8"/>
      </defs>
      <g>
       <use xlink:href="#m35c59c8541" x="56.18" y="280.520704" style="stroke: #000000; stroke-width: 0.8"/>
      </g>
     </g>
     <g id="text_10">
      <!-- −0.2 -->
      <g transform="translate(24.897188 284.319923) scale(0.1 -0.1)">
       <defs>
        <path id="DejaVuSans-2212" d="M 678 2272 
L 4684 2272 
L 4684 1741 
L 678 1741 
L 678 2272 
z
" transform="scale(0.015625)"/>
       </defs>
       <use xlink:href="#DejaVuSans-2212"/>
       <use xlink:href="#DejaVuSans-30" x="83.789062"/>
       <use xlink:href="#DejaVuSans-2e" x="147.412109"/>
       <use xlink:href="#DejaVuSans-32" x="179.199219"/>
      </g>
     </g>
    </g>
    <g id="ytick_2">
     <g id="line2d_10">
      <g>
       <use xlink:href="#m35c59c8541" x="56.18" y="224.44853" style="stroke: #000000; stroke-width: 0.8"/>
      </g>
     </g>
     <g id="text_11">
      <!-- −0.1 -->
      <g transform="translate(24.897188 228.247749) scale(0.1 -0.1)">
       <use xlink:href="#DejaVuSans-2212"/>
       <use xlink:href="#DejaVuSans-30" x="83.789062"/>
       <use xlink:href="#DejaVuSans-2e" x="147.412109"/>
       <use xlink:href="#DejaVuSans-31" x="179.199219"/>
      </g>
     </g>
    </g>
    <g id="ytick_3">
     <g id="line2d_11">
      <g>
       <use xlink:href="#m35c59c8541" x="56.18" y="168.376356" style="stroke: #000000; stroke-width: 0.8"/>
      </g>
     </g>
     <g id="text_12">
      <!-- 0.0 -->
      <g transform="translate(33.276875 172.175575) scale(0.1 -0.1)">
       <use xlink:href="#DejaVuSans-30"/>
       <use xlink:href="#DejaVuSans-2e" x="63.623047"/>
       <use xlink:href="#DejaVuSans-30" x="95.410156"/>
      </g>
     </g>
    </g>
    <g id="ytick_4">
     <g id="line2d_12">
      <g>
       <use xlink:href="#m35c59c8541" x="56.18" y="112.304182" style="stroke: #000000; stroke-width: 0.8"/>
      </g>
     </g>
     <g id="text_13">
      <!-- 0.1 -->
      <g transform="translate(33.276875 116.1034) scale(0.1 -0.1)">
       <use xlink:href="#DejaVuSans-30"/>
       <use xlink:href="#DejaVuSans-2e" x="63.623047"/>
       <use xlink:href="#DejaVuSans-31" x="95.410156"/>
      </g>
     </g>
    </g>
    <g id="ytick_5">
     <g id="line2d_13">
      <g>
       <use xlink:href="#m35c59c8541" x="56.18" y="56.232007" style="stroke: #000000; stroke-width: 0.8"/>
      </g>
     </g>
     <g id="text_14">
      <!-- 0.2 -->
      <g transform="translate(33.276875 60.031226) scale(0.1 -0.1)">
       <use xlink:href="#DejaVuSans-30"/>
       <use xlink:href="#DejaVuSans-2e" x="63.623047"/>
       <use xlink:href="#DejaVuSans-32" x="95.410156"/>
      </g>
     </g>
    </g>
    <g id="text_15">
     <!-- Macro net benefit -->
     <g transform="translate(18.8175 216.21875) rotate(-90) scale(0.1 -0.1)">
      <defs>
       <path id="DejaVuSans-4d" d="M 628 4666 
L 1569 4666 
L 2759 1491 
L 3956 4666 
L 4897 4666 
L 4897 0 
L 4281 0 
L 4281 4097 
L 3078 897 
L 2444 897 
L 1241 4097 
L 1241 0 
L 628 0 
L 628 4666 
z
" transform="scale(0.015625)"/>
       <path id="DejaVuSans-63" d="M 3122 3366 
L 3122 2828 
Q 2878 2963 2633 3030 
Q 2388 3097 2138 3097 
Q 1578 3097 1268 2742 
Q 959 2388 959 1747 
Q 959 1106 1268 751 
Q 1578 397 2138 397 
Q 2388 397 2633 464 
Q 2878 531 3122 666 
L 3122 134 
Q 2881 22 2623 -34 
Q 2366 -91 2075 -91 
Q 1284 -91 818 406 
Q 353 903 353 1747 
Q 353 2603 823 3093 
Q 1294 3584 2113 3584 
Q 2378 3584 2631 3529 
Q 2884 3475 3122 3366 
z
" transform="scale(0.015625)"/>
       <path id="DejaVuSans-6e" d="M 3513 2113 
L 3513 0 
L 2938 0 
L 2938 2094 
Q 2938 2591 2744 2837 
Q 2550 3084 2163 3084 
Q 1697 3084 1428 2787 
Q 1159 2491 1159 1978 
L 1159 0 
L 581 0 
L 581 3500 
L 1159 3500 
L 1159 2956 
Q 1366 3272 1645 3428 
Q 1925 3584 2291 3584 
Q 2894 3584 3203 3211 
Q 3513 2838 3513 2113 
z
" transform="scale(0.015625)"/>
       <path id="DejaVuSans-66" d="M 2375 4863 
L 2375 4384 
L 1825 4384 
Q 1516 4384 1395 4259 
Q 1275 4134 1275 3809 
L 1275 3500 
L 2222 3500 
L 2222 3053 
L 1275 3053 
L 1275 0 
L 697 0 
L 697 3053 
L 147 3053 
L 147 3500 
L 697 3500 
L 697 3744 
Q 697 4328 969 4595 
Q 1241 4863 1831 4863 
L 2375 4863 
z
" transform="scale(0.015625)"/>
      </defs>
      <use xlink:href="#DejaVuSans-4d"/>
      <use xlink:href="#DejaVuSans-61" x="86.279297"/>
      <use xlink:href="#DejaVuSans-63" x="147.558594"/>
      <use xlink:href="#DejaVuSans-72" x="202.539062"/>
      <use xlink:href="#DejaVuSans-6f" x="241.402344"/>
      <use xlink:href="#DejaVuSans-20" x="302.583984"/>
      <use xlink:href="#DejaVuSans-6e" x="334.371094"/>
      <use xlink:href="#DejaVuSans-65" x="397.75"/>
      <use xlink:href="#DejaVuSans-74" x="459.273438"/>
      <use xlink:href="#DejaVuSans-20" x="498.482422"/>
      <use xlink:href="#DejaVuSans-62" x="530.269531"/>
      <use xlink:href="#DejaVuSans-65" x="593.746094"/>
      <use xlink:href="#DejaVuSans-6e" x="655.269531"/>
      <use xlink:href="#DejaVuSans-65" x="718.648438"/>
      <use xlink:href="#DejaVuSans-66" x="780.171875"/>
      <use xlink:href="#DejaVuSans-69" x="815.376953"/>
      <use xlink:href="#DejaVuSans-74" x="843.160156"/>
     </g>
    </g>
   </g>
   <g id="line2d_14">
    <path d="M 76.044545 40.018043 
L 87.395714 41.985183 
L 98.746883 43.689598 
L 110.098052 45.457685 
L 121.449221 47.294907 
L 132.80039 48.867964 
L 144.151558 50.556628 
L 155.502727 51.913768 
L 166.853896 53.381278 
L 178.205065 55.032419 
L 189.556234 56.220002 
L 200.907403 57.663027 
L 212.258571 58.913995 
L 223.60974 60.037434 
L 234.960909 61.499777 
L 246.312078 63.119854 
L 257.663247 64.369548 
L 269.014416 64.807475 
L 280.365584 66.255994 
L 291.716753 67.625822 
L 303.067922 68.800202 
L 314.419091 69.789827 
L 325.77026 70.931672 
L 337.121429 72.065551 
L 348.472597 73.575584 
L 359.823766 74.563155 
L 371.174935 75.615584 
L 382.526104 76.844526 
L 393.877273 77.985267 
L 405.228442 79.220872 
L 416.57961 80.808472 
L 427.930779 81.968957 
L 439.281948 83.12174 
L 450.633117 83.977604 
L 461.984286 84.807998 
L 473.335455 85.552125 
" clip-path="url(#p1b897f2a66)" style="fill: none; stroke: #1f77b4; stroke-width: 1.8; stroke-linecap: square"/>
   </g>
   <g id="line2d_15">
    <path d="M 76.044545 40.152309 
L 87.395714 42.425919 
L 98.746883 44.729221 
L 110.098052 46.653353 
L 121.449221 48.604075 
L 132.80039 50.228526 
L 144.151558 51.702596 
L 155.502727 53.119721 
L 166.853896 55.20103 
L 178.205065 56.845447 
L 189.556234 57.936712 
L 200.907403 59.470632 
L 212.258571 60.72801 
L 223.60974 62.261207 
L 234.960909 63.288035 
L 246.312078 64.484668 
L 257.663247 65.749701 
L 269.014416 67.001381 
L 280.365584 68.387616 
L 291.716753 69.849267 
L 303.067922 71.2152 
L 314.419091 72.255387 
L 325.77026 73.398856 
L 337.121429 74.985091 
L 348.472597 75.964233 
L 359.823766 77.041322 
L 371.174935 77.92854 
L 382.526104 78.984411 
L 393.877273 79.74359 
L 405.228442 80.675746 
L 416.57961 81.715078 
L 427.930779 82.951113 
L 439.281948 83.743711 
L 450.633117 84.428564 
L 461.984286 86.127019 
L 473.335455 86.997723 
" clip-path="url(#p1b897f2a66)" style="fill: none; stroke: #ff7f0e; stroke-width: 1.8; stroke-linecap: square"/>
   </g>
   <g id="line2d_16">
    <path d="M 76.044545 39.427273 
L 87.395714 41.418523 
L 98.746883 43.173352 
L 110.098052 45.111629 
L 121.449221 46.660227 
L 132.80039 48.040289 
L 144.151558 49.328109 
L 155.502727 50.835368 
L 166.853896 52.169087 
L 178.205065 53.645357 
L 189.556234 54.938473 
L 200.907403 55.964754 
L 212.258571 57.640312 
L 223.60974 58.975946 
L 234.960909 60.231179 
L 246.312078 61.385137 
L 257.663247 62.632248 
L 269.014416 63.565962 
L 280.365584 64.704158 
L 291.716753 65.603775 
L 303.067922 66.453232 
L 314.419091 67.544899 
L 325.77026 68.450509 
L 337.121429 69.372772 
L 348.472597 70.440302 
L 359.823766 71.705974 
L 371.174935 72.438967 
L 382.526104 73.657209 
L 393.877273 74.865365 
L 405.228442 76.04365 
L 416.57961 76.934795 
L 427.930779 77.896836 
L 439.281948 79.444172 
L 450.633117 80.297502 
L 461.984286 81.310963 
L 473.335455 82.252762 
" clip-path="url(#p1b897f2a66)" style="fill: none; stroke: #2ca02c; stroke-width: 1.8; stroke-linecap: square"/>
   </g>
   <g id="line2d_17">
    <path d="M 76.044545 39.48635 
L 87.395714 41.33385 
L 98.746883 43.240832 
L 110.098052 44.976312 
L 121.449221 46.217858 
L 132.80039 47.943915 
L 144.151558 49.2318 
L 155.502727 50.18137 
L 166.853896 51.922192 
L 178.205065 53.227696 
L 189.556234 54.431263 
L 200.907403 55.449684 
L 212.258571 56.798157 
L 223.60974 58.084944 
L 234.960909 59.460823 
L 246.312078 60.619821 
L 257.663247 61.214636 
L 269.014416 61.888807 
L 280.365584 62.930347 
L 291.716753 64.223521 
L 303.067922 65.177705 
L 314.419091 66.687193 
L 325.77026 67.706161 
L 337.121429 68.630131 
L 348.472597 69.89991 
L 359.823766 70.845904 
L 371.174935 71.439249 
L 382.526104 72.405692 
L 393.877273 73.492365 
L 405.228442 74.717102 
L 416.57961 75.729912 
L 427.930779 76.790317 
L 439.281948 78.243962 
L 450.633117 79.31658 
L 461.984286 80.564047 
L 473.335455 81.674523 
" clip-path="url(#p1b897f2a66)" style="fill: none; stroke: #d62728; stroke-width: 1.8; stroke-linecap: square"/>
   </g>
   <g id="line2d_18">
    <path d="M 76.044545 47.939738 
L 87.395714 52.623623 
L 98.746883 57.408236 
L 110.098052 62.296862 
L 121.449221 67.29293 
L 132.80039 72.400023 
L 144.151558 77.621881 
L 155.502727 82.962419 
L 166.853896 88.425727 
L 178.205065 94.016088 
L 189.556234 99.737988 
L 200.907403 105.596124 
L 212.258571 111.595419 
L 223.60974 117.741038 
L 234.960909 124.038402 
L 246.312078 130.493199 
L 257.663247 137.111409 
L 269.014416 143.899317 
L 280.365584 150.863533 
L 291.716753 158.011019 
L 303.067922 165.349105 
L 314.419091 172.885517 
L 325.77026 180.628406 
L 337.121429 188.586375 
L 348.472597 196.768513 
L 359.823766 205.184425 
L 371.174935 213.844278 
L 382.526104 222.758832 
L 393.877273 231.939492 
L 405.228442 241.398353 
L 416.57961 251.148257 
L 427.930779 261.202845 
L 439.281948 271.576627 
L 450.633117 282.285046 
L 461.984286 293.344561 
L 473.335455 304.772727 
" clip-path="url(#p1b897f2a66)" style="fill: none; stroke-dasharray: 5.55,2.4; stroke-dashoffset: 0; stroke: #808080; stroke-width: 1.5"/>
   </g>
   <g id="line2d_19">
    <path d="M 56.18 168.376356 
L 493.2 168.376356 
" clip-path="url(#p1b897f2a66)" style="fill: none; stroke-dasharray: 1.5,2.475; stroke-dashoffset: 0; stroke: #000000; stroke-width: 1.5"/>
   </g>
   <g id="patch_3">
    <path d="M 56.18 318.04 
L 56.18 26.16 
" style="fill: none; stroke: #000000; stroke-width: 0.8; stroke-linejoin: miter; stroke-linecap: square"/>
   </g>
   <g id="patch_4">
    <path d="M 493.2 318.04 
L 493.2 26.16 
" style="fill: none; stroke: #000000; stroke-width: 0.8; stroke-linejoin: miter; stroke-linecap: square"/>
   </g>
   <g id="patch_5">
    <path d="M 56.18 318.04 
L 493.2 318.04 
" style="fill: none; stroke: #000000; stroke-width: 0.8; stroke-linejoin: miter; stroke-linecap: square"/>
   </g>
   <g id="patch_6">
    <path d="M 56.18 26.16 
L 493.2 26.16 
" style="fill: none; stroke: #000000; stroke-width: 0.8; stroke-linejoin: miter; stroke-linecap: square"/>
   </g>
   <g id="text_16">
    <!-- Internal PTB-XL decision curve analysis -->
    <g transform="translate(157.384375 20.16) scale(0.12 -0.12)">
     <defs>
      <path id="DejaVuSans-49" d="M 628 4666 
L 1259 4666 
L 1259 0 
L 628 0 
L 628 4666 
z
" transform="scale(0.015625)"/>
      <path id="DejaVuSans-50" d="M 1259 4147 
L 1259 2394 
L 2053 2394 
Q 2494 2394 2734 2622 
Q 2975 2850 2975 3272 
Q 2975 3691 2734 3919 
Q 2494 4147 2053 4147 
L 1259 4147 
z
M 628 4666 
L 2053 4666 
Q 2838 4666 3239 4311 
Q 3641 3956 3641 3272 
Q 3641 2581 3239 2228 
Q 2838 1875 2053 1875 
L 1259 1875 
L 1259 0 
L 628 0 
L 628 4666 
z
" transform="scale(0.015625)"/>
      <path id="DejaVuSans-42" d="M 1259 2228 
L 1259 519 
L 2272 519 
Q 2781 519 3026 730 
Q 3272 941 3272 1375 
Q 3272 1813 3026 2020 
Q 2781 2228 2272 2228 
L 1259 2228 
z
M 1259 4147 
L 1259 2741 
L 2194 2741 
Q 2656 2741 2882 2914 
Q 3109 3088 3109 3444 
Q 3109 3797 2882 3972 
Q 2656 4147 2194 4147 
L 1259 4147 
z
M 628 4666 
L 2241 4666 
Q 2963 4666 3353 4366 
Q 3744 4066 3744 3513 
Q 3744 3084 3544 2831 
Q 3344 2578 2956 2516 
Q 3422 2416 3680 2098 
Q 3938 1781 3938 1306 
Q 3938 681 3513 340 
Q 3088 0 2303 0 
L 628 0 
L 628 4666 
z
" transform="scale(0.015625)"/>
      <path id="DejaVuSans-2d" d="M 313 2009 
L 1997 2009 
L 1997 1497 
L 313 1497 
L 313 2009 
z
" transform="scale(0.015625)"/>
      <path id="DejaVuSans-58" d="M 403 4666 
L 1081 4666 
L 2241 2931 
L 3406 4666 
L 4084 4666 
L 2584 2425 
L 4184 0 
L 3506 0 
L 2194 1984 
L 872 0 
L 191 0 
L 1856 2491 
L 403 4666 
z
" transform="scale(0.015625)"/>
      <path id="DejaVuSans-4c" d="M 628 4666 
L 1259 4666 
L 1259 531 
L 3531 531 
L 3531 0 
L 628 0 
L 628 4666 
z
" transform="scale(0.015625)"/>
      <path id="DejaVuSans-75" d="M 544 1381 
L 544 3500 
L 1119 3500 
L 1119 1403 
Q 1119 906 1312 657 
Q 1506 409 1894 409 
Q 2359 409 2629 706 
Q 2900 1003 2900 1516 
L 2900 3500 
L 3475 3500 
L 3475 0 
L 2900 0 
L 2900 538 
Q 2691 219 2414 64 
Q 2138 -91 1772 -91 
Q 1169 -91 856 284 
Q 544 659 544 1381 
z
M 1991 3584 
L 1991 3584 
z
" transform="scale(0.015625)"/>
      <path id="DejaVuSans-76" d="M 191 3500 
L 800 3500 
L 1894 563 
L 2988 3500 
L 3597 3500 
L 2284 0 
L 1503 0 
L 191 3500 
z
" transform="scale(0.015625)"/>
     </defs>
     <use xlink:href="#DejaVuSans-49"/>
     <use xlink:href="#DejaVuSans-6e" x="29.492188"/>
     <use xlink:href="#DejaVuSans-74" x="92.871094"/>
     <use xlink:href="#DejaVuSans-65" x="132.080078"/>
     <use xlink:href="#DejaVuSans-72" x="193.603516"/>
     <use xlink:href="#DejaVuSans-6e" x="232.966797"/>
     <use xlink:href="#DejaVuSans-61" x="296.345703"/>
     <use xlink:href="#DejaVuSans-6c" x="357.625"/>
     <use xlink:href="#DejaVuSans-20" x="385.408203"/>
     <use xlink:href="#DejaVuSans-50" x="417.195312"/>
     <use xlink:href="#DejaVuSans-54" x="477.498047"/>
     <use xlink:href="#DejaVuSans-42" x="538.582031"/>
     <use xlink:href="#DejaVuSans-2d" x="607.185547"/>
     <use xlink:href="#DejaVuSans-58" x="638.269531"/>
     <use xlink:href="#DejaVuSans-4c" x="706.775391"/>
     <use xlink:href="#DejaVuSans-20" x="762.488281"/>
     <use xlink:href="#DejaVuSans-64" x="794.275391"/>
     <use xlink:href="#DejaVuSans-65" x="857.751953"/>
     <use xlink:href="#DejaVuSans-63" x="919.275391"/>
     <use xlink:href="#DejaVuSans-69" x="974.255859"/>
     <use xlink:href="#DejaVuSans-73" x="1002.039062"/>
     <use xlink:href="#DejaVuSans-69" x="1054.138672"/>
     <use xlink:href="#DejaVuSans-6f" x="1081.921875"/>
     <use xlink:href="#DejaVuSans-6e" x="1143.103516"/>
     <use xlink:href="#DejaVuSans-20" x="1206.482422"/>
     <use xlink:href="#DejaVuSans-63" x="1238.269531"/>
     <use xlink:href="#DejaVuSans-75" x="1293.25"/>
     <use xlink:href="#DejaVuSans-72" x="1356.628906"/>
     <use xlink:href="#DejaVuSans-76" x="1397.742188"/>
     <use xlink:href="#DejaVuSans-65" x="1456.921875"/>
     <use xlink:href="#DejaVuSans-20" x="1518.445312"/>
     <use xlink:href="#DejaVuSans-61" x="1550.232422"/>
     <use xlink:href="#DejaVuSans-6e" x="1611.511719"/>
     <use xlink:href="#DejaVuSans-61" x="1674.890625"/>
     <use xlink:href="#DejaVuSans-6c" x="1736.169922"/>
     <use xlink:href="#DejaVuSans-79" x="1763.953125"/>
     <use xlink:href="#DejaVuSans-73" x="1823.132812"/>
     <use xlink:href="#DejaVuSans-69" x="1875.232422"/>
     <use xlink:href="#DejaVuSans-73" x="1903.015625"/>
    </g>
   </g>
   <g id="legend_1">
    <g id="line2d_20">
     <path d="M 63.38 246.77375 
L 71.38 246.77375 
L 79.38 246.77375 
" style="fill: none; stroke: #1f77b4; stroke-width: 1.8; stroke-linecap: square"/>
    </g>
    <g id="text_17">
     <!-- strong_signal_only -->
     <g transform="translate(85.78 249.57375) scale(0.08 -0.08)">
      <defs>
       <path id="DejaVuSans-67" d="M 2906 1791 
Q 2906 2416 2648 2759 
Q 2391 3103 1925 3103 
Q 1463 3103 1205 2759 
Q 947 2416 947 1791 
Q 947 1169 1205 825 
Q 1463 481 1925 481 
Q 2391 481 2648 825 
Q 2906 1169 2906 1791 
z
M 3481 434 
Q 3481 -459 3084 -895 
Q 2688 -1331 1869 -1331 
Q 1566 -1331 1297 -1286 
Q 1028 -1241 775 -1147 
L 775 -588 
Q 1028 -725 1275 -790 
Q 1522 -856 1778 -856 
Q 2344 -856 2625 -561 
Q 2906 -266 2906 331 
L 2906 616 
Q 2728 306 2450 153 
Q 2172 0 1784 0 
Q 1141 0 747 490 
Q 353 981 353 1791 
Q 353 2603 747 3093 
Q 1141 3584 1784 3584 
Q 2172 3584 2450 3431 
Q 2728 3278 2906 2969 
L 2906 3500 
L 3481 3500 
L 3481 434 
z
" transform="scale(0.015625)"/>
       <path id="DejaVuSans-5f" d="M 3263 -1063 
L 3263 -1509 
L -63 -1509 
L -63 -1063 
L 3263 -1063 
z
" transform="scale(0.015625)"/>
      </defs>
      <use xlink:href="#DejaVuSans-73"/>
      <use xlink:href="#DejaVuSans-74" x="52.099609"/>
      <use xlink:href="#DejaVuSans-72" x="91.308594"/>
      <use xlink:href="#DejaVuSans-6f" x="130.171875"/>
      <use xlink:href="#DejaVuSans-6e" x="191.353516"/>
      <use xlink:href="#DejaVuSans-67" x="254.732422"/>
      <use xlink:href="#DejaVuSans-5f" x="318.208984"/>
      <use xlink:href="#DejaVuSans-73" x="368.208984"/>
      <use xlink:href="#DejaVuSans-69" x="420.308594"/>
      <use xlink:href="#DejaVuSans-67" x="448.091797"/>
      <use xlink:href="#DejaVuSans-6e" x="511.568359"/>
      <use xlink:href="#DejaVuSans-61" x="574.947266"/>
      <use xlink:href="#DejaVuSans-6c" x="636.226562"/>
      <use xlink:href="#DejaVuSans-5f" x="664.009766"/>
      <use xlink:href="#DejaVuSans-6f" x="714.009766"/>
      <use xlink:href="#DejaVuSans-6e" x="775.191406"/>
      <use xlink:href="#DejaVuSans-6c" x="838.570312"/>
      <use xlink:href="#DejaVuSans-79" x="866.353516"/>
     </g>
    </g>
    <g id="line2d_21">
     <path d="M 63.38 258.73875 
L 71.38 258.73875 
L 79.38 258.73875 
" style="fill: none; stroke: #ff7f0e; stroke-width: 1.8; stroke-linecap: square"/>
    </g>
    <g id="text_18">
     <!-- structured_mlp -->
     <g transform="translate(85.78 261.53875) scale(0.08 -0.08)">
      <defs>
       <path id="DejaVuSans-6d" d="M 3328 2828 
Q 3544 3216 3844 3400 
Q 4144 3584 4550 3584 
Q 5097 3584 5394 3201 
Q 5691 2819 5691 2113 
L 5691 0 
L 5113 0 
L 5113 2094 
Q 5113 2597 4934 2840 
Q 4756 3084 4391 3084 
Q 3944 3084 3684 2787 
Q 3425 2491 3425 1978 
L 3425 0 
L 2847 0 
L 2847 2094 
Q 2847 2600 2669 2842 
Q 2491 3084 2119 3084 
Q 1678 3084 1418 2786 
Q 1159 2488 1159 1978 
L 1159 0 
L 581 0 
L 581 3500 
L 1159 3500 
L 1159 2956 
Q 1356 3278 1631 3431 
Q 1906 3584 2284 3584 
Q 2666 3584 2933 3390 
Q 3200 3197 3328 2828 
z
" transform="scale(0.015625)"/>
      </defs>
      <use xlink:href="#DejaVuSans-73"/>
      <use xlink:href="#DejaVuSans-74" x="52.099609"/>
      <use xlink:href="#DejaVuSans-72" x="91.308594"/>
      <use xlink:href="#DejaVuSans-75" x="132.421875"/>
      <use xlink:href="#DejaVuSans-63" x="195.800781"/>
      <use xlink:href="#DejaVuSans-74" x="250.78125"/>
      <use xlink:href="#DejaVuSans-75" x="289.990234"/>
      <use xlink:href="#DejaVuSans-72" x="353.369141"/>
      <use xlink:href="#DejaVuSans-65" x="392.232422"/>
      <use xlink:href="#DejaVuSans-64" x="453.755859"/>
      <use xlink:href="#DejaVuSans-5f" x="517.232422"/>
      <use xlink:href="#DejaVuSans-6d" x="567.232422"/>
      <use xlink:href="#DejaVuSans-6c" x="664.644531"/>
      <use xlink:href="#DejaVuSans-70" x="692.427734"/>
     </g>
    </g>
    <g id="line2d_22">
     <path d="M 63.38 270.70375 
L 71.38 270.70375 
L 79.38 270.70375 
" style="fill: none; stroke: #2ca02c; stroke-width: 1.8; stroke-linecap: square"/>
    </g>
    <g id="text_19">
     <!-- fair_concat_mlp -->
     <g transform="translate(85.78 273.50375) scale(0.08 -0.08)">
      <use xlink:href="#DejaVuSans-66"/>
      <use xlink:href="#DejaVuSans-61" x="35.205078"/>
      <use xlink:href="#DejaVuSans-69" x="96.484375"/>
      <use xlink:href="#DejaVuSans-72" x="124.267578"/>
      <use xlink:href="#DejaVuSans-5f" x="165.380859"/>
      <use xlink:href="#DejaVuSans-63" x="215.380859"/>
      <use xlink:href="#DejaVuSans-6f" x="270.361328"/>
      <use xlink:href="#DejaVuSans-6e" x="331.542969"/>
      <use xlink:href="#DejaVuSans-63" x="394.921875"/>
      <use xlink:href="#DejaVuSans-61" x="449.902344"/>
      <use xlink:href="#DejaVuSans-74" x="511.181641"/>
      <use xlink:href="#DejaVuSans-5f" x="550.390625"/>
      <use xlink:href="#DejaVuSans-6d" x="600.390625"/>
      <use xlink:href="#DejaVuSans-6c" x="697.802734"/>
      <use xlink:href="#DejaVuSans-70" x="725.585938"/>
     </g>
    </g>
    <g id="line2d_23">
     <path d="M 63.38 282.66875 
L 71.38 282.66875 
L 79.38 282.66875 
" style="fill: none; stroke: #d62728; stroke-width: 1.8; stroke-linecap: square"/>
    </g>
    <g id="text_20">
     <!-- gated_fusion_mlp -->
     <g transform="translate(85.78 285.46875) scale(0.08 -0.08)">
      <use xlink:href="#DejaVuSans-67"/>
      <use xlink:href="#DejaVuSans-61" x="63.476562"/>
      <use xlink:href="#DejaVuSans-74" x="124.755859"/>
      <use xlink:href="#DejaVuSans-65" x="163.964844"/>
      <use xlink:href="#DejaVuSans-64" x="225.488281"/>
      <use xlink:href="#DejaVuSans-5f" x="288.964844"/>
      <use xlink:href="#DejaVuSans-66" x="338.964844"/>
      <use xlink:href="#DejaVuSans-75" x="374.169922"/>
      <use xlink:href="#DejaVuSans-73" x="437.548828"/>
      <use xlink:href="#DejaVuSans-69" x="489.648438"/>
      <use xlink:href="#DejaVuSans-6f" x="517.431641"/>
      <use xlink:href="#DejaVuSans-6e" x="578.613281"/>
      <use xlink:href="#DejaVuSans-5f" x="641.992188"/>
      <use xlink:href="#DejaVuSans-6d" x="691.992188"/>
      <use xlink:href="#DejaVuSans-6c" x="789.404297"/>
      <use xlink:href="#DejaVuSans-70" x="817.1875"/>
     </g>
    </g>
    <g id="line2d_24">
     <path d="M 63.38 294.63375 
L 71.38 294.63375 
L 79.38 294.63375 
" style="fill: none; stroke-dasharray: 5.55,2.4; stroke-dashoffset: 0; stroke: #808080; stroke-width: 1.5"/>
    </g>
    <g id="text_21">
     <!-- treat-all -->
     <g transform="translate(85.78 297.43375) scale(0.08 -0.08)">
      <use xlink:href="#DejaVuSans-74"/>
      <use xlink:href="#DejaVuSans-72" x="39.208984"/>
      <use xlink:href="#DejaVuSans-65" x="78.072266"/>
      <use xlink:href="#DejaVuSans-61" x="139.595703"/>
      <use xlink:href="#DejaVuSans-74" x="200.875"/>
      <use xlink:href="#DejaVuSans-2d" x="240.083984"/>
      <use xlink:href="#DejaVuSans-61" x="276.167969"/>
      <use xlink:href="#DejaVuSans-6c" x="337.447266"/>
      <use xlink:href="#DejaVuSans-6c" x="365.230469"/>
     </g>
    </g>
    <g id="line2d_25">
     <path d="M 63.38 306.37625 
L 71.38 306.37625 
L 79.38 306.37625 
" style="fill: none; stroke-dasharray: 1.5,2.475; stroke-dashoffset: 0; stroke: #000000; stroke-width: 1.5"/>
    </g>
    <g id="text_22">
     <!-- treat-none -->
     <g transform="translate(85.78 309.17625) scale(0.08 -0.08)">
      <use xlink:href="#DejaVuSans-74"/>
      <use xlink:href="#DejaVuSans-72" x="39.208984"/>
      <use xlink:href="#DejaVuSans-65" x="78.072266"/>
      <use xlink:href="#DejaVuSans-61" x="139.595703"/>
      <use xlink:href="#DejaVuSans-74" x="200.875"/>
      <use xlink:href="#DejaVuSans-2d" x="240.083984"/>
      <use xlink:href="#DejaVuSans-6e" x="276.167969"/>
      <use xlink:href="#DejaVuSans-6f" x="339.546875"/>
      <use xlink:href="#DejaVuSans-6e" x="400.728516"/>
      <use xlink:href="#DejaVuSans-65" x="464.107422"/>
     </g>
    </g>
   </g>
  </g>
 </g>
 <defs>
  <clipPath id="p1b897f2a66">
   <rect x="56.18" y="26.16" width="437.02" height="291.88"/>
  </clipPath>
 </defs>
</svg>
