<?xml version="1.0" encoding="utf-8" standalone="no"?>
<!DOCTYPE svg PUBLIC "-//W3C//DTD SVG 1.1//EN"
  "http://www.w3.org/Graphics/SVG/1.1/DTD/svg11.dtd">
<svg xmlns:xlink="http://www.w3.org/1999/xlink" width="1000.79375pt" height="300.779675pt" viewBox="0 0 1000.79375 300.779675" xmlns="http://www.w3.org/2000/svg" version="1.1">
 <metadata>
  <rdf:RDF xmlns:dc="http://purl.org/dc/elements/1.1/" xmlns:cc="http://creativecommons.org/ns#" xmlns:rdf="http://www.w3.org/1999/02/22-rdf-syntax-ns#">
   <cc:Work>
    <dc:type rdf:resource="http://purl.org/dc/dcmitype/StillImage"/>
    <dc:date>2026-06-30T22:04:10.517011</dc:date>
    <dc:format>image/svg+xml</dc:format>
    <dc:creator>
     <cc:Agent>
      <dc:title>Matplotlib v3.9.4, https://matplotlib.org/</dc:title>
     </cc:Agent>
    </dc:creator>
   </cc:Work>
  </rdf:RDF>
 </metadata>
 <defs>
  <style type="text/css">*{stroke-linejoin: round; stroke-linecap: butt}</style>
 </defs>
 <g id="figure_1">
  <g id="patch_1">
   <path d="M 0 300.779675 
L 1000.79375 300.779675 
L 1000.79375 0 
L 0 0 
z
" style="fill: #ffffff"/>
  </g>
  <g id="axes_1">
   <g id="patch_2">
    <path d="M 50.14375 218.134125 
L 332.613542 218.134125 
L 332.613542 22.318125 
L 50.14375 22.318125 
z
" style="fill: #ffffff"/>
   </g>
   <g id="patch_3">
    <path d="M 62.983286 218.134125 
L 87.2743 218.134125 
L 87.2743 39.446425 
L 62.983286 39.446425 
z
" clip-path="url(#p245df0f722)" style="fill: #4c78a8"/>
   </g>
   <g id="patch_4">
    <path d="M 132.386183 218.134125 
L 156.677197 218.134125 
L 156.677197 31.642696 
L 132.386183 31.642696 
z
" clip-path="url(#p245df0f722)" style="fill: #4c78a8"/>
   </g>
   <g id="patch_5">
    <path d="M 201.78908 218.134125 
L 226.080094 218.134125 
L 226.080094 47.187103 
L 201.78908 47.187103 
z
" clip-path="url(#p245df0f722)" style="fill: #4c78a8"/>
   </g>
   <g id="patch_6">
    <path d="M 271.191978 218.134125 
L 295.482992 218.134125 
L 295.482992 51.01738 
L 271.191978 51.01738 
z
" clip-path="url(#p245df0f722)" style="fill: #4c78a8"/>
   </g>
   <g id="patch_7">
    <path d="M 87.2743 218.134125 
L 111.565314 218.134125 
L 111.565314 154.819044 
L 87.2743 154.819044 
z
" clip-path="url(#p245df0f722)" style="fill: #f58518"/>
   </g>
   <g id="patch_8">
    <path d="M 156.677197 218.134125 
L 180.968211 218.134125 
L 180.968211 176.115307 
L 156.677197 176.115307 
z
" clip-path="url(#p245df0f722)" style="fill: #f58518"/>
   </g>
   <g id="patch_9">
    <path d="M 226.080094 218.134125 
L 250.371108 218.134125 
L 250.371108 162.143356 
L 226.080094 162.143356 
z
" clip-path="url(#p245df0f722)" style="fill: #f58518"/>
   </g>
   <g id="patch_10">
    <path d="M 295.482992 218.134125 
L 319.774006 218.134125 
L 319.774006 179.975084 
L 295.482992 179.975084 
z
" clip-path="url(#p245df0f722)" style="fill: #f58518"/>
   </g>
   <g id="matplotlib.axis_1">
    <g id="xtick_1">
     <g id="line2d_1">
      <defs>
       <path id="m5fedae9a9a" d="M 0 0 
L 0 3.5 
" style="stroke: #000000; stroke-width: 0.8"/>
      </defs>
      <g>
       <use xlink:href="#m5fedae9a9a" x="87.2743" y="218.134125" style="stroke: #000000; stroke-width: 0.8"/>
      </g>
     </g>
     <g id="text_1">
      <!-- Signal -->
      <g transform="translate(58.554744 245.002953) rotate(-25) scale(0.1 -0.1)">
       <defs>
        <path id="DejaVuSans-53" d="M 3425 4513 
L 3425 3897 
Q 3066 4069 2747 4153 
Q 2428 4238 2131 4238 
Q 1616 4238 1336 4038 
Q 1056 3838 1056 3469 
Q 1056 3159 1242 3001 
Q 1428 2844 1947 2747 
L 2328 2669 
Q 3034 2534 3370 2195 
Q 3706 1856 3706 1288 
Q 3706 609 3251 259 
Q 2797 -91 1919 -91 
Q 1588 -91 1214 -16 
Q 841 59 441 206 
L 441 856 
Q 825 641 1194 531 
Q 1563 422 1919 422 
Q 2459 422 2753 634 
Q 3047 847 3047 1241 
Q 3047 1584 2836 1778 
Q 2625 1972 2144 2069 
L 1759 2144 
Q 1053 2284 737 2584 
Q 422 2884 422 3419 
Q 422 4038 858 4394 
Q 1294 4750 2059 4750 
Q 2388 4750 2728 4690 
Q 3069 4631 3425 4513 
z
" transform="scale(0.015625)"/>
        <path id="DejaVuSans-69" d="M 603 3500 
L 1178 3500 
L 1178 0 
L 603 0 
L 603 3500 
z
M 603 4863 
L 1178 4863 
L 1178 4134 
L 603 4134 
L 603 4863 
z
" transform="scale(0.015625)"/>
        <path id="DejaVuSans-67" d="M 2906 1791 
Q 2906 2416 2648 2759 
Q 2391 3103 1925 3103 
Q 1463 3103 1205 2759 
Q 947 2416 947 1791 
Q 947 1169 1205 825 
Q 1463 481 1925 481 
Q 2391 481 2648 825 
Q 2906 1169 2906 1791 
z
M 3481 434 
Q 3481 -459 3084 -895 
Q 2688 -1331 1869 -1331 
Q 1566 -1331 1297 -1286 
Q 1028 -1241 775 -1147 
L 775 -588 
Q 1028 -725 1275 -790 
Q 1522 -856 1778 -856 
Q 2344 -856 2625 -561 
Q 2906 -266 2906 331 
L 2906 616 
Q 2728 306 2450 153 
Q 2172 0 1784 0 
Q 1141 0 747 490 
Q 353 981 353 1791 
Q 353 2603 747 3093 
Q 1141 3584 1784 3584 
Q 2172 3584 2450 3431 
Q 2728 3278 2906 2969 
L 2906 3500 
L 3481 3500 
L 3481 434 
z
" transform="scale(0.015625)"/>
        <path id="DejaVuSans-6e" d="M 3513 2113 
L 3513 0 
L 2938 0 
L 2938 2094 
Q 2938 2591 2744 2837 
Q 2550 3084 2163 3084 
Q 1697 3084 1428 2787 
Q 1159 2491 1159 1978 
L 1159 0 
L 581 0 
L 581 3500 
L 1159 3500 
L 1159 2956 
Q 1366 3272 1645 3428 
Q 1925 3584 2291 3584 
Q 2894 3584 3203 3211 
Q 3513 2838 3513 2113 
z
" transform="scale(0.015625)"/>
        <path id="DejaVuSans-61" d="M 2194 1759 
Q 1497 1759 1228 1600 
Q 959 1441 959 1056 
Q 959 750 1161 570 
Q 1363 391 1709 391 
Q 2188 391 2477 730 
Q 2766 1069 2766 1631 
L 2766 1759 
L 2194 1759 
z
M 3341 1997 
L 3341 0 
L 2766 0 
L 2766 531 
Q 2569 213 2275 61 
Q 1981 -91 1556 -91 
Q 1019 -91 701 211 
Q 384 513 384 1019 
Q 384 1609 779 1909 
Q 1175 2209 1959 2209 
L 2766 2209 
L 2766 2266 
Q 2766 2663 2505 2880 
Q 2244 3097 1772 3097 
Q 1472 3097 1187 3025 
Q 903 2953 641 2809 
L 641 3341 
Q 956 3463 1253 3523 
Q 1550 3584 1831 3584 
Q 2591 3584 2966 3190 
Q 3341 2797 3341 1997 
z
" transform="scale(0.015625)"/>
        <path id="DejaVuSans-6c" d="M 603 4863 
L 1178 4863 
L 1178 0 
L 603 0 
L 603 4863 
z
" transform="scale(0.015625)"/>
       </defs>
       <use xlink:href="#DejaVuSans-53"/>
       <use xlink:href="#DejaVuSans-69" x="63.476562"/>
       <use xlink:href="#DejaVuSans-67" x="91.259766"/>
       <use xlink:href="#DejaVuSans-6e" x="154.736328"/>
       <use xlink:href="#DejaVuSans-61" x="218.115234"/>
       <use xlink:href="#DejaVuSans-6c" x="279.394531"/>
      </g>
     </g>
    </g>
    <g id="xtick_2">
     <g id="line2d_2">
      <g>
       <use xlink:href="#m5fedae9a9a" x="156.677197" y="218.134125" style="stroke: #000000; stroke-width: 0.8"/>
      </g>
     </g>
     <g id="text_2">
      <!-- Structured -->
      <g transform="translate(107.890004 254.360646) rotate(-25) scale(0.1 -0.1)">
       <defs>
        <path id="DejaVuSans-74" d="M 1172 4494 
L 1172 3500 
L 2356 3500 
L 2356 3053 
L 1172 3053 
L 1172 1153 
Q 1172 725 1289 603 
Q 1406 481 1766 481 
L 2356 481 
L 2356 0 
L 1766 0 
Q 1100 0 847 248 
Q 594 497 594 1153 
L 594 3053 
L 172 3053 
L 172 3500 
L 594 3500 
L 594 4494 
L 1172 4494 
z
" transform="scale(0.015625)"/>
        <path id="DejaVuSans-72" d="M 2631 2963 
Q 2534 3019 2420 3045 
Q 2306 3072 2169 3072 
Q 1681 3072 1420 2755 
Q 1159 2438 1159 1844 
L 1159 0 
L 581 0 
L 581 3500 
L 1159 3500 
L 1159 2956 
Q 1341 3275 1631 3429 
Q 1922 3584 2338 3584 
Q 2397 3584 2469 3576 
Q 2541 3569 2628 3553 
L 2631 2963 
z
" transform="scale(0.015625)"/>
        <path id="DejaVuSans-75" d="M 544 1381 
L 544 3500 
L 1119 3500 
L 1119 1403 
Q 1119 906 1312 657 
Q 1506 409 1894 409 
Q 2359 409 2629 706 
Q 2900 1003 2900 1516 
L 2900 3500 
L 3475 3500 
L 3475 0 
L 2900 0 
L 2900 538 
Q 2691 219 2414 64 
Q 2138 -91 1772 -91 
Q 1169 -91 856 284 
Q 544 659 544 1381 
z
M 1991 3584 
L 1991 3584 
z
" transform="scale(0.015625)"/>
        <path id="DejaVuSans-63" d="M 3122 3366 
L 3122 2828 
Q 2878 2963 2633 3030 
Q 2388 3097 2138 3097 
Q 1578 3097 1268 2742 
Q 959 2388 959 1747 
Q 959 1106 1268 751 
Q 1578 397 2138 397 
Q 2388 397 2633 464 
Q 2878 531 3122 666 
L 3122 134 
Q 2881 22 2623 -34 
Q 2366 -91 2075 -91 
Q 1284 -91 818 406 
Q 353 903 353 1747 
Q 353 2603 823 3093 
Q 1294 3584 2113 3584 
Q 2378 3584 2631 3529 
Q 2884 3475 3122 3366 
z
" transform="scale(0.015625)"/>
        <path id="DejaVuSans-65" d="M 3597 1894 
L 3597 1613 
L 953 1613 
Q 991 1019 1311 708 
Q 1631 397 2203 397 
Q 2534 397 2845 478 
Q 3156 559 3463 722 
L 3463 178 
Q 3153 47 2828 -22 
Q 2503 -91 2169 -91 
Q 1331 -91 842 396 
Q 353 884 353 1716 
Q 353 2575 817 3079 
Q 1281 3584 2069 3584 
Q 2775 3584 3186 3129 
Q 3597 2675 3597 1894 
z
M 3022 2063 
Q 3016 2534 2758 2815 
Q 2500 3097 2075 3097 
Q 1594 3097 1305 2825 
Q 1016 2553 972 2059 
L 3022 2063 
z
" transform="scale(0.015625)"/>
        <path id="DejaVuSans-64" d="M 2906 2969 
L 2906 4863 
L 3481 4863 
L 3481 0 
L 2906 0 
L 2906 525 
Q 2725 213 2448 61 
Q 2172 -91 1784 -91 
Q 1150 -91 751 415 
Q 353 922 353 1747 
Q 353 2572 751 3078 
Q 1150 3584 1784 3584 
Q 2172 3584 2448 3432 
Q 2725 3281 2906 2969 
z
M 947 1747 
Q 947 1113 1208 752 
Q 1469 391 1925 391 
Q 2381 391 2643 752 
Q 2906 1113 2906 1747 
Q 2906 2381 2643 2742 
Q 2381 3103 1925 3103 
Q 1469 3103 1208 2742 
Q 947 2381 947 1747 
z
" transform="scale(0.015625)"/>
       </defs>
       <use xlink:href="#DejaVuSans-53"/>
       <use xlink:href="#DejaVuSans-74" x="63.476562"/>
       <use xlink:href="#DejaVuSans-72" x="102.685547"/>
       <use xlink:href="#DejaVuSans-75" x="143.798828"/>
       <use xlink:href="#DejaVuSans-63" x="207.177734"/>
       <use xlink:href="#DejaVuSans-74" x="262.158203"/>
       <use xlink:href="#DejaVuSans-75" x="301.367188"/>
       <use xlink:href="#DejaVuSans-72" x="364.746094"/>
       <use xlink:href="#DejaVuSans-65" x="403.609375"/>
       <use xlink:href="#DejaVuSans-64" x="465.132812"/>
      </g>
     </g>
    </g>
    <g id="xtick_3">
     <g id="line2d_3">
      <g>
       <use xlink:href="#m5fedae9a9a" x="226.080094" y="218.134125" style="stroke: #000000; stroke-width: 0.8"/>
      </g>
     </g>
     <g id="text_3">
      <!-- Fair concat -->
      <g transform="translate(175.774836 255.068531) rotate(-25) scale(0.1 -0.1)">
       <defs>
        <path id="DejaVuSans-46" d="M 628 4666 
L 3309 4666 
L 3309 4134 
L 1259 4134 
L 1259 2759 
L 3109 2759 
L 3109 2228 
L 1259 2228 
L 1259 0 
L 628 0 
L 628 4666 
z
" transform="scale(0.015625)"/>
        <path id="DejaVuSans-20" transform="scale(0.015625)"/>
        <path id="DejaVuSans-6f" d="M 1959 3097 
Q 1497 3097 1228 2736 
Q 959 2375 959 1747 
Q 959 1119 1226 758 
Q 1494 397 1959 397 
Q 2419 397 2687 759 
Q 2956 1122 2956 1747 
Q 2956 2369 2687 2733 
Q 2419 3097 1959 3097 
z
M 1959 3584 
Q 2709 3584 3137 3096 
Q 3566 2609 3566 1747 
Q 3566 888 3137 398 
Q 2709 -91 1959 -91 
Q 1206 -91 779 398 
Q 353 888 353 1747 
Q 353 2609 779 3096 
Q 1206 3584 1959 3584 
z
" transform="scale(0.015625)"/>
       </defs>
       <use xlink:href="#DejaVuSans-46"/>
       <use xlink:href="#DejaVuSans-61" x="48.394531"/>
       <use xlink:href="#DejaVuSans-69" x="109.673828"/>
       <use xlink:href="#DejaVuSans-72" x="137.457031"/>
       <use xlink:href="#DejaVuSans-20" x="178.570312"/>
       <use xlink:href="#DejaVuSans-63" x="210.357422"/>
       <use xlink:href="#DejaVuSans-6f" x="265.337891"/>
       <use xlink:href="#DejaVuSans-6e" x="326.519531"/>
       <use xlink:href="#DejaVuSans-63" x="389.898438"/>
       <use xlink:href="#DejaVuSans-61" x="444.878906"/>
       <use xlink:href="#DejaVuSans-74" x="506.158203"/>
      </g>
     </g>
    </g>
    <g id="xtick_4">
     <g id="line2d_4">
      <g>
       <use xlink:href="#m5fedae9a9a" x="295.482992" y="218.134125" style="stroke: #000000; stroke-width: 0.8"/>
      </g>
     </g>
     <g id="text_4">
      <!-- Gated -->
      <g transform="translate(267.144368 244.825321) rotate(-25) scale(0.1 -0.1)">
       <defs>
        <path id="DejaVuSans-47" d="M 3809 666 
L 3809 1919 
L 2778 1919 
L 2778 2438 
L 4434 2438 
L 4434 434 
Q 4069 175 3628 42 
Q 3188 -91 2688 -91 
Q 1594 -91 976 548 
Q 359 1188 359 2328 
Q 359 3472 976 4111 
Q 1594 4750 2688 4750 
Q 3144 4750 3555 4637 
Q 3966 4525 4313 4306 
L 4313 3634 
Q 3963 3931 3569 4081 
Q 3175 4231 2741 4231 
Q 1884 4231 1454 3753 
Q 1025 3275 1025 2328 
Q 1025 1384 1454 906 
Q 1884 428 2741 428 
Q 3075 428 3337 486 
Q 3600 544 3809 666 
z
" transform="scale(0.015625)"/>
       </defs>
       <use xlink:href="#DejaVuSans-47"/>
       <use xlink:href="#DejaVuSans-61" x="77.490234"/>
       <use xlink:href="#DejaVuSans-74" x="138.769531"/>
       <use xlink:href="#DejaVuSans-65" x="177.978516"/>
       <use xlink:href="#DejaVuSans-64" x="239.501953"/>
      </g>
     </g>
    </g>
   </g>
   <g id="matplotlib.axis_2">
    <g id="ytick_1">
     <g id="line2d_5">
      <defs>
       <path id="mfc10a344f5" d="M 0 0 
L -3.5 0 
" style="stroke: #000000; stroke-width: 0.8"/>
      </defs>
      <g>
       <use xlink:href="#mfc10a344f5" x="50.14375" y="218.134125" style="stroke: #000000; stroke-width: 0.8"/>
      </g>
     </g>
     <g id="text_5">
      <!-- 0.00 -->
      <g transform="translate(20.878125 221.933344) scale(0.1 -0.1)">
       <defs>
        <path id="DejaVuSans-30" d="M 2034 4250 
Q 1547 4250 1301 3770 
Q 1056 3291 1056 2328 
Q 1056 1369 1301 889 
Q 1547 409 2034 409 
Q 2525 409 2770 889 
Q 3016 1369 3016 2328 
Q 3016 3291 2770 3770 
Q 2525 4250 2034 4250 
z
M 2034 4750 
Q 2819 4750 3233 4129 
Q 3647 3509 3647 2328 
Q 3647 1150 3233 529 
Q 2819 -91 2034 -91 
Q 1250 -91 836 529 
Q 422 1150 422 2328 
Q 422 3509 836 4129 
Q 1250 4750 2034 4750 
z
" transform="scale(0.015625)"/>
        <path id="DejaVuSans-2e" d="M 684 794 
L 1344 794 
L 1344 0 
L 684 0 
L 684 794 
z
" transform="scale(0.015625)"/>
       </defs>
       <use xlink:href="#DejaVuSans-30"/>
       <use xlink:href="#DejaVuSans-2e" x="63.623047"/>
       <use xlink:href="#DejaVuSans-30" x="95.410156"/>
       <use xlink:href="#DejaVuSans-30" x="159.033203"/>
      </g>
     </g>
    </g>
    <g id="ytick_2">
     <g id="line2d_6">
      <g>
       <use xlink:href="#mfc10a344f5" x="50.14375" y="178.542664" style="stroke: #000000; stroke-width: 0.8"/>
      </g>
     </g>
     <g id="text_6">
      <!-- 0.02 -->
      <g transform="translate(20.878125 182.341883) scale(0.1 -0.1)">
       <defs>
        <path id="DejaVuSans-32" d="M 1228 531 
L 3431 531 
L 3431 0 
L 469 0 
L 469 531 
Q 828 903 1448 1529 
Q 2069 2156 2228 2338 
Q 2531 2678 2651 2914 
Q 2772 3150 2772 3378 
Q 2772 3750 2511 3984 
Q 2250 4219 1831 4219 
Q 1534 4219 1204 4116 
Q 875 4013 500 3803 
L 500 4441 
Q 881 4594 1212 4672 
Q 1544 4750 1819 4750 
Q 2544 4750 2975 4387 
Q 3406 4025 3406 3419 
Q 3406 3131 3298 2873 
Q 3191 2616 2906 2266 
Q 2828 2175 2409 1742 
Q 1991 1309 1228 531 
z
" transform="scale(0.015625)"/>
       </defs>
       <use xlink:href="#DejaVuSans-30"/>
       <use xlink:href="#DejaVuSans-2e" x="63.623047"/>
       <use xlink:href="#DejaVuSans-30" x="95.410156"/>
       <use xlink:href="#DejaVuSans-32" x="159.033203"/>
      </g>
     </g>
    </g>
    <g id="ytick_3">
     <g id="line2d_7">
      <g>
       <use xlink:href="#mfc10a344f5" x="50.14375" y="138.951204" style="stroke: #000000; stroke-width: 0.8"/>
      </g>
     </g>
     <g id="text_7">
      <!-- 0.04 -->
      <g transform="translate(20.878125 142.750423) scale(0.1 -0.1)">
       <defs>
        <path id="DejaVuSans-34" d="M 2419 4116 
L 825 1625 
L 2419 1625 
L 2419 4116 
z
M 2253 4666 
L 3047 4666 
L 3047 1625 
L 3713 1625 
L 3713 1100 
L 3047 1100 
L 3047 0 
L 2419 0 
L 2419 1100 
L 313 1100 
L 313 1709 
L 2253 4666 
z
" transform="scale(0.015625)"/>
       </defs>
       <use xlink:href="#DejaVuSans-30"/>
       <use xlink:href="#DejaVuSans-2e" x="63.623047"/>
       <use xlink:href="#DejaVuSans-30" x="95.410156"/>
       <use xlink:href="#DejaVuSans-34" x="159.033203"/>
      </g>
     </g>
    </g>
    <g id="ytick_4">
     <g id="line2d_8">
      <g>
       <use xlink:href="#mfc10a344f5" x="50.14375" y="99.359743" style="stroke: #000000; stroke-width: 0.8"/>
      </g>
     </g>
     <g id="text_8">
      <!-- 0.06 -->
      <g transform="translate(20.878125 103.158962) scale(0.1 -0.1)">
       <defs>
        <path id="DejaVuSans-36" d="M 2113 2584 
Q 1688 2584 1439 2293 
Q 1191 2003 1191 1497 
Q 1191 994 1439 701 
Q 1688 409 2113 409 
Q 2538 409 2786 701 
Q 3034 994 3034 1497 
Q 3034 2003 2786 2293 
Q 2538 2584 2113 2584 
z
M 3366 4563 
L 3366 3988 
Q 3128 4100 2886 4159 
Q 2644 4219 2406 4219 
Q 1781 4219 1451 3797 
Q 1122 3375 1075 2522 
Q 1259 2794 1537 2939 
Q 1816 3084 2150 3084 
Q 2853 3084 3261 2657 
Q 3669 2231 3669 1497 
Q 3669 778 3244 343 
Q 2819 -91 2113 -91 
Q 1303 -91 875 529 
Q 447 1150 447 2328 
Q 447 3434 972 4092 
Q 1497 4750 2381 4750 
Q 2619 4750 2861 4703 
Q 3103 4656 3366 4563 
z
" transform="scale(0.015625)"/>
       </defs>
       <use xlink:href="#DejaVuSans-30"/>
       <use xlink:href="#DejaVuSans-2e" x="63.623047"/>
       <use xlink:href="#DejaVuSans-30" x="95.410156"/>
       <use xlink:href="#DejaVuSans-36" x="159.033203"/>
      </g>
     </g>
    </g>
    <g id="ytick_5">
     <g id="line2d_9">
      <g>
       <use xlink:href="#mfc10a344f5" x="50.14375" y="59.768283" style="stroke: #000000; stroke-width: 0.8"/>
      </g>
     </g>
     <g id="text_9">
      <!-- 0.08 -->
      <g transform="translate(20.878125 63.567501) scale(0.1 -0.1)">
       <defs>
        <path id="DejaVuSans-38" d="M 2034 2216 
Q 1584 2216 1326 1975 
Q 1069 1734 1069 1313 
Q 1069 891 1326 650 
Q 1584 409 2034 409 
Q 2484 409 2743 651 
Q 3003 894 3003 1313 
Q 3003 1734 2745 1975 
Q 2488 2216 2034 2216 
z
M 1403 2484 
Q 997 2584 770 2862 
Q 544 3141 544 3541 
Q 544 4100 942 4425 
Q 1341 4750 2034 4750 
Q 2731 4750 3128 4425 
Q 3525 4100 3525 3541 
Q 3525 3141 3298 2862 
Q 3072 2584 2669 2484 
Q 3125 2378 3379 2068 
Q 3634 1759 3634 1313 
Q 3634 634 3220 271 
Q 2806 -91 2034 -91 
Q 1263 -91 848 271 
Q 434 634 434 1313 
Q 434 1759 690 2068 
Q 947 2378 1403 2484 
z
M 1172 3481 
Q 1172 3119 1398 2916 
Q 1625 2713 2034 2713 
Q 2441 2713 2670 2916 
Q 2900 3119 2900 3481 
Q 2900 3844 2670 4047 
Q 2441 4250 2034 4250 
Q 1625 4250 1398 4047 
Q 1172 3844 1172 3481 
z
" transform="scale(0.015625)"/>
       </defs>
       <use xlink:href="#DejaVuSans-30"/>
       <use xlink:href="#DejaVuSans-2e" x="63.623047"/>
       <use xlink:href="#DejaVuSans-30" x="95.410156"/>
       <use xlink:href="#DejaVuSans-38" x="159.033203"/>
      </g>
     </g>
    </g>
    <g id="text_10">
     <!-- Macro metric -->
     <g transform="translate(14.798438 153.045656) rotate(-90) scale(0.1 -0.1)">
      <defs>
       <path id="DejaVuSans-4d" d="M 628 4666 
L 1569 4666 
L 2759 1491 
L 3956 4666 
L 4897 4666 
L 4897 0 
L 4281 0 
L 4281 4097 
L 3078 897 
L 2444 897 
L 1241 4097 
L 1241 0 
L 628 0 
L 628 4666 
z
" transform="scale(0.015625)"/>
       <path id="DejaVuSans-6d" d="M 3328 2828 
Q 3544 3216 3844 3400 
Q 4144 3584 4550 3584 
Q 5097 3584 5394 3201 
Q 5691 2819 5691 2113 
L 5691 0 
L 5113 0 
L 5113 2094 
Q 5113 2597 4934 2840 
Q 4756 3084 4391 3084 
Q 3944 3084 3684 2787 
Q 3425 2491 3425 1978 
L 3425 0 
L 2847 0 
L 2847 2094 
Q 2847 2600 2669 2842 
Q 2491 3084 2119 3084 
Q 1678 3084 1418 2786 
Q 1159 2488 1159 1978 
L 1159 0 
L 581 0 
L 581 3500 
L 1159 3500 
L 1159 2956 
Q 1356 3278 1631 3431 
Q 1906 3584 2284 3584 
Q 2666 3584 2933 3390 
Q 3200 3197 3328 2828 
z
" transform="scale(0.015625)"/>
      </defs>
      <use xlink:href="#DejaVuSans-4d"/>
      <use xlink:href="#DejaVuSans-61" x="86.279297"/>
      <use xlink:href="#DejaVuSans-63" x="147.558594"/>
      <use xlink:href="#DejaVuSans-72" x="202.539062"/>
      <use xlink:href="#DejaVuSans-6f" x="241.402344"/>
      <use xlink:href="#DejaVuSans-20" x="302.583984"/>
      <use xlink:href="#DejaVuSans-6d" x="334.371094"/>
      <use xlink:href="#DejaVuSans-65" x="431.783203"/>
      <use xlink:href="#DejaVuSans-74" x="493.306641"/>
      <use xlink:href="#DejaVuSans-72" x="532.515625"/>
      <use xlink:href="#DejaVuSans-69" x="573.628906"/>
      <use xlink:href="#DejaVuSans-63" x="601.412109"/>
     </g>
    </g>
   </g>
   <g id="patch_11">
    <path d="M 50.14375 218.134125 
L 50.14375 22.318125 
" style="fill: none; stroke: #000000; stroke-width: 0.8; stroke-linejoin: miter; stroke-linecap: square"/>
   </g>
   <g id="patch_12">
    <path d="M 50.14375 218.134125 
L 332.613542 218.134125 
" style="fill: none; stroke: #000000; stroke-width: 0.8; stroke-linejoin: miter; stroke-linecap: square"/>
   </g>
   <g id="text_11">
    <!-- Internal test calibration -->
    <g transform="translate(121.163646 16.318125) scale(0.12 -0.12)">
     <defs>
      <path id="DejaVuSans-49" d="M 628 4666 
L 1259 4666 
L 1259 0 
L 628 0 
L 628 4666 
z
" transform="scale(0.015625)"/>
      <path id="DejaVuSans-73" d="M 2834 3397 
L 2834 2853 
Q 2591 2978 2328 3040 
Q 2066 3103 1784 3103 
Q 1356 3103 1142 2972 
Q 928 2841 928 2578 
Q 928 2378 1081 2264 
Q 1234 2150 1697 2047 
L 1894 2003 
Q 2506 1872 2764 1633 
Q 3022 1394 3022 966 
Q 3022 478 2636 193 
Q 2250 -91 1575 -91 
Q 1294 -91 989 -36 
Q 684 19 347 128 
L 347 722 
Q 666 556 975 473 
Q 1284 391 1588 391 
Q 1994 391 2212 530 
Q 2431 669 2431 922 
Q 2431 1156 2273 1281 
Q 2116 1406 1581 1522 
L 1381 1569 
Q 847 1681 609 1914 
Q 372 2147 372 2553 
Q 372 3047 722 3315 
Q 1072 3584 1716 3584 
Q 2034 3584 2315 3537 
Q 2597 3491 2834 3397 
z
" transform="scale(0.015625)"/>
      <path id="DejaVuSans-62" d="M 3116 1747 
Q 3116 2381 2855 2742 
Q 2594 3103 2138 3103 
Q 1681 3103 1420 2742 
Q 1159 2381 1159 1747 
Q 1159 1113 1420 752 
Q 1681 391 2138 391 
Q 2594 391 2855 752 
Q 3116 1113 3116 1747 
z
M 1159 2969 
Q 1341 3281 1617 3432 
Q 1894 3584 2278 3584 
Q 2916 3584 3314 3078 
Q 3713 2572 3713 1747 
Q 3713 922 3314 415 
Q 2916 -91 2278 -91 
Q 1894 -91 1617 61 
Q 1341 213 1159 525 
L 1159 0 
L 581 0 
L 581 4863 
L 1159 4863 
L 1159 2969 
z
" transform="scale(0.015625)"/>
     </defs>
     <use xlink:href="#DejaVuSans-49"/>
     <use xlink:href="#DejaVuSans-6e" x="29.492188"/>
     <use xlink:href="#DejaVuSans-74" x="92.871094"/>
     <use xlink:href="#DejaVuSans-65" x="132.080078"/>
     <use xlink:href="#DejaVuSans-72" x="193.603516"/>
     <use xlink:href="#DejaVuSans-6e" x="232.966797"/>
     <use xlink:href="#DejaVuSans-61" x="296.345703"/>
     <use xlink:href="#DejaVuSans-6c" x="357.625"/>
     <use xlink:href="#DejaVuSans-20" x="385.408203"/>
     <use xlink:href="#DejaVuSans-74" x="417.195312"/>
     <use xlink:href="#DejaVuSans-65" x="456.404297"/>
     <use xlink:href="#DejaVuSans-73" x="517.927734"/>
     <use xlink:href="#DejaVuSans-74" x="570.027344"/>
     <use xlink:href="#DejaVuSans-20" x="609.236328"/>
     <use xlink:href="#DejaVuSans-63" x="641.023438"/>
     <use xlink:href="#DejaVuSans-61" x="696.003906"/>
     <use xlink:href="#DejaVuSans-6c" x="757.283203"/>
     <use xlink:href="#DejaVuSans-69" x="785.066406"/>
     <use xlink:href="#DejaVuSans-62" x="812.849609"/>
     <use xlink:href="#DejaVuSans-72" x="876.326172"/>
     <use xlink:href="#DejaVuSans-61" x="917.439453"/>
     <use xlink:href="#DejaVuSans-74" x="978.71875"/>
     <use xlink:href="#DejaVuSans-69" x="1017.927734"/>
     <use xlink:href="#DejaVuSans-6f" x="1045.710938"/>
     <use xlink:href="#DejaVuSans-6e" x="1106.892578"/>
    </g>
   </g>
   <g id="legend_1">
    <g id="patch_13">
     <path d="M 271.599479 38.916562 
L 291.599479 38.916562 
L 291.599479 31.916562 
L 271.599479 31.916562 
z
" style="fill: #4c78a8"/>
    </g>
    <g id="text_12">
     <!-- Brier -->
     <g transform="translate(299.599479 38.916562) scale(0.1 -0.1)">
      <defs>
       <path id="DejaVuSans-42" d="M 1259 2228 
L 1259 519 
L 2272 519 
Q 2781 519 3026 730 
Q 3272 941 3272 1375 
Q 3272 1813 3026 2020 
Q 2781 2228 2272 2228 
L 1259 2228 
z
M 1259 4147 
L 1259 2741 
L 2194 2741 
Q 2656 2741 2882 2914 
Q 3109 3088 3109 3444 
Q 3109 3797 2882 3972 
Q 2656 4147 2194 4147 
L 1259 4147 
z
M 628 4666 
L 2241 4666 
Q 2963 4666 3353 4366 
Q 3744 4066 3744 3513 
Q 3744 3084 3544 2831 
Q 3344 2578 2956 2516 
Q 3422 2416 3680 2098 
Q 3938 1781 3938 1306 
Q 3938 681 3513 340 
Q 3088 0 2303 0 
L 628 0 
L 628 4666 
z
" transform="scale(0.015625)"/>
      </defs>
      <use xlink:href="#DejaVuSans-42"/>
      <use xlink:href="#DejaVuSans-72" x="68.603516"/>
      <use xlink:href="#DejaVuSans-69" x="109.716797"/>
      <use xlink:href="#DejaVuSans-65" x="137.5"/>
      <use xlink:href="#DejaVuSans-72" x="199.023438"/>
     </g>
    </g>
    <g id="patch_14">
     <path d="M 271.599479 53.594687 
L 291.599479 53.594687 
L 291.599479 46.594687 
L 271.599479 46.594687 
z
" style="fill: #f58518"/>
    </g>
    <g id="text_13">
     <!-- ECE -->
     <g transform="translate(299.599479 53.594687) scale(0.1 -0.1)">
      <defs>
       <path id="DejaVuSans-45" d="M 628 4666 
L 3578 4666 
L 3578 4134 
L 1259 4134 
L 1259 2753 
L 3481 2753 
L 3481 2222 
L 1259 2222 
L 1259 531 
L 3634 531 
L 3634 0 
L 628 0 
L 628 4666 
z
" transform="scale(0.015625)"/>
       <path id="DejaVuSans-43" d="M 4122 4306 
L 4122 3641 
Q 3803 3938 3442 4084 
Q 3081 4231 2675 4231 
Q 1875 4231 1450 3742 
Q 1025 3253 1025 2328 
Q 1025 1406 1450 917 
Q 1875 428 2675 428 
Q 3081 428 3442 575 
Q 3803 722 4122 1019 
L 4122 359 
Q 3791 134 3420 21 
Q 3050 -91 2638 -91 
Q 1578 -91 968 557 
Q 359 1206 359 2328 
Q 359 3453 968 4101 
Q 1578 4750 2638 4750 
Q 3056 4750 3426 4639 
Q 3797 4528 4122 4306 
z
" transform="scale(0.015625)"/>
      </defs>
      <use xlink:href="#DejaVuSans-45"/>
      <use xlink:href="#DejaVuSans-43" x="63.183594"/>
      <use xlink:href="#DejaVuSans-45" x="133.007812"/>
     </g>
    </g>
   </g>
  </g>
  <g id="axes_2">
   <g id="patch_15">
    <path d="M 380.633854 218.134125 
L 663.103646 218.134125 
L 663.103646 22.318125 
L 380.633854 22.318125 
z
" style="fill: #ffffff"/>
   </g>
   <g id="matplotlib.axis_3">
    <g id="xtick_5">
     <g id="line2d_10">
      <g>
       <use xlink:href="#m5fedae9a9a" x="380.633854" y="218.134125" style="stroke: #000000; stroke-width: 0.8"/>
      </g>
     </g>
     <g id="text_14">
      <!-- 0.0 -->
      <g transform="translate(372.682292 232.732562) scale(0.1 -0.1)">
       <use xlink:href="#DejaVuSans-30"/>
       <use xlink:href="#DejaVuSans-2e" x="63.623047"/>
       <use xlink:href="#DejaVuSans-30" x="95.410156"/>
      </g>
     </g>
    </g>
    <g id="xtick_6">
     <g id="line2d_11">
      <g>
       <use xlink:href="#m5fedae9a9a" x="437.127813" y="218.134125" style="stroke: #000000; stroke-width: 0.8"/>
      </g>
     </g>
     <g id="text_15">
      <!-- 0.2 -->
      <g transform="translate(429.17625 232.732562) scale(0.1 -0.1)">
       <use xlink:href="#DejaVuSans-30"/>
       <use xlink:href="#DejaVuSans-2e" x="63.623047"/>
       <use xlink:href="#DejaVuSans-32" x="95.410156"/>
      </g>
     </g>
    </g>
    <g id="xtick_7">
     <g id="line2d_12">
      <g>
       <use xlink:href="#m5fedae9a9a" x="493.621771" y="218.134125" style="stroke: #000000; stroke-width: 0.8"/>
      </g>
     </g>
     <g id="text_16">
      <!-- 0.4 -->
      <g transform="translate(485.670208 232.732562) scale(0.1 -0.1)">
       <use xlink:href="#DejaVuSans-30"/>
       <use xlink:href="#DejaVuSans-2e" x="63.623047"/>
       <use xlink:href="#DejaVuSans-34" x="95.410156"/>
      </g>
     </g>
    </g>
    <g id="xtick_8">
     <g id="line2d_13">
      <g>
       <use xlink:href="#m5fedae9a9a" x="550.115729" y="218.134125" style="stroke: #000000; stroke-width: 0.8"/>
      </g>
     </g>
     <g id="text_17">
      <!-- 0.6 -->
      <g transform="translate(542.164167 232.732562) scale(0.1 -0.1)">
       <use xlink:href="#DejaVuSans-30"/>
       <use xlink:href="#DejaVuSans-2e" x="63.623047"/>
       <use xlink:href="#DejaVuSans-36" x="95.410156"/>
      </g>
     </g>
    </g>
    <g id="xtick_9">
     <g id="line2d_14">
      <g>
       <use xlink:href="#m5fedae9a9a" x="606.609687" y="218.134125" style="stroke: #000000; stroke-width: 0.8"/>
      </g>
     </g>
     <g id="text_18">
      <!-- 0.8 -->
      <g transform="translate(598.658125 232.732562) scale(0.1 -0.1)">
       <use xlink:href="#DejaVuSans-30"/>
       <use xlink:href="#DejaVuSans-2e" x="63.623047"/>
       <use xlink:href="#DejaVuSans-38" x="95.410156"/>
      </g>
     </g>
    </g>
    <g id="xtick_10">
     <g id="line2d_15">
      <g>
       <use xlink:href="#m5fedae9a9a" x="663.103646" y="218.134125" style="stroke: #000000; stroke-width: 0.8"/>
      </g>
     </g>
     <g id="text_19">
      <!-- 1.0 -->
      <g transform="translate(655.152083 232.732562) scale(0.1 -0.1)">
       <defs>
        <path id="DejaVuSans-31" d="M 794 531 
L 1825 531 
L 1825 4091 
L 703 3866 
L 703 4441 
L 1819 4666 
L 2450 4666 
L 2450 531 
L 3481 531 
L 3481 0 
L 794 0 
L 794 531 
z
" transform="scale(0.015625)"/>
       </defs>
       <use xlink:href="#DejaVuSans-31"/>
       <use xlink:href="#DejaVuSans-2e" x="63.623047"/>
       <use xlink:href="#DejaVuSans-30" x="95.410156"/>
      </g>
     </g>
    </g>
    <g id="text_20">
     <!-- Mean confidence -->
     <g transform="translate(479.284375 246.410687) scale(0.1 -0.1)">
      <defs>
       <path id="DejaVuSans-66" d="M 2375 4863 
L 2375 4384 
L 1825 4384 
Q 1516 4384 1395 4259 
Q 1275 4134 1275 3809 
L 1275 3500 
L 2222 3500 
L 2222 3053 
L 1275 3053 
L 1275 0 
L 697 0 
L 697 3053 
L 147 3053 
L 147 3500 
L 697 3500 
L 697 3744 
Q 697 4328 969 4595 
Q 1241 4863 1831 4863 
L 2375 4863 
z
" transform="scale(0.015625)"/>
      </defs>
      <use xlink:href="#DejaVuSans-4d"/>
      <use xlink:href="#DejaVuSans-65" x="86.279297"/>
      <use xlink:href="#DejaVuSans-61" x="147.802734"/>
      <use xlink:href="#DejaVuSans-6e" x="209.082031"/>
      <use xlink:href="#DejaVuSans-20" x="272.460938"/>
      <use xlink:href="#DejaVuSans-63" x="304.248047"/>
      <use xlink:href="#DejaVuSans-6f" x="359.228516"/>
      <use xlink:href="#DejaVuSans-6e" x="420.410156"/>
      <use xlink:href="#DejaVuSans-66" x="483.789062"/>
      <use xlink:href="#DejaVuSans-69" x="518.994141"/>
      <use xlink:href="#DejaVuSans-64" x="546.777344"/>
      <use xlink:href="#DejaVuSans-65" x="610.253906"/>
      <use xlink:href="#DejaVuSans-6e" x="671.777344"/>
      <use xlink:href="#DejaVuSans-63" x="735.15625"/>
      <use xlink:href="#DejaVuSans-65" x="790.136719"/>
     </g>
    </g>
   </g>
   <g id="matplotlib.axis_4">
    <g id="ytick_6">
     <g id="line2d_16">
      <g>
       <use xlink:href="#mfc10a344f5" x="380.633854" y="218.134125" style="stroke: #000000; stroke-width: 0.8"/>
      </g>
     </g>
     <g id="text_21">
      <!-- 0.0 -->
      <g transform="translate(357.730729 221.933344) scale(0.1 -0.1)">
       <use xlink:href="#DejaVuSans-30"/>
       <use xlink:href="#DejaVuSans-2e" x="63.623047"/>
       <use xlink:href="#DejaVuSans-30" x="95.410156"/>
      </g>
     </g>
    </g>
    <g id="ytick_7">
     <g id="line2d_17">
      <g>
       <use xlink:href="#mfc10a344f5" x="380.633854" y="178.970925" style="stroke: #000000; stroke-width: 0.8"/>
      </g>
     </g>
     <g id="text_22">
      <!-- 0.2 -->
      <g transform="translate(357.730729 182.770144) scale(0.1 -0.1)">
       <use xlink:href="#DejaVuSans-30"/>
       <use xlink:href="#DejaVuSans-2e" x="63.623047"/>
       <use xlink:href="#DejaVuSans-32" x="95.410156"/>
      </g>
     </g>
    </g>
    <g id="ytick_8">
     <g id="line2d_18">
      <g>
       <use xlink:href="#mfc10a344f5" x="380.633854" y="139.807725" style="stroke: #000000; stroke-width: 0.8"/>
      </g>
     </g>
     <g id="text_23">
      <!-- 0.4 -->
      <g transform="translate(357.730729 143.606944) scale(0.1 -0.1)">
       <use xlink:href="#DejaVuSans-30"/>
       <use xlink:href="#DejaVuSans-2e" x="63.623047"/>
       <use xlink:href="#DejaVuSans-34" x="95.410156"/>
      </g>
     </g>
    </g>
    <g id="ytick_9">
     <g id="line2d_19">
      <g>
       <use xlink:href="#mfc10a344f5" x="380.633854" y="100.644525" style="stroke: #000000; stroke-width: 0.8"/>
      </g>
     </g>
     <g id="text_24">
      <!-- 0.6 -->
      <g transform="translate(357.730729 104.443744) scale(0.1 -0.1)">
       <use xlink:href="#DejaVuSans-30"/>
       <use xlink:href="#DejaVuSans-2e" x="63.623047"/>
       <use xlink:href="#DejaVuSans-36" x="95.410156"/>
      </g>
     </g>
    </g>
    <g id="ytick_10">
     <g id="line2d_20">
      <g>
       <use xlink:href="#mfc10a344f5" x="380.633854" y="61.481325" style="stroke: #000000; stroke-width: 0.8"/>
      </g>
     </g>
     <g id="text_25">
      <!-- 0.8 -->
      <g transform="translate(357.730729 65.280544) scale(0.1 -0.1)">
       <use xlink:href="#DejaVuSans-30"/>
       <use xlink:href="#DejaVuSans-2e" x="63.623047"/>
       <use xlink:href="#DejaVuSans-38" x="95.410156"/>
      </g>
     </g>
    </g>
    <g id="ytick_11">
     <g id="line2d_21">
      <g>
       <use xlink:href="#mfc10a344f5" x="380.633854" y="22.318125" style="stroke: #000000; stroke-width: 0.8"/>
      </g>
     </g>
     <g id="text_26">
      <!-- 1.0 -->
      <g transform="translate(357.730729 26.117344) scale(0.1 -0.1)">
       <use xlink:href="#DejaVuSans-31"/>
       <use xlink:href="#DejaVuSans-2e" x="63.623047"/>
       <use xlink:href="#DejaVuSans-30" x="95.410156"/>
      </g>
     </g>
    </g>
    <g id="text_27">
     <!-- Observed frequency -->
     <g transform="translate(351.651042 170.948781) rotate(-90) scale(0.1 -0.1)">
      <defs>
       <path id="DejaVuSans-4f" d="M 2522 4238 
Q 1834 4238 1429 3725 
Q 1025 3213 1025 2328 
Q 1025 1447 1429 934 
Q 1834 422 2522 422 
Q 3209 422 3611 934 
Q 4013 1447 4013 2328 
Q 4013 3213 3611 3725 
Q 3209 4238 2522 4238 
z
M 2522 4750 
Q 3503 4750 4090 4092 
Q 4678 3434 4678 2328 
Q 4678 1225 4090 567 
Q 3503 -91 2522 -91 
Q 1538 -91 948 565 
Q 359 1222 359 2328 
Q 359 3434 948 4092 
Q 1538 4750 2522 4750 
z
" transform="scale(0.015625)"/>
       <path id="DejaVuSans-76" d="M 191 3500 
L 800 3500 
L 1894 563 
L 2988 3500 
L 3597 3500 
L 2284 0 
L 1503 0 
L 191 3500 
z
" transform="scale(0.015625)"/>
       <path id="DejaVuSans-71" d="M 947 1747 
Q 947 1113 1208 752 
Q 1469 391 1925 391 
Q 2381 391 2643 752 
Q 2906 1113 2906 1747 
Q 2906 2381 2643 2742 
Q 2381 3103 1925 3103 
Q 1469 3103 1208 2742 
Q 947 2381 947 1747 
z
M 2906 525 
Q 2725 213 2448 61 
Q 2172 -91 1784 -91 
Q 1150 -91 751 415 
Q 353 922 353 1747 
Q 353 2572 751 3078 
Q 1150 3584 1784 3584 
Q 2172 3584 2448 3432 
Q 2725 3281 2906 2969 
L 2906 3500 
L 3481 3500 
L 3481 -1331 
L 2906 -1331 
L 2906 525 
z
" transform="scale(0.015625)"/>
       <path id="DejaVuSans-79" d="M 2059 -325 
Q 1816 -950 1584 -1140 
Q 1353 -1331 966 -1331 
L 506 -1331 
L 506 -850 
L 844 -850 
Q 1081 -850 1212 -737 
Q 1344 -625 1503 -206 
L 1606 56 
L 191 3500 
L 800 3500 
L 1894 763 
L 2988 3500 
L 3597 3500 
L 2059 -325 
z
" transform="scale(0.015625)"/>
      </defs>
      <use xlink:href="#DejaVuSans-4f"/>
      <use xlink:href="#DejaVuSans-62" x="78.710938"/>
      <use xlink:href="#DejaVuSans-73" x="142.1875"/>
      <use xlink:href="#DejaVuSans-65" x="194.287109"/>
      <use xlink:href="#DejaVuSans-72" x="255.810547"/>
      <use xlink:href="#DejaVuSans-76" x="296.923828"/>
      <use xlink:href="#DejaVuSans-65" x="356.103516"/>
      <use xlink:href="#DejaVuSans-64" x="417.626953"/>
      <use xlink:href="#DejaVuSans-20" x="481.103516"/>
      <use xlink:href="#DejaVuSans-66" x="512.890625"/>
      <use xlink:href="#DejaVuSans-72" x="548.095703"/>
      <use xlink:href="#DejaVuSans-65" x="586.958984"/>
      <use xlink:href="#DejaVuSans-71" x="648.482422"/>
      <use xlink:href="#DejaVuSans-75" x="711.958984"/>
      <use xlink:href="#DejaVuSans-65" x="775.337891"/>
      <use xlink:href="#DejaVuSans-6e" x="836.861328"/>
      <use xlink:href="#DejaVuSans-63" x="900.240234"/>
      <use xlink:href="#DejaVuSans-79" x="955.220703"/>
     </g>
    </g>
   </g>
   <g id="line2d_22">
    <path d="M 388.530933 213.20002 
L 421.305409 191.297992 
L 449.902438 175.527736 
L 479.034193 155.947461 
L 507.018668 139.696268 
L 535.355444 127.894307 
L 564.666919 110.630094 
L 593.198127 80.923544 
L 622.170744 59.116187 
L 648.754588 43.297927 
" clip-path="url(#pb2d7a57014)" style="fill: none; stroke: #4c78a8; stroke-width: 1.5; stroke-linecap: square"/>
    <defs>
     <path id="m3993040ec9" d="M 0 3 
C 0.795609 3 1.55874 2.683901 2.12132 2.12132 
C 2.683901 1.55874 3 0.795609 3 0 
C 3 -0.795609 2.683901 -1.55874 2.12132 -2.12132 
C 1.55874 -2.683901 0.795609 -3 0 -3 
C -0.795609 -3 -1.55874 -2.683901 -2.12132 -2.12132 
C -2.683901 -1.55874 -3 -0.795609 -3 0 
C -3 0.795609 -2.683901 1.55874 -2.12132 2.12132 
C -1.55874 2.683901 -0.795609 3 0 3 
z
" style="stroke: #4c78a8"/>
    </defs>
    <g clip-path="url(#pb2d7a57014)">
     <use xlink:href="#m3993040ec9" x="388.530933" y="213.20002" style="fill: #4c78a8; stroke: #4c78a8"/>
     <use xlink:href="#m3993040ec9" x="421.305409" y="191.297992" style="fill: #4c78a8; stroke: #4c78a8"/>
     <use xlink:href="#m3993040ec9" x="449.902438" y="175.527736" style="fill: #4c78a8; stroke: #4c78a8"/>
     <use xlink:href="#m3993040ec9" x="479.034193" y="155.947461" style="fill: #4c78a8; stroke: #4c78a8"/>
     <use xlink:href="#m3993040ec9" x="507.018668" y="139.696268" style="fill: #4c78a8; stroke: #4c78a8"/>
     <use xlink:href="#m3993040ec9" x="535.355444" y="127.894307" style="fill: #4c78a8; stroke: #4c78a8"/>
     <use xlink:href="#m3993040ec9" x="564.666919" y="110.630094" style="fill: #4c78a8; stroke: #4c78a8"/>
     <use xlink:href="#m3993040ec9" x="593.198127" y="80.923544" style="fill: #4c78a8; stroke: #4c78a8"/>
     <use xlink:href="#m3993040ec9" x="622.170744" y="59.116187" style="fill: #4c78a8; stroke: #4c78a8"/>
     <use xlink:href="#m3993040ec9" x="648.754588" y="43.297927" style="fill: #4c78a8; stroke: #4c78a8"/>
    </g>
   </g>
   <g id="line2d_23">
    <path d="M 388.294803 213.237812 
L 421.260227 192.879555 
L 449.948432 178.765566 
L 478.959184 158.258063 
L 507.53739 142.09721 
L 535.081509 121.235345 
L 564.732774 108.594944 
L 592.663135 84.782058 
L 621.548778 64.397938 
L 649.385492 33.158858 
" clip-path="url(#pb2d7a57014)" style="fill: none; stroke: #54a24b; stroke-width: 1.5; stroke-linecap: square"/>
    <defs>
     <path id="ma13a2f45b7" d="M 0 3 
C 0.795609 3 1.55874 2.683901 2.12132 2.12132 
C 2.683901 1.55874 3 0.795609 3 0 
C 3 -0.795609 2.683901 -1.55874 2.12132 -2.12132 
C 1.55874 -2.683901 0.795609 -3 0 -3 
C -0.795609 -3 -1.55874 -2.683901 -2.12132 -2.12132 
C -2.683901 -1.55874 -3 -0.795609 -3 0 
C -3 0.795609 -2.683901 1.55874 -2.12132 2.12132 
C -1.55874 2.683901 -0.795609 3 0 3 
z
" style="stroke: #54a24b"/>
    </defs>
    <g clip-path="url(#pb2d7a57014)">
     <use xlink:href="#ma13a2f45b7" x="388.294803" y="213.237812" style="fill: #54a24b; stroke: #54a24b"/>
     <use xlink:href="#ma13a2f45b7" x="421.260227" y="192.879555" style="fill: #54a24b; stroke: #54a24b"/>
     <use xlink:href="#ma13a2f45b7" x="449.948432" y="178.765566" style="fill: #54a24b; stroke: #54a24b"/>
     <use xlink:href="#ma13a2f45b7" x="478.959184" y="158.258063" style="fill: #54a24b; stroke: #54a24b"/>
     <use xlink:href="#ma13a2f45b7" x="507.53739" y="142.09721" style="fill: #54a24b; stroke: #54a24b"/>
     <use xlink:href="#ma13a2f45b7" x="535.081509" y="121.235345" style="fill: #54a24b; stroke: #54a24b"/>
     <use xlink:href="#ma13a2f45b7" x="564.732774" y="108.594944" style="fill: #54a24b; stroke: #54a24b"/>
     <use xlink:href="#ma13a2f45b7" x="592.663135" y="84.782058" style="fill: #54a24b; stroke: #54a24b"/>
     <use xlink:href="#ma13a2f45b7" x="621.548778" y="64.397938" style="fill: #54a24b; stroke: #54a24b"/>
     <use xlink:href="#ma13a2f45b7" x="649.385492" y="33.158858" style="fill: #54a24b; stroke: #54a24b"/>
    </g>
   </g>
   <g id="line2d_24">
    <path d="M 388.78184 213.067872 
L 420.716967 191.316158 
L 449.780198 175.788875 
L 479.075618 151.505915 
L 508.258922 145.793031 
L 536.448037 116.735352 
L 564.784261 96.835951 
L 592.621977 83.401923 
L 621.197226 57.550516 
L 649.025517 34.381005 
" clip-path="url(#pb2d7a57014)" style="fill: none; stroke: #b279a2; stroke-width: 1.5; stroke-linecap: square"/>
    <defs>
     <path id="mbc085a696d" d="M 0 3 
C 0.795609 3 1.55874 2.683901 2.12132 2.12132 
C 2.683901 1.55874 3 0.795609 3 0 
C 3 -0.795609 2.683901 -1.55874 2.12132 -2.12132 
C 1.55874 -2.683901 0.795609 -3 0 -3 
C -0.795609 -3 -1.55874 -2.683901 -2.12132 -2.12132 
C -2.683901 -1.55874 -3 -0.795609 -3 0 
C -3 0.795609 -2.683901 1.55874 -2.12132 2.12132 
C -1.55874 2.683901 -0.795609 3 0 3 
z
" style="stroke: #b279a2"/>
    </defs>
    <g clip-path="url(#pb2d7a57014)">
     <use xlink:href="#mbc085a696d" x="388.78184" y="213.067872" style="fill: #b279a2; stroke: #b279a2"/>
     <use xlink:href="#mbc085a696d" x="420.716967" y="191.316158" style="fill: #b279a2; stroke: #b279a2"/>
     <use xlink:href="#mbc085a696d" x="449.780198" y="175.788875" style="fill: #b279a2; stroke: #b279a2"/>
     <use xlink:href="#mbc085a696d" x="479.075618" y="151.505915" style="fill: #b279a2; stroke: #b279a2"/>
     <use xlink:href="#mbc085a696d" x="508.258922" y="145.793031" style="fill: #b279a2; stroke: #b279a2"/>
     <use xlink:href="#mbc085a696d" x="536.448037" y="116.735352" style="fill: #b279a2; stroke: #b279a2"/>
     <use xlink:href="#mbc085a696d" x="564.784261" y="96.835951" style="fill: #b279a2; stroke: #b279a2"/>
     <use xlink:href="#mbc085a696d" x="592.621977" y="83.401923" style="fill: #b279a2; stroke: #b279a2"/>
     <use xlink:href="#mbc085a696d" x="621.197226" y="57.550516" style="fill: #b279a2; stroke: #b279a2"/>
     <use xlink:href="#mbc085a696d" x="649.025517" y="34.381005" style="fill: #b279a2; stroke: #b279a2"/>
    </g>
   </g>
   <g id="line2d_25">
    <path d="M 380.633854 218.134125 
L 663.103646 22.318125 
" clip-path="url(#pb2d7a57014)" style="fill: none; stroke-dasharray: 3.7,1.6; stroke-dashoffset: 0; stroke: #777777"/>
   </g>
   <g id="patch_16">
    <path d="M 380.633854 218.134125 
L 380.633854 22.318125 
" style="fill: none; stroke: #000000; stroke-width: 0.8; stroke-linejoin: miter; stroke-linecap: square"/>
   </g>
   <g id="patch_17">
    <path d="M 380.633854 218.134125 
L 663.103646 218.134125 
" style="fill: none; stroke: #000000; stroke-width: 0.8; stroke-linejoin: miter; stroke-linecap: square"/>
   </g>
   <g id="text_28">
    <!-- Internal reliability -->
    <g transform="translate(469.090312 16.318125) scale(0.12 -0.12)">
     <use xlink:href="#DejaVuSans-49"/>
     <use xlink:href="#DejaVuSans-6e" x="29.492188"/>
     <use xlink:href="#DejaVuSans-74" x="92.871094"/>
     <use xlink:href="#DejaVuSans-65" x="132.080078"/>
     <use xlink:href="#DejaVuSans-72" x="193.603516"/>
     <use xlink:href="#DejaVuSans-6e" x="232.966797"/>
     <use xlink:href="#DejaVuSans-61" x="296.345703"/>
     <use xlink:href="#DejaVuSans-6c" x="357.625"/>
     <use xlink:href="#DejaVuSans-20" x="385.408203"/>
     <use xlink:href="#DejaVuSans-72" x="417.195312"/>
     <use xlink:href="#DejaVuSans-65" x="456.058594"/>
     <use xlink:href="#DejaVuSans-6c" x="517.582031"/>
     <use xlink:href="#DejaVuSans-69" x="545.365234"/>
     <use xlink:href="#DejaVuSans-61" x="573.148438"/>
     <use xlink:href="#DejaVuSans-62" x="634.427734"/>
     <use xlink:href="#DejaVuSans-69" x="697.904297"/>
     <use xlink:href="#DejaVuSans-6c" x="725.6875"/>
     <use xlink:href="#DejaVuSans-69" x="753.470703"/>
     <use xlink:href="#DejaVuSans-74" x="781.253906"/>
     <use xlink:href="#DejaVuSans-79" x="820.462891"/>
    </g>
   </g>
   <g id="legend_2">
    <g id="line2d_26">
     <path d="M 387.833854 32.796875 
L 395.833854 32.796875 
L 403.833854 32.796875 
" style="fill: none; stroke: #4c78a8; stroke-width: 1.5; stroke-linecap: square"/>
     <g>
      <use xlink:href="#m3993040ec9" x="395.833854" y="32.796875" style="fill: #4c78a8; stroke: #4c78a8"/>
     </g>
    </g>
    <g id="text_29">
     <!-- strong signal only -->
     <g transform="translate(410.233854 35.596875) scale(0.08 -0.08)">
      <use xlink:href="#DejaVuSans-73"/>
      <use xlink:href="#DejaVuSans-74" x="52.099609"/>
      <use xlink:href="#DejaVuSans-72" x="91.308594"/>
      <use xlink:href="#DejaVuSans-6f" x="130.171875"/>
      <use xlink:href="#DejaVuSans-6e" x="191.353516"/>
      <use xlink:href="#DejaVuSans-67" x="254.732422"/>
      <use xlink:href="#DejaVuSans-20" x="318.208984"/>
      <use xlink:href="#DejaVuSans-73" x="349.996094"/>
      <use xlink:href="#DejaVuSans-69" x="402.095703"/>
      <use xlink:href="#DejaVuSans-67" x="429.878906"/>
      <use xlink:href="#DejaVuSans-6e" x="493.355469"/>
      <use xlink:href="#DejaVuSans-61" x="556.734375"/>
      <use xlink:href="#DejaVuSans-6c" x="618.013672"/>
      <use xlink:href="#DejaVuSans-20" x="645.796875"/>
      <use xlink:href="#DejaVuSans-6f" x="677.583984"/>
      <use xlink:href="#DejaVuSans-6e" x="738.765625"/>
      <use xlink:href="#DejaVuSans-6c" x="802.144531"/>
      <use xlink:href="#DejaVuSans-79" x="829.927734"/>
     </g>
    </g>
    <g id="line2d_27">
     <path d="M 387.833854 44.539375 
L 395.833854 44.539375 
L 403.833854 44.539375 
" style="fill: none; stroke: #54a24b; stroke-width: 1.5; stroke-linecap: square"/>
     <g>
      <use xlink:href="#ma13a2f45b7" x="395.833854" y="44.539375" style="fill: #54a24b; stroke: #54a24b"/>
     </g>
    </g>
    <g id="text_30">
     <!-- fair concat mlp -->
     <g transform="translate(410.233854 47.339375) scale(0.08 -0.08)">
      <defs>
       <path id="DejaVuSans-70" d="M 1159 525 
L 1159 -1331 
L 581 -1331 
L 581 3500 
L 1159 3500 
L 1159 2969 
Q 1341 3281 1617 3432 
Q 1894 3584 2278 3584 
Q 2916 3584 3314 3078 
Q 3713 2572 3713 1747 
Q 3713 922 3314 415 
Q 2916 -91 2278 -91 
Q 1894 -91 1617 61 
Q 1341 213 1159 525 
z
M 3116 1747 
Q 3116 2381 2855 2742 
Q 2594 3103 2138 3103 
Q 1681 3103 1420 2742 
Q 1159 2381 1159 1747 
Q 1159 1113 1420 752 
Q 1681 391 2138 391 
Q 2594 391 2855 752 
Q 3116 1113 3116 1747 
z
" transform="scale(0.015625)"/>
      </defs>
      <use xlink:href="#DejaVuSans-66"/>
      <use xlink:href="#DejaVuSans-61" x="35.205078"/>
      <use xlink:href="#DejaVuSans-69" x="96.484375"/>
      <use xlink:href="#DejaVuSans-72" x="124.267578"/>
      <use xlink:href="#DejaVuSans-20" x="165.380859"/>
      <use xlink:href="#DejaVuSans-63" x="197.167969"/>
      <use xlink:href="#DejaVuSans-6f" x="252.148438"/>
      <use xlink:href="#DejaVuSans-6e" x="313.330078"/>
      <use xlink:href="#DejaVuSans-63" x="376.708984"/>
      <use xlink:href="#DejaVuSans-61" x="431.689453"/>
      <use xlink:href="#DejaVuSans-74" x="492.96875"/>
      <use xlink:href="#DejaVuSans-20" x="532.177734"/>
      <use xlink:href="#DejaVuSans-6d" x="563.964844"/>
      <use xlink:href="#DejaVuSans-6c" x="661.376953"/>
      <use xlink:href="#DejaVuSans-70" x="689.160156"/>
     </g>
    </g>
    <g id="line2d_28">
     <path d="M 387.833854 56.281875 
L 395.833854 56.281875 
L 403.833854 56.281875 
" style="fill: none; stroke: #b279a2; stroke-width: 1.5; stroke-linecap: square"/>
     <g>
      <use xlink:href="#mbc085a696d" x="395.833854" y="56.281875" style="fill: #b279a2; stroke: #b279a2"/>
     </g>
    </g>
    <g id="text_31">
     <!-- gated fusion mlp -->
     <g transform="translate(410.233854 59.081875) scale(0.08 -0.08)">
      <use xlink:href="#DejaVuSans-67"/>
      <use xlink:href="#DejaVuSans-61" x="63.476562"/>
      <use xlink:href="#DejaVuSans-74" x="124.755859"/>
      <use xlink:href="#DejaVuSans-65" x="163.964844"/>
      <use xlink:href="#DejaVuSans-64" x="225.488281"/>
      <use xlink:href="#DejaVuSans-20" x="288.964844"/>
      <use xlink:href="#DejaVuSans-66" x="320.751953"/>
      <use xlink:href="#DejaVuSans-75" x="355.957031"/>
      <use xlink:href="#DejaVuSans-73" x="419.335938"/>
      <use xlink:href="#DejaVuSans-69" x="471.435547"/>
      <use xlink:href="#DejaVuSans-6f" x="499.21875"/>
      <use xlink:href="#DejaVuSans-6e" x="560.400391"/>
      <use xlink:href="#DejaVuSans-20" x="623.779297"/>
      <use xlink:href="#DejaVuSans-6d" x="655.566406"/>
      <use xlink:href="#DejaVuSans-6c" x="752.978516"/>
      <use xlink:href="#DejaVuSans-70" x="780.761719"/>
     </g>
    </g>
   </g>
  </g>
  <g id="axes_3">
   <g id="patch_18">
    <path d="M 711.123958 218.134125 
L 993.59375 218.134125 
L 993.59375 22.318125 
L 711.123958 22.318125 
z
" style="fill: #ffffff"/>
   </g>
   <g id="patch_19">
    <path d="M 723.963494 218.134125 
L 776.832172 218.134125 
L 776.832172 50.716866 
L 723.963494 50.716866 
z
" clip-path="url(#p7143bb0d39)" style="fill: #4c78a8"/>
   </g>
   <g id="patch_20">
    <path d="M 875.016859 218.134125 
L 927.885536 218.134125 
L 927.885536 105.271558 
L 875.016859 105.271558 
z
" clip-path="url(#p7143bb0d39)" style="fill: #4c78a8"/>
   </g>
   <g id="patch_21">
    <path d="M 776.832172 218.134125 
L 829.700849 218.134125 
L 829.700849 51.502061 
L 776.832172 51.502061 
z
" clip-path="url(#p7143bb0d39)" style="fill: #f58518"/>
   </g>
   <g id="patch_22">
    <path d="M 927.885536 218.134125 
L 980.754214 218.134125 
L 980.754214 31.642696 
L 927.885536 31.642696 
z
" clip-path="url(#p7143bb0d39)" style="fill: #f58518"/>
   </g>
   <g id="matplotlib.axis_5">
    <g id="xtick_11">
     <g id="line2d_29">
      <g>
       <use xlink:href="#m5fedae9a9a" x="776.832172" y="218.134125" style="stroke: #000000; stroke-width: 0.8"/>
      </g>
     </g>
     <g id="text_32">
      <!-- CPSC2018 -->
      <g transform="translate(726.264988 245.878861) rotate(-15) scale(0.1 -0.1)">
       <defs>
        <path id="DejaVuSans-50" d="M 1259 4147 
L 1259 2394 
L 2053 2394 
Q 2494 2394 2734 2622 
Q 2975 2850 2975 3272 
Q 2975 3691 2734 3919 
Q 2494 4147 2053 4147 
L 1259 4147 
z
M 628 4666 
L 2053 4666 
Q 2838 4666 3239 4311 
Q 3641 3956 3641 3272 
Q 3641 2581 3239 2228 
Q 2838 1875 2053 1875 
L 1259 1875 
L 1259 0 
L 628 0 
L 628 4666 
z
" transform="scale(0.015625)"/>
       </defs>
       <use xlink:href="#DejaVuSans-43"/>
       <use xlink:href="#DejaVuSans-50" x="69.824219"/>
       <use xlink:href="#DejaVuSans-53" x="130.126953"/>
       <use xlink:href="#DejaVuSans-43" x="193.603516"/>
       <use xlink:href="#DejaVuSans-32" x="263.427734"/>
       <use xlink:href="#DejaVuSans-30" x="327.050781"/>
       <use xlink:href="#DejaVuSans-31" x="390.673828"/>
       <use xlink:href="#DejaVuSans-38" x="454.296875"/>
      </g>
     </g>
    </g>
    <g id="xtick_12">
     <g id="line2d_30">
      <g>
       <use xlink:href="#m5fedae9a9a" x="927.885536" y="218.134125" style="stroke: #000000; stroke-width: 0.8"/>
      </g>
     </g>
     <g id="text_33">
      <!-- Chapman-Shaoxing -->
      <g transform="translate(833.05933 257.73803) rotate(-15) scale(0.1 -0.1)">
       <defs>
        <path id="DejaVuSans-68" d="M 3513 2113 
L 3513 0 
L 2938 0 
L 2938 2094 
Q 2938 2591 2744 2837 
Q 2550 3084 2163 3084 
Q 1697 3084 1428 2787 
Q 1159 2491 1159 1978 
L 1159 0 
L 581 0 
L 581 4863 
L 1159 4863 
L 1159 2956 
Q 1366 3272 1645 3428 
Q 1925 3584 2291 3584 
Q 2894 3584 3203 3211 
Q 3513 2838 3513 2113 
z
" transform="scale(0.015625)"/>
        <path id="DejaVuSans-2d" d="M 313 2009 
L 1997 2009 
L 1997 1497 
L 313 1497 
L 313 2009 
z
" transform="scale(0.015625)"/>
        <path id="DejaVuSans-78" d="M 3513 3500 
L 2247 1797 
L 3578 0 
L 2900 0 
L 1881 1375 
L 863 0 
L 184 0 
L 1544 1831 
L 300 3500 
L 978 3500 
L 1906 2253 
L 2834 3500 
L 3513 3500 
z
" transform="scale(0.015625)"/>
       </defs>
       <use xlink:href="#DejaVuSans-43"/>
       <use xlink:href="#DejaVuSans-68" x="69.824219"/>
       <use xlink:href="#DejaVuSans-61" x="133.203125"/>
       <use xlink:href="#DejaVuSans-70" x="194.482422"/>
       <use xlink:href="#DejaVuSans-6d" x="257.958984"/>
       <use xlink:href="#DejaVuSans-61" x="355.371094"/>
       <use xlink:href="#DejaVuSans-6e" x="416.650391"/>
       <use xlink:href="#DejaVuSans-2d" x="480.029297"/>
       <use xlink:href="#DejaVuSans-53" x="516.113281"/>
       <use xlink:href="#DejaVuSans-68" x="579.589844"/>
       <use xlink:href="#DejaVuSans-61" x="642.96875"/>
       <use xlink:href="#DejaVuSans-6f" x="704.248047"/>
       <use xlink:href="#DejaVuSans-78" x="762.304688"/>
       <use xlink:href="#DejaVuSans-69" x="821.484375"/>
       <use xlink:href="#DejaVuSans-6e" x="849.267578"/>
       <use xlink:href="#DejaVuSans-67" x="912.646484"/>
      </g>
     </g>
    </g>
   </g>
   <g id="matplotlib.axis_6">
    <g id="ytick_12">
     <g id="line2d_31">
      <g>
       <use xlink:href="#mfc10a344f5" x="711.123958" y="218.134125" style="stroke: #000000; stroke-width: 0.8"/>
      </g>
     </g>
     <g id="text_34">
      <!-- 0.00 -->
      <g transform="translate(681.858333 221.933344) scale(0.1 -0.1)">
       <use xlink:href="#DejaVuSans-30"/>
       <use xlink:href="#DejaVuSans-2e" x="63.623047"/>
       <use xlink:href="#DejaVuSans-30" x="95.410156"/>
       <use xlink:href="#DejaVuSans-30" x="159.033203"/>
      </g>
     </g>
    </g>
    <g id="ytick_13">
     <g id="line2d_32">
      <g>
       <use xlink:href="#mfc10a344f5" x="711.123958" y="191.721705" style="stroke: #000000; stroke-width: 0.8"/>
      </g>
     </g>
     <g id="text_35">
      <!-- 0.02 -->
      <g transform="translate(681.858333 195.520924) scale(0.1 -0.1)">
       <use xlink:href="#DejaVuSans-30"/>
       <use xlink:href="#DejaVuSans-2e" x="63.623047"/>
       <use xlink:href="#DejaVuSans-30" x="95.410156"/>
       <use xlink:href="#DejaVuSans-32" x="159.033203"/>
      </g>
     </g>
    </g>
    <g id="ytick_14">
     <g id="line2d_33">
      <g>
       <use xlink:href="#mfc10a344f5" x="711.123958" y="165.309286" style="stroke: #000000; stroke-width: 0.8"/>
      </g>
     </g>
     <g id="text_36">
      <!-- 0.04 -->
      <g transform="translate(681.858333 169.108504) scale(0.1 -0.1)">
       <use xlink:href="#DejaVuSans-30"/>
       <use xlink:href="#DejaVuSans-2e" x="63.623047"/>
       <use xlink:href="#DejaVuSans-30" x="95.410156"/>
       <use xlink:href="#DejaVuSans-34" x="159.033203"/>
      </g>
     </g>
    </g>
    <g id="ytick_15">
     <g id="line2d_34">
      <g>
       <use xlink:href="#mfc10a344f5" x="711.123958" y="138.896866" style="stroke: #000000; stroke-width: 0.8"/>
      </g>
     </g>
     <g id="text_37">
      <!-- 0.06 -->
      <g transform="translate(681.858333 142.696085) scale(0.1 -0.1)">
       <use xlink:href="#DejaVuSans-30"/>
       <use xlink:href="#DejaVuSans-2e" x="63.623047"/>
       <use xlink:href="#DejaVuSans-30" x="95.410156"/>
       <use xlink:href="#DejaVuSans-36" x="159.033203"/>
      </g>
     </g>
    </g>
    <g id="ytick_16">
     <g id="line2d_35">
      <g>
       <use xlink:href="#mfc10a344f5" x="711.123958" y="112.484446" style="stroke: #000000; stroke-width: 0.8"/>
      </g>
     </g>
     <g id="text_38">
      <!-- 0.08 -->
      <g transform="translate(681.858333 116.283665) scale(0.1 -0.1)">
       <use xlink:href="#DejaVuSans-30"/>
       <use xlink:href="#DejaVuSans-2e" x="63.623047"/>
       <use xlink:href="#DejaVuSans-30" x="95.410156"/>
       <use xlink:href="#DejaVuSans-38" x="159.033203"/>
      </g>
     </g>
    </g>
    <g id="ytick_17">
     <g id="line2d_36">
      <g>
       <use xlink:href="#mfc10a344f5" x="711.123958" y="86.072026" style="stroke: #000000; stroke-width: 0.8"/>
      </g>
     </g>
     <g id="text_39">
      <!-- 0.10 -->
      <g transform="translate(681.858333 89.871245) scale(0.1 -0.1)">
       <use xlink:href="#DejaVuSans-30"/>
       <use xlink:href="#DejaVuSans-2e" x="63.623047"/>
       <use xlink:href="#DejaVuSans-31" x="95.410156"/>
       <use xlink:href="#DejaVuSans-30" x="159.033203"/>
      </g>
     </g>
    </g>
    <g id="ytick_18">
     <g id="line2d_37">
      <g>
       <use xlink:href="#mfc10a344f5" x="711.123958" y="59.659607" style="stroke: #000000; stroke-width: 0.8"/>
      </g>
     </g>
     <g id="text_40">
      <!-- 0.12 -->
      <g transform="translate(681.858333 63.458825) scale(0.1 -0.1)">
       <use xlink:href="#DejaVuSans-30"/>
       <use xlink:href="#DejaVuSans-2e" x="63.623047"/>
       <use xlink:href="#DejaVuSans-31" x="95.410156"/>
       <use xlink:href="#DejaVuSans-32" x="159.033203"/>
      </g>
     </g>
    </g>
    <g id="ytick_19">
     <g id="line2d_38">
      <g>
       <use xlink:href="#mfc10a344f5" x="711.123958" y="33.247187" style="stroke: #000000; stroke-width: 0.8"/>
      </g>
     </g>
     <g id="text_41">
      <!-- 0.14 -->
      <g transform="translate(681.858333 37.046406) scale(0.1 -0.1)">
       <use xlink:href="#DejaVuSans-30"/>
       <use xlink:href="#DejaVuSans-2e" x="63.623047"/>
       <use xlink:href="#DejaVuSans-31" x="95.410156"/>
       <use xlink:href="#DejaVuSans-34" x="159.033203"/>
      </g>
     </g>
    </g>
   </g>
   <g id="patch_23">
    <path d="M 711.123958 218.134125 
L 711.123958 22.318125 
" style="fill: none; stroke: #000000; stroke-width: 0.8; stroke-linejoin: miter; stroke-linecap: square"/>
   </g>
   <g id="patch_24">
    <path d="M 711.123958 218.134125 
L 993.59375 218.134125 
" style="fill: none; stroke: #000000; stroke-width: 0.8; stroke-linejoin: miter; stroke-linecap: square"/>
   </g>
   <g id="text_42">
    <!-- Temperature fit internally; no external refitting. -->
    <g transform="translate(757.835104 282.957675) scale(0.08 -0.08)">
     <defs>
      <path id="DejaVuSans-54" d="M -19 4666 
L 3928 4666 
L 3928 4134 
L 2272 4134 
L 2272 0 
L 1638 0 
L 1638 4134 
L -19 4134 
L -19 4666 
z
" transform="scale(0.015625)"/>
      <path id="DejaVuSans-3b" d="M 750 3309 
L 1409 3309 
L 1409 2516 
L 750 2516 
L 750 3309 
z
M 750 794 
L 1409 794 
L 1409 256 
L 897 -744 
L 494 -744 
L 750 256 
L 750 794 
z
" transform="scale(0.015625)"/>
     </defs>
     <use xlink:href="#DejaVuSans-54"/>
     <use xlink:href="#DejaVuSans-65" x="44.083984"/>
     <use xlink:href="#DejaVuSans-6d" x="105.607422"/>
     <use xlink:href="#DejaVuSans-70" x="203.019531"/>
     <use xlink:href="#DejaVuSans-65" x="266.496094"/>
     <use xlink:href="#DejaVuSans-72" x="328.019531"/>
     <use xlink:href="#DejaVuSans-61" x="369.132812"/>
     <use xlink:href="#DejaVuSans-74" x="430.412109"/>
     <use xlink:href="#DejaVuSans-75" x="469.621094"/>
     <use xlink:href="#DejaVuSans-72" x="533"/>
     <use xlink:href="#DejaVuSans-65" x="571.863281"/>
     <use xlink:href="#DejaVuSans-20" x="633.386719"/>
     <use xlink:href="#DejaVuSans-66" x="665.173828"/>
     <use xlink:href="#DejaVuSans-69" x="700.378906"/>
     <use xlink:href="#DejaVuSans-74" x="728.162109"/>
     <use xlink:href="#DejaVuSans-20" x="767.371094"/>
     <use xlink:href="#DejaVuSans-69" x="799.158203"/>
     <use xlink:href="#DejaVuSans-6e" x="826.941406"/>
     <use xlink:href="#DejaVuSans-74" x="890.320312"/>
     <use xlink:href="#DejaVuSans-65" x="929.529297"/>
     <use xlink:href="#DejaVuSans-72" x="991.052734"/>
     <use xlink:href="#DejaVuSans-6e" x="1030.416016"/>
     <use xlink:href="#DejaVuSans-61" x="1093.794922"/>
     <use xlink:href="#DejaVuSans-6c" x="1155.074219"/>
     <use xlink:href="#DejaVuSans-6c" x="1182.857422"/>
     <use xlink:href="#DejaVuSans-79" x="1210.640625"/>
     <use xlink:href="#DejaVuSans-3b" x="1269.820312"/>
     <use xlink:href="#DejaVuSans-20" x="1303.511719"/>
     <use xlink:href="#DejaVuSans-6e" x="1335.298828"/>
     <use xlink:href="#DejaVuSans-6f" x="1398.677734"/>
     <use xlink:href="#DejaVuSans-20" x="1459.859375"/>
     <use xlink:href="#DejaVuSans-65" x="1491.646484"/>
     <use xlink:href="#DejaVuSans-78" x="1551.419922"/>
     <use xlink:href="#DejaVuSans-74" x="1610.599609"/>
     <use xlink:href="#DejaVuSans-65" x="1649.808594"/>
     <use xlink:href="#DejaVuSans-72" x="1711.332031"/>
     <use xlink:href="#DejaVuSans-6e" x="1750.695312"/>
     <use xlink:href="#DejaVuSans-61" x="1814.074219"/>
     <use xlink:href="#DejaVuSans-6c" x="1875.353516"/>
     <use xlink:href="#DejaVuSans-20" x="1903.136719"/>
     <use xlink:href="#DejaVuSans-72" x="1934.923828"/>
     <use xlink:href="#DejaVuSans-65" x="1973.787109"/>
     <use xlink:href="#DejaVuSans-66" x="2035.310547"/>
     <use xlink:href="#DejaVuSans-69" x="2070.515625"/>
     <use xlink:href="#DejaVuSans-74" x="2098.298828"/>
     <use xlink:href="#DejaVuSans-74" x="2137.507812"/>
     <use xlink:href="#DejaVuSans-69" x="2176.716797"/>
     <use xlink:href="#DejaVuSans-6e" x="2204.5"/>
     <use xlink:href="#DejaVuSans-67" x="2267.878906"/>
     <use xlink:href="#DejaVuSans-2e" x="2331.355469"/>
    </g>
    <!-- Distribution-shift behavior, not clinical readiness. -->
    <g transform="translate(754.097604 291.915925) scale(0.08 -0.08)">
     <defs>
      <path id="DejaVuSans-44" d="M 1259 4147 
L 1259 519 
L 2022 519 
Q 2988 519 3436 956 
Q 3884 1394 3884 2338 
Q 3884 3275 3436 3711 
Q 2988 4147 2022 4147 
L 1259 4147 
z
M 628 4666 
L 1925 4666 
Q 3281 4666 3915 4102 
Q 4550 3538 4550 2338 
Q 4550 1131 3912 565 
Q 3275 0 1925 0 
L 628 0 
L 628 4666 
z
" transform="scale(0.015625)"/>
      <path id="DejaVuSans-2c" d="M 750 794 
L 1409 794 
L 1409 256 
L 897 -744 
L 494 -744 
L 750 256 
L 750 794 
z
" transform="scale(0.015625)"/>
     </defs>
     <use xlink:href="#DejaVuSans-44"/>
     <use xlink:href="#DejaVuSans-69" x="77.001953"/>
     <use xlink:href="#DejaVuSans-73" x="104.785156"/>
     <use xlink:href="#DejaVuSans-74" x="156.884766"/>
     <use xlink:href="#DejaVuSans-72" x="196.09375"/>
     <use xlink:href="#DejaVuSans-69" x="237.207031"/>
     <use xlink:href="#DejaVuSans-62" x="264.990234"/>
     <use xlink:href="#DejaVuSans-75" x="328.466797"/>
     <use xlink:href="#DejaVuSans-74" x="391.845703"/>
     <use xlink:href="#DejaVuSans-69" x="431.054688"/>
     <use xlink:href="#DejaVuSans-6f" x="458.837891"/>
     <use xlink:href="#DejaVuSans-6e" x="520.019531"/>
     <use xlink:href="#DejaVuSans-2d" x="583.398438"/>
     <use xlink:href="#DejaVuSans-73" x="619.482422"/>
     <use xlink:href="#DejaVuSans-68" x="671.582031"/>
     <use xlink:href="#DejaVuSans-69" x="734.960938"/>
     <use xlink:href="#DejaVuSans-66" x="762.744141"/>
     <use xlink:href="#DejaVuSans-74" x="796.199219"/>
     <use xlink:href="#DejaVuSans-20" x="835.408203"/>
     <use xlink:href="#DejaVuSans-62" x="867.195312"/>
     <use xlink:href="#DejaVuSans-65" x="930.671875"/>
     <use xlink:href="#DejaVuSans-68" x="992.195312"/>
     <use xlink:href="#DejaVuSans-61" x="1055.574219"/>
     <use xlink:href="#DejaVuSans-76" x="1116.853516"/>
     <use xlink:href="#DejaVuSans-69" x="1176.033203"/>
     <use xlink:href="#DejaVuSans-6f" x="1203.816406"/>
     <use xlink:href="#DejaVuSans-72" x="1264.998047"/>
     <use xlink:href="#DejaVuSans-2c" x="1306.111328"/>
     <use xlink:href="#DejaVuSans-20" x="1337.898438"/>
     <use xlink:href="#DejaVuSans-6e" x="1369.685547"/>
     <use xlink:href="#DejaVuSans-6f" x="1433.064453"/>
     <use xlink:href="#DejaVuSans-74" x="1494.246094"/>
     <use xlink:href="#DejaVuSans-20" x="1533.455078"/>
     <use xlink:href="#DejaVuSans-63" x="1565.242188"/>
     <use xlink:href="#DejaVuSans-6c" x="1620.222656"/>
     <use xlink:href="#DejaVuSans-69" x="1648.005859"/>
     <use xlink:href="#DejaVuSans-6e" x="1675.789062"/>
     <use xlink:href="#DejaVuSans-69" x="1739.167969"/>
     <use xlink:href="#DejaVuSans-63" x="1766.951172"/>
     <use xlink:href="#DejaVuSans-61" x="1821.931641"/>
     <use xlink:href="#DejaVuSans-6c" x="1883.210938"/>
     <use xlink:href="#DejaVuSans-20" x="1910.994141"/>
     <use xlink:href="#DejaVuSans-72" x="1942.78125"/>
     <use xlink:href="#DejaVuSans-65" x="1981.644531"/>
     <use xlink:href="#DejaVuSans-61" x="2043.167969"/>
     <use xlink:href="#DejaVuSans-64" x="2104.447266"/>
     <use xlink:href="#DejaVuSans-69" x="2167.923828"/>
     <use xlink:href="#DejaVuSans-6e" x="2195.707031"/>
     <use xlink:href="#DejaVuSans-65" x="2259.085938"/>
     <use xlink:href="#DejaVuSans-73" x="2320.609375"/>
     <use xlink:href="#DejaVuSans-73" x="2372.708984"/>
     <use xlink:href="#DejaVuSans-2e" x="2424.808594"/>
    </g>
   </g>
   <g id="text_43">
    <!-- External signal-only calibration -->
    <g transform="translate(759.178854 16.318125) scale(0.12 -0.12)">
     <use xlink:href="#DejaVuSans-45"/>
     <use xlink:href="#DejaVuSans-78" x="63.183594"/>
     <use xlink:href="#DejaVuSans-74" x="122.363281"/>
     <use xlink:href="#DejaVuSans-65" x="161.572266"/>
     <use xlink:href="#DejaVuSans-72" x="223.095703"/>
     <use xlink:href="#DejaVuSans-6e" x="262.458984"/>
     <use xlink:href="#DejaVuSans-61" x="325.837891"/>
     <use xlink:href="#DejaVuSans-6c" x="387.117188"/>
     <use xlink:href="#DejaVuSans-20" x="414.900391"/>
     <use xlink:href="#DejaVuSans-73" x="446.6875"/>
     <use xlink:href="#DejaVuSans-69" x="498.787109"/>
     <use xlink:href="#DejaVuSans-67" x="526.570312"/>
     <use xlink:href="#DejaVuSans-6e" x="590.046875"/>
     <use xlink:href="#DejaVuSans-61" x="653.425781"/>
     <use xlink:href="#DejaVuSans-6c" x="714.705078"/>
     <use xlink:href="#DejaVuSans-2d" x="742.488281"/>
     <use xlink:href="#DejaVuSans-6f" x="780.447266"/>
     <use xlink:href="#DejaVuSans-6e" x="841.628906"/>
     <use xlink:href="#DejaVuSans-6c" x="905.007812"/>
     <use xlink:href="#DejaVuSans-79" x="932.791016"/>
     <use xlink:href="#DejaVuSans-20" x="991.970703"/>
     <use xlink:href="#DejaVuSans-63" x="1023.757812"/>
     <use xlink:href="#DejaVuSans-61" x="1078.738281"/>
     <use xlink:href="#DejaVuSans-6c" x="1140.017578"/>
     <use xlink:href="#DejaVuSans-69" x="1167.800781"/>
     <use xlink:href="#DejaVuSans-62" x="1195.583984"/>
     <use xlink:href="#DejaVuSans-72" x="1259.060547"/>
     <use xlink:href="#DejaVuSans-61" x="1300.173828"/>
     <use xlink:href="#DejaVuSans-74" x="1361.453125"/>
     <use xlink:href="#DejaVuSans-69" x="1400.662109"/>
     <use xlink:href="#DejaVuSans-6f" x="1428.445312"/>
     <use xlink:href="#DejaVuSans-6e" x="1489.626953"/>
    </g>
   </g>
   <g id="legend_3">
    <g id="patch_25">
     <path d="M 932.579687 38.916562 
L 952.579687 38.916562 
L 952.579687 31.916562 
L 932.579687 31.916562 
z
" style="fill: #4c78a8"/>
    </g>
    <g id="text_44">
     <!-- Brier -->
     <g transform="translate(960.579687 38.916562) scale(0.1 -0.1)">
      <use xlink:href="#DejaVuSans-42"/>
      <use xlink:href="#DejaVuSans-72" x="68.603516"/>
      <use xlink:href="#DejaVuSans-69" x="109.716797"/>
      <use xlink:href="#DejaVuSans-65" x="137.5"/>
      <use xlink:href="#DejaVuSans-72" x="199.023438"/>
     </g>
    </g>
    <g id="patch_26">
     <path d="M 932.579687 53.594687 
L 952.579687 53.594687 
L 952.579687 46.594687 
L 932.579687 46.594687 
z
" style="fill: #f58518"/>
    </g>
    <g id="text_45">
     <!-- ECE -->
     <g transform="translate(960.579687 53.594687) scale(0.1 -0.1)">
      <use xlink:href="#DejaVuSans-45"/>
      <use xlink:href="#DejaVuSans-43" x="63.183594"/>
      <use xlink:href="#DejaVuSans-45" x="133.007812"/>
     </g>
    </g>
   </g>
  </g>
 </g>
 <defs>
  <clipPath id="p245df0f722">
   <rect x="50.14375" y="22.318125" width="282.469792" height="195.816"/>
  </clipPath>
  <clipPath id="pb2d7a57014">
   <rect x="380.633854" y="22.318125" width="282.469792" height="195.816"/>
  </clipPath>
  <clipPath id="p7143bb0d39">
   <rect x="711.123958" y="22.318125" width="282.469792" height="195.816"/>
  </clipPath>
 </defs>
</svg>
