<?xml version="1.0" encoding="utf-8" standalone="no"?>
<!DOCTYPE svg PUBLIC "-//W3C//DTD SVG 1.1//EN"
  "http://www.w3.org/Graphics/SVG/1.1/DTD/svg11.dtd">
<svg xmlns:xlink="http://www.w3.org/1999/xlink" width="942.4pt" height="308.8pt" viewBox="0 0 942.4 308.8" xmlns="http://www.w3.org/2000/svg" version="1.1">
 <metadata>
  <rdf:RDF xmlns:dc="http://purl.org/dc/elements/1.1/" xmlns:cc="http://creativecommons.org/ns#" xmlns:rdf="http://www.w3.org/1999/02/22-rdf-syntax-ns#">
   <cc:Work>
    <dc:type rdf:resource="http://purl.org/dc/dcmitype/StillImage"/>
    <dc:date>2026-06-30T22:06:54.770236</dc:date>
    <dc:format>image/svg+xml</dc:format>
    <dc:creator>
     <cc:Agent>
      <dc:title>Matplotlib v3.9.4, https://matplotlib.org/</dc:title>
     </cc:Agent>
    </dc:creator>
   </cc:Work>
  </rdf:RDF>
 </metadata>
 <defs>
  <style type="text/css">*{stroke-linejoin: round; stroke-linecap: butt}</style>
 </defs>
 <g id="figure_1">
  <g id="patch_1">
   <path d="M 0 308.8 
L 942.4 308.8 
L 942.4 0 
L 0 0 
z
" style="fill: #ffffff"/>
  </g>
  <g id="axes_1">
   <g id="patch_2">
    <path d="M 36.467692 264.449524 
L 224.209231 264.449524 
Q 229.92 264.449524 229.92 258.841905 
L 229.92 60.472381 
Q 229.92 54.864762 224.209231 54.864762 
L 36.467692 54.864762 
Q 30.756923 54.864762 30.756923 60.472381 
L 30.756923 258.841905 
Q 30.756923 264.449524 36.467692 264.449524 
z
" clip-path="url(#p8bf6d31b20)" style="fill: #f7f9fb; stroke: #263238; stroke-width: 1.2; stroke-linejoin: miter"/>
   </g>
   <g id="patch_3">
    <path d="M 52.172308 89.912381 
C 55.579964 89.912381 58.848509 88.582959 61.258086 86.216905 
C 63.667662 83.850852 65.021538 80.641343 65.021538 77.295238 
C 65.021538 73.949133 63.667662 70.739625 61.258086 68.373571 
C 58.848509 66.007517 55.579964 64.678095 52.172308 64.678095 
C 48.764652 64.678095 45.496106 66.007517 43.086529 68.373571 
C 40.676953 70.739625 39.323077 73.949133 39.323077 77.295238 
C 39.323077 80.641343 40.676953 83.850852 43.086529 86.216905 
C 45.496106 88.582959 48.764652 89.912381 52.172308 89.912381 
z
" clip-path="url(#p8bf6d31b20)" style="fill: #2f7d32"/>
   </g>
   <g id="patch_4">
    <path d="M 261.329231 264.449524 
L 449.070769 264.449524 
Q 454.781538 264.449524 454.781538 258.841905 
L 454.781538 60.472381 
Q 454.781538 54.864762 449.070769 54.864762 
L 261.329231 54.864762 
Q 255.618462 54.864762 255.618462 60.472381 
L 255.618462 258.841905 
Q 255.618462 264.449524 261.329231 264.449524 
z
" clip-path="url(#p8bf6d31b20)" style="fill: #f7f9fb; stroke: #263238; stroke-width: 1.2; stroke-linejoin: miter"/>
   </g>
   <g id="patch_5">
    <path d="M 277.033846 89.912381 
C 280.441502 89.912381 283.710048 88.582959 286.119624 86.216905 
C 288.529201 83.850852 289.883077 80.641343 289.883077 77.295238 
C 289.883077 73.949133 288.529201 70.739625 286.119624 68.373571 
C 283.710048 66.007517 280.441502 64.678095 277.033846 64.678095 
C 273.62619 64.678095 270.357644 66.007517 267.948068 68.373571 
C 265.538491 70.739625 264.184615 73.949133 264.184615 77.295238 
C 264.184615 80.641343 265.538491 83.850852 267.948068 86.216905 
C 270.357644 88.582959 273.62619 89.912381 277.033846 89.912381 
z
" clip-path="url(#p8bf6d31b20)" style="fill: #1565c0"/>
   </g>
   <g id="patch_6">
    <path d="M 486.190769 264.449524 
L 673.932308 264.449524 
Q 679.643077 264.449524 679.643077 258.841905 
L 679.643077 60.472381 
Q 679.643077 54.864762 673.932308 54.864762 
L 486.190769 54.864762 
Q 480.48 54.864762 480.48 60.472381 
L 480.48 258.841905 
Q 480.48 264.449524 486.190769 264.449524 
z
" clip-path="url(#p8bf6d31b20)" style="fill: #f7f9fb; stroke: #263238; stroke-width: 1.2; stroke-linejoin: miter"/>
   </g>
   <g id="patch_7">
    <path d="M 501.895385 89.912381 
C 505.30304 89.912381 508.571586 88.582959 510.981163 86.216905 
C 513.390739 83.850852 514.744615 80.641343 514.744615 77.295238 
C 514.744615 73.949133 513.390739 70.739625 510.981163 68.373571 
C 508.571586 66.007517 505.30304 64.678095 501.895385 64.678095 
C 498.487729 64.678095 495.219183 66.007517 492.809606 68.373571 
C 490.40003 70.739625 489.046154 73.949133 489.046154 77.295238 
C 489.046154 80.641343 490.40003 83.850852 492.809606 86.216905 
C 495.219183 88.582959 498.487729 89.912381 501.895385 89.912381 
z
" clip-path="url(#p8bf6d31b20)" style="fill: #ef6c00"/>
   </g>
   <g id="patch_8">
    <path d="M 711.052308 264.449524 
L 898.793846 264.449524 
Q 904.504615 264.449524 904.504615 258.841905 
L 904.504615 60.472381 
Q 904.504615 54.864762 898.793846 54.864762 
L 711.052308 54.864762 
Q 705.341538 54.864762 705.341538 60.472381 
L 705.341538 258.841905 
Q 705.341538 264.449524 711.052308 264.449524 
z
" clip-path="url(#p8bf6d31b20)" style="fill: #f7f9fb; stroke: #263238; stroke-width: 1.2; stroke-linejoin: miter"/>
   </g>
   <g id="patch_9">
    <path d="M 726.756923 89.912381 
C 730.164579 89.912381 733.433125 88.582959 735.842701 86.216905 
C 738.252278 83.850852 739.606154 80.641343 739.606154 77.295238 
C 739.606154 73.949133 738.252278 70.739625 735.842701 68.373571 
C 733.433125 66.007517 730.164579 64.678095 726.756923 64.678095 
C 723.349267 64.678095 720.080721 66.007517 717.671145 68.373571 
C 715.261568 70.739625 713.907692 73.949133 713.907692 77.295238 
C 713.907692 80.641343 715.261568 83.850852 717.671145 86.216905 
C 720.080721 88.582959 723.349267 89.912381 726.756923 89.912381 
z
" clip-path="url(#p8bf6d31b20)" style="fill: #b71c1c"/>
   </g>
   <g id="text_1">
    <!-- 1 -->
    <g style="fill: #ffffff" transform="translate(48.693401 80.054613) scale(0.1 -0.1)">
     <defs>
      <path id="DejaVuSans-Bold-31" d="M 750 831 
L 1813 831 
L 1813 3847 
L 722 3622 
L 722 4441 
L 1806 4666 
L 2950 4666 
L 2950 831 
L 4013 831 
L 4013 0 
L 750 0 
L 750 831 
z
" transform="scale(0.015625)"/>
     </defs>
     <use xlink:href="#DejaVuSans-Bold-31"/>
    </g>
   </g>
   <g id="text_2">
    <!-- Internal multimodal evaluation -->
    <g style="fill: #1b1f23" transform="translate(71.446154 78.790677) scale(0.105 -0.105)">
     <defs>
      <path id="DejaVuSans-Bold-49" d="M 588 4666 
L 1791 4666 
L 1791 0 
L 588 0 
L 588 4666 
z
" transform="scale(0.015625)"/>
      <path id="DejaVuSans-Bold-6e" d="M 4056 2131 
L 4056 0 
L 2931 0 
L 2931 347 
L 2931 1631 
Q 2931 2084 2911 2256 
Q 2891 2428 2841 2509 
Q 2775 2619 2662 2680 
Q 2550 2741 2406 2741 
Q 2056 2741 1856 2470 
Q 1656 2200 1656 1722 
L 1656 0 
L 538 0 
L 538 3500 
L 1656 3500 
L 1656 2988 
Q 1909 3294 2193 3439 
Q 2478 3584 2822 3584 
Q 3428 3584 3742 3212 
Q 4056 2841 4056 2131 
z
" transform="scale(0.015625)"/>
      <path id="DejaVuSans-Bold-74" d="M 1759 4494 
L 1759 3500 
L 2913 3500 
L 2913 2700 
L 1759 2700 
L 1759 1216 
Q 1759 972 1856 886 
Q 1953 800 2241 800 
L 2816 800 
L 2816 0 
L 1856 0 
Q 1194 0 917 276 
Q 641 553 641 1216 
L 641 2700 
L 84 2700 
L 84 3500 
L 641 3500 
L 641 4494 
L 1759 4494 
z
" transform="scale(0.015625)"/>
      <path id="DejaVuSans-Bold-65" d="M 4031 1759 
L 4031 1441 
L 1416 1441 
Q 1456 1047 1700 850 
Q 1944 653 2381 653 
Q 2734 653 3104 758 
Q 3475 863 3866 1075 
L 3866 213 
Q 3469 63 3072 -14 
Q 2675 -91 2278 -91 
Q 1328 -91 801 392 
Q 275 875 275 1747 
Q 275 2603 792 3093 
Q 1309 3584 2216 3584 
Q 3041 3584 3536 3087 
Q 4031 2591 4031 1759 
z
M 2881 2131 
Q 2881 2450 2695 2645 
Q 2509 2841 2209 2841 
Q 1884 2841 1681 2658 
Q 1478 2475 1428 2131 
L 2881 2131 
z
" transform="scale(0.015625)"/>
      <path id="DejaVuSans-Bold-72" d="M 3138 2547 
Q 2991 2616 2845 2648 
Q 2700 2681 2553 2681 
Q 2122 2681 1889 2404 
Q 1656 2128 1656 1613 
L 1656 0 
L 538 0 
L 538 3500 
L 1656 3500 
L 1656 2925 
Q 1872 3269 2151 3426 
Q 2431 3584 2822 3584 
Q 2878 3584 2943 3579 
Q 3009 3575 3134 3559 
L 3138 2547 
z
" transform="scale(0.015625)"/>
      <path id="DejaVuSans-Bold-61" d="M 2106 1575 
Q 1756 1575 1579 1456 
Q 1403 1338 1403 1106 
Q 1403 894 1545 773 
Q 1688 653 1941 653 
Q 2256 653 2472 879 
Q 2688 1106 2688 1447 
L 2688 1575 
L 2106 1575 
z
M 3816 1997 
L 3816 0 
L 2688 0 
L 2688 519 
Q 2463 200 2181 54 
Q 1900 -91 1497 -91 
Q 953 -91 614 226 
Q 275 544 275 1050 
Q 275 1666 698 1953 
Q 1122 2241 2028 2241 
L 2688 2241 
L 2688 2328 
Q 2688 2594 2478 2717 
Q 2269 2841 1825 2841 
Q 1466 2841 1156 2769 
Q 847 2697 581 2553 
L 581 3406 
Q 941 3494 1303 3539 
Q 1666 3584 2028 3584 
Q 2975 3584 3395 3211 
Q 3816 2838 3816 1997 
z
" transform="scale(0.015625)"/>
      <path id="DejaVuSans-Bold-6c" d="M 538 4863 
L 1656 4863 
L 1656 0 
L 538 0 
L 538 4863 
z
" transform="scale(0.015625)"/>
      <path id="DejaVuSans-Bold-20" transform="scale(0.015625)"/>
      <path id="DejaVuSans-Bold-6d" d="M 3781 2919 
Q 3994 3244 4286 3414 
Q 4578 3584 4928 3584 
Q 5531 3584 5847 3212 
Q 6163 2841 6163 2131 
L 6163 0 
L 5038 0 
L 5038 1825 
Q 5041 1866 5042 1909 
Q 5044 1953 5044 2034 
Q 5044 2406 4934 2573 
Q 4825 2741 4581 2741 
Q 4263 2741 4089 2478 
Q 3916 2216 3909 1719 
L 3909 0 
L 2784 0 
L 2784 1825 
Q 2784 2406 2684 2573 
Q 2584 2741 2328 2741 
Q 2006 2741 1831 2477 
Q 1656 2213 1656 1722 
L 1656 0 
L 531 0 
L 531 3500 
L 1656 3500 
L 1656 2988 
Q 1863 3284 2130 3434 
Q 2397 3584 2719 3584 
Q 3081 3584 3359 3409 
Q 3638 3234 3781 2919 
z
" transform="scale(0.015625)"/>
      <path id="DejaVuSans-Bold-75" d="M 500 1363 
L 500 3500 
L 1625 3500 
L 1625 3150 
Q 1625 2866 1622 2436 
Q 1619 2006 1619 1863 
Q 1619 1441 1641 1255 
Q 1663 1069 1716 984 
Q 1784 875 1895 815 
Q 2006 756 2150 756 
Q 2500 756 2700 1025 
Q 2900 1294 2900 1772 
L 2900 3500 
L 4019 3500 
L 4019 0 
L 2900 0 
L 2900 506 
Q 2647 200 2364 54 
Q 2081 -91 1741 -91 
Q 1134 -91 817 281 
Q 500 653 500 1363 
z
" transform="scale(0.015625)"/>
      <path id="DejaVuSans-Bold-69" d="M 538 3500 
L 1656 3500 
L 1656 0 
L 538 0 
L 538 3500 
z
M 538 4863 
L 1656 4863 
L 1656 3950 
L 538 3950 
L 538 4863 
z
" transform="scale(0.015625)"/>
      <path id="DejaVuSans-Bold-6f" d="M 2203 2784 
Q 1831 2784 1636 2517 
Q 1441 2250 1441 1747 
Q 1441 1244 1636 976 
Q 1831 709 2203 709 
Q 2569 709 2762 976 
Q 2956 1244 2956 1747 
Q 2956 2250 2762 2517 
Q 2569 2784 2203 2784 
z
M 2203 3584 
Q 3106 3584 3614 3096 
Q 4122 2609 4122 1747 
Q 4122 884 3614 396 
Q 3106 -91 2203 -91 
Q 1297 -91 786 396 
Q 275 884 275 1747 
Q 275 2609 786 3096 
Q 1297 3584 2203 3584 
z
" transform="scale(0.015625)"/>
      <path id="DejaVuSans-Bold-64" d="M 2919 2988 
L 2919 4863 
L 4044 4863 
L 4044 0 
L 2919 0 
L 2919 506 
Q 2688 197 2409 53 
Q 2131 -91 1766 -91 
Q 1119 -91 703 423 
Q 288 938 288 1747 
Q 288 2556 703 3070 
Q 1119 3584 1766 3584 
Q 2128 3584 2408 3439 
Q 2688 3294 2919 2988 
z
M 2181 722 
Q 2541 722 2730 984 
Q 2919 1247 2919 1747 
Q 2919 2247 2730 2509 
Q 2541 2772 2181 2772 
Q 1825 2772 1636 2509 
Q 1447 2247 1447 1747 
Q 1447 1247 1636 984 
Q 1825 722 2181 722 
z
" transform="scale(0.015625)"/>
      <path id="DejaVuSans-Bold-76" d="M 97 3500 
L 1216 3500 
L 2088 1081 
L 2956 3500 
L 4078 3500 
L 2700 0 
L 1472 0 
L 97 3500 
z
" transform="scale(0.015625)"/>
     </defs>
     <use xlink:href="#DejaVuSans-Bold-49"/>
     <use xlink:href="#DejaVuSans-Bold-6e" x="37.207031"/>
     <use xlink:href="#DejaVuSans-Bold-74" x="108.398438"/>
     <use xlink:href="#DejaVuSans-Bold-65" x="156.201172"/>
     <use xlink:href="#DejaVuSans-Bold-72" x="224.023438"/>
     <use xlink:href="#DejaVuSans-Bold-6e" x="273.339844"/>
     <use xlink:href="#DejaVuSans-Bold-61" x="344.53125"/>
     <use xlink:href="#DejaVuSans-Bold-6c" x="412.011719"/>
     <use xlink:href="#DejaVuSans-Bold-20" x="446.289062"/>
     <use xlink:href="#DejaVuSans-Bold-6d" x="481.103516"/>
     <use xlink:href="#DejaVuSans-Bold-75" x="585.302734"/>
     <use xlink:href="#DejaVuSans-Bold-6c" x="656.494141"/>
     <use xlink:href="#DejaVuSans-Bold-74" x="690.771484"/>
     <use xlink:href="#DejaVuSans-Bold-69" x="738.574219"/>
     <use xlink:href="#DejaVuSans-Bold-6d" x="772.851562"/>
     <use xlink:href="#DejaVuSans-Bold-6f" x="877.050781"/>
     <use xlink:href="#DejaVuSans-Bold-64" x="945.751953"/>
     <use xlink:href="#DejaVuSans-Bold-61" x="1017.333984"/>
     <use xlink:href="#DejaVuSans-Bold-6c" x="1084.814453"/>
     <use xlink:href="#DejaVuSans-Bold-20" x="1119.091797"/>
     <use xlink:href="#DejaVuSans-Bold-65" x="1153.90625"/>
     <use xlink:href="#DejaVuSans-Bold-76" x="1221.728516"/>
     <use xlink:href="#DejaVuSans-Bold-61" x="1286.914062"/>
     <use xlink:href="#DejaVuSans-Bold-6c" x="1354.394531"/>
     <use xlink:href="#DejaVuSans-Bold-75" x="1388.671875"/>
     <use xlink:href="#DejaVuSans-Bold-61" x="1459.863281"/>
     <use xlink:href="#DejaVuSans-Bold-74" x="1527.34375"/>
     <use xlink:href="#DejaVuSans-Bold-69" x="1575.146484"/>
     <use xlink:href="#DejaVuSans-Bold-6f" x="1609.423828"/>
     <use xlink:href="#DejaVuSans-Bold-6e" x="1678.125"/>
    </g>
   </g>
   <g id="text_3">
    <!-- PTB-XL + released PTB-XL+ -->
    <g style="fill: #263238" transform="translate(45.033846 136.781245) scale(0.091 -0.091)">
     <defs>
      <path id="DejaVuSans-50" d="M 1259 4147 
L 1259 2394 
L 2053 2394 
Q 2494 2394 2734 2622 
Q 2975 2850 2975 3272 
Q 2975 3691 2734 3919 
Q 2494 4147 2053 4147 
L 1259 4147 
z
M 628 4666 
L 2053 4666 
Q 2838 4666 3239 4311 
Q 3641 3956 3641 3272 
Q 3641 2581 3239 2228 
Q 2838 1875 2053 1875 
L 1259 1875 
L 1259 0 
L 628 0 
L 628 4666 
z
" transform="scale(0.015625)"/>
      <path id="DejaVuSans-54" d="M -19 4666 
L 3928 4666 
L 3928 4134 
L 2272 4134 
L 2272 0 
L 1638 0 
L 1638 4134 
L -19 4134 
L -19 4666 
z
" transform="scale(0.015625)"/>
      <path id="DejaVuSans-42" d="M 1259 2228 
L 1259 519 
L 2272 519 
Q 2781 519 3026 730 
Q 3272 941 3272 1375 
Q 3272 1813 3026 2020 
Q 2781 2228 2272 2228 
L 1259 2228 
z
M 1259 4147 
L 1259 2741 
L 2194 2741 
Q 2656 2741 2882 2914 
Q 3109 3088 3109 3444 
Q 3109 3797 2882 3972 
Q 2656 4147 2194 4147 
L 1259 4147 
z
M 628 4666 
L 2241 4666 
Q 2963 4666 3353 4366 
Q 3744 4066 3744 3513 
Q 3744 3084 3544 2831 
Q 3344 2578 2956 2516 
Q 3422 2416 3680 2098 
Q 3938 1781 3938 1306 
Q 3938 681 3513 340 
Q 3088 0 2303 0 
L 628 0 
L 628 4666 
z
" transform="scale(0.015625)"/>
      <path id="DejaVuSans-2d" d="M 313 2009 
L 1997 2009 
L 1997 1497 
L 313 1497 
L 313 2009 
z
" transform="scale(0.015625)"/>
      <path id="DejaVuSans-58" d="M 403 4666 
L 1081 4666 
L 2241 2931 
L 3406 4666 
L 4084 4666 
L 2584 2425 
L 4184 0 
L 3506 0 
L 2194 1984 
L 872 0 
L 191 0 
L 1856 2491 
L 403 4666 
z
" transform="scale(0.015625)"/>
      <path id="DejaVuSans-4c" d="M 628 4666 
L 1259 4666 
L 1259 531 
L 3531 531 
L 3531 0 
L 628 0 
L 628 4666 
z
" transform="scale(0.015625)"/>
      <path id="DejaVuSans-20" transform="scale(0.015625)"/>
      <path id="DejaVuSans-2b" d="M 2944 4013 
L 2944 2272 
L 4684 2272 
L 4684 1741 
L 2944 1741 
L 2944 0 
L 2419 0 
L 2419 1741 
L 678 1741 
L 678 2272 
L 2419 2272 
L 2419 4013 
L 2944 4013 
z
" transform="scale(0.015625)"/>
      <path id="DejaVuSans-72" d="M 2631 2963 
Q 2534 3019 2420 3045 
Q 2306 3072 2169 3072 
Q 1681 3072 1420 2755 
Q 1159 2438 1159 1844 
L 1159 0 
L 581 0 
L 581 3500 
L 1159 3500 
L 1159 2956 
Q 1341 3275 1631 3429 
Q 1922 3584 2338 3584 
Q 2397 3584 2469 3576 
Q 2541 3569 2628 3553 
L 2631 2963 
z
" transform="scale(0.015625)"/>
      <path id="DejaVuSans-65" d="M 3597 1894 
L 3597 1613 
L 953 1613 
Q 991 1019 1311 708 
Q 1631 397 2203 397 
Q 2534 397 2845 478 
Q 3156 559 3463 722 
L 3463 178 
Q 3153 47 2828 -22 
Q 2503 -91 2169 -91 
Q 1331 -91 842 396 
Q 353 884 353 1716 
Q 353 2575 817 3079 
Q 1281 3584 2069 3584 
Q 2775 3584 3186 3129 
Q 3597 2675 3597 1894 
z
M 3022 2063 
Q 3016 2534 2758 2815 
Q 2500 3097 2075 3097 
Q 1594 3097 1305 2825 
Q 1016 2553 972 2059 
L 3022 2063 
z
" transform="scale(0.015625)"/>
      <path id="DejaVuSans-6c" d="M 603 4863 
L 1178 4863 
L 1178 0 
L 603 0 
L 603 4863 
z
" transform="scale(0.015625)"/>
      <path id="DejaVuSans-61" d="M 2194 1759 
Q 1497 1759 1228 1600 
Q 959 1441 959 1056 
Q 959 750 1161 570 
Q 1363 391 1709 391 
Q 2188 391 2477 730 
Q 2766 1069 2766 1631 
L 2766 1759 
L 2194 1759 
z
M 3341 1997 
L 3341 0 
L 2766 0 
L 2766 531 
Q 2569 213 2275 61 
Q 1981 -91 1556 -91 
Q 1019 -91 701 211 
Q 384 513 384 1019 
Q 384 1609 779 1909 
Q 1175 2209 1959 2209 
L 2766 2209 
L 2766 2266 
Q 2766 2663 2505 2880 
Q 2244 3097 1772 3097 
Q 1472 3097 1187 3025 
Q 903 2953 641 2809 
L 641 3341 
Q 956 3463 1253 3523 
Q 1550 3584 1831 3584 
Q 2591 3584 2966 3190 
Q 3341 2797 3341 1997 
z
" transform="scale(0.015625)"/>
      <path id="DejaVuSans-73" d="M 2834 3397 
L 2834 2853 
Q 2591 2978 2328 3040 
Q 2066 3103 1784 3103 
Q 1356 3103 1142 2972 
Q 928 2841 928 2578 
Q 928 2378 1081 2264 
Q 1234 2150 1697 2047 
L 1894 2003 
Q 2506 1872 2764 1633 
Q 3022 1394 3022 966 
Q 3022 478 2636 193 
Q 2250 -91 1575 -91 
Q 1294 -91 989 -36 
Q 684 19 347 128 
L 347 722 
Q 666 556 975 473 
Q 1284 391 1588 391 
Q 1994 391 2212 530 
Q 2431 669 2431 922 
Q 2431 1156 2273 1281 
Q 2116 1406 1581 1522 
L 1381 1569 
Q 847 1681 609 1914 
Q 372 2147 372 2553 
Q 372 3047 722 3315 
Q 1072 3584 1716 3584 
Q 2034 3584 2315 3537 
Q 2597 3491 2834 3397 
z
" transform="scale(0.015625)"/>
      <path id="DejaVuSans-64" d="M 2906 2969 
L 2906 4863 
L 3481 4863 
L 3481 0 
L 2906 0 
L 2906 525 
Q 2725 213 2448 61 
Q 2172 -91 1784 -91 
Q 1150 -91 751 415 
Q 353 922 353 1747 
Q 353 2572 751 3078 
Q 1150 3584 1784 3584 
Q 2172 3584 2448 3432 
Q 2725 3281 2906 2969 
z
M 947 1747 
Q 947 1113 1208 752 
Q 1469 391 1925 391 
Q 2381 391 2643 752 
Q 2906 1113 2906 1747 
Q 2906 2381 2643 2742 
Q 2381 3103 1925 3103 
Q 1469 3103 1208 2742 
Q 947 2381 947 1747 
z
" transform="scale(0.015625)"/>
     </defs>
     <use xlink:href="#DejaVuSans-50"/>
     <use xlink:href="#DejaVuSans-54" x="60.302734"/>
     <use xlink:href="#DejaVuSans-42" x="121.386719"/>
     <use xlink:href="#DejaVuSans-2d" x="189.990234"/>
     <use xlink:href="#DejaVuSans-58" x="221.074219"/>
     <use xlink:href="#DejaVuSans-4c" x="289.580078"/>
     <use xlink:href="#DejaVuSans-20" x="345.292969"/>
     <use xlink:href="#DejaVuSans-2b" x="377.080078"/>
     <use xlink:href="#DejaVuSans-20" x="460.869141"/>
     <use xlink:href="#DejaVuSans-72" x="492.65625"/>
     <use xlink:href="#DejaVuSans-65" x="531.519531"/>
     <use xlink:href="#DejaVuSans-6c" x="593.042969"/>
     <use xlink:href="#DejaVuSans-65" x="620.826172"/>
     <use xlink:href="#DejaVuSans-61" x="682.349609"/>
     <use xlink:href="#DejaVuSans-73" x="743.628906"/>
     <use xlink:href="#DejaVuSans-65" x="795.728516"/>
     <use xlink:href="#DejaVuSans-64" x="857.251953"/>
     <use xlink:href="#DejaVuSans-20" x="920.728516"/>
     <use xlink:href="#DejaVuSans-50" x="952.515625"/>
     <use xlink:href="#DejaVuSans-54" x="1012.818359"/>
     <use xlink:href="#DejaVuSans-42" x="1073.902344"/>
     <use xlink:href="#DejaVuSans-2d" x="1142.505859"/>
     <use xlink:href="#DejaVuSans-58" x="1173.589844"/>
     <use xlink:href="#DejaVuSans-4c" x="1242.095703"/>
     <use xlink:href="#DejaVuSans-2b" x="1297.808594"/>
    </g>
    <!-- Full-schema structured features -->
    <g style="fill: #263238" transform="translate(45.033846 147.316983) scale(0.091 -0.091)">
     <defs>
      <path id="DejaVuSans-46" d="M 628 4666 
L 3309 4666 
L 3309 4134 
L 1259 4134 
L 1259 2759 
L 3109 2759 
L 3109 2228 
L 1259 2228 
L 1259 0 
L 628 0 
L 628 4666 
z
" transform="scale(0.015625)"/>
      <path id="DejaVuSans-75" d="M 544 1381 
L 544 3500 
L 1119 3500 
L 1119 1403 
Q 1119 906 1312 657 
Q 1506 409 1894 409 
Q 2359 409 2629 706 
Q 2900 1003 2900 1516 
L 2900 3500 
L 3475 3500 
L 3475 0 
L 2900 0 
L 2900 538 
Q 2691 219 2414 64 
Q 2138 -91 1772 -91 
Q 1169 -91 856 284 
Q 544 659 544 1381 
z
M 1991 3584 
L 1991 3584 
z
" transform="scale(0.015625)"/>
      <path id="DejaVuSans-63" d="M 3122 3366 
L 3122 2828 
Q 2878 2963 2633 3030 
Q 2388 3097 2138 3097 
Q 1578 3097 1268 2742 
Q 959 2388 959 1747 
Q 959 1106 1268 751 
Q 1578 397 2138 397 
Q 2388 397 2633 464 
Q 2878 531 3122 666 
L 3122 134 
Q 2881 22 2623 -34 
Q 2366 -91 2075 -91 
Q 1284 -91 818 406 
Q 353 903 353 1747 
Q 353 2603 823 3093 
Q 1294 3584 2113 3584 
Q 2378 3584 2631 3529 
Q 2884 3475 3122 3366 
z
" transform="scale(0.015625)"/>
      <path id="DejaVuSans-68" d="M 3513 2113 
L 3513 0 
L 2938 0 
L 2938 2094 
Q 2938 2591 2744 2837 
Q 2550 3084 2163 3084 
Q 1697 3084 1428 2787 
Q 1159 2491 1159 1978 
L 1159 0 
L 581 0 
L 581 4863 
L 1159 4863 
L 1159 2956 
Q 1366 3272 1645 3428 
Q 1925 3584 2291 3584 
Q 2894 3584 3203 3211 
Q 3513 2838 3513 2113 
z
" transform="scale(0.015625)"/>
      <path id="DejaVuSans-6d" d="M 3328 2828 
Q 3544 3216 3844 3400 
Q 4144 3584 4550 3584 
Q 5097 3584 5394 3201 
Q 5691 2819 5691 2113 
L 5691 0 
L 5113 0 
L 5113 2094 
Q 5113 2597 4934 2840 
Q 4756 3084 4391 3084 
Q 3944 3084 3684 2787 
Q 3425 2491 3425 1978 
L 3425 0 
L 2847 0 
L 2847 2094 
Q 2847 2600 2669 2842 
Q 2491 3084 2119 3084 
Q 1678 3084 1418 2786 
Q 1159 2488 1159 1978 
L 1159 0 
L 581 0 
L 581 3500 
L 1159 3500 
L 1159 2956 
Q 1356 3278 1631 3431 
Q 1906 3584 2284 3584 
Q 2666 3584 2933 3390 
Q 3200 3197 3328 2828 
z
" transform="scale(0.015625)"/>
      <path id="DejaVuSans-74" d="M 1172 4494 
L 1172 3500 
L 2356 3500 
L 2356 3053 
L 1172 3053 
L 1172 1153 
Q 1172 725 1289 603 
Q 1406 481 1766 481 
L 2356 481 
L 2356 0 
L 1766 0 
Q 1100 0 847 248 
Q 594 497 594 1153 
L 594 3053 
L 172 3053 
L 172 3500 
L 594 3500 
L 594 4494 
L 1172 4494 
z
" transform="scale(0.015625)"/>
      <path id="DejaVuSans-66" d="M 2375 4863 
L 2375 4384 
L 1825 4384 
Q 1516 4384 1395 4259 
Q 1275 4134 1275 3809 
L 1275 3500 
L 2222 3500 
L 2222 3053 
L 1275 3053 
L 1275 0 
L 697 0 
L 697 3053 
L 147 3053 
L 147 3500 
L 697 3500 
L 697 3744 
Q 697 4328 969 4595 
Q 1241 4863 1831 4863 
L 2375 4863 
z
" transform="scale(0.015625)"/>
     </defs>
     <use xlink:href="#DejaVuSans-46"/>
     <use xlink:href="#DejaVuSans-75" x="52.019531"/>
     <use xlink:href="#DejaVuSans-6c" x="115.398438"/>
     <use xlink:href="#DejaVuSans-6c" x="143.181641"/>
     <use xlink:href="#DejaVuSans-2d" x="170.964844"/>
     <use xlink:href="#DejaVuSans-73" x="207.048828"/>
     <use xlink:href="#DejaVuSans-63" x="259.148438"/>
     <use xlink:href="#DejaVuSans-68" x="314.128906"/>
     <use xlink:href="#DejaVuSans-65" x="377.507812"/>
     <use xlink:href="#DejaVuSans-6d" x="439.03125"/>
     <use xlink:href="#DejaVuSans-61" x="536.443359"/>
     <use xlink:href="#DejaVuSans-20" x="597.722656"/>
     <use xlink:href="#DejaVuSans-73" x="629.509766"/>
     <use xlink:href="#DejaVuSans-74" x="681.609375"/>
     <use xlink:href="#DejaVuSans-72" x="720.818359"/>
     <use xlink:href="#DejaVuSans-75" x="761.931641"/>
     <use xlink:href="#DejaVuSans-63" x="825.310547"/>
     <use xlink:href="#DejaVuSans-74" x="880.291016"/>
     <use xlink:href="#DejaVuSans-75" x="919.5"/>
     <use xlink:href="#DejaVuSans-72" x="982.878906"/>
     <use xlink:href="#DejaVuSans-65" x="1021.742188"/>
     <use xlink:href="#DejaVuSans-64" x="1083.265625"/>
     <use xlink:href="#DejaVuSans-20" x="1146.742188"/>
     <use xlink:href="#DejaVuSans-66" x="1178.529297"/>
     <use xlink:href="#DejaVuSans-65" x="1213.734375"/>
     <use xlink:href="#DejaVuSans-61" x="1275.257812"/>
     <use xlink:href="#DejaVuSans-74" x="1336.537109"/>
     <use xlink:href="#DejaVuSans-75" x="1375.746094"/>
     <use xlink:href="#DejaVuSans-72" x="1439.125"/>
     <use xlink:href="#DejaVuSans-65" x="1477.988281"/>
     <use xlink:href="#DejaVuSans-73" x="1539.511719"/>
    </g>
    <!-- Fair concat improves over unimodal baselines -->
    <g style="fill: #263238" transform="translate(45.033846 157.852721) scale(0.091 -0.091)">
     <defs>
      <path id="DejaVuSans-69" d="M 603 3500 
L 1178 3500 
L 1178 0 
L 603 0 
L 603 3500 
z
M 603 4863 
L 1178 4863 
L 1178 4134 
L 603 4134 
L 603 4863 
z
" transform="scale(0.015625)"/>
      <path id="DejaVuSans-6f" d="M 1959 3097 
Q 1497 3097 1228 2736 
Q 959 2375 959 1747 
Q 959 1119 1226 758 
Q 1494 397 1959 397 
Q 2419 397 2687 759 
Q 2956 1122 2956 1747 
Q 2956 2369 2687 2733 
Q 2419 3097 1959 3097 
z
M 1959 3584 
Q 2709 3584 3137 3096 
Q 3566 2609 3566 1747 
Q 3566 888 3137 398 
Q 2709 -91 1959 -91 
Q 1206 -91 779 398 
Q 353 888 353 1747 
Q 353 2609 779 3096 
Q 1206 3584 1959 3584 
z
" transform="scale(0.015625)"/>
      <path id="DejaVuSans-6e" d="M 3513 2113 
L 3513 0 
L 2938 0 
L 2938 2094 
Q 2938 2591 2744 2837 
Q 2550 3084 2163 3084 
Q 1697 3084 1428 2787 
Q 1159 2491 1159 1978 
L 1159 0 
L 581 0 
L 581 3500 
L 1159 3500 
L 1159 2956 
Q 1366 3272 1645 3428 
Q 1925 3584 2291 3584 
Q 2894 3584 3203 3211 
Q 3513 2838 3513 2113 
z
" transform="scale(0.015625)"/>
      <path id="DejaVuSans-70" d="M 1159 525 
L 1159 -1331 
L 581 -1331 
L 581 3500 
L 1159 3500 
L 1159 2969 
Q 1341 3281 1617 3432 
Q 1894 3584 2278 3584 
Q 2916 3584 3314 3078 
Q 3713 2572 3713 1747 
Q 3713 922 3314 415 
Q 2916 -91 2278 -91 
Q 1894 -91 1617 61 
Q 1341 213 1159 525 
z
M 3116 1747 
Q 3116 2381 2855 2742 
Q 2594 3103 2138 3103 
Q 1681 3103 1420 2742 
Q 1159 2381 1159 1747 
Q 1159 1113 1420 752 
Q 1681 391 2138 391 
Q 2594 391 2855 752 
Q 3116 1113 3116 1747 
z
" transform="scale(0.015625)"/>
      <path id="DejaVuSans-76" d="M 191 3500 
L 800 3500 
L 1894 563 
L 2988 3500 
L 3597 3500 
L 2284 0 
L 1503 0 
L 191 3500 
z
" transform="scale(0.015625)"/>
      <path id="DejaVuSans-62" d="M 3116 1747 
Q 3116 2381 2855 2742 
Q 2594 3103 2138 3103 
Q 1681 3103 1420 2742 
Q 1159 2381 1159 1747 
Q 1159 1113 1420 752 
Q 1681 391 2138 391 
Q 2594 391 2855 752 
Q 3116 1113 3116 1747 
z
M 1159 2969 
Q 1341 3281 1617 3432 
Q 1894 3584 2278 3584 
Q 2916 3584 3314 3078 
Q 3713 2572 3713 1747 
Q 3713 922 3314 415 
Q 2916 -91 2278 -91 
Q 1894 -91 1617 61 
Q 1341 213 1159 525 
L 1159 0 
L 581 0 
L 581 4863 
L 1159 4863 
L 1159 2969 
z
" transform="scale(0.015625)"/>
     </defs>
     <use xlink:href="#DejaVuSans-46"/>
     <use xlink:href="#DejaVuSans-61" x="48.394531"/>
     <use xlink:href="#DejaVuSans-69" x="109.673828"/>
     <use xlink:href="#DejaVuSans-72" x="137.457031"/>
     <use xlink:href="#DejaVuSans-20" x="178.570312"/>
     <use xlink:href="#DejaVuSans-63" x="210.357422"/>
     <use xlink:href="#DejaVuSans-6f" x="265.337891"/>
     <use xlink:href="#DejaVuSans-6e" x="326.519531"/>
     <use xlink:href="#DejaVuSans-63" x="389.898438"/>
     <use xlink:href="#DejaVuSans-61" x="444.878906"/>
     <use xlink:href="#DejaVuSans-74" x="506.158203"/>
     <use xlink:href="#DejaVuSans-20" x="545.367188"/>
     <use xlink:href="#DejaVuSans-69" x="577.154297"/>
     <use xlink:href="#DejaVuSans-6d" x="604.9375"/>
     <use xlink:href="#DejaVuSans-70" x="702.349609"/>
     <use xlink:href="#DejaVuSans-72" x="765.826172"/>
     <use xlink:href="#DejaVuSans-6f" x="804.689453"/>
     <use xlink:href="#DejaVuSans-76" x="865.871094"/>
     <use xlink:href="#DejaVuSans-65" x="925.050781"/>
     <use xlink:href="#DejaVuSans-73" x="986.574219"/>
     <use xlink:href="#DejaVuSans-20" x="1038.673828"/>
     <use xlink:href="#DejaVuSans-6f" x="1070.460938"/>
     <use xlink:href="#DejaVuSans-76" x="1131.642578"/>
     <use xlink:href="#DejaVuSans-65" x="1190.822266"/>
     <use xlink:href="#DejaVuSans-72" x="1252.345703"/>
     <use xlink:href="#DejaVuSans-20" x="1293.458984"/>
     <use xlink:href="#DejaVuSans-75" x="1325.246094"/>
     <use xlink:href="#DejaVuSans-6e" x="1388.625"/>
     <use xlink:href="#DejaVuSans-69" x="1452.003906"/>
     <use xlink:href="#DejaVuSans-6d" x="1479.787109"/>
     <use xlink:href="#DejaVuSans-6f" x="1577.199219"/>
     <use xlink:href="#DejaVuSans-64" x="1638.380859"/>
     <use xlink:href="#DejaVuSans-61" x="1701.857422"/>
     <use xlink:href="#DejaVuSans-6c" x="1763.136719"/>
     <use xlink:href="#DejaVuSans-20" x="1790.919922"/>
     <use xlink:href="#DejaVuSans-62" x="1822.707031"/>
     <use xlink:href="#DejaVuSans-61" x="1886.183594"/>
     <use xlink:href="#DejaVuSans-73" x="1947.462891"/>
     <use xlink:href="#DejaVuSans-65" x="1999.5625"/>
     <use xlink:href="#DejaVuSans-6c" x="2061.085938"/>
     <use xlink:href="#DejaVuSans-69" x="2088.869141"/>
     <use xlink:href="#DejaVuSans-6e" x="2116.652344"/>
     <use xlink:href="#DejaVuSans-65" x="2180.03125"/>
     <use xlink:href="#DejaVuSans-73" x="2241.554688"/>
    </g>
   </g>
   <g id="text_4">
    <!-- GO -->
    <g style="fill: #2f7d32" transform="translate(45.033846 242.537597) scale(0.095 -0.095)">
     <defs>
      <path id="DejaVuSans-Bold-47" d="M 4781 347 
Q 4331 128 3847 18 
Q 3363 -91 2847 -91 
Q 1681 -91 1000 561 
Q 319 1213 319 2328 
Q 319 3456 1012 4103 
Q 1706 4750 2913 4750 
Q 3378 4750 3804 4662 
Q 4231 4575 4609 4403 
L 4609 3438 
Q 4219 3659 3833 3768 
Q 3447 3878 3059 3878 
Q 2341 3878 1952 3476 
Q 1563 3075 1563 2328 
Q 1563 1588 1938 1184 
Q 2313 781 3003 781 
Q 3191 781 3352 804 
Q 3513 828 3641 878 
L 3641 1784 
L 2906 1784 
L 2906 2591 
L 4781 2591 
L 4781 347 
z
" transform="scale(0.015625)"/>
      <path id="DejaVuSans-Bold-4f" d="M 2719 3878 
Q 2169 3878 1866 3472 
Q 1563 3066 1563 2328 
Q 1563 1594 1866 1187 
Q 2169 781 2719 781 
Q 3272 781 3575 1187 
Q 3878 1594 3878 2328 
Q 3878 3066 3575 3472 
Q 3272 3878 2719 3878 
z
M 2719 4750 
Q 3844 4750 4481 4106 
Q 5119 3463 5119 2328 
Q 5119 1197 4481 553 
Q 3844 -91 2719 -91 
Q 1597 -91 958 553 
Q 319 1197 319 2328 
Q 319 3463 958 4106 
Q 1597 4750 2719 4750 
z
" transform="scale(0.015625)"/>
     </defs>
     <use xlink:href="#DejaVuSans-Bold-47"/>
     <use xlink:href="#DejaVuSans-Bold-4f" x="82.080078"/>
    </g>
   </g>
   <g id="patch_10">
    <path d="M 232.637356 157.904762 
Q 239.202648 157.904762 244.314497 157.904762 
" style="fill: none; stroke: #455a64; stroke-width: 1.3; stroke-linecap: round"/>
    <path d="M 240.314497 155.904762 
L 244.314497 157.904762 
L 240.314497 159.904762 
" style="fill: none; stroke: #455a64; stroke-width: 1.3; stroke-linecap: round"/>
   </g>
   <g id="text_5">
    <!-- 2 -->
    <g style="fill: #ffffff" transform="translate(273.55494 80.054613) scale(0.1 -0.1)">
     <defs>
      <path id="DejaVuSans-Bold-32" d="M 1844 884 
L 3897 884 
L 3897 0 
L 506 0 
L 506 884 
L 2209 2388 
Q 2438 2594 2547 2791 
Q 2656 2988 2656 3200 
Q 2656 3528 2436 3728 
Q 2216 3928 1850 3928 
Q 1569 3928 1234 3808 
Q 900 3688 519 3450 
L 519 4475 
Q 925 4609 1322 4679 
Q 1719 4750 2100 4750 
Q 2938 4750 3402 4381 
Q 3866 4013 3866 3353 
Q 3866 2972 3669 2642 
Q 3472 2313 2841 1759 
L 1844 884 
z
" transform="scale(0.015625)"/>
     </defs>
     <use xlink:href="#DejaVuSans-Bold-32"/>
    </g>
   </g>
   <g id="text_6">
    <!-- Decision-support diagnostics -->
    <g style="fill: #1b1f23" transform="translate(296.307692 78.749661) scale(0.105 -0.105)">
     <defs>
      <path id="DejaVuSans-Bold-44" d="M 1791 3756 
L 1791 909 
L 2222 909 
Q 2959 909 3348 1275 
Q 3738 1641 3738 2338 
Q 3738 3031 3350 3393 
Q 2963 3756 2222 3756 
L 1791 3756 
z
M 588 4666 
L 1856 4666 
Q 2919 4666 3439 4514 
Q 3959 4363 4331 4000 
Q 4659 3684 4818 3271 
Q 4978 2859 4978 2338 
Q 4978 1809 4818 1395 
Q 4659 981 4331 666 
Q 3956 303 3431 151 
Q 2906 0 1856 0 
L 588 0 
L 588 4666 
z
" transform="scale(0.015625)"/>
      <path id="DejaVuSans-Bold-63" d="M 3366 3391 
L 3366 2478 
Q 3138 2634 2908 2709 
Q 2678 2784 2431 2784 
Q 1963 2784 1702 2511 
Q 1441 2238 1441 1747 
Q 1441 1256 1702 982 
Q 1963 709 2431 709 
Q 2694 709 2930 787 
Q 3166 866 3366 1019 
L 3366 103 
Q 3103 6 2833 -42 
Q 2563 -91 2291 -91 
Q 1344 -91 809 395 
Q 275 881 275 1747 
Q 275 2613 809 3098 
Q 1344 3584 2291 3584 
Q 2566 3584 2833 3536 
Q 3100 3488 3366 3391 
z
" transform="scale(0.015625)"/>
      <path id="DejaVuSans-Bold-73" d="M 3272 3391 
L 3272 2541 
Q 2913 2691 2578 2766 
Q 2244 2841 1947 2841 
Q 1628 2841 1473 2761 
Q 1319 2681 1319 2516 
Q 1319 2381 1436 2309 
Q 1553 2238 1856 2203 
L 2053 2175 
Q 2913 2066 3209 1816 
Q 3506 1566 3506 1031 
Q 3506 472 3093 190 
Q 2681 -91 1863 -91 
Q 1516 -91 1145 -36 
Q 775 19 384 128 
L 384 978 
Q 719 816 1070 734 
Q 1422 653 1784 653 
Q 2113 653 2278 743 
Q 2444 834 2444 1013 
Q 2444 1163 2330 1236 
Q 2216 1309 1875 1350 
L 1678 1375 
Q 931 1469 631 1722 
Q 331 1975 331 2491 
Q 331 3047 712 3315 
Q 1094 3584 1881 3584 
Q 2191 3584 2531 3537 
Q 2872 3491 3272 3391 
z
" transform="scale(0.015625)"/>
      <path id="DejaVuSans-Bold-2d" d="M 347 2297 
L 2309 2297 
L 2309 1388 
L 347 1388 
L 347 2297 
z
" transform="scale(0.015625)"/>
      <path id="DejaVuSans-Bold-70" d="M 1656 506 
L 1656 -1331 
L 538 -1331 
L 538 3500 
L 1656 3500 
L 1656 2988 
Q 1888 3294 2169 3439 
Q 2450 3584 2816 3584 
Q 3463 3584 3878 3070 
Q 4294 2556 4294 1747 
Q 4294 938 3878 423 
Q 3463 -91 2816 -91 
Q 2450 -91 2169 54 
Q 1888 200 1656 506 
z
M 2400 2772 
Q 2041 2772 1848 2508 
Q 1656 2244 1656 1747 
Q 1656 1250 1848 986 
Q 2041 722 2400 722 
Q 2759 722 2948 984 
Q 3138 1247 3138 1747 
Q 3138 2247 2948 2509 
Q 2759 2772 2400 2772 
z
" transform="scale(0.015625)"/>
      <path id="DejaVuSans-Bold-67" d="M 2919 594 
Q 2688 288 2409 144 
Q 2131 0 1766 0 
Q 1125 0 706 504 
Q 288 1009 288 1791 
Q 288 2575 706 3076 
Q 1125 3578 1766 3578 
Q 2131 3578 2409 3434 
Q 2688 3291 2919 2981 
L 2919 3500 
L 4044 3500 
L 4044 353 
Q 4044 -491 3511 -936 
Q 2978 -1381 1966 -1381 
Q 1638 -1381 1331 -1331 
Q 1025 -1281 716 -1178 
L 716 -306 
Q 1009 -475 1290 -558 
Q 1572 -641 1856 -641 
Q 2406 -641 2662 -400 
Q 2919 -159 2919 353 
L 2919 594 
z
M 2181 2772 
Q 1834 2772 1640 2515 
Q 1447 2259 1447 1791 
Q 1447 1309 1634 1061 
Q 1822 813 2181 813 
Q 2531 813 2725 1069 
Q 2919 1325 2919 1791 
Q 2919 2259 2725 2515 
Q 2531 2772 2181 2772 
z
" transform="scale(0.015625)"/>
     </defs>
     <use xlink:href="#DejaVuSans-Bold-44"/>
     <use xlink:href="#DejaVuSans-Bold-65" x="83.007812"/>
     <use xlink:href="#DejaVuSans-Bold-63" x="150.830078"/>
     <use xlink:href="#DejaVuSans-Bold-69" x="210.107422"/>
     <use xlink:href="#DejaVuSans-Bold-73" x="244.384766"/>
     <use xlink:href="#DejaVuSans-Bold-69" x="303.90625"/>
     <use xlink:href="#DejaVuSans-Bold-6f" x="338.183594"/>
     <use xlink:href="#DejaVuSans-Bold-6e" x="406.884766"/>
     <use xlink:href="#DejaVuSans-Bold-2d" x="478.076172"/>
     <use xlink:href="#DejaVuSans-Bold-73" x="519.580078"/>
     <use xlink:href="#DejaVuSans-Bold-75" x="579.101562"/>
     <use xlink:href="#DejaVuSans-Bold-70" x="650.292969"/>
     <use xlink:href="#DejaVuSans-Bold-70" x="721.875"/>
     <use xlink:href="#DejaVuSans-Bold-6f" x="793.457031"/>
     <use xlink:href="#DejaVuSans-Bold-72" x="862.158203"/>
     <use xlink:href="#DejaVuSans-Bold-74" x="911.474609"/>
     <use xlink:href="#DejaVuSans-Bold-20" x="959.277344"/>
     <use xlink:href="#DejaVuSans-Bold-64" x="994.091797"/>
     <use xlink:href="#DejaVuSans-Bold-69" x="1065.673828"/>
     <use xlink:href="#DejaVuSans-Bold-61" x="1099.951172"/>
     <use xlink:href="#DejaVuSans-Bold-67" x="1167.431641"/>
     <use xlink:href="#DejaVuSans-Bold-6e" x="1239.013672"/>
     <use xlink:href="#DejaVuSans-Bold-6f" x="1310.205078"/>
     <use xlink:href="#DejaVuSans-Bold-73" x="1378.90625"/>
     <use xlink:href="#DejaVuSans-Bold-74" x="1438.427734"/>
     <use xlink:href="#DejaVuSans-Bold-69" x="1486.230469"/>
     <use xlink:href="#DejaVuSans-Bold-63" x="1520.507812"/>
     <use xlink:href="#DejaVuSans-Bold-73" x="1579.785156"/>
    </g>
   </g>
   <g id="text_7">
    <!-- Calibration, uncertainty triage, -->
    <g style="fill: #263238" transform="translate(269.895385 136.781245) scale(0.091 -0.091)">
     <defs>
      <path id="DejaVuSans-43" d="M 4122 4306 
L 4122 3641 
Q 3803 3938 3442 4084 
Q 3081 4231 2675 4231 
Q 1875 4231 1450 3742 
Q 1025 3253 1025 2328 
Q 1025 1406 1450 917 
Q 1875 428 2675 428 
Q 3081 428 3442 575 
Q 3803 722 4122 1019 
L 4122 359 
Q 3791 134 3420 21 
Q 3050 -91 2638 -91 
Q 1578 -91 968 557 
Q 359 1206 359 2328 
Q 359 3453 968 4101 
Q 1578 4750 2638 4750 
Q 3056 4750 3426 4639 
Q 3797 4528 4122 4306 
z
" transform="scale(0.015625)"/>
      <path id="DejaVuSans-2c" d="M 750 794 
L 1409 794 
L 1409 256 
L 897 -744 
L 494 -744 
L 750 256 
L 750 794 
z
" transform="scale(0.015625)"/>
      <path id="DejaVuSans-79" d="M 2059 -325 
Q 1816 -950 1584 -1140 
Q 1353 -1331 966 -1331 
L 506 -1331 
L 506 -850 
L 844 -850 
Q 1081 -850 1212 -737 
Q 1344 -625 1503 -206 
L 1606 56 
L 191 3500 
L 800 3500 
L 1894 763 
L 2988 3500 
L 3597 3500 
L 2059 -325 
z
" transform="scale(0.015625)"/>
      <path id="DejaVuSans-67" d="M 2906 1791 
Q 2906 2416 2648 2759 
Q 2391 3103 1925 3103 
Q 1463 3103 1205 2759 
Q 947 2416 947 1791 
Q 947 1169 1205 825 
Q 1463 481 1925 481 
Q 2391 481 2648 825 
Q 2906 1169 2906 1791 
z
M 3481 434 
Q 3481 -459 3084 -895 
Q 2688 -1331 1869 -1331 
Q 1566 -1331 1297 -1286 
Q 1028 -1241 775 -1147 
L 775 -588 
Q 1028 -725 1275 -790 
Q 1522 -856 1778 -856 
Q 2344 -856 2625 -561 
Q 2906 -266 2906 331 
L 2906 616 
Q 2728 306 2450 153 
Q 2172 0 1784 0 
Q 1141 0 747 490 
Q 353 981 353 1791 
Q 353 2603 747 3093 
Q 1141 3584 1784 3584 
Q 2172 3584 2450 3431 
Q 2728 3278 2906 2969 
L 2906 3500 
L 3481 3500 
L 3481 434 
z
" transform="scale(0.015625)"/>
     </defs>
     <use xlink:href="#DejaVuSans-43"/>
     <use xlink:href="#DejaVuSans-61" x="69.824219"/>
     <use xlink:href="#DejaVuSans-6c" x="131.103516"/>
     <use xlink:href="#DejaVuSans-69" x="158.886719"/>
     <use xlink:href="#DejaVuSans-62" x="186.669922"/>
     <use xlink:href="#DejaVuSans-72" x="250.146484"/>
     <use xlink:href="#DejaVuSans-61" x="291.259766"/>
     <use xlink:href="#DejaVuSans-74" x="352.539062"/>
     <use xlink:href="#DejaVuSans-69" x="391.748047"/>
     <use xlink:href="#DejaVuSans-6f" x="419.53125"/>
     <use xlink:href="#DejaVuSans-6e" x="480.712891"/>
     <use xlink:href="#DejaVuSans-2c" x="544.091797"/>
     <use xlink:href="#DejaVuSans-20" x="575.878906"/>
     <use xlink:href="#DejaVuSans-75" x="607.666016"/>
     <use xlink:href="#DejaVuSans-6e" x="671.044922"/>
     <use xlink:href="#DejaVuSans-63" x="734.423828"/>
     <use xlink:href="#DejaVuSans-65" x="789.404297"/>
     <use xlink:href="#DejaVuSans-72" x="850.927734"/>
     <use xlink:href="#DejaVuSans-74" x="892.041016"/>
     <use xlink:href="#DejaVuSans-61" x="931.25"/>
     <use xlink:href="#DejaVuSans-69" x="992.529297"/>
     <use xlink:href="#DejaVuSans-6e" x="1020.3125"/>
     <use xlink:href="#DejaVuSans-74" x="1083.691406"/>
     <use xlink:href="#DejaVuSans-79" x="1122.900391"/>
     <use xlink:href="#DejaVuSans-20" x="1182.080078"/>
     <use xlink:href="#DejaVuSans-74" x="1213.867188"/>
     <use xlink:href="#DejaVuSans-72" x="1253.076172"/>
     <use xlink:href="#DejaVuSans-69" x="1294.189453"/>
     <use xlink:href="#DejaVuSans-61" x="1321.972656"/>
     <use xlink:href="#DejaVuSans-67" x="1383.251953"/>
     <use xlink:href="#DejaVuSans-65" x="1446.728516"/>
     <use xlink:href="#DejaVuSans-2c" x="1508.251953"/>
    </g>
    <!-- DCA and post-hoc XAI used as -->
    <g style="fill: #263238" transform="translate(269.895385 147.316983) scale(0.091 -0.091)">
     <defs>
      <path id="DejaVuSans-44" d="M 1259 4147 
L 1259 519 
L 2022 519 
Q 2988 519 3436 956 
Q 3884 1394 3884 2338 
Q 3884 3275 3436 3711 
Q 2988 4147 2022 4147 
L 1259 4147 
z
M 628 4666 
L 1925 4666 
Q 3281 4666 3915 4102 
Q 4550 3538 4550 2338 
Q 4550 1131 3912 565 
Q 3275 0 1925 0 
L 628 0 
L 628 4666 
z
" transform="scale(0.015625)"/>
      <path id="DejaVuSans-41" d="M 2188 4044 
L 1331 1722 
L 3047 1722 
L 2188 4044 
z
M 1831 4666 
L 2547 4666 
L 4325 0 
L 3669 0 
L 3244 1197 
L 1141 1197 
L 716 0 
L 50 0 
L 1831 4666 
z
" transform="scale(0.015625)"/>
      <path id="DejaVuSans-49" d="M 628 4666 
L 1259 4666 
L 1259 0 
L 628 0 
L 628 4666 
z
" transform="scale(0.015625)"/>
     </defs>
     <use xlink:href="#DejaVuSans-44"/>
     <use xlink:href="#DejaVuSans-43" x="77.001953"/>
     <use xlink:href="#DejaVuSans-41" x="146.826172"/>
     <use xlink:href="#DejaVuSans-20" x="215.234375"/>
     <use xlink:href="#DejaVuSans-61" x="247.021484"/>
     <use xlink:href="#DejaVuSans-6e" x="308.300781"/>
     <use xlink:href="#DejaVuSans-64" x="371.679688"/>
     <use xlink:href="#DejaVuSans-20" x="435.15625"/>
     <use xlink:href="#DejaVuSans-70" x="466.943359"/>
     <use xlink:href="#DejaVuSans-6f" x="530.419922"/>
     <use xlink:href="#DejaVuSans-73" x="591.601562"/>
     <use xlink:href="#DejaVuSans-74" x="643.701172"/>
     <use xlink:href="#DejaVuSans-2d" x="682.910156"/>
     <use xlink:href="#DejaVuSans-68" x="718.994141"/>
     <use xlink:href="#DejaVuSans-6f" x="782.373047"/>
     <use xlink:href="#DejaVuSans-63" x="843.554688"/>
     <use xlink:href="#DejaVuSans-20" x="898.535156"/>
     <use xlink:href="#DejaVuSans-58" x="930.322266"/>
     <use xlink:href="#DejaVuSans-41" x="998.828125"/>
     <use xlink:href="#DejaVuSans-49" x="1067.236328"/>
     <use xlink:href="#DejaVuSans-20" x="1096.728516"/>
     <use xlink:href="#DejaVuSans-75" x="1128.515625"/>
     <use xlink:href="#DejaVuSans-73" x="1191.894531"/>
     <use xlink:href="#DejaVuSans-65" x="1243.994141"/>
     <use xlink:href="#DejaVuSans-64" x="1305.517578"/>
     <use xlink:href="#DejaVuSans-20" x="1368.994141"/>
     <use xlink:href="#DejaVuSans-61" x="1400.78125"/>
     <use xlink:href="#DejaVuSans-73" x="1462.060547"/>
    </g>
    <!-- trustworthiness diagnostics -->
    <g style="fill: #263238" transform="translate(269.895385 157.852721) scale(0.091 -0.091)">
     <defs>
      <path id="DejaVuSans-77" d="M 269 3500 
L 844 3500 
L 1563 769 
L 2278 3500 
L 2956 3500 
L 3675 769 
L 4391 3500 
L 4966 3500 
L 4050 0 
L 3372 0 
L 2619 2869 
L 1863 0 
L 1184 0 
L 269 3500 
z
" transform="scale(0.015625)"/>
     </defs>
     <use xlink:href="#DejaVuSans-74"/>
     <use xlink:href="#DejaVuSans-72" x="39.208984"/>
     <use xlink:href="#DejaVuSans-75" x="80.322266"/>
     <use xlink:href="#DejaVuSans-73" x="143.701172"/>
     <use xlink:href="#DejaVuSans-74" x="195.800781"/>
     <use xlink:href="#DejaVuSans-77" x="235.009766"/>
     <use xlink:href="#DejaVuSans-6f" x="316.796875"/>
     <use xlink:href="#DejaVuSans-72" x="377.978516"/>
     <use xlink:href="#DejaVuSans-74" x="419.091797"/>
     <use xlink:href="#DejaVuSans-68" x="458.300781"/>
     <use xlink:href="#DejaVuSans-69" x="521.679688"/>
     <use xlink:href="#DejaVuSans-6e" x="549.462891"/>
     <use xlink:href="#DejaVuSans-65" x="612.841797"/>
     <use xlink:href="#DejaVuSans-73" x="674.365234"/>
     <use xlink:href="#DejaVuSans-73" x="726.464844"/>
     <use xlink:href="#DejaVuSans-20" x="778.564453"/>
     <use xlink:href="#DejaVuSans-64" x="810.351562"/>
     <use xlink:href="#DejaVuSans-69" x="873.828125"/>
     <use xlink:href="#DejaVuSans-61" x="901.611328"/>
     <use xlink:href="#DejaVuSans-67" x="962.890625"/>
     <use xlink:href="#DejaVuSans-6e" x="1026.367188"/>
     <use xlink:href="#DejaVuSans-6f" x="1089.746094"/>
     <use xlink:href="#DejaVuSans-73" x="1150.927734"/>
     <use xlink:href="#DejaVuSans-74" x="1203.027344"/>
     <use xlink:href="#DejaVuSans-69" x="1242.236328"/>
     <use xlink:href="#DejaVuSans-63" x="1270.019531"/>
     <use xlink:href="#DejaVuSans-73" x="1325"/>
    </g>
   </g>
   <g id="text_8">
    <!-- SUPPORTIVE -->
    <g style="fill: #1565c0" transform="translate(269.895385 242.537597) scale(0.095 -0.095)">
     <defs>
      <path id="DejaVuSans-Bold-53" d="M 3834 4519 
L 3834 3531 
Q 3450 3703 3084 3790 
Q 2719 3878 2394 3878 
Q 1963 3878 1756 3759 
Q 1550 3641 1550 3391 
Q 1550 3203 1689 3098 
Q 1828 2994 2194 2919 
L 2706 2816 
Q 3484 2659 3812 2340 
Q 4141 2022 4141 1434 
Q 4141 663 3683 286 
Q 3225 -91 2284 -91 
Q 1841 -91 1394 -6 
Q 947 78 500 244 
L 500 1259 
Q 947 1022 1364 901 
Q 1781 781 2169 781 
Q 2563 781 2772 912 
Q 2981 1044 2981 1288 
Q 2981 1506 2839 1625 
Q 2697 1744 2272 1838 
L 1806 1941 
Q 1106 2091 782 2419 
Q 459 2747 459 3303 
Q 459 4000 909 4375 
Q 1359 4750 2203 4750 
Q 2588 4750 2994 4692 
Q 3400 4634 3834 4519 
z
" transform="scale(0.015625)"/>
      <path id="DejaVuSans-Bold-55" d="M 588 4666 
L 1791 4666 
L 1791 1869 
Q 1791 1291 1980 1042 
Q 2169 794 2597 794 
Q 3028 794 3217 1042 
Q 3406 1291 3406 1869 
L 3406 4666 
L 4609 4666 
L 4609 1869 
Q 4609 878 4112 393 
Q 3616 -91 2597 -91 
Q 1581 -91 1084 393 
Q 588 878 588 1869 
L 588 4666 
z
" transform="scale(0.015625)"/>
      <path id="DejaVuSans-Bold-50" d="M 588 4666 
L 2584 4666 
Q 3475 4666 3951 4270 
Q 4428 3875 4428 3144 
Q 4428 2409 3951 2014 
Q 3475 1619 2584 1619 
L 1791 1619 
L 1791 0 
L 588 0 
L 588 4666 
z
M 1791 3794 
L 1791 2491 
L 2456 2491 
Q 2806 2491 2997 2661 
Q 3188 2831 3188 3144 
Q 3188 3456 2997 3625 
Q 2806 3794 2456 3794 
L 1791 3794 
z
" transform="scale(0.015625)"/>
      <path id="DejaVuSans-Bold-52" d="M 2297 2597 
Q 2675 2597 2839 2737 
Q 3003 2878 3003 3200 
Q 3003 3519 2839 3656 
Q 2675 3794 2297 3794 
L 1791 3794 
L 1791 2597 
L 2297 2597 
z
M 1791 1766 
L 1791 0 
L 588 0 
L 588 4666 
L 2425 4666 
Q 3347 4666 3776 4356 
Q 4206 4047 4206 3378 
Q 4206 2916 3982 2619 
Q 3759 2322 3309 2181 
Q 3556 2125 3751 1926 
Q 3947 1728 4147 1325 
L 4800 0 
L 3519 0 
L 2950 1159 
Q 2778 1509 2601 1637 
Q 2425 1766 2131 1766 
L 1791 1766 
z
" transform="scale(0.015625)"/>
      <path id="DejaVuSans-Bold-54" d="M 31 4666 
L 4331 4666 
L 4331 3756 
L 2784 3756 
L 2784 0 
L 1581 0 
L 1581 3756 
L 31 3756 
L 31 4666 
z
" transform="scale(0.015625)"/>
      <path id="DejaVuSans-Bold-56" d="M 31 4666 
L 1241 4666 
L 2478 1222 
L 3713 4666 
L 4922 4666 
L 3194 0 
L 1759 0 
L 31 4666 
z
" transform="scale(0.015625)"/>
      <path id="DejaVuSans-Bold-45" d="M 588 4666 
L 3834 4666 
L 3834 3756 
L 1791 3756 
L 1791 2888 
L 3713 2888 
L 3713 1978 
L 1791 1978 
L 1791 909 
L 3903 909 
L 3903 0 
L 588 0 
L 588 4666 
z
" transform="scale(0.015625)"/>
     </defs>
     <use xlink:href="#DejaVuSans-Bold-53"/>
     <use xlink:href="#DejaVuSans-Bold-55" x="72.021484"/>
     <use xlink:href="#DejaVuSans-Bold-50" x="153.222656"/>
     <use xlink:href="#DejaVuSans-Bold-50" x="226.513672"/>
     <use xlink:href="#DejaVuSans-Bold-4f" x="299.804688"/>
     <use xlink:href="#DejaVuSans-Bold-52" x="384.814453"/>
     <use xlink:href="#DejaVuSans-Bold-54" x="457.316406"/>
     <use xlink:href="#DejaVuSans-Bold-49" x="525.529297"/>
     <use xlink:href="#DejaVuSans-Bold-56" x="562.736328"/>
     <use xlink:href="#DejaVuSans-Bold-45" x="640.128906"/>
    </g>
   </g>
   <g id="patch_11">
    <path d="M 457.498894 157.904762 
Q 464.064187 157.904762 469.176035 157.904762 
" style="fill: none; stroke: #455a64; stroke-width: 1.3; stroke-linecap: round"/>
    <path d="M 465.176035 155.904762 
L 469.176035 157.904762 
L 465.176035 159.904762 
" style="fill: none; stroke: #455a64; stroke-width: 1.3; stroke-linecap: round"/>
   </g>
   <g id="text_9">
    <!-- 3 -->
    <g style="fill: #ffffff" transform="translate(498.416478 80.054613) scale(0.1 -0.1)">
     <defs>
      <path id="DejaVuSans-Bold-33" d="M 2981 2516 
Q 3453 2394 3698 2092 
Q 3944 1791 3944 1325 
Q 3944 631 3412 270 
Q 2881 -91 1863 -91 
Q 1503 -91 1142 -33 
Q 781 25 428 141 
L 428 1069 
Q 766 900 1098 814 
Q 1431 728 1753 728 
Q 2231 728 2486 893 
Q 2741 1059 2741 1369 
Q 2741 1688 2480 1852 
Q 2219 2016 1709 2016 
L 1228 2016 
L 1228 2791 
L 1734 2791 
Q 2188 2791 2409 2933 
Q 2631 3075 2631 3366 
Q 2631 3634 2415 3781 
Q 2200 3928 1806 3928 
Q 1516 3928 1219 3862 
Q 922 3797 628 3669 
L 628 4550 
Q 984 4650 1334 4700 
Q 1684 4750 2022 4750 
Q 2931 4750 3382 4451 
Q 3834 4153 3834 3553 
Q 3834 3144 3618 2883 
Q 3403 2622 2981 2516 
z
" transform="scale(0.015625)"/>
     </defs>
     <use xlink:href="#DejaVuSans-Bold-33"/>
    </g>
   </g>
   <g id="text_10">
    <!-- External validation -->
    <g style="fill: #1b1f23" transform="translate(521.169231 78.790677) scale(0.105 -0.105)">
     <defs>
      <path id="DejaVuSans-Bold-78" d="M 1422 1791 
L 159 3500 
L 1344 3500 
L 2059 2463 
L 2784 3500 
L 3969 3500 
L 2706 1797 
L 4031 0 
L 2847 0 
L 2059 1106 
L 1281 0 
L 97 0 
L 1422 1791 
z
" transform="scale(0.015625)"/>
     </defs>
     <use xlink:href="#DejaVuSans-Bold-45"/>
     <use xlink:href="#DejaVuSans-Bold-78" x="68.310547"/>
     <use xlink:href="#DejaVuSans-Bold-74" x="132.8125"/>
     <use xlink:href="#DejaVuSans-Bold-65" x="180.615234"/>
     <use xlink:href="#DejaVuSans-Bold-72" x="248.4375"/>
     <use xlink:href="#DejaVuSans-Bold-6e" x="297.753906"/>
     <use xlink:href="#DejaVuSans-Bold-61" x="368.945312"/>
     <use xlink:href="#DejaVuSans-Bold-6c" x="436.425781"/>
     <use xlink:href="#DejaVuSans-Bold-20" x="470.703125"/>
     <use xlink:href="#DejaVuSans-Bold-76" x="505.517578"/>
     <use xlink:href="#DejaVuSans-Bold-61" x="570.703125"/>
     <use xlink:href="#DejaVuSans-Bold-6c" x="638.183594"/>
     <use xlink:href="#DejaVuSans-Bold-69" x="672.460938"/>
     <use xlink:href="#DejaVuSans-Bold-64" x="706.738281"/>
     <use xlink:href="#DejaVuSans-Bold-61" x="778.320312"/>
     <use xlink:href="#DejaVuSans-Bold-74" x="845.800781"/>
     <use xlink:href="#DejaVuSans-Bold-69" x="893.603516"/>
     <use xlink:href="#DejaVuSans-Bold-6f" x="927.880859"/>
     <use xlink:href="#DejaVuSans-Bold-6e" x="996.582031"/>
    </g>
   </g>
   <g id="text_11">
    <!-- CPSC2018 + Chapman-Shaoxing -->
    <g style="fill: #263238" transform="translate(494.756923 136.781245) scale(0.091 -0.091)">
     <defs>
      <path id="DejaVuSans-53" d="M 3425 4513 
L 3425 3897 
Q 3066 4069 2747 4153 
Q 2428 4238 2131 4238 
Q 1616 4238 1336 4038 
Q 1056 3838 1056 3469 
Q 1056 3159 1242 3001 
Q 1428 2844 1947 2747 
L 2328 2669 
Q 3034 2534 3370 2195 
Q 3706 1856 3706 1288 
Q 3706 609 3251 259 
Q 2797 -91 1919 -91 
Q 1588 -91 1214 -16 
Q 841 59 441 206 
L 441 856 
Q 825 641 1194 531 
Q 1563 422 1919 422 
Q 2459 422 2753 634 
Q 3047 847 3047 1241 
Q 3047 1584 2836 1778 
Q 2625 1972 2144 2069 
L 1759 2144 
Q 1053 2284 737 2584 
Q 422 2884 422 3419 
Q 422 4038 858 4394 
Q 1294 4750 2059 4750 
Q 2388 4750 2728 4690 
Q 3069 4631 3425 4513 
z
" transform="scale(0.015625)"/>
      <path id="DejaVuSans-32" d="M 1228 531 
L 3431 531 
L 3431 0 
L 469 0 
L 469 531 
Q 828 903 1448 1529 
Q 2069 2156 2228 2338 
Q 2531 2678 2651 2914 
Q 2772 3150 2772 3378 
Q 2772 3750 2511 3984 
Q 2250 4219 1831 4219 
Q 1534 4219 1204 4116 
Q 875 4013 500 3803 
L 500 4441 
Q 881 4594 1212 4672 
Q 1544 4750 1819 4750 
Q 2544 4750 2975 4387 
Q 3406 4025 3406 3419 
Q 3406 3131 3298 2873 
Q 3191 2616 2906 2266 
Q 2828 2175 2409 1742 
Q 1991 1309 1228 531 
z
" transform="scale(0.015625)"/>
      <path id="DejaVuSans-30" d="M 2034 4250 
Q 1547 4250 1301 3770 
Q 1056 3291 1056 2328 
Q 1056 1369 1301 889 
Q 1547 409 2034 409 
Q 2525 409 2770 889 
Q 3016 1369 3016 2328 
Q 3016 3291 2770 3770 
Q 2525 4250 2034 4250 
z
M 2034 4750 
Q 2819 4750 3233 4129 
Q 3647 3509 3647 2328 
Q 3647 1150 3233 529 
Q 2819 -91 2034 -91 
Q 1250 -91 836 529 
Q 422 1150 422 2328 
Q 422 3509 836 4129 
Q 1250 4750 2034 4750 
z
" transform="scale(0.015625)"/>
      <path id="DejaVuSans-31" d="M 794 531 
L 1825 531 
L 1825 4091 
L 703 3866 
L 703 4441 
L 1819 4666 
L 2450 4666 
L 2450 531 
L 3481 531 
L 3481 0 
L 794 0 
L 794 531 
z
" transform="scale(0.015625)"/>
      <path id="DejaVuSans-38" d="M 2034 2216 
Q 1584 2216 1326 1975 
Q 1069 1734 1069 1313 
Q 1069 891 1326 650 
Q 1584 409 2034 409 
Q 2484 409 2743 651 
Q 3003 894 3003 1313 
Q 3003 1734 2745 1975 
Q 2488 2216 2034 2216 
z
M 1403 2484 
Q 997 2584 770 2862 
Q 544 3141 544 3541 
Q 544 4100 942 4425 
Q 1341 4750 2034 4750 
Q 2731 4750 3128 4425 
Q 3525 4100 3525 3541 
Q 3525 3141 3298 2862 
Q 3072 2584 2669 2484 
Q 3125 2378 3379 2068 
Q 3634 1759 3634 1313 
Q 3634 634 3220 271 
Q 2806 -91 2034 -91 
Q 1263 -91 848 271 
Q 434 634 434 1313 
Q 434 1759 690 2068 
Q 947 2378 1403 2484 
z
M 1172 3481 
Q 1172 3119 1398 2916 
Q 1625 2713 2034 2713 
Q 2441 2713 2670 2916 
Q 2900 3119 2900 3481 
Q 2900 3844 2670 4047 
Q 2441 4250 2034 4250 
Q 1625 4250 1398 4047 
Q 1172 3844 1172 3481 
z
" transform="scale(0.015625)"/>
      <path id="DejaVuSans-78" d="M 3513 3500 
L 2247 1797 
L 3578 0 
L 2900 0 
L 1881 1375 
L 863 0 
L 184 0 
L 1544 1831 
L 300 3500 
L 978 3500 
L 1906 2253 
L 2834 3500 
L 3513 3500 
z
" transform="scale(0.015625)"/>
     </defs>
     <use xlink:href="#DejaVuSans-43"/>
     <use xlink:href="#DejaVuSans-50" x="69.824219"/>
     <use xlink:href="#DejaVuSans-53" x="130.126953"/>
     <use xlink:href="#DejaVuSans-43" x="193.603516"/>
     <use xlink:href="#DejaVuSans-32" x="263.427734"/>
     <use xlink:href="#DejaVuSans-30" x="327.050781"/>
     <use xlink:href="#DejaVuSans-31" x="390.673828"/>
     <use xlink:href="#DejaVuSans-38" x="454.296875"/>
     <use xlink:href="#DejaVuSans-20" x="517.919922"/>
     <use xlink:href="#DejaVuSans-2b" x="549.707031"/>
     <use xlink:href="#DejaVuSans-20" x="633.496094"/>
     <use xlink:href="#DejaVuSans-43" x="665.283203"/>
     <use xlink:href="#DejaVuSans-68" x="735.107422"/>
     <use xlink:href="#DejaVuSans-61" x="798.486328"/>
     <use xlink:href="#DejaVuSans-70" x="859.765625"/>
     <use xlink:href="#DejaVuSans-6d" x="923.242188"/>
     <use xlink:href="#DejaVuSans-61" x="1020.654297"/>
     <use xlink:href="#DejaVuSans-6e" x="1081.933594"/>
     <use xlink:href="#DejaVuSans-2d" x="1145.3125"/>
     <use xlink:href="#DejaVuSans-53" x="1181.396484"/>
     <use xlink:href="#DejaVuSans-68" x="1244.873047"/>
     <use xlink:href="#DejaVuSans-61" x="1308.251953"/>
     <use xlink:href="#DejaVuSans-6f" x="1369.53125"/>
     <use xlink:href="#DejaVuSans-78" x="1427.587891"/>
     <use xlink:href="#DejaVuSans-69" x="1486.767578"/>
     <use xlink:href="#DejaVuSans-6e" x="1514.550781"/>
     <use xlink:href="#DejaVuSans-67" x="1577.929688"/>
    </g>
    <!-- Signal-only evaluation under -->
    <g style="fill: #263238" transform="translate(494.756923 147.316983) scale(0.091 -0.091)">
     <use xlink:href="#DejaVuSans-53"/>
     <use xlink:href="#DejaVuSans-69" x="63.476562"/>
     <use xlink:href="#DejaVuSans-67" x="91.259766"/>
     <use xlink:href="#DejaVuSans-6e" x="154.736328"/>
     <use xlink:href="#DejaVuSans-61" x="218.115234"/>
     <use xlink:href="#DejaVuSans-6c" x="279.394531"/>
     <use xlink:href="#DejaVuSans-2d" x="307.177734"/>
     <use xlink:href="#DejaVuSans-6f" x="345.136719"/>
     <use xlink:href="#DejaVuSans-6e" x="406.318359"/>
     <use xlink:href="#DejaVuSans-6c" x="469.697266"/>
     <use xlink:href="#DejaVuSans-79" x="497.480469"/>
     <use xlink:href="#DejaVuSans-20" x="556.660156"/>
     <use xlink:href="#DejaVuSans-65" x="588.447266"/>
     <use xlink:href="#DejaVuSans-76" x="649.970703"/>
     <use xlink:href="#DejaVuSans-61" x="709.150391"/>
     <use xlink:href="#DejaVuSans-6c" x="770.429688"/>
     <use xlink:href="#DejaVuSans-75" x="798.212891"/>
     <use xlink:href="#DejaVuSans-61" x="861.591797"/>
     <use xlink:href="#DejaVuSans-74" x="922.871094"/>
     <use xlink:href="#DejaVuSans-69" x="962.080078"/>
     <use xlink:href="#DejaVuSans-6f" x="989.863281"/>
     <use xlink:href="#DejaVuSans-6e" x="1051.044922"/>
     <use xlink:href="#DejaVuSans-20" x="1114.423828"/>
     <use xlink:href="#DejaVuSans-75" x="1146.210938"/>
     <use xlink:href="#DejaVuSans-6e" x="1209.589844"/>
     <use xlink:href="#DejaVuSans-64" x="1272.96875"/>
     <use xlink:href="#DejaVuSans-65" x="1336.445312"/>
     <use xlink:href="#DejaVuSans-72" x="1397.96875"/>
    </g>
    <!-- fixed internal thresholds -->
    <g style="fill: #263238" transform="translate(494.756923 157.852721) scale(0.091 -0.091)">
     <use xlink:href="#DejaVuSans-66"/>
     <use xlink:href="#DejaVuSans-69" x="35.205078"/>
     <use xlink:href="#DejaVuSans-78" x="62.988281"/>
     <use xlink:href="#DejaVuSans-65" x="119.042969"/>
     <use xlink:href="#DejaVuSans-64" x="180.566406"/>
     <use xlink:href="#DejaVuSans-20" x="244.042969"/>
     <use xlink:href="#DejaVuSans-69" x="275.830078"/>
     <use xlink:href="#DejaVuSans-6e" x="303.613281"/>
     <use xlink:href="#DejaVuSans-74" x="366.992188"/>
     <use xlink:href="#DejaVuSans-65" x="406.201172"/>
     <use xlink:href="#DejaVuSans-72" x="467.724609"/>
     <use xlink:href="#DejaVuSans-6e" x="507.087891"/>
     <use xlink:href="#DejaVuSans-61" x="570.466797"/>
     <use xlink:href="#DejaVuSans-6c" x="631.746094"/>
     <use xlink:href="#DejaVuSans-20" x="659.529297"/>
     <use xlink:href="#DejaVuSans-74" x="691.316406"/>
     <use xlink:href="#DejaVuSans-68" x="730.525391"/>
     <use xlink:href="#DejaVuSans-72" x="793.904297"/>
     <use xlink:href="#DejaVuSans-65" x="832.767578"/>
     <use xlink:href="#DejaVuSans-73" x="894.291016"/>
     <use xlink:href="#DejaVuSans-68" x="946.390625"/>
     <use xlink:href="#DejaVuSans-6f" x="1009.769531"/>
     <use xlink:href="#DejaVuSans-6c" x="1070.951172"/>
     <use xlink:href="#DejaVuSans-64" x="1098.734375"/>
     <use xlink:href="#DejaVuSans-73" x="1162.210938"/>
    </g>
   </g>
   <g id="text_12">
    <!-- SIGNAL ONLY -->
    <g style="fill: #ef6c00" transform="translate(494.756923 242.537597) scale(0.095 -0.095)">
     <defs>
      <path id="DejaVuSans-Bold-4e" d="M 588 4666 
L 1931 4666 
L 3628 1466 
L 3628 4666 
L 4769 4666 
L 4769 0 
L 3425 0 
L 1728 3200 
L 1728 0 
L 588 0 
L 588 4666 
z
" transform="scale(0.015625)"/>
      <path id="DejaVuSans-Bold-41" d="M 3419 850 
L 1538 850 
L 1241 0 
L 31 0 
L 1759 4666 
L 3194 4666 
L 4922 0 
L 3713 0 
L 3419 850 
z
M 1838 1716 
L 3116 1716 
L 2478 3572 
L 1838 1716 
z
" transform="scale(0.015625)"/>
      <path id="DejaVuSans-Bold-4c" d="M 588 4666 
L 1791 4666 
L 1791 909 
L 3903 909 
L 3903 0 
L 588 0 
L 588 4666 
z
" transform="scale(0.015625)"/>
      <path id="DejaVuSans-Bold-59" d="M -63 4666 
L 1253 4666 
L 2316 3003 
L 3378 4666 
L 4697 4666 
L 2919 1966 
L 2919 0 
L 1716 0 
L 1716 1966 
L -63 4666 
z
" transform="scale(0.015625)"/>
     </defs>
     <use xlink:href="#DejaVuSans-Bold-53"/>
     <use xlink:href="#DejaVuSans-Bold-49" x="72.021484"/>
     <use xlink:href="#DejaVuSans-Bold-47" x="109.228516"/>
     <use xlink:href="#DejaVuSans-Bold-4e" x="191.308594"/>
     <use xlink:href="#DejaVuSans-Bold-41" x="275"/>
     <use xlink:href="#DejaVuSans-Bold-4c" x="352.392578"/>
     <use xlink:href="#DejaVuSans-Bold-20" x="416.113281"/>
     <use xlink:href="#DejaVuSans-Bold-4f" x="450.927734"/>
     <use xlink:href="#DejaVuSans-Bold-4e" x="535.9375"/>
     <use xlink:href="#DejaVuSans-Bold-4c" x="619.628906"/>
     <use xlink:href="#DejaVuSans-Bold-59" x="667.724609"/>
    </g>
   </g>
   <g id="patch_12">
    <path d="M 682.360433 157.904762 
Q 688.925725 157.904762 694.037574 157.904762 
" style="fill: none; stroke: #455a64; stroke-width: 1.3; stroke-linecap: round"/>
    <path d="M 690.037574 155.904762 
L 694.037574 157.904762 
L 690.037574 159.904762 
" style="fill: none; stroke: #455a64; stroke-width: 1.3; stroke-linecap: round"/>
   </g>
   <g id="text_13">
    <!-- 4 -->
    <g style="fill: #ffffff" transform="translate(723.278017 80.054613) scale(0.1 -0.1)">
     <defs>
      <path id="DejaVuSans-Bold-34" d="M 2356 3675 
L 1038 1722 
L 2356 1722 
L 2356 3675 
z
M 2156 4666 
L 3494 4666 
L 3494 1722 
L 4159 1722 
L 4159 850 
L 3494 850 
L 3494 0 
L 2356 0 
L 2356 850 
L 288 850 
L 288 1881 
L 2156 4666 
z
" transform="scale(0.015625)"/>
     </defs>
     <use xlink:href="#DejaVuSans-Bold-34"/>
    </g>
   </g>
   <g id="text_14">
    <!-- Structured-feature audit -->
    <g style="fill: #1b1f23" transform="translate(746.030769 78.790677) scale(0.105 -0.105)">
     <defs>
      <path id="DejaVuSans-Bold-66" d="M 2841 4863 
L 2841 4128 
L 2222 4128 
Q 1984 4128 1890 4042 
Q 1797 3956 1797 3744 
L 1797 3500 
L 2753 3500 
L 2753 2700 
L 1797 2700 
L 1797 0 
L 678 0 
L 678 2700 
L 122 2700 
L 122 3500 
L 678 3500 
L 678 3744 
Q 678 4316 997 4589 
Q 1316 4863 1984 4863 
L 2841 4863 
z
" transform="scale(0.015625)"/>
     </defs>
     <use xlink:href="#DejaVuSans-Bold-53"/>
     <use xlink:href="#DejaVuSans-Bold-74" x="72.021484"/>
     <use xlink:href="#DejaVuSans-Bold-72" x="119.824219"/>
     <use xlink:href="#DejaVuSans-Bold-75" x="169.140625"/>
     <use xlink:href="#DejaVuSans-Bold-63" x="240.332031"/>
     <use xlink:href="#DejaVuSans-Bold-74" x="299.609375"/>
     <use xlink:href="#DejaVuSans-Bold-75" x="347.412109"/>
     <use xlink:href="#DejaVuSans-Bold-72" x="418.603516"/>
     <use xlink:href="#DejaVuSans-Bold-65" x="467.919922"/>
     <use xlink:href="#DejaVuSans-Bold-64" x="535.742188"/>
     <use xlink:href="#DejaVuSans-Bold-2d" x="607.324219"/>
     <use xlink:href="#DejaVuSans-Bold-66" x="648.828125"/>
     <use xlink:href="#DejaVuSans-Bold-65" x="692.333984"/>
     <use xlink:href="#DejaVuSans-Bold-61" x="760.15625"/>
     <use xlink:href="#DejaVuSans-Bold-74" x="827.636719"/>
     <use xlink:href="#DejaVuSans-Bold-75" x="875.439453"/>
     <use xlink:href="#DejaVuSans-Bold-72" x="946.630859"/>
     <use xlink:href="#DejaVuSans-Bold-65" x="995.947266"/>
     <use xlink:href="#DejaVuSans-Bold-20" x="1063.769531"/>
     <use xlink:href="#DejaVuSans-Bold-61" x="1098.583984"/>
     <use xlink:href="#DejaVuSans-Bold-75" x="1166.064453"/>
     <use xlink:href="#DejaVuSans-Bold-64" x="1237.255859"/>
     <use xlink:href="#DejaVuSans-Bold-69" x="1308.837891"/>
     <use xlink:href="#DejaVuSans-Bold-74" x="1343.115234"/>
    </g>
   </g>
   <g id="text_15">
    <!-- Stage 14L found insufficient -->
    <g style="fill: #263238" transform="translate(719.618462 136.781245) scale(0.091 -0.091)">
     <defs>
      <path id="DejaVuSans-34" d="M 2419 4116 
L 825 1625 
L 2419 1625 
L 2419 4116 
z
M 2253 4666 
L 3047 4666 
L 3047 1625 
L 3713 1625 
L 3713 1100 
L 3047 1100 
L 3047 0 
L 2419 0 
L 2419 1100 
L 313 1100 
L 313 1709 
L 2253 4666 
z
" transform="scale(0.015625)"/>
     </defs>
     <use xlink:href="#DejaVuSans-53"/>
     <use xlink:href="#DejaVuSans-74" x="63.476562"/>
     <use xlink:href="#DejaVuSans-61" x="102.685547"/>
     <use xlink:href="#DejaVuSans-67" x="163.964844"/>
     <use xlink:href="#DejaVuSans-65" x="227.441406"/>
     <use xlink:href="#DejaVuSans-20" x="288.964844"/>
     <use xlink:href="#DejaVuSans-31" x="320.751953"/>
     <use xlink:href="#DejaVuSans-34" x="384.375"/>
     <use xlink:href="#DejaVuSans-4c" x="447.998047"/>
     <use xlink:href="#DejaVuSans-20" x="503.710938"/>
     <use xlink:href="#DejaVuSans-66" x="535.498047"/>
     <use xlink:href="#DejaVuSans-6f" x="570.703125"/>
     <use xlink:href="#DejaVuSans-75" x="631.884766"/>
     <use xlink:href="#DejaVuSans-6e" x="695.263672"/>
     <use xlink:href="#DejaVuSans-64" x="758.642578"/>
     <use xlink:href="#DejaVuSans-20" x="822.119141"/>
     <use xlink:href="#DejaVuSans-69" x="853.90625"/>
     <use xlink:href="#DejaVuSans-6e" x="881.689453"/>
     <use xlink:href="#DejaVuSans-73" x="945.068359"/>
     <use xlink:href="#DejaVuSans-75" x="997.167969"/>
     <use xlink:href="#DejaVuSans-66" x="1060.546875"/>
     <use xlink:href="#DejaVuSans-66" x="1095.751953"/>
     <use xlink:href="#DejaVuSans-69" x="1130.957031"/>
     <use xlink:href="#DejaVuSans-63" x="1158.740234"/>
     <use xlink:href="#DejaVuSans-69" x="1213.720703"/>
     <use xlink:href="#DejaVuSans-65" x="1241.503906"/>
     <use xlink:href="#DejaVuSans-6e" x="1303.027344"/>
     <use xlink:href="#DejaVuSans-74" x="1366.40625"/>
    </g>
    <!-- external coverage/fidelity for -->
    <g style="fill: #263238" transform="translate(719.618462 147.316983) scale(0.091 -0.091)">
     <defs>
      <path id="DejaVuSans-2f" d="M 1625 4666 
L 2156 4666 
L 531 -594 
L 0 -594 
L 1625 4666 
z
" transform="scale(0.015625)"/>
     </defs>
     <use xlink:href="#DejaVuSans-65"/>
     <use xlink:href="#DejaVuSans-78" x="59.773438"/>
     <use xlink:href="#DejaVuSans-74" x="118.953125"/>
     <use xlink:href="#DejaVuSans-65" x="158.162109"/>
     <use xlink:href="#DejaVuSans-72" x="219.685547"/>
     <use xlink:href="#DejaVuSans-6e" x="259.048828"/>
     <use xlink:href="#DejaVuSans-61" x="322.427734"/>
     <use xlink:href="#DejaVuSans-6c" x="383.707031"/>
     <use xlink:href="#DejaVuSans-20" x="411.490234"/>
     <use xlink:href="#DejaVuSans-63" x="443.277344"/>
     <use xlink:href="#DejaVuSans-6f" x="498.257812"/>
     <use xlink:href="#DejaVuSans-76" x="559.439453"/>
     <use xlink:href="#DejaVuSans-65" x="618.619141"/>
     <use xlink:href="#DejaVuSans-72" x="680.142578"/>
     <use xlink:href="#DejaVuSans-61" x="721.255859"/>
     <use xlink:href="#DejaVuSans-67" x="782.535156"/>
     <use xlink:href="#DejaVuSans-65" x="846.011719"/>
     <use xlink:href="#DejaVuSans-2f" x="907.535156"/>
     <use xlink:href="#DejaVuSans-66" x="941.226562"/>
     <use xlink:href="#DejaVuSans-69" x="976.431641"/>
     <use xlink:href="#DejaVuSans-64" x="1004.214844"/>
     <use xlink:href="#DejaVuSans-65" x="1067.691406"/>
     <use xlink:href="#DejaVuSans-6c" x="1129.214844"/>
     <use xlink:href="#DejaVuSans-69" x="1156.998047"/>
     <use xlink:href="#DejaVuSans-74" x="1184.78125"/>
     <use xlink:href="#DejaVuSans-79" x="1223.990234"/>
     <use xlink:href="#DejaVuSans-20" x="1283.169922"/>
     <use xlink:href="#DejaVuSans-66" x="1314.957031"/>
     <use xlink:href="#DejaVuSans-6f" x="1350.162109"/>
     <use xlink:href="#DejaVuSans-72" x="1411.34375"/>
    </g>
    <!-- multimodal external validation -->
    <g style="fill: #263238" transform="translate(719.618462 157.852721) scale(0.091 -0.091)">
     <use xlink:href="#DejaVuSans-6d"/>
     <use xlink:href="#DejaVuSans-75" x="97.412109"/>
     <use xlink:href="#DejaVuSans-6c" x="160.791016"/>
     <use xlink:href="#DejaVuSans-74" x="188.574219"/>
     <use xlink:href="#DejaVuSans-69" x="227.783203"/>
     <use xlink:href="#DejaVuSans-6d" x="255.566406"/>
     <use xlink:href="#DejaVuSans-6f" x="352.978516"/>
     <use xlink:href="#DejaVuSans-64" x="414.160156"/>
     <use xlink:href="#DejaVuSans-61" x="477.636719"/>
     <use xlink:href="#DejaVuSans-6c" x="538.916016"/>
     <use xlink:href="#DejaVuSans-20" x="566.699219"/>
     <use xlink:href="#DejaVuSans-65" x="598.486328"/>
     <use xlink:href="#DejaVuSans-78" x="658.259766"/>
     <use xlink:href="#DejaVuSans-74" x="717.439453"/>
     <use xlink:href="#DejaVuSans-65" x="756.648438"/>
     <use xlink:href="#DejaVuSans-72" x="818.171875"/>
     <use xlink:href="#DejaVuSans-6e" x="857.535156"/>
     <use xlink:href="#DejaVuSans-61" x="920.914062"/>
     <use xlink:href="#DejaVuSans-6c" x="982.193359"/>
     <use xlink:href="#DejaVuSans-20" x="1009.976562"/>
     <use xlink:href="#DejaVuSans-76" x="1041.763672"/>
     <use xlink:href="#DejaVuSans-61" x="1100.943359"/>
     <use xlink:href="#DejaVuSans-6c" x="1162.222656"/>
     <use xlink:href="#DejaVuSans-69" x="1190.005859"/>
     <use xlink:href="#DejaVuSans-64" x="1217.789062"/>
     <use xlink:href="#DejaVuSans-61" x="1281.265625"/>
     <use xlink:href="#DejaVuSans-74" x="1342.544922"/>
     <use xlink:href="#DejaVuSans-69" x="1381.753906"/>
     <use xlink:href="#DejaVuSans-6f" x="1409.537109"/>
     <use xlink:href="#DejaVuSans-6e" x="1470.71875"/>
    </g>
   </g>
   <g id="text_16">
    <!-- NO-GO -->
    <g style="fill: #b71c1c" transform="translate(719.618462 242.537597) scale(0.095 -0.095)">
     <use xlink:href="#DejaVuSans-Bold-4e"/>
     <use xlink:href="#DejaVuSans-Bold-4f" x="83.691406"/>
     <use xlink:href="#DejaVuSans-Bold-2d" x="170.576172"/>
     <use xlink:href="#DejaVuSans-Bold-47" x="212.080078"/>
     <use xlink:href="#DejaVuSans-Bold-4f" x="294.160156"/>
    </g>
   </g>
   <g id="text_17">
    <!-- Reproducibility-aware multimodal ECG evaluation: what is supported, and what is not -->
    <g style="fill: #111111" transform="translate(32.184615 34.601778) scale(0.13 -0.13)">
     <defs>
      <path id="DejaVuSans-Bold-62" d="M 2400 722 
Q 2759 722 2948 984 
Q 3138 1247 3138 1747 
Q 3138 2247 2948 2509 
Q 2759 2772 2400 2772 
Q 2041 2772 1848 2508 
Q 1656 2244 1656 1747 
Q 1656 1250 1848 986 
Q 2041 722 2400 722 
z
M 1656 2988 
Q 1888 3294 2169 3439 
Q 2450 3584 2816 3584 
Q 3463 3584 3878 3070 
Q 4294 2556 4294 1747 
Q 4294 938 3878 423 
Q 3463 -91 2816 -91 
Q 2450 -91 2169 54 
Q 1888 200 1656 506 
L 1656 0 
L 538 0 
L 538 4863 
L 1656 4863 
L 1656 2988 
z
" transform="scale(0.015625)"/>
      <path id="DejaVuSans-Bold-79" d="M 78 3500 
L 1197 3500 
L 2138 1125 
L 2938 3500 
L 4056 3500 
L 2584 -331 
Q 2363 -916 2067 -1148 
Q 1772 -1381 1288 -1381 
L 641 -1381 
L 641 -647 
L 991 -647 
Q 1275 -647 1404 -556 
Q 1534 -466 1606 -231 
L 1638 -134 
L 78 3500 
z
" transform="scale(0.015625)"/>
      <path id="DejaVuSans-Bold-77" d="M 225 3500 
L 1313 3500 
L 1900 1088 
L 2491 3500 
L 3425 3500 
L 4013 1113 
L 4603 3500 
L 5691 3500 
L 4769 0 
L 3547 0 
L 2956 2406 
L 2369 0 
L 1147 0 
L 225 3500 
z
" transform="scale(0.015625)"/>
      <path id="DejaVuSans-Bold-43" d="M 4288 256 
Q 3956 84 3597 -3 
Q 3238 -91 2847 -91 
Q 1681 -91 1000 561 
Q 319 1213 319 2328 
Q 319 3447 1000 4098 
Q 1681 4750 2847 4750 
Q 3238 4750 3597 4662 
Q 3956 4575 4288 4403 
L 4288 3438 
Q 3953 3666 3628 3772 
Q 3303 3878 2944 3878 
Q 2300 3878 1931 3465 
Q 1563 3053 1563 2328 
Q 1563 1606 1931 1193 
Q 2300 781 2944 781 
Q 3303 781 3628 887 
Q 3953 994 4288 1222 
L 4288 256 
z
" transform="scale(0.015625)"/>
      <path id="DejaVuSans-Bold-3a" d="M 716 3500 
L 1844 3500 
L 1844 2291 
L 716 2291 
L 716 3500 
z
M 716 1209 
L 1844 1209 
L 1844 0 
L 716 0 
L 716 1209 
z
" transform="scale(0.015625)"/>
      <path id="DejaVuSans-Bold-68" d="M 4056 2131 
L 4056 0 
L 2931 0 
L 2931 347 
L 2931 1625 
Q 2931 2084 2911 2256 
Q 2891 2428 2841 2509 
Q 2775 2619 2662 2680 
Q 2550 2741 2406 2741 
Q 2056 2741 1856 2470 
Q 1656 2200 1656 1722 
L 1656 0 
L 538 0 
L 538 4863 
L 1656 4863 
L 1656 2988 
Q 1909 3294 2193 3439 
Q 2478 3584 2822 3584 
Q 3428 3584 3742 3212 
Q 4056 2841 4056 2131 
z
" transform="scale(0.015625)"/>
      <path id="DejaVuSans-Bold-2c" d="M 653 1209 
L 1778 1209 
L 1778 256 
L 1006 -909 
L 341 -909 
L 653 256 
L 653 1209 
z
" transform="scale(0.015625)"/>
     </defs>
     <use xlink:href="#DejaVuSans-Bold-52"/>
     <use xlink:href="#DejaVuSans-Bold-65" x="77.001953"/>
     <use xlink:href="#DejaVuSans-Bold-70" x="144.824219"/>
     <use xlink:href="#DejaVuSans-Bold-72" x="216.40625"/>
     <use xlink:href="#DejaVuSans-Bold-6f" x="265.722656"/>
     <use xlink:href="#DejaVuSans-Bold-64" x="334.423828"/>
     <use xlink:href="#DejaVuSans-Bold-75" x="406.005859"/>
     <use xlink:href="#DejaVuSans-Bold-63" x="477.197266"/>
     <use xlink:href="#DejaVuSans-Bold-69" x="536.474609"/>
     <use xlink:href="#DejaVuSans-Bold-62" x="570.751953"/>
     <use xlink:href="#DejaVuSans-Bold-69" x="642.333984"/>
     <use xlink:href="#DejaVuSans-Bold-6c" x="676.611328"/>
     <use xlink:href="#DejaVuSans-Bold-69" x="710.888672"/>
     <use xlink:href="#DejaVuSans-Bold-74" x="745.166016"/>
     <use xlink:href="#DejaVuSans-Bold-79" x="792.96875"/>
     <use xlink:href="#DejaVuSans-Bold-2d" x="858.154297"/>
     <use xlink:href="#DejaVuSans-Bold-61" x="899.658203"/>
     <use xlink:href="#DejaVuSans-Bold-77" x="967.138672"/>
     <use xlink:href="#DejaVuSans-Bold-61" x="1059.521484"/>
     <use xlink:href="#DejaVuSans-Bold-72" x="1127.001953"/>
     <use xlink:href="#DejaVuSans-Bold-65" x="1176.318359"/>
     <use xlink:href="#DejaVuSans-Bold-20" x="1244.140625"/>
     <use xlink:href="#DejaVuSans-Bold-6d" x="1278.955078"/>
     <use xlink:href="#DejaVuSans-Bold-75" x="1383.154297"/>
     <use xlink:href="#DejaVuSans-Bold-6c" x="1454.345703"/>
     <use xlink:href="#DejaVuSans-Bold-74" x="1488.623047"/>
     <use xlink:href="#DejaVuSans-Bold-69" x="1536.425781"/>
     <use xlink:href="#DejaVuSans-Bold-6d" x="1570.703125"/>
     <use xlink:href="#DejaVuSans-Bold-6f" x="1674.902344"/>
     <use xlink:href="#DejaVuSans-Bold-64" x="1743.603516"/>
     <use xlink:href="#DejaVuSans-Bold-61" x="1815.185547"/>
     <use xlink:href="#DejaVuSans-Bold-6c" x="1882.666016"/>
     <use xlink:href="#DejaVuSans-Bold-20" x="1916.943359"/>
     <use xlink:href="#DejaVuSans-Bold-45" x="1951.757812"/>
     <use xlink:href="#DejaVuSans-Bold-43" x="2020.068359"/>
     <use xlink:href="#DejaVuSans-Bold-47" x="2093.457031"/>
     <use xlink:href="#DejaVuSans-Bold-20" x="2175.537109"/>
     <use xlink:href="#DejaVuSans-Bold-65" x="2210.351562"/>
     <use xlink:href="#DejaVuSans-Bold-76" x="2278.173828"/>
     <use xlink:href="#DejaVuSans-Bold-61" x="2343.359375"/>
     <use xlink:href="#DejaVuSans-Bold-6c" x="2410.839844"/>
     <use xlink:href="#DejaVuSans-Bold-75" x="2445.117188"/>
     <use xlink:href="#DejaVuSans-Bold-61" x="2516.308594"/>
     <use xlink:href="#DejaVuSans-Bold-74" x="2583.789062"/>
     <use xlink:href="#DejaVuSans-Bold-69" x="2631.591797"/>
     <use xlink:href="#DejaVuSans-Bold-6f" x="2665.869141"/>
     <use xlink:href="#DejaVuSans-Bold-6e" x="2734.570312"/>
     <use xlink:href="#DejaVuSans-Bold-3a" x="2805.761719"/>
     <use xlink:href="#DejaVuSans-Bold-20" x="2845.751953"/>
     <use xlink:href="#DejaVuSans-Bold-77" x="2880.566406"/>
     <use xlink:href="#DejaVuSans-Bold-68" x="2972.949219"/>
     <use xlink:href="#DejaVuSans-Bold-61" x="3044.140625"/>
     <use xlink:href="#DejaVuSans-Bold-74" x="3111.621094"/>
     <use xlink:href="#DejaVuSans-Bold-20" x="3159.423828"/>
     <use xlink:href="#DejaVuSans-Bold-69" x="3194.238281"/>
     <use xlink:href="#DejaVuSans-Bold-73" x="3228.515625"/>
     <use xlink:href="#DejaVuSans-Bold-20" x="3288.037109"/>
     <use xlink:href="#DejaVuSans-Bold-73" x="3322.851562"/>
     <use xlink:href="#DejaVuSans-Bold-75" x="3382.373047"/>
     <use xlink:href="#DejaVuSans-Bold-70" x="3453.564453"/>
     <use xlink:href="#DejaVuSans-Bold-70" x="3525.146484"/>
     <use xlink:href="#DejaVuSans-Bold-6f" x="3596.728516"/>
     <use xlink:href="#DejaVuSans-Bold-72" x="3665.429688"/>
     <use xlink:href="#DejaVuSans-Bold-74" x="3714.746094"/>
     <use xlink:href="#DejaVuSans-Bold-65" x="3762.548828"/>
     <use xlink:href="#DejaVuSans-Bold-64" x="3830.371094"/>
     <use xlink:href="#DejaVuSans-Bold-2c" x="3901.953125"/>
     <use xlink:href="#DejaVuSans-Bold-20" x="3939.941406"/>
     <use xlink:href="#DejaVuSans-Bold-61" x="3974.755859"/>
     <use xlink:href="#DejaVuSans-Bold-6e" x="4042.236328"/>
     <use xlink:href="#DejaVuSans-Bold-64" x="4113.427734"/>
     <use xlink:href="#DejaVuSans-Bold-20" x="4185.009766"/>
     <use xlink:href="#DejaVuSans-Bold-77" x="4219.824219"/>
     <use xlink:href="#DejaVuSans-Bold-68" x="4312.207031"/>
     <use xlink:href="#DejaVuSans-Bold-61" x="4383.398438"/>
     <use xlink:href="#DejaVuSans-Bold-74" x="4450.878906"/>
     <use xlink:href="#DejaVuSans-Bold-20" x="4498.681641"/>
     <use xlink:href="#DejaVuSans-Bold-69" x="4533.496094"/>
     <use xlink:href="#DejaVuSans-Bold-73" x="4567.773438"/>
     <use xlink:href="#DejaVuSans-Bold-20" x="4627.294922"/>
     <use xlink:href="#DejaVuSans-Bold-6e" x="4662.109375"/>
     <use xlink:href="#DejaVuSans-Bold-6f" x="4733.300781"/>
     <use xlink:href="#DejaVuSans-Bold-74" x="4802.001953"/>
    </g>
   </g>
   <g id="text_18">
    <!-- Boundary: external multimodal validation was not performed; clinical deployment/readiness is not claimed. -->
    <g style="fill: #424242" transform="translate(32.184615 288.982857) scale(0.09 -0.09)">
     <defs>
      <path id="DejaVuSans-3a" d="M 750 794 
L 1409 794 
L 1409 0 
L 750 0 
L 750 794 
z
M 750 3309 
L 1409 3309 
L 1409 2516 
L 750 2516 
L 750 3309 
z
" transform="scale(0.015625)"/>
      <path id="DejaVuSans-3b" d="M 750 3309 
L 1409 3309 
L 1409 2516 
L 750 2516 
L 750 3309 
z
M 750 794 
L 1409 794 
L 1409 256 
L 897 -744 
L 494 -744 
L 750 256 
L 750 794 
z
" transform="scale(0.015625)"/>
      <path id="DejaVuSans-2e" d="M 684 794 
L 1344 794 
L 1344 0 
L 684 0 
L 684 794 
z
" transform="scale(0.015625)"/>
     </defs>
     <use xlink:href="#DejaVuSans-42"/>
     <use xlink:href="#DejaVuSans-6f" x="68.603516"/>
     <use xlink:href="#DejaVuSans-75" x="129.785156"/>
     <use xlink:href="#DejaVuSans-6e" x="193.164062"/>
     <use xlink:href="#DejaVuSans-64" x="256.542969"/>
     <use xlink:href="#DejaVuSans-61" x="320.019531"/>
     <use xlink:href="#DejaVuSans-72" x="381.298828"/>
     <use xlink:href="#DejaVuSans-79" x="422.412109"/>
     <use xlink:href="#DejaVuSans-3a" x="474.341797"/>
     <use xlink:href="#DejaVuSans-20" x="508.033203"/>
     <use xlink:href="#DejaVuSans-65" x="539.820312"/>
     <use xlink:href="#DejaVuSans-78" x="599.59375"/>
     <use xlink:href="#DejaVuSans-74" x="658.773438"/>
     <use xlink:href="#DejaVuSans-65" x="697.982422"/>
     <use xlink:href="#DejaVuSans-72" x="759.505859"/>
     <use xlink:href="#DejaVuSans-6e" x="798.869141"/>
     <use xlink:href="#DejaVuSans-61" x="862.248047"/>
     <use xlink:href="#DejaVuSans-6c" x="923.527344"/>
     <use xlink:href="#DejaVuSans-20" x="951.310547"/>
     <use xlink:href="#DejaVuSans-6d" x="983.097656"/>
     <use xlink:href="#DejaVuSans-75" x="1080.509766"/>
     <use xlink:href="#DejaVuSans-6c" x="1143.888672"/>
     <use xlink:href="#DejaVuSans-74" x="1171.671875"/>
     <use xlink:href="#DejaVuSans-69" x="1210.880859"/>
     <use xlink:href="#DejaVuSans-6d" x="1238.664062"/>
     <use xlink:href="#DejaVuSans-6f" x="1336.076172"/>
     <use xlink:href="#DejaVuSans-64" x="1397.257812"/>
     <use xlink:href="#DejaVuSans-61" x="1460.734375"/>
     <use xlink:href="#DejaVuSans-6c" x="1522.013672"/>
     <use xlink:href="#DejaVuSans-20" x="1549.796875"/>
     <use xlink:href="#DejaVuSans-76" x="1581.583984"/>
     <use xlink:href="#DejaVuSans-61" x="1640.763672"/>
     <use xlink:href="#DejaVuSans-6c" x="1702.042969"/>
     <use xlink:href="#DejaVuSans-69" x="1729.826172"/>
     <use xlink:href="#DejaVuSans-64" x="1757.609375"/>
     <use xlink:href="#DejaVuSans-61" x="1821.085938"/>
     <use xlink:href="#DejaVuSans-74" x="1882.365234"/>
     <use xlink:href="#DejaVuSans-69" x="1921.574219"/>
     <use xlink:href="#DejaVuSans-6f" x="1949.357422"/>
     <use xlink:href="#DejaVuSans-6e" x="2010.539062"/>
     <use xlink:href="#DejaVuSans-20" x="2073.917969"/>
     <use xlink:href="#DejaVuSans-77" x="2105.705078"/>
     <use xlink:href="#DejaVuSans-61" x="2187.492188"/>
     <use xlink:href="#DejaVuSans-73" x="2248.771484"/>
     <use xlink:href="#DejaVuSans-20" x="2300.871094"/>
     <use xlink:href="#DejaVuSans-6e" x="2332.658203"/>
     <use xlink:href="#DejaVuSans-6f" x="2396.037109"/>
     <use xlink:href="#DejaVuSans-74" x="2457.21875"/>
     <use xlink:href="#DejaVuSans-20" x="2496.427734"/>
     <use xlink:href="#DejaVuSans-70" x="2528.214844"/>
     <use xlink:href="#DejaVuSans-65" x="2591.691406"/>
     <use xlink:href="#DejaVuSans-72" x="2653.214844"/>
     <use xlink:href="#DejaVuSans-66" x="2694.328125"/>
     <use xlink:href="#DejaVuSans-6f" x="2729.533203"/>
     <use xlink:href="#DejaVuSans-72" x="2790.714844"/>
     <use xlink:href="#DejaVuSans-6d" x="2830.078125"/>
     <use xlink:href="#DejaVuSans-65" x="2927.490234"/>
     <use xlink:href="#DejaVuSans-64" x="2989.013672"/>
     <use xlink:href="#DejaVuSans-3b" x="3052.490234"/>
     <use xlink:href="#DejaVuSans-20" x="3086.181641"/>
     <use xlink:href="#DejaVuSans-63" x="3117.96875"/>
     <use xlink:href="#DejaVuSans-6c" x="3172.949219"/>
     <use xlink:href="#DejaVuSans-69" x="3200.732422"/>
     <use xlink:href="#DejaVuSans-6e" x="3228.515625"/>
     <use xlink:href="#DejaVuSans-69" x="3291.894531"/>
     <use xlink:href="#DejaVuSans-63" x="3319.677734"/>
     <use xlink:href="#DejaVuSans-61" x="3374.658203"/>
     <use xlink:href="#DejaVuSans-6c" x="3435.9375"/>
     <use xlink:href="#DejaVuSans-20" x="3463.720703"/>
     <use xlink:href="#DejaVuSans-64" x="3495.507812"/>
     <use xlink:href="#DejaVuSans-65" x="3558.984375"/>
     <use xlink:href="#DejaVuSans-70" x="3620.507812"/>
     <use xlink:href="#DejaVuSans-6c" x="3683.984375"/>
     <use xlink:href="#DejaVuSans-6f" x="3711.767578"/>
     <use xlink:href="#DejaVuSans-79" x="3772.949219"/>
     <use xlink:href="#DejaVuSans-6d" x="3832.128906"/>
     <use xlink:href="#DejaVuSans-65" x="3929.541016"/>
     <use xlink:href="#DejaVuSans-6e" x="3991.064453"/>
     <use xlink:href="#DejaVuSans-74" x="4054.443359"/>
     <use xlink:href="#DejaVuSans-2f" x="4093.652344"/>
     <use xlink:href="#DejaVuSans-72" x="4127.34375"/>
     <use xlink:href="#DejaVuSans-65" x="4166.207031"/>
     <use xlink:href="#DejaVuSans-61" x="4227.730469"/>
     <use xlink:href="#DejaVuSans-64" x="4289.009766"/>
     <use xlink:href="#DejaVuSans-69" x="4352.486328"/>
     <use xlink:href="#DejaVuSans-6e" x="4380.269531"/>
     <use xlink:href="#DejaVuSans-65" x="4443.648438"/>
     <use xlink:href="#DejaVuSans-73" x="4505.171875"/>
     <use xlink:href="#DejaVuSans-73" x="4557.271484"/>
     <use xlink:href="#DejaVuSans-20" x="4609.371094"/>
     <use xlink:href="#DejaVuSans-69" x="4641.158203"/>
     <use xlink:href="#DejaVuSans-73" x="4668.941406"/>
     <use xlink:href="#DejaVuSans-20" x="4721.041016"/>
     <use xlink:href="#DejaVuSans-6e" x="4752.828125"/>
     <use xlink:href="#DejaVuSans-6f" x="4816.207031"/>
     <use xlink:href="#DejaVuSans-74" x="4877.388672"/>
     <use xlink:href="#DejaVuSans-20" x="4916.597656"/>
     <use xlink:href="#DejaVuSans-63" x="4948.384766"/>
     <use xlink:href="#DejaVuSans-6c" x="5003.365234"/>
     <use xlink:href="#DejaVuSans-61" x="5031.148438"/>
     <use xlink:href="#DejaVuSans-69" x="5092.427734"/>
     <use xlink:href="#DejaVuSans-6d" x="5120.210938"/>
     <use xlink:href="#DejaVuSans-65" x="5217.623047"/>
     <use xlink:href="#DejaVuSans-64" x="5279.146484"/>
     <use xlink:href="#DejaVuSans-2e" x="5342.623047"/>
    </g>
   </g>
  </g>
 </g>
 <defs>
  <clipPath id="p8bf6d31b20">
   <rect x="7.2" y="7.2" width="928" height="294.4"/>
  </clipPath>
 </defs>
</svg>
