<?xml version="1.0" encoding="utf-8" standalone="no"?>
<!DOCTYPE svg PUBLIC "-//W3C//DTD SVG 1.1//EN"
  "http://www.w3.org/Graphics/SVG/1.1/DTD/svg11.dtd">
<svg xmlns:xlink="http://www.w3.org/1999/xlink" width="576pt" height="345.6pt" viewBox="0 0 576 345.6" xmlns="http://www.w3.org/2000/svg" version="1.1">
 <metadata>
  <rdf:RDF xmlns:dc="http://purl.org/dc/elements/1.1/" xmlns:cc="http://creativecommons.org/ns#" xmlns:rdf="http://www.w3.org/1999/02/22-rdf-syntax-ns#">
   <cc:Work>
    <dc:type rdf:resource="http://purl.org/dc/dcmitype/StillImage"/>
    <dc:date>2026-06-29T01:05:10.695246</dc:date>
    <dc:format>image/svg+xml</dc:format>
    <dc:creator>
     <cc:Agent>
      <dc:title>Matplotlib v3.9.4, https://matplotlib.org/</dc:title>
     </cc:Agent>
    </dc:creator>
   </cc:Work>
  </rdf:RDF>
 </metadata>
 <defs>
  <style type="text/css">*{stroke-linejoin: round; stroke-linecap: butt}</style>
 </defs>
 <g id="figure_1">
  <g id="patch_1">
   <path d="M 0 345.6 
L 576 345.6 
L 576 0 
L 0 0 
z
" style="fill: #ffffff"/>
  </g>
  <g id="axes_1">
   <g id="patch_2">
    <path d="M 54.245 198.34 
L 565.2 198.34 
L 565.2 26.16 
L 54.245 26.16 
z
" style="fill: #ffffff"/>
   </g>
   <g id="patch_3">
    <path d="M 79.79275 571.396667 
L 96.824583 571.396667 
L 96.824583 49.223768 
L 79.79275 49.223768 
z
" clip-path="url(#p5e0d04ec63)" style="fill: #1f77b4"/>
   </g>
   <g id="patch_4">
    <path d="M 181.98375 571.396667 
L 199.015583 571.396667 
L 199.015583 49.440429 
L 181.98375 49.440429 
z
" clip-path="url(#p5e0d04ec63)" style="fill: #1f77b4"/>
   </g>
   <g id="patch_5">
    <path d="M 284.17475 571.396667 
L 301.206583 571.396667 
L 301.206583 52.240404 
L 284.17475 52.240404 
z
" clip-path="url(#p5e0d04ec63)" style="fill: #1f77b4"/>
   </g>
   <g id="patch_6">
    <path d="M 386.36575 571.396667 
L 403.397583 571.396667 
L 403.397583 43.808022 
L 386.36575 43.808022 
z
" clip-path="url(#p5e0d04ec63)" style="fill: #1f77b4"/>
   </g>
   <g id="patch_7">
    <path d="M 488.55675 571.396667 
L 505.588583 571.396667 
L 505.588583 43.624967 
L 488.55675 43.624967 
z
" clip-path="url(#p5e0d04ec63)" style="fill: #1f77b4"/>
   </g>
   <g id="patch_8">
    <path d="M 96.824583 571.396667 
L 113.856417 571.396667 
L 113.856417 169.751152 
L 96.824583 169.751152 
z
" clip-path="url(#p5e0d04ec63)" style="fill: #ff7f0e"/>
   </g>
   <g id="patch_9">
    <path d="M 199.015583 571.396667 
L 216.047417 571.396667 
L 216.047417 169.519247 
L 199.015583 169.519247 
z
" clip-path="url(#p5e0d04ec63)" style="fill: #ff7f0e"/>
   </g>
   <g id="patch_10">
    <path d="M 301.206583 571.396667 
L 318.238417 571.396667 
L 318.238417 175.444273 
L 301.206583 175.444273 
z
" clip-path="url(#p5e0d04ec63)" style="fill: #ff7f0e"/>
   </g>
   <g id="patch_11">
    <path d="M 403.397583 571.396667 
L 420.429417 571.396667 
L 420.429417 157.727403 
L 403.397583 157.727403 
z
" clip-path="url(#p5e0d04ec63)" style="fill: #ff7f0e"/>
   </g>
   <g id="patch_12">
    <path d="M 505.588583 571.396667 
L 522.620417 571.396667 
L 522.620417 155.029031 
L 505.588583 155.029031 
z
" clip-path="url(#p5e0d04ec63)" style="fill: #ff7f0e"/>
   </g>
   <g id="patch_13">
    <path d="M 113.856417 571.396667 
L 130.88825 571.396667 
L 130.88825 128.287475 
L 113.856417 128.287475 
z
" clip-path="url(#p5e0d04ec63)" style="fill: #2ca02c"/>
   </g>
   <g id="patch_14">
    <path d="M 216.047417 571.396667 
L 233.07925 571.396667 
L 233.07925 128.111995 
L 216.047417 128.111995 
z
" clip-path="url(#p5e0d04ec63)" style="fill: #2ca02c"/>
   </g>
   <g id="patch_15">
    <path d="M 318.238417 571.396667 
L 335.27025 571.396667 
L 335.27025 132.250441 
L 318.238417 132.250441 
z
" clip-path="url(#p5e0d04ec63)" style="fill: #2ca02c"/>
   </g>
   <g id="patch_16">
    <path d="M 420.429417 571.396667 
L 437.46125 571.396667 
L 437.46125 114.953688 
L 420.429417 114.953688 
z
" clip-path="url(#p5e0d04ec63)" style="fill: #2ca02c"/>
   </g>
   <g id="patch_17">
    <path d="M 522.620417 571.396667 
L 539.65225 571.396667 
L 539.65225 113.524886 
L 522.620417 113.524886 
z
" clip-path="url(#p5e0d04ec63)" style="fill: #2ca02c"/>
   </g>
   <g id="matplotlib.axis_1">
    <g id="xtick_1">
     <g id="line2d_1">
      <defs>
       <path id="m3eaeb3985e" d="M 0 0 
L 0 3.5 
" style="stroke: #000000; stroke-width: 0.8"/>
      </defs>
      <g>
       <use xlink:href="#m3eaeb3985e" x="105.3405" y="198.34" style="stroke: #000000; stroke-width: 0.8"/>
      </g>
     </g>
     <g id="text_1">
      <!-- strong_signal_only -->
      <g transform="translate(107.960813 297.893125) rotate(-90) scale(0.1 -0.1)">
       <defs>
        <path id="DejaVuSans-73" d="M 2834 3397 
L 2834 2853 
Q 2591 2978 2328 3040 
Q 2066 3103 1784 3103 
Q 1356 3103 1142 2972 
Q 928 2841 928 2578 
Q 928 2378 1081 2264 
Q 1234 2150 1697 2047 
L 1894 2003 
Q 2506 1872 2764 1633 
Q 3022 1394 3022 966 
Q 3022 478 2636 193 
Q 2250 -91 1575 -91 
Q 1294 -91 989 -36 
Q 684 19 347 128 
L 347 722 
Q 666 556 975 473 
Q 1284 391 1588 391 
Q 1994 391 2212 530 
Q 2431 669 2431 922 
Q 2431 1156 2273 1281 
Q 2116 1406 1581 1522 
L 1381 1569 
Q 847 1681 609 1914 
Q 372 2147 372 2553 
Q 372 3047 722 3315 
Q 1072 3584 1716 3584 
Q 2034 3584 2315 3537 
Q 2597 3491 2834 3397 
z
" transform="scale(0.015625)"/>
        <path id="DejaVuSans-74" d="M 1172 4494 
L 1172 3500 
L 2356 3500 
L 2356 3053 
L 1172 3053 
L 1172 1153 
Q 1172 725 1289 603 
Q 1406 481 1766 481 
L 2356 481 
L 2356 0 
L 1766 0 
Q 1100 0 847 248 
Q 594 497 594 1153 
L 594 3053 
L 172 3053 
L 172 3500 
L 594 3500 
L 594 4494 
L 1172 4494 
z
" transform="scale(0.015625)"/>
        <path id="DejaVuSans-72" d="M 2631 2963 
Q 2534 3019 2420 3045 
Q 2306 3072 2169 3072 
Q 1681 3072 1420 2755 
Q 1159 2438 1159 1844 
L 1159 0 
L 581 0 
L 581 3500 
L 1159 3500 
L 1159 2956 
Q 1341 3275 1631 3429 
Q 1922 3584 2338 3584 
Q 2397 3584 2469 3576 
Q 2541 3569 2628 3553 
L 2631 2963 
z
" transform="scale(0.015625)"/>
        <path id="DejaVuSans-6f" d="M 1959 3097 
Q 1497 3097 1228 2736 
Q 959 2375 959 1747 
Q 959 1119 1226 758 
Q 1494 397 1959 397 
Q 2419 397 2687 759 
Q 2956 1122 2956 1747 
Q 2956 2369 2687 2733 
Q 2419 3097 1959 3097 
z
M 1959 3584 
Q 2709 3584 3137 3096 
Q 3566 2609 3566 1747 
Q 3566 888 3137 398 
Q 2709 -91 1959 -91 
Q 1206 -91 779 398 
Q 353 888 353 1747 
Q 353 2609 779 3096 
Q 1206 3584 1959 3584 
z
" transform="scale(0.015625)"/>
        <path id="DejaVuSans-6e" d="M 3513 2113 
L 3513 0 
L 2938 0 
L 2938 2094 
Q 2938 2591 2744 2837 
Q 2550 3084 2163 3084 
Q 1697 3084 1428 2787 
Q 1159 2491 1159 1978 
L 1159 0 
L 581 0 
L 581 3500 
L 1159 3500 
L 1159 2956 
Q 1366 3272 1645 3428 
Q 1925 3584 2291 3584 
Q 2894 3584 3203 3211 
Q 3513 2838 3513 2113 
z
" transform="scale(0.015625)"/>
        <path id="DejaVuSans-67" d="M 2906 1791 
Q 2906 2416 2648 2759 
Q 2391 3103 1925 3103 
Q 1463 3103 1205 2759 
Q 947 2416 947 1791 
Q 947 1169 1205 825 
Q 1463 481 1925 481 
Q 2391 481 2648 825 
Q 2906 1169 2906 1791 
z
M 3481 434 
Q 3481 -459 3084 -895 
Q 2688 -1331 1869 -1331 
Q 1566 -1331 1297 -1286 
Q 1028 -1241 775 -1147 
L 775 -588 
Q 1028 -725 1275 -790 
Q 1522 -856 1778 -856 
Q 2344 -856 2625 -561 
Q 2906 -266 2906 331 
L 2906 616 
Q 2728 306 2450 153 
Q 2172 0 1784 0 
Q 1141 0 747 490 
Q 353 981 353 1791 
Q 353 2603 747 3093 
Q 1141 3584 1784 3584 
Q 2172 3584 2450 3431 
Q 2728 3278 2906 2969 
L 2906 3500 
L 3481 3500 
L 3481 434 
z
" transform="scale(0.015625)"/>
        <path id="DejaVuSans-5f" d="M 3263 -1063 
L 3263 -1509 
L -63 -1509 
L -63 -1063 
L 3263 -1063 
z
" transform="scale(0.015625)"/>
        <path id="DejaVuSans-69" d="M 603 3500 
L 1178 3500 
L 1178 0 
L 603 0 
L 603 3500 
z
M 603 4863 
L 1178 4863 
L 1178 4134 
L 603 4134 
L 603 4863 
z
" transform="scale(0.015625)"/>
        <path id="DejaVuSans-61" d="M 2194 1759 
Q 1497 1759 1228 1600 
Q 959 1441 959 1056 
Q 959 750 1161 570 
Q 1363 391 1709 391 
Q 2188 391 2477 730 
Q 2766 1069 2766 1631 
L 2766 1759 
L 2194 1759 
z
M 3341 1997 
L 3341 0 
L 2766 0 
L 2766 531 
Q 2569 213 2275 61 
Q 1981 -91 1556 -91 
Q 1019 -91 701 211 
Q 384 513 384 1019 
Q 384 1609 779 1909 
Q 1175 2209 1959 2209 
L 2766 2209 
L 2766 2266 
Q 2766 2663 2505 2880 
Q 2244 3097 1772 3097 
Q 1472 3097 1187 3025 
Q 903 2953 641 2809 
L 641 3341 
Q 956 3463 1253 3523 
Q 1550 3584 1831 3584 
Q 2591 3584 2966 3190 
Q 3341 2797 3341 1997 
z
" transform="scale(0.015625)"/>
        <path id="DejaVuSans-6c" d="M 603 4863 
L 1178 4863 
L 1178 0 
L 603 0 
L 603 4863 
z
" transform="scale(0.015625)"/>
        <path id="DejaVuSans-79" d="M 2059 -325 
Q 1816 -950 1584 -1140 
Q 1353 -1331 966 -1331 
L 506 -1331 
L 506 -850 
L 844 -850 
Q 1081 -850 1212 -737 
Q 1344 -625 1503 -206 
L 1606 56 
L 191 3500 
L 800 3500 
L 1894 763 
L 2988 3500 
L 3597 3500 
L 2059 -325 
z
" transform="scale(0.015625)"/>
       </defs>
       <use xlink:href="#DejaVuSans-73"/>
       <use xlink:href="#DejaVuSans-74" x="52.099609"/>
       <use xlink:href="#DejaVuSans-72" x="91.308594"/>
       <use xlink:href="#DejaVuSans-6f" x="130.171875"/>
       <use xlink:href="#DejaVuSans-6e" x="191.353516"/>
       <use xlink:href="#DejaVuSans-67" x="254.732422"/>
       <use xlink:href="#DejaVuSans-5f" x="318.208984"/>
       <use xlink:href="#DejaVuSans-73" x="368.208984"/>
       <use xlink:href="#DejaVuSans-69" x="420.308594"/>
       <use xlink:href="#DejaVuSans-67" x="448.091797"/>
       <use xlink:href="#DejaVuSans-6e" x="511.568359"/>
       <use xlink:href="#DejaVuSans-61" x="574.947266"/>
       <use xlink:href="#DejaVuSans-6c" x="636.226562"/>
       <use xlink:href="#DejaVuSans-5f" x="664.009766"/>
       <use xlink:href="#DejaVuSans-6f" x="714.009766"/>
       <use xlink:href="#DejaVuSans-6e" x="775.191406"/>
       <use xlink:href="#DejaVuSans-6c" x="838.570312"/>
       <use xlink:href="#DejaVuSans-79" x="866.353516"/>
      </g>
     </g>
    </g>
    <g id="xtick_2">
     <g id="line2d_2">
      <g>
       <use xlink:href="#m3eaeb3985e" x="207.5315" y="198.34" style="stroke: #000000; stroke-width: 0.8"/>
      </g>
     </g>
     <g id="text_2">
      <!-- signal_embedding_mlp -->
      <g transform="translate(210.151813 320.343125) rotate(-90) scale(0.1 -0.1)">
       <defs>
        <path id="DejaVuSans-65" d="M 3597 1894 
L 3597 1613 
L 953 1613 
Q 991 1019 1311 708 
Q 1631 397 2203 397 
Q 2534 397 2845 478 
Q 3156 559 3463 722 
L 3463 178 
Q 3153 47 2828 -22 
Q 2503 -91 2169 -91 
Q 1331 -91 842 396 
Q 353 884 353 1716 
Q 353 2575 817 3079 
Q 1281 3584 2069 3584 
Q 2775 3584 3186 3129 
Q 3597 2675 3597 1894 
z
M 3022 2063 
Q 3016 2534 2758 2815 
Q 2500 3097 2075 3097 
Q 1594 3097 1305 2825 
Q 1016 2553 972 2059 
L 3022 2063 
z
" transform="scale(0.015625)"/>
        <path id="DejaVuSans-6d" d="M 3328 2828 
Q 3544 3216 3844 3400 
Q 4144 3584 4550 3584 
Q 5097 3584 5394 3201 
Q 5691 2819 5691 2113 
L 5691 0 
L 5113 0 
L 5113 2094 
Q 5113 2597 4934 2840 
Q 4756 3084 4391 3084 
Q 3944 3084 3684 2787 
Q 3425 2491 3425 1978 
L 3425 0 
L 2847 0 
L 2847 2094 
Q 2847 2600 2669 2842 
Q 2491 3084 2119 3084 
Q 1678 3084 1418 2786 
Q 1159 2488 1159 1978 
L 1159 0 
L 581 0 
L 581 3500 
L 1159 3500 
L 1159 2956 
Q 1356 3278 1631 3431 
Q 1906 3584 2284 3584 
Q 2666 3584 2933 3390 
Q 3200 3197 3328 2828 
z
" transform="scale(0.015625)"/>
        <path id="DejaVuSans-62" d="M 3116 1747 
Q 3116 2381 2855 2742 
Q 2594 3103 2138 3103 
Q 1681 3103 1420 2742 
Q 1159 2381 1159 1747 
Q 1159 1113 1420 752 
Q 1681 391 2138 391 
Q 2594 391 2855 752 
Q 3116 1113 3116 1747 
z
M 1159 2969 
Q 1341 3281 1617 3432 
Q 1894 3584 2278 3584 
Q 2916 3584 3314 3078 
Q 3713 2572 3713 1747 
Q 3713 922 3314 415 
Q 2916 -91 2278 -91 
Q 1894 -91 1617 61 
Q 1341 213 1159 525 
L 1159 0 
L 581 0 
L 581 4863 
L 1159 4863 
L 1159 2969 
z
" transform="scale(0.015625)"/>
        <path id="DejaVuSans-64" d="M 2906 2969 
L 2906 4863 
L 3481 4863 
L 3481 0 
L 2906 0 
L 2906 525 
Q 2725 213 2448 61 
Q 2172 -91 1784 -91 
Q 1150 -91 751 415 
Q 353 922 353 1747 
Q 353 2572 751 3078 
Q 1150 3584 1784 3584 
Q 2172 3584 2448 3432 
Q 2725 3281 2906 2969 
z
M 947 1747 
Q 947 1113 1208 752 
Q 1469 391 1925 391 
Q 2381 391 2643 752 
Q 2906 1113 2906 1747 
Q 2906 2381 2643 2742 
Q 2381 3103 1925 3103 
Q 1469 3103 1208 2742 
Q 947 2381 947 1747 
z
" transform="scale(0.015625)"/>
        <path id="DejaVuSans-70" d="M 1159 525 
L 1159 -1331 
L 581 -1331 
L 581 3500 
L 1159 3500 
L 1159 2969 
Q 1341 3281 1617 3432 
Q 1894 3584 2278 3584 
Q 2916 3584 3314 3078 
Q 3713 2572 3713 1747 
Q 3713 922 3314 415 
Q 2916 -91 2278 -91 
Q 1894 -91 1617 61 
Q 1341 213 1159 525 
z
M 3116 1747 
Q 3116 2381 2855 2742 
Q 2594 3103 2138 3103 
Q 1681 3103 1420 2742 
Q 1159 2381 1159 1747 
Q 1159 1113 1420 752 
Q 1681 391 2138 391 
Q 2594 391 2855 752 
Q 3116 1113 3116 1747 
z
" transform="scale(0.015625)"/>
       </defs>
       <use xlink:href="#DejaVuSans-73"/>
       <use xlink:href="#DejaVuSans-69" x="52.099609"/>
       <use xlink:href="#DejaVuSans-67" x="79.882812"/>
       <use xlink:href="#DejaVuSans-6e" x="143.359375"/>
       <use xlink:href="#DejaVuSans-61" x="206.738281"/>
       <use xlink:href="#DejaVuSans-6c" x="268.017578"/>
       <use xlink:href="#DejaVuSans-5f" x="295.800781"/>
       <use xlink:href="#DejaVuSans-65" x="345.800781"/>
       <use xlink:href="#DejaVuSans-6d" x="407.324219"/>
       <use xlink:href="#DejaVuSans-62" x="504.736328"/>
       <use xlink:href="#DejaVuSans-65" x="568.212891"/>
       <use xlink:href="#DejaVuSans-64" x="629.736328"/>
       <use xlink:href="#DejaVuSans-64" x="693.212891"/>
       <use xlink:href="#DejaVuSans-69" x="756.689453"/>
       <use xlink:href="#DejaVuSans-6e" x="784.472656"/>
       <use xlink:href="#DejaVuSans-67" x="847.851562"/>
       <use xlink:href="#DejaVuSans-5f" x="911.328125"/>
       <use xlink:href="#DejaVuSans-6d" x="961.328125"/>
       <use xlink:href="#DejaVuSans-6c" x="1058.740234"/>
       <use xlink:href="#DejaVuSans-70" x="1086.523438"/>
      </g>
     </g>
    </g>
    <g id="xtick_3">
     <g id="line2d_3">
      <g>
       <use xlink:href="#m3eaeb3985e" x="309.7225" y="198.34" style="stroke: #000000; stroke-width: 0.8"/>
      </g>
     </g>
     <g id="text_3">
      <!-- structured_mlp -->
      <g transform="translate(312.342812 280.929062) rotate(-90) scale(0.1 -0.1)">
       <defs>
        <path id="DejaVuSans-75" d="M 544 1381 
L 544 3500 
L 1119 3500 
L 1119 1403 
Q 1119 906 1312 657 
Q 1506 409 1894 409 
Q 2359 409 2629 706 
Q 2900 1003 2900 1516 
L 2900 3500 
L 3475 3500 
L 3475 0 
L 2900 0 
L 2900 538 
Q 2691 219 2414 64 
Q 2138 -91 1772 -91 
Q 1169 -91 856 284 
Q 544 659 544 1381 
z
M 1991 3584 
L 1991 3584 
z
" transform="scale(0.015625)"/>
        <path id="DejaVuSans-63" d="M 3122 3366 
L 3122 2828 
Q 2878 2963 2633 3030 
Q 2388 3097 2138 3097 
Q 1578 3097 1268 2742 
Q 959 2388 959 1747 
Q 959 1106 1268 751 
Q 1578 397 2138 397 
Q 2388 397 2633 464 
Q 2878 531 3122 666 
L 3122 134 
Q 2881 22 2623 -34 
Q 2366 -91 2075 -91 
Q 1284 -91 818 406 
Q 353 903 353 1747 
Q 353 2603 823 3093 
Q 1294 3584 2113 3584 
Q 2378 3584 2631 3529 
Q 2884 3475 3122 3366 
z
" transform="scale(0.015625)"/>
       </defs>
       <use xlink:href="#DejaVuSans-73"/>
       <use xlink:href="#DejaVuSans-74" x="52.099609"/>
       <use xlink:href="#DejaVuSans-72" x="91.308594"/>
       <use xlink:href="#DejaVuSans-75" x="132.421875"/>
       <use xlink:href="#DejaVuSans-63" x="195.800781"/>
       <use xlink:href="#DejaVuSans-74" x="250.78125"/>
       <use xlink:href="#DejaVuSans-75" x="289.990234"/>
       <use xlink:href="#DejaVuSans-72" x="353.369141"/>
       <use xlink:href="#DejaVuSans-65" x="392.232422"/>
       <use xlink:href="#DejaVuSans-64" x="453.755859"/>
       <use xlink:href="#DejaVuSans-5f" x="517.232422"/>
       <use xlink:href="#DejaVuSans-6d" x="567.232422"/>
       <use xlink:href="#DejaVuSans-6c" x="664.644531"/>
       <use xlink:href="#DejaVuSans-70" x="692.427734"/>
      </g>
     </g>
    </g>
    <g id="xtick_4">
     <g id="line2d_4">
      <g>
       <use xlink:href="#m3eaeb3985e" x="411.9135" y="198.34" style="stroke: #000000; stroke-width: 0.8"/>
      </g>
     </g>
     <g id="text_4">
      <!-- fair_concat_mlp -->
      <g transform="translate(414.533813 284.24625) rotate(-90) scale(0.1 -0.1)">
       <defs>
        <path id="DejaVuSans-66" d="M 2375 4863 
L 2375 4384 
L 1825 4384 
Q 1516 4384 1395 4259 
Q 1275 4134 1275 3809 
L 1275 3500 
L 2222 3500 
L 2222 3053 
L 1275 3053 
L 1275 0 
L 697 0 
L 697 3053 
L 147 3053 
L 147 3500 
L 697 3500 
L 697 3744 
Q 697 4328 969 4595 
Q 1241 4863 1831 4863 
L 2375 4863 
z
" transform="scale(0.015625)"/>
       </defs>
       <use xlink:href="#DejaVuSans-66"/>
       <use xlink:href="#DejaVuSans-61" x="35.205078"/>
       <use xlink:href="#DejaVuSans-69" x="96.484375"/>
       <use xlink:href="#DejaVuSans-72" x="124.267578"/>
       <use xlink:href="#DejaVuSans-5f" x="165.380859"/>
       <use xlink:href="#DejaVuSans-63" x="215.380859"/>
       <use xlink:href="#DejaVuSans-6f" x="270.361328"/>
       <use xlink:href="#DejaVuSans-6e" x="331.542969"/>
       <use xlink:href="#DejaVuSans-63" x="394.921875"/>
       <use xlink:href="#DejaVuSans-61" x="449.902344"/>
       <use xlink:href="#DejaVuSans-74" x="511.181641"/>
       <use xlink:href="#DejaVuSans-5f" x="550.390625"/>
       <use xlink:href="#DejaVuSans-6d" x="600.390625"/>
       <use xlink:href="#DejaVuSans-6c" x="697.802734"/>
       <use xlink:href="#DejaVuSans-70" x="725.585938"/>
      </g>
     </g>
    </g>
    <g id="xtick_5">
     <g id="line2d_5">
      <g>
       <use xlink:href="#m3eaeb3985e" x="514.1045" y="198.34" style="stroke: #000000; stroke-width: 0.8"/>
      </g>
     </g>
     <g id="text_5">
      <!-- gated_fusion_mlp -->
      <g transform="translate(516.724812 293.407188) rotate(-90) scale(0.1 -0.1)">
       <use xlink:href="#DejaVuSans-67"/>
       <use xlink:href="#DejaVuSans-61" x="63.476562"/>
       <use xlink:href="#DejaVuSans-74" x="124.755859"/>
       <use xlink:href="#DejaVuSans-65" x="163.964844"/>
       <use xlink:href="#DejaVuSans-64" x="225.488281"/>
       <use xlink:href="#DejaVuSans-5f" x="288.964844"/>
       <use xlink:href="#DejaVuSans-66" x="338.964844"/>
       <use xlink:href="#DejaVuSans-75" x="374.169922"/>
       <use xlink:href="#DejaVuSans-73" x="437.548828"/>
       <use xlink:href="#DejaVuSans-69" x="489.648438"/>
       <use xlink:href="#DejaVuSans-6f" x="517.431641"/>
       <use xlink:href="#DejaVuSans-6e" x="578.613281"/>
       <use xlink:href="#DejaVuSans-5f" x="641.992188"/>
       <use xlink:href="#DejaVuSans-6d" x="691.992188"/>
       <use xlink:href="#DejaVuSans-6c" x="789.404297"/>
       <use xlink:href="#DejaVuSans-70" x="817.1875"/>
      </g>
     </g>
    </g>
    <g id="text_6">
     <!-- model_name -->
     <g transform="translate(277.473281 331.941563) scale(0.1 -0.1)">
      <use xlink:href="#DejaVuSans-6d"/>
      <use xlink:href="#DejaVuSans-6f" x="97.412109"/>
      <use xlink:href="#DejaVuSans-64" x="158.59375"/>
      <use xlink:href="#DejaVuSans-65" x="222.070312"/>
      <use xlink:href="#DejaVuSans-6c" x="283.59375"/>
      <use xlink:href="#DejaVuSans-5f" x="311.376953"/>
      <use xlink:href="#DejaVuSans-6e" x="361.376953"/>
      <use xlink:href="#DejaVuSans-61" x="424.755859"/>
      <use xlink:href="#DejaVuSans-6d" x="486.035156"/>
      <use xlink:href="#DejaVuSans-65" x="583.447266"/>
     </g>
    </g>
   </g>
   <g id="matplotlib.axis_2">
    <g id="ytick_1">
     <g id="line2d_6">
      <defs>
       <path id="mf54b85bee5" d="M 0 0 
L -3.5 0 
" style="stroke: #000000; stroke-width: 0.8"/>
      </defs>
      <g>
       <use xlink:href="#mf54b85bee5" x="54.245" y="198.34" style="stroke: #000000; stroke-width: 0.8"/>
      </g>
     </g>
     <g id="text_7">
      <!-- 0.65 -->
      <g transform="translate(24.979375 202.139219) scale(0.1 -0.1)">
       <defs>
        <path id="DejaVuSans-30" d="M 2034 4250 
Q 1547 4250 1301 3770 
Q 1056 3291 1056 2328 
Q 1056 1369 1301 889 
Q 1547 409 2034 409 
Q 2525 409 2770 889 
Q 3016 1369 3016 2328 
Q 3016 3291 2770 3770 
Q 2525 4250 2034 4250 
z
M 2034 4750 
Q 2819 4750 3233 4129 
Q 3647 3509 3647 2328 
Q 3647 1150 3233 529 
Q 2819 -91 2034 -91 
Q 1250 -91 836 529 
Q 422 1150 422 2328 
Q 422 3509 836 4129 
Q 1250 4750 2034 4750 
z
" transform="scale(0.015625)"/>
        <path id="DejaVuSans-2e" d="M 684 794 
L 1344 794 
L 1344 0 
L 684 0 
L 684 794 
z
" transform="scale(0.015625)"/>
        <path id="DejaVuSans-36" d="M 2113 2584 
Q 1688 2584 1439 2293 
Q 1191 2003 1191 1497 
Q 1191 994 1439 701 
Q 1688 409 2113 409 
Q 2538 409 2786 701 
Q 3034 994 3034 1497 
Q 3034 2003 2786 2293 
Q 2538 2584 2113 2584 
z
M 3366 4563 
L 3366 3988 
Q 3128 4100 2886 4159 
Q 2644 4219 2406 4219 
Q 1781 4219 1451 3797 
Q 1122 3375 1075 2522 
Q 1259 2794 1537 2939 
Q 1816 3084 2150 3084 
Q 2853 3084 3261 2657 
Q 3669 2231 3669 1497 
Q 3669 778 3244 343 
Q 2819 -91 2113 -91 
Q 1303 -91 875 529 
Q 447 1150 447 2328 
Q 447 3434 972 4092 
Q 1497 4750 2381 4750 
Q 2619 4750 2861 4703 
Q 3103 4656 3366 4563 
z
" transform="scale(0.015625)"/>
        <path id="DejaVuSans-35" d="M 691 4666 
L 3169 4666 
L 3169 4134 
L 1269 4134 
L 1269 2991 
Q 1406 3038 1543 3061 
Q 1681 3084 1819 3084 
Q 2600 3084 3056 2656 
Q 3513 2228 3513 1497 
Q 3513 744 3044 326 
Q 2575 -91 1722 -91 
Q 1428 -91 1123 -41 
Q 819 9 494 109 
L 494 744 
Q 775 591 1075 516 
Q 1375 441 1709 441 
Q 2250 441 2565 725 
Q 2881 1009 2881 1497 
Q 2881 1984 2565 2268 
Q 2250 2553 1709 2553 
Q 1456 2553 1204 2497 
Q 953 2441 691 2322 
L 691 4666 
z
" transform="scale(0.015625)"/>
       </defs>
       <use xlink:href="#DejaVuSans-30"/>
       <use xlink:href="#DejaVuSans-2e" x="63.623047"/>
       <use xlink:href="#DejaVuSans-36" x="95.410156"/>
       <use xlink:href="#DejaVuSans-35" x="159.033203"/>
      </g>
     </g>
    </g>
    <g id="ytick_2">
     <g id="line2d_7">
      <g>
       <use xlink:href="#mf54b85bee5" x="54.245" y="169.643333" style="stroke: #000000; stroke-width: 0.8"/>
      </g>
     </g>
     <g id="text_8">
      <!-- 0.70 -->
      <g transform="translate(24.979375 173.442552) scale(0.1 -0.1)">
       <defs>
        <path id="DejaVuSans-37" d="M 525 4666 
L 3525 4666 
L 3525 4397 
L 1831 0 
L 1172 0 
L 2766 4134 
L 525 4134 
L 525 4666 
z
" transform="scale(0.015625)"/>
       </defs>
       <use xlink:href="#DejaVuSans-30"/>
       <use xlink:href="#DejaVuSans-2e" x="63.623047"/>
       <use xlink:href="#DejaVuSans-37" x="95.410156"/>
       <use xlink:href="#DejaVuSans-30" x="159.033203"/>
      </g>
     </g>
    </g>
    <g id="ytick_3">
     <g id="line2d_8">
      <g>
       <use xlink:href="#mf54b85bee5" x="54.245" y="140.946667" style="stroke: #000000; stroke-width: 0.8"/>
      </g>
     </g>
     <g id="text_9">
      <!-- 0.75 -->
      <g transform="translate(24.979375 144.745885) scale(0.1 -0.1)">
       <use xlink:href="#DejaVuSans-30"/>
       <use xlink:href="#DejaVuSans-2e" x="63.623047"/>
       <use xlink:href="#DejaVuSans-37" x="95.410156"/>
       <use xlink:href="#DejaVuSans-35" x="159.033203"/>
      </g>
     </g>
    </g>
    <g id="ytick_4">
     <g id="line2d_9">
      <g>
       <use xlink:href="#mf54b85bee5" x="54.245" y="112.25" style="stroke: #000000; stroke-width: 0.8"/>
      </g>
     </g>
     <g id="text_10">
      <!-- 0.80 -->
      <g transform="translate(24.979375 116.049219) scale(0.1 -0.1)">
       <defs>
        <path id="DejaVuSans-38" d="M 2034 2216 
Q 1584 2216 1326 1975 
Q 1069 1734 1069 1313 
Q 1069 891 1326 650 
Q 1584 409 2034 409 
Q 2484 409 2743 651 
Q 3003 894 3003 1313 
Q 3003 1734 2745 1975 
Q 2488 2216 2034 2216 
z
M 1403 2484 
Q 997 2584 770 2862 
Q 544 3141 544 3541 
Q 544 4100 942 4425 
Q 1341 4750 2034 4750 
Q 2731 4750 3128 4425 
Q 3525 4100 3525 3541 
Q 3525 3141 3298 2862 
Q 3072 2584 2669 2484 
Q 3125 2378 3379 2068 
Q 3634 1759 3634 1313 
Q 3634 634 3220 271 
Q 2806 -91 2034 -91 
Q 1263 -91 848 271 
Q 434 634 434 1313 
Q 434 1759 690 2068 
Q 947 2378 1403 2484 
z
M 1172 3481 
Q 1172 3119 1398 2916 
Q 1625 2713 2034 2713 
Q 2441 2713 2670 2916 
Q 2900 3119 2900 3481 
Q 2900 3844 2670 4047 
Q 2441 4250 2034 4250 
Q 1625 4250 1398 4047 
Q 1172 3844 1172 3481 
z
" transform="scale(0.015625)"/>
       </defs>
       <use xlink:href="#DejaVuSans-30"/>
       <use xlink:href="#DejaVuSans-2e" x="63.623047"/>
       <use xlink:href="#DejaVuSans-38" x="95.410156"/>
       <use xlink:href="#DejaVuSans-30" x="159.033203"/>
      </g>
     </g>
    </g>
    <g id="ytick_5">
     <g id="line2d_10">
      <g>
       <use xlink:href="#mf54b85bee5" x="54.245" y="83.553333" style="stroke: #000000; stroke-width: 0.8"/>
      </g>
     </g>
     <g id="text_11">
      <!-- 0.85 -->
      <g transform="translate(24.979375 87.352552) scale(0.1 -0.1)">
       <use xlink:href="#DejaVuSans-30"/>
       <use xlink:href="#DejaVuSans-2e" x="63.623047"/>
       <use xlink:href="#DejaVuSans-38" x="95.410156"/>
       <use xlink:href="#DejaVuSans-35" x="159.033203"/>
      </g>
     </g>
    </g>
    <g id="ytick_6">
     <g id="line2d_11">
      <g>
       <use xlink:href="#mf54b85bee5" x="54.245" y="54.856667" style="stroke: #000000; stroke-width: 0.8"/>
      </g>
     </g>
     <g id="text_12">
      <!-- 0.90 -->
      <g transform="translate(24.979375 58.655885) scale(0.1 -0.1)">
       <defs>
        <path id="DejaVuSans-39" d="M 703 97 
L 703 672 
Q 941 559 1184 500 
Q 1428 441 1663 441 
Q 2288 441 2617 861 
Q 2947 1281 2994 2138 
Q 2813 1869 2534 1725 
Q 2256 1581 1919 1581 
Q 1219 1581 811 2004 
Q 403 2428 403 3163 
Q 403 3881 828 4315 
Q 1253 4750 1959 4750 
Q 2769 4750 3195 4129 
Q 3622 3509 3622 2328 
Q 3622 1225 3098 567 
Q 2575 -91 1691 -91 
Q 1453 -91 1209 -44 
Q 966 3 703 97 
z
M 1959 2075 
Q 2384 2075 2632 2365 
Q 2881 2656 2881 3163 
Q 2881 3666 2632 3958 
Q 2384 4250 1959 4250 
Q 1534 4250 1286 3958 
Q 1038 3666 1038 3163 
Q 1038 2656 1286 2365 
Q 1534 2075 1959 2075 
z
" transform="scale(0.015625)"/>
       </defs>
       <use xlink:href="#DejaVuSans-30"/>
       <use xlink:href="#DejaVuSans-2e" x="63.623047"/>
       <use xlink:href="#DejaVuSans-39" x="95.410156"/>
       <use xlink:href="#DejaVuSans-30" x="159.033203"/>
      </g>
     </g>
    </g>
    <g id="ytick_7">
     <g id="line2d_12">
      <g>
       <use xlink:href="#mf54b85bee5" x="54.245" y="26.16" style="stroke: #000000; stroke-width: 0.8"/>
      </g>
     </g>
     <g id="text_13">
      <!-- 0.95 -->
      <g transform="translate(24.979375 29.959219) scale(0.1 -0.1)">
       <use xlink:href="#DejaVuSans-30"/>
       <use xlink:href="#DejaVuSans-2e" x="63.623047"/>
       <use xlink:href="#DejaVuSans-39" x="95.410156"/>
       <use xlink:href="#DejaVuSans-35" x="159.033203"/>
      </g>
     </g>
    </g>
    <g id="text_14">
     <!-- Internal PTB-XL frozen test metric -->
     <g transform="translate(18.899688 196.475) rotate(-90) scale(0.1 -0.1)">
      <defs>
       <path id="DejaVuSans-49" d="M 628 4666 
L 1259 4666 
L 1259 0 
L 628 0 
L 628 4666 
z
" transform="scale(0.015625)"/>
       <path id="DejaVuSans-20" transform="scale(0.015625)"/>
       <path id="DejaVuSans-50" d="M 1259 4147 
L 1259 2394 
L 2053 2394 
Q 2494 2394 2734 2622 
Q 2975 2850 2975 3272 
Q 2975 3691 2734 3919 
Q 2494 4147 2053 4147 
L 1259 4147 
z
M 628 4666 
L 2053 4666 
Q 2838 4666 3239 4311 
Q 3641 3956 3641 3272 
Q 3641 2581 3239 2228 
Q 2838 1875 2053 1875 
L 1259 1875 
L 1259 0 
L 628 0 
L 628 4666 
z
" transform="scale(0.015625)"/>
       <path id="DejaVuSans-54" d="M -19 4666 
L 3928 4666 
L 3928 4134 
L 2272 4134 
L 2272 0 
L 1638 0 
L 1638 4134 
L -19 4134 
L -19 4666 
z
" transform="scale(0.015625)"/>
       <path id="DejaVuSans-42" d="M 1259 2228 
L 1259 519 
L 2272 519 
Q 2781 519 3026 730 
Q 3272 941 3272 1375 
Q 3272 1813 3026 2020 
Q 2781 2228 2272 2228 
L 1259 2228 
z
M 1259 4147 
L 1259 2741 
L 2194 2741 
Q 2656 2741 2882 2914 
Q 3109 3088 3109 3444 
Q 3109 3797 2882 3972 
Q 2656 4147 2194 4147 
L 1259 4147 
z
M 628 4666 
L 2241 4666 
Q 2963 4666 3353 4366 
Q 3744 4066 3744 3513 
Q 3744 3084 3544 2831 
Q 3344 2578 2956 2516 
Q 3422 2416 3680 2098 
Q 3938 1781 3938 1306 
Q 3938 681 3513 340 
Q 3088 0 2303 0 
L 628 0 
L 628 4666 
z
" transform="scale(0.015625)"/>
       <path id="DejaVuSans-2d" d="M 313 2009 
L 1997 2009 
L 1997 1497 
L 313 1497 
L 313 2009 
z
" transform="scale(0.015625)"/>
       <path id="DejaVuSans-58" d="M 403 4666 
L 1081 4666 
L 2241 2931 
L 3406 4666 
L 4084 4666 
L 2584 2425 
L 4184 0 
L 3506 0 
L 2194 1984 
L 872 0 
L 191 0 
L 1856 2491 
L 403 4666 
z
" transform="scale(0.015625)"/>
       <path id="DejaVuSans-4c" d="M 628 4666 
L 1259 4666 
L 1259 531 
L 3531 531 
L 3531 0 
L 628 0 
L 628 4666 
z
" transform="scale(0.015625)"/>
       <path id="DejaVuSans-7a" d="M 353 3500 
L 3084 3500 
L 3084 2975 
L 922 459 
L 3084 459 
L 3084 0 
L 275 0 
L 275 525 
L 2438 3041 
L 353 3041 
L 353 3500 
z
" transform="scale(0.015625)"/>
      </defs>
      <use xlink:href="#DejaVuSans-49"/>
      <use xlink:href="#DejaVuSans-6e" x="29.492188"/>
      <use xlink:href="#DejaVuSans-74" x="92.871094"/>
      <use xlink:href="#DejaVuSans-65" x="132.080078"/>
      <use xlink:href="#DejaVuSans-72" x="193.603516"/>
      <use xlink:href="#DejaVuSans-6e" x="232.966797"/>
      <use xlink:href="#DejaVuSans-61" x="296.345703"/>
      <use xlink:href="#DejaVuSans-6c" x="357.625"/>
      <use xlink:href="#DejaVuSans-20" x="385.408203"/>
      <use xlink:href="#DejaVuSans-50" x="417.195312"/>
      <use xlink:href="#DejaVuSans-54" x="477.498047"/>
      <use xlink:href="#DejaVuSans-42" x="538.582031"/>
      <use xlink:href="#DejaVuSans-2d" x="607.185547"/>
      <use xlink:href="#DejaVuSans-58" x="638.269531"/>
      <use xlink:href="#DejaVuSans-4c" x="706.775391"/>
      <use xlink:href="#DejaVuSans-20" x="762.488281"/>
      <use xlink:href="#DejaVuSans-66" x="794.275391"/>
      <use xlink:href="#DejaVuSans-72" x="829.480469"/>
      <use xlink:href="#DejaVuSans-6f" x="868.34375"/>
      <use xlink:href="#DejaVuSans-7a" x="929.525391"/>
      <use xlink:href="#DejaVuSans-65" x="982.015625"/>
      <use xlink:href="#DejaVuSans-6e" x="1043.539062"/>
      <use xlink:href="#DejaVuSans-20" x="1106.917969"/>
      <use xlink:href="#DejaVuSans-74" x="1138.705078"/>
      <use xlink:href="#DejaVuSans-65" x="1177.914062"/>
      <use xlink:href="#DejaVuSans-73" x="1239.4375"/>
      <use xlink:href="#DejaVuSans-74" x="1291.537109"/>
      <use xlink:href="#DejaVuSans-20" x="1330.746094"/>
      <use xlink:href="#DejaVuSans-6d" x="1362.533203"/>
      <use xlink:href="#DejaVuSans-65" x="1459.945312"/>
      <use xlink:href="#DejaVuSans-74" x="1521.46875"/>
      <use xlink:href="#DejaVuSans-72" x="1560.677734"/>
      <use xlink:href="#DejaVuSans-69" x="1601.791016"/>
      <use xlink:href="#DejaVuSans-63" x="1629.574219"/>
     </g>
    </g>
   </g>
   <g id="patch_18">
    <path d="M 54.245 198.34 
L 54.245 26.16 
" style="fill: none; stroke: #000000; stroke-width: 0.8; stroke-linejoin: miter; stroke-linecap: square"/>
   </g>
   <g id="patch_19">
    <path d="M 565.2 198.34 
L 565.2 26.16 
" style="fill: none; stroke: #000000; stroke-width: 0.8; stroke-linejoin: miter; stroke-linecap: square"/>
   </g>
   <g id="patch_20">
    <path d="M 54.245 198.34 
L 565.2 198.34 
" style="fill: none; stroke: #000000; stroke-width: 0.8; stroke-linejoin: miter; stroke-linecap: square"/>
   </g>
   <g id="patch_21">
    <path d="M 54.245 26.16 
L 565.2 26.16 
" style="fill: none; stroke: #000000; stroke-width: 0.8; stroke-linejoin: miter; stroke-linecap: square"/>
   </g>
   <g id="text_15">
    <!-- Fair multimodal performance comparison -->
    <g transform="translate(185.82625 20.16) scale(0.12 -0.12)">
     <defs>
      <path id="DejaVuSans-46" d="M 628 4666 
L 3309 4666 
L 3309 4134 
L 1259 4134 
L 1259 2759 
L 3109 2759 
L 3109 2228 
L 1259 2228 
L 1259 0 
L 628 0 
L 628 4666 
z
" transform="scale(0.015625)"/>
     </defs>
     <use xlink:href="#DejaVuSans-46"/>
     <use xlink:href="#DejaVuSans-61" x="48.394531"/>
     <use xlink:href="#DejaVuSans-69" x="109.673828"/>
     <use xlink:href="#DejaVuSans-72" x="137.457031"/>
     <use xlink:href="#DejaVuSans-20" x="178.570312"/>
     <use xlink:href="#DejaVuSans-6d" x="210.357422"/>
     <use xlink:href="#DejaVuSans-75" x="307.769531"/>
     <use xlink:href="#DejaVuSans-6c" x="371.148438"/>
     <use xlink:href="#DejaVuSans-74" x="398.931641"/>
     <use xlink:href="#DejaVuSans-69" x="438.140625"/>
     <use xlink:href="#DejaVuSans-6d" x="465.923828"/>
     <use xlink:href="#DejaVuSans-6f" x="563.335938"/>
     <use xlink:href="#DejaVuSans-64" x="624.517578"/>
     <use xlink:href="#DejaVuSans-61" x="687.994141"/>
     <use xlink:href="#DejaVuSans-6c" x="749.273438"/>
     <use xlink:href="#DejaVuSans-20" x="777.056641"/>
     <use xlink:href="#DejaVuSans-70" x="808.84375"/>
     <use xlink:href="#DejaVuSans-65" x="872.320312"/>
     <use xlink:href="#DejaVuSans-72" x="933.84375"/>
     <use xlink:href="#DejaVuSans-66" x="974.957031"/>
     <use xlink:href="#DejaVuSans-6f" x="1010.162109"/>
     <use xlink:href="#DejaVuSans-72" x="1071.34375"/>
     <use xlink:href="#DejaVuSans-6d" x="1110.707031"/>
     <use xlink:href="#DejaVuSans-61" x="1208.119141"/>
     <use xlink:href="#DejaVuSans-6e" x="1269.398438"/>
     <use xlink:href="#DejaVuSans-63" x="1332.777344"/>
     <use xlink:href="#DejaVuSans-65" x="1387.757812"/>
     <use xlink:href="#DejaVuSans-20" x="1449.28125"/>
     <use xlink:href="#DejaVuSans-63" x="1481.068359"/>
     <use xlink:href="#DejaVuSans-6f" x="1536.048828"/>
     <use xlink:href="#DejaVuSans-6d" x="1597.230469"/>
     <use xlink:href="#DejaVuSans-70" x="1694.642578"/>
     <use xlink:href="#DejaVuSans-61" x="1758.119141"/>
     <use xlink:href="#DejaVuSans-72" x="1819.398438"/>
     <use xlink:href="#DejaVuSans-69" x="1860.511719"/>
     <use xlink:href="#DejaVuSans-73" x="1888.294922"/>
     <use xlink:href="#DejaVuSans-6f" x="1940.394531"/>
     <use xlink:href="#DejaVuSans-6e" x="2001.576172"/>
    </g>
   </g>
   <g id="legend_1">
    <g id="patch_22">
     <path d="M 437.151562 42.758437 
L 457.151562 42.758437 
L 457.151562 35.758437 
L 437.151562 35.758437 
z
" style="fill: #1f77b4"/>
    </g>
    <g id="text_16">
     <!-- AUROC -->
     <g transform="translate(465.151562 42.758437) scale(0.1 -0.1)">
      <defs>
       <path id="DejaVuSans-41" d="M 2188 4044 
L 1331 1722 
L 3047 1722 
L 2188 4044 
z
M 1831 4666 
L 2547 4666 
L 4325 0 
L 3669 0 
L 3244 1197 
L 1141 1197 
L 716 0 
L 50 0 
L 1831 4666 
z
" transform="scale(0.015625)"/>
       <path id="DejaVuSans-55" d="M 556 4666 
L 1191 4666 
L 1191 1831 
Q 1191 1081 1462 751 
Q 1734 422 2344 422 
Q 2950 422 3222 751 
Q 3494 1081 3494 1831 
L 3494 4666 
L 4128 4666 
L 4128 1753 
Q 4128 841 3676 375 
Q 3225 -91 2344 -91 
Q 1459 -91 1007 375 
Q 556 841 556 1753 
L 556 4666 
z
" transform="scale(0.015625)"/>
       <path id="DejaVuSans-52" d="M 2841 2188 
Q 3044 2119 3236 1894 
Q 3428 1669 3622 1275 
L 4263 0 
L 3584 0 
L 2988 1197 
Q 2756 1666 2539 1819 
Q 2322 1972 1947 1972 
L 1259 1972 
L 1259 0 
L 628 0 
L 628 4666 
L 2053 4666 
Q 2853 4666 3247 4331 
Q 3641 3997 3641 3322 
Q 3641 2881 3436 2590 
Q 3231 2300 2841 2188 
z
M 1259 4147 
L 1259 2491 
L 2053 2491 
Q 2509 2491 2742 2702 
Q 2975 2913 2975 3322 
Q 2975 3731 2742 3939 
Q 2509 4147 2053 4147 
L 1259 4147 
z
" transform="scale(0.015625)"/>
       <path id="DejaVuSans-4f" d="M 2522 4238 
Q 1834 4238 1429 3725 
Q 1025 3213 1025 2328 
Q 1025 1447 1429 934 
Q 1834 422 2522 422 
Q 3209 422 3611 934 
Q 4013 1447 4013 2328 
Q 4013 3213 3611 3725 
Q 3209 4238 2522 4238 
z
M 2522 4750 
Q 3503 4750 4090 4092 
Q 4678 3434 4678 2328 
Q 4678 1225 4090 567 
Q 3503 -91 2522 -91 
Q 1538 -91 948 565 
Q 359 1222 359 2328 
Q 359 3434 948 4092 
Q 1538 4750 2522 4750 
z
" transform="scale(0.015625)"/>
       <path id="DejaVuSans-43" d="M 4122 4306 
L 4122 3641 
Q 3803 3938 3442 4084 
Q 3081 4231 2675 4231 
Q 1875 4231 1450 3742 
Q 1025 3253 1025 2328 
Q 1025 1406 1450 917 
Q 1875 428 2675 428 
Q 3081 428 3442 575 
Q 3803 722 4122 1019 
L 4122 359 
Q 3791 134 3420 21 
Q 3050 -91 2638 -91 
Q 1578 -91 968 557 
Q 359 1206 359 2328 
Q 359 3453 968 4101 
Q 1578 4750 2638 4750 
Q 3056 4750 3426 4639 
Q 3797 4528 4122 4306 
z
" transform="scale(0.015625)"/>
      </defs>
      <use xlink:href="#DejaVuSans-41"/>
      <use xlink:href="#DejaVuSans-55" x="68.408203"/>
      <use xlink:href="#DejaVuSans-52" x="141.601562"/>
      <use xlink:href="#DejaVuSans-4f" x="211.083984"/>
      <use xlink:href="#DejaVuSans-43" x="289.794922"/>
     </g>
    </g>
    <g id="patch_23">
     <path d="M 437.151562 57.436562 
L 457.151562 57.436562 
L 457.151562 50.436562 
L 437.151562 50.436562 
z
" style="fill: #ff7f0e"/>
    </g>
    <g id="text_17">
     <!-- F1 -->
     <g transform="translate(465.151562 57.436562) scale(0.1 -0.1)">
      <defs>
       <path id="DejaVuSans-31" d="M 794 531 
L 1825 531 
L 1825 4091 
L 703 3866 
L 703 4441 
L 1819 4666 
L 2450 4666 
L 2450 531 
L 3481 531 
L 3481 0 
L 794 0 
L 794 531 
z
" transform="scale(0.015625)"/>
      </defs>
      <use xlink:href="#DejaVuSans-46"/>
      <use xlink:href="#DejaVuSans-31" x="57.519531"/>
     </g>
    </g>
    <g id="patch_24">
     <path d="M 437.151562 72.114687 
L 457.151562 72.114687 
L 457.151562 65.114687 
L 437.151562 65.114687 
z
" style="fill: #2ca02c"/>
    </g>
    <g id="text_18">
     <!-- average_precision -->
     <g transform="translate(465.151562 72.114687) scale(0.1 -0.1)">
      <defs>
       <path id="DejaVuSans-76" d="M 191 3500 
L 800 3500 
L 1894 563 
L 2988 3500 
L 3597 3500 
L 2284 0 
L 1503 0 
L 191 3500 
z
" transform="scale(0.015625)"/>
      </defs>
      <use xlink:href="#DejaVuSans-61"/>
      <use xlink:href="#DejaVuSans-76" x="61.279297"/>
      <use xlink:href="#DejaVuSans-65" x="120.458984"/>
      <use xlink:href="#DejaVuSans-72" x="181.982422"/>
      <use xlink:href="#DejaVuSans-61" x="223.095703"/>
      <use xlink:href="#DejaVuSans-67" x="284.375"/>
      <use xlink:href="#DejaVuSans-65" x="347.851562"/>
      <use xlink:href="#DejaVuSans-5f" x="409.375"/>
      <use xlink:href="#DejaVuSans-70" x="459.375"/>
      <use xlink:href="#DejaVuSans-72" x="522.851562"/>
      <use xlink:href="#DejaVuSans-65" x="561.714844"/>
      <use xlink:href="#DejaVuSans-63" x="623.238281"/>
      <use xlink:href="#DejaVuSans-69" x="678.21875"/>
      <use xlink:href="#DejaVuSans-73" x="706.001953"/>
      <use xlink:href="#DejaVuSans-69" x="758.101562"/>
      <use xlink:href="#DejaVuSans-6f" x="785.884766"/>
      <use xlink:href="#DejaVuSans-6e" x="847.066406"/>
     </g>
    </g>
   </g>
  </g>
 </g>
 <defs>
  <clipPath id="p5e0d04ec63">
   <rect x="54.245" y="26.16" width="510.955" height="172.18"/>
  </clipPath>
 </defs>
</svg>
