<?xml version="1.0" encoding="utf-8" standalone="no"?>
<!DOCTYPE svg PUBLIC "-//W3C//DTD SVG 1.1//EN"
  "http://www.w3.org/Graphics/SVG/1.1/DTD/svg11.dtd">
<svg xmlns:xlink="http://www.w3.org/1999/xlink" width="792pt" height="324pt" viewBox="0 0 792 324" xmlns="http://www.w3.org/2000/svg" version="1.1">
 <metadata>
  <rdf:RDF xmlns:dc="http://purl.org/dc/elements/1.1/" xmlns:cc="http://creativecommons.org/ns#" xmlns:rdf="http://www.w3.org/1999/02/22-rdf-syntax-ns#">
   <cc:Work>
    <dc:type rdf:resource="http://purl.org/dc/dcmitype/StillImage"/>
    <dc:date>2026-06-29T01:05:10.958764</dc:date>
    <dc:format>image/svg+xml</dc:format>
    <dc:creator>
     <cc:Agent>
      <dc:title>Matplotlib v3.9.4, https://matplotlib.org/</dc:title>
     </cc:Agent>
    </dc:creator>
   </cc:Work>
  </rdf:RDF>
 </metadata>
 <defs>
  <style type="text/css">*{stroke-linejoin: round; stroke-linecap: butt}</style>
 </defs>
 <g id="figure_1">
  <g id="patch_1">
   <path d="M 0 324 
L 792 324 
L 792 0 
L 0 0 
z
" style="fill: #ffffff"/>
  </g>
  <g id="axes_1">
   <g id="patch_2">
    <path d="M 60.635 176.74 
L 393.795 176.74 
L 393.795 48.84 
L 60.635 48.84 
z
" style="fill: #ffffff"/>
   </g>
   <g id="patch_3">
    <path d="M 77.293 176.74 
L 93.951 176.74 
L 93.951 70.145769 
L 77.293 70.145769 
z
" clip-path="url(#p70a880418f)" style="fill: #1f77b4"/>
   </g>
   <g id="patch_4">
    <path d="M 143.925 176.74 
L 160.583 176.74 
L 160.583 67.109871 
L 143.925 67.109871 
z
" clip-path="url(#p70a880418f)" style="fill: #1f77b4"/>
   </g>
   <g id="patch_5">
    <path d="M 210.557 176.74 
L 227.215 176.74 
L 227.215 101.101526 
L 210.557 101.101526 
z
" clip-path="url(#p70a880418f)" style="fill: #1f77b4"/>
   </g>
   <g id="patch_6">
    <path d="M 277.189 176.74 
L 293.847 176.74 
L 293.847 54.930476 
L 277.189 54.930476 
z
" clip-path="url(#p70a880418f)" style="fill: #1f77b4"/>
   </g>
   <g id="patch_7">
    <path d="M 343.821 176.74 
L 360.479 176.74 
L 360.479 74.272047 
L 343.821 74.272047 
z
" clip-path="url(#p70a880418f)" style="fill: #1f77b4"/>
   </g>
   <g id="patch_8">
    <path d="M 93.951 176.74 
L 110.609 176.74 
L 110.609 84.606823 
L 93.951 84.606823 
z
" clip-path="url(#p70a880418f)" style="fill: #ff7f0e"/>
   </g>
   <g id="patch_9">
    <path d="M 160.583 176.74 
L 177.241 176.74 
L 177.241 114.264236 
L 160.583 114.264236 
z
" clip-path="url(#p70a880418f)" style="fill: #ff7f0e"/>
   </g>
   <g id="patch_10">
    <path d="M 227.215 176.74 
L 243.873 176.74 
L 243.873 115.59616 
L 227.215 115.59616 
z
" clip-path="url(#p70a880418f)" style="fill: #ff7f0e"/>
   </g>
   <g id="patch_11">
    <path d="M 293.847 176.74 
L 310.505 176.74 
L 310.505 95.264824 
L 293.847 95.264824 
z
" clip-path="url(#p70a880418f)" style="fill: #ff7f0e"/>
   </g>
   <g id="patch_12">
    <path d="M 360.479 176.74 
L 377.137 176.74 
L 377.137 121.21273 
L 360.479 121.21273 
z
" clip-path="url(#p70a880418f)" style="fill: #ff7f0e"/>
   </g>
   <g id="matplotlib.axis_1">
    <g id="xtick_1">
     <g id="line2d_1">
      <defs>
       <path id="m2b9a9b07b7" d="M 0 0 
L 0 3.5 
" style="stroke: #000000; stroke-width: 0.8"/>
      </defs>
      <g>
       <use xlink:href="#m2b9a9b07b7" x="93.951" y="176.74" style="stroke: #000000; stroke-width: 0.8"/>
      </g>
     </g>
     <g id="text_1">
      <!-- strong_signal_only -->
      <g transform="translate(96.571313 276.293125) rotate(-90) scale(0.1 -0.1)">
       <defs>
        <path id="DejaVuSans-73" d="M 2834 3397 
L 2834 2853 
Q 2591 2978 2328 3040 
Q 2066 3103 1784 3103 
Q 1356 3103 1142 2972 
Q 928 2841 928 2578 
Q 928 2378 1081 2264 
Q 1234 2150 1697 2047 
L 1894 2003 
Q 2506 1872 2764 1633 
Q 3022 1394 3022 966 
Q 3022 478 2636 193 
Q 2250 -91 1575 -91 
Q 1294 -91 989 -36 
Q 684 19 347 128 
L 347 722 
Q 666 556 975 473 
Q 1284 391 1588 391 
Q 1994 391 2212 530 
Q 2431 669 2431 922 
Q 2431 1156 2273 1281 
Q 2116 1406 1581 1522 
L 1381 1569 
Q 847 1681 609 1914 
Q 372 2147 372 2553 
Q 372 3047 722 3315 
Q 1072 3584 1716 3584 
Q 2034 3584 2315 3537 
Q 2597 3491 2834 3397 
z
" transform="scale(0.015625)"/>
        <path id="DejaVuSans-74" d="M 1172 4494 
L 1172 3500 
L 2356 3500 
L 2356 3053 
L 1172 3053 
L 1172 1153 
Q 1172 725 1289 603 
Q 1406 481 1766 481 
L 2356 481 
L 2356 0 
L 1766 0 
Q 1100 0 847 248 
Q 594 497 594 1153 
L 594 3053 
L 172 3053 
L 172 3500 
L 594 3500 
L 594 4494 
L 1172 4494 
z
" transform="scale(0.015625)"/>
        <path id="DejaVuSans-72" d="M 2631 2963 
Q 2534 3019 2420 3045 
Q 2306 3072 2169 3072 
Q 1681 3072 1420 2755 
Q 1159 2438 1159 1844 
L 1159 0 
L 581 0 
L 581 3500 
L 1159 3500 
L 1159 2956 
Q 1341 3275 1631 3429 
Q 1922 3584 2338 3584 
Q 2397 3584 2469 3576 
Q 2541 3569 2628 3553 
L 2631 2963 
z
" transform="scale(0.015625)"/>
        <path id="DejaVuSans-6f" d="M 1959 3097 
Q 1497 3097 1228 2736 
Q 959 2375 959 1747 
Q 959 1119 1226 758 
Q 1494 397 1959 397 
Q 2419 397 2687 759 
Q 2956 1122 2956 1747 
Q 2956 2369 2687 2733 
Q 2419 3097 1959 3097 
z
M 1959 3584 
Q 2709 3584 3137 3096 
Q 3566 2609 3566 1747 
Q 3566 888 3137 398 
Q 2709 -91 1959 -91 
Q 1206 -91 779 398 
Q 353 888 353 1747 
Q 353 2609 779 3096 
Q 1206 3584 1959 3584 
z
" transform="scale(0.015625)"/>
        <path id="DejaVuSans-6e" d="M 3513 2113 
L 3513 0 
L 2938 0 
L 2938 2094 
Q 2938 2591 2744 2837 
Q 2550 3084 2163 3084 
Q 1697 3084 1428 2787 
Q 1159 2491 1159 1978 
L 1159 0 
L 581 0 
L 581 3500 
L 1159 3500 
L 1159 2956 
Q 1366 3272 1645 3428 
Q 1925 3584 2291 3584 
Q 2894 3584 3203 3211 
Q 3513 2838 3513 2113 
z
" transform="scale(0.015625)"/>
        <path id="DejaVuSans-67" d="M 2906 1791 
Q 2906 2416 2648 2759 
Q 2391 3103 1925 3103 
Q 1463 3103 1205 2759 
Q 947 2416 947 1791 
Q 947 1169 1205 825 
Q 1463 481 1925 481 
Q 2391 481 2648 825 
Q 2906 1169 2906 1791 
z
M 3481 434 
Q 3481 -459 3084 -895 
Q 2688 -1331 1869 -1331 
Q 1566 -1331 1297 -1286 
Q 1028 -1241 775 -1147 
L 775 -588 
Q 1028 -725 1275 -790 
Q 1522 -856 1778 -856 
Q 2344 -856 2625 -561 
Q 2906 -266 2906 331 
L 2906 616 
Q 2728 306 2450 153 
Q 2172 0 1784 0 
Q 1141 0 747 490 
Q 353 981 353 1791 
Q 353 2603 747 3093 
Q 1141 3584 1784 3584 
Q 2172 3584 2450 3431 
Q 2728 3278 2906 2969 
L 2906 3500 
L 3481 3500 
L 3481 434 
z
" transform="scale(0.015625)"/>
        <path id="DejaVuSans-5f" d="M 3263 -1063 
L 3263 -1509 
L -63 -1509 
L -63 -1063 
L 3263 -1063 
z
" transform="scale(0.015625)"/>
        <path id="DejaVuSans-69" d="M 603 3500 
L 1178 3500 
L 1178 0 
L 603 0 
L 603 3500 
z
M 603 4863 
L 1178 4863 
L 1178 4134 
L 603 4134 
L 603 4863 
z
" transform="scale(0.015625)"/>
        <path id="DejaVuSans-61" d="M 2194 1759 
Q 1497 1759 1228 1600 
Q 959 1441 959 1056 
Q 959 750 1161 570 
Q 1363 391 1709 391 
Q 2188 391 2477 730 
Q 2766 1069 2766 1631 
L 2766 1759 
L 2194 1759 
z
M 3341 1997 
L 3341 0 
L 2766 0 
L 2766 531 
Q 2569 213 2275 61 
Q 1981 -91 1556 -91 
Q 1019 -91 701 211 
Q 384 513 384 1019 
Q 384 1609 779 1909 
Q 1175 2209 1959 2209 
L 2766 2209 
L 2766 2266 
Q 2766 2663 2505 2880 
Q 2244 3097 1772 3097 
Q 1472 3097 1187 3025 
Q 903 2953 641 2809 
L 641 3341 
Q 956 3463 1253 3523 
Q 1550 3584 1831 3584 
Q 2591 3584 2966 3190 
Q 3341 2797 3341 1997 
z
" transform="scale(0.015625)"/>
        <path id="DejaVuSans-6c" d="M 603 4863 
L 1178 4863 
L 1178 0 
L 603 0 
L 603 4863 
z
" transform="scale(0.015625)"/>
        <path id="DejaVuSans-79" d="M 2059 -325 
Q 1816 -950 1584 -1140 
Q 1353 -1331 966 -1331 
L 506 -1331 
L 506 -850 
L 844 -850 
Q 1081 -850 1212 -737 
Q 1344 -625 1503 -206 
L 1606 56 
L 191 3500 
L 800 3500 
L 1894 763 
L 2988 3500 
L 3597 3500 
L 2059 -325 
z
" transform="scale(0.015625)"/>
       </defs>
       <use xlink:href="#DejaVuSans-73"/>
       <use xlink:href="#DejaVuSans-74" x="52.099609"/>
       <use xlink:href="#DejaVuSans-72" x="91.308594"/>
       <use xlink:href="#DejaVuSans-6f" x="130.171875"/>
       <use xlink:href="#DejaVuSans-6e" x="191.353516"/>
       <use xlink:href="#DejaVuSans-67" x="254.732422"/>
       <use xlink:href="#DejaVuSans-5f" x="318.208984"/>
       <use xlink:href="#DejaVuSans-73" x="368.208984"/>
       <use xlink:href="#DejaVuSans-69" x="420.308594"/>
       <use xlink:href="#DejaVuSans-67" x="448.091797"/>
       <use xlink:href="#DejaVuSans-6e" x="511.568359"/>
       <use xlink:href="#DejaVuSans-61" x="574.947266"/>
       <use xlink:href="#DejaVuSans-6c" x="636.226562"/>
       <use xlink:href="#DejaVuSans-5f" x="664.009766"/>
       <use xlink:href="#DejaVuSans-6f" x="714.009766"/>
       <use xlink:href="#DejaVuSans-6e" x="775.191406"/>
       <use xlink:href="#DejaVuSans-6c" x="838.570312"/>
       <use xlink:href="#DejaVuSans-79" x="866.353516"/>
      </g>
     </g>
    </g>
    <g id="xtick_2">
     <g id="line2d_2">
      <g>
       <use xlink:href="#m2b9a9b07b7" x="160.583" y="176.74" style="stroke: #000000; stroke-width: 0.8"/>
      </g>
     </g>
     <g id="text_2">
      <!-- signal_embedding_mlp -->
      <g transform="translate(163.203312 298.743125) rotate(-90) scale(0.1 -0.1)">
       <defs>
        <path id="DejaVuSans-65" d="M 3597 1894 
L 3597 1613 
L 953 1613 
Q 991 1019 1311 708 
Q 1631 397 2203 397 
Q 2534 397 2845 478 
Q 3156 559 3463 722 
L 3463 178 
Q 3153 47 2828 -22 
Q 2503 -91 2169 -91 
Q 1331 -91 842 396 
Q 353 884 353 1716 
Q 353 2575 817 3079 
Q 1281 3584 2069 3584 
Q 2775 3584 3186 3129 
Q 3597 2675 3597 1894 
z
M 3022 2063 
Q 3016 2534 2758 2815 
Q 2500 3097 2075 3097 
Q 1594 3097 1305 2825 
Q 1016 2553 972 2059 
L 3022 2063 
z
" transform="scale(0.015625)"/>
        <path id="DejaVuSans-6d" d="M 3328 2828 
Q 3544 3216 3844 3400 
Q 4144 3584 4550 3584 
Q 5097 3584 5394 3201 
Q 5691 2819 5691 2113 
L 5691 0 
L 5113 0 
L 5113 2094 
Q 5113 2597 4934 2840 
Q 4756 3084 4391 3084 
Q 3944 3084 3684 2787 
Q 3425 2491 3425 1978 
L 3425 0 
L 2847 0 
L 2847 2094 
Q 2847 2600 2669 2842 
Q 2491 3084 2119 3084 
Q 1678 3084 1418 2786 
Q 1159 2488 1159 1978 
L 1159 0 
L 581 0 
L 581 3500 
L 1159 3500 
L 1159 2956 
Q 1356 3278 1631 3431 
Q 1906 3584 2284 3584 
Q 2666 3584 2933 3390 
Q 3200 3197 3328 2828 
z
" transform="scale(0.015625)"/>
        <path id="DejaVuSans-62" d="M 3116 1747 
Q 3116 2381 2855 2742 
Q 2594 3103 2138 3103 
Q 1681 3103 1420 2742 
Q 1159 2381 1159 1747 
Q 1159 1113 1420 752 
Q 1681 391 2138 391 
Q 2594 391 2855 752 
Q 3116 1113 3116 1747 
z
M 1159 2969 
Q 1341 3281 1617 3432 
Q 1894 3584 2278 3584 
Q 2916 3584 3314 3078 
Q 3713 2572 3713 1747 
Q 3713 922 3314 415 
Q 2916 -91 2278 -91 
Q 1894 -91 1617 61 
Q 1341 213 1159 525 
L 1159 0 
L 581 0 
L 581 4863 
L 1159 4863 
L 1159 2969 
z
" transform="scale(0.015625)"/>
        <path id="DejaVuSans-64" d="M 2906 2969 
L 2906 4863 
L 3481 4863 
L 3481 0 
L 2906 0 
L 2906 525 
Q 2725 213 2448 61 
Q 2172 -91 1784 -91 
Q 1150 -91 751 415 
Q 353 922 353 1747 
Q 353 2572 751 3078 
Q 1150 3584 1784 3584 
Q 2172 3584 2448 3432 
Q 2725 3281 2906 2969 
z
M 947 1747 
Q 947 1113 1208 752 
Q 1469 391 1925 391 
Q 2381 391 2643 752 
Q 2906 1113 2906 1747 
Q 2906 2381 2643 2742 
Q 2381 3103 1925 3103 
Q 1469 3103 1208 2742 
Q 947 2381 947 1747 
z
" transform="scale(0.015625)"/>
        <path id="DejaVuSans-70" d="M 1159 525 
L 1159 -1331 
L 581 -1331 
L 581 3500 
L 1159 3500 
L 1159 2969 
Q 1341 3281 1617 3432 
Q 1894 3584 2278 3584 
Q 2916 3584 3314 3078 
Q 3713 2572 3713 1747 
Q 3713 922 3314 415 
Q 2916 -91 2278 -91 
Q 1894 -91 1617 61 
Q 1341 213 1159 525 
z
M 3116 1747 
Q 3116 2381 2855 2742 
Q 2594 3103 2138 3103 
Q 1681 3103 1420 2742 
Q 1159 2381 1159 1747 
Q 1159 1113 1420 752 
Q 1681 391 2138 391 
Q 2594 391 2855 752 
Q 3116 1113 3116 1747 
z
" transform="scale(0.015625)"/>
       </defs>
       <use xlink:href="#DejaVuSans-73"/>
       <use xlink:href="#DejaVuSans-69" x="52.099609"/>
       <use xlink:href="#DejaVuSans-67" x="79.882812"/>
       <use xlink:href="#DejaVuSans-6e" x="143.359375"/>
       <use xlink:href="#DejaVuSans-61" x="206.738281"/>
       <use xlink:href="#DejaVuSans-6c" x="268.017578"/>
       <use xlink:href="#DejaVuSans-5f" x="295.800781"/>
       <use xlink:href="#DejaVuSans-65" x="345.800781"/>
       <use xlink:href="#DejaVuSans-6d" x="407.324219"/>
       <use xlink:href="#DejaVuSans-62" x="504.736328"/>
       <use xlink:href="#DejaVuSans-65" x="568.212891"/>
       <use xlink:href="#DejaVuSans-64" x="629.736328"/>
       <use xlink:href="#DejaVuSans-64" x="693.212891"/>
       <use xlink:href="#DejaVuSans-69" x="756.689453"/>
       <use xlink:href="#DejaVuSans-6e" x="784.472656"/>
       <use xlink:href="#DejaVuSans-67" x="847.851562"/>
       <use xlink:href="#DejaVuSans-5f" x="911.328125"/>
       <use xlink:href="#DejaVuSans-6d" x="961.328125"/>
       <use xlink:href="#DejaVuSans-6c" x="1058.740234"/>
       <use xlink:href="#DejaVuSans-70" x="1086.523438"/>
      </g>
     </g>
    </g>
    <g id="xtick_3">
     <g id="line2d_3">
      <g>
       <use xlink:href="#m2b9a9b07b7" x="227.215" y="176.74" style="stroke: #000000; stroke-width: 0.8"/>
      </g>
     </g>
     <g id="text_3">
      <!-- structured_mlp -->
      <g transform="translate(229.835312 259.329063) rotate(-90) scale(0.1 -0.1)">
       <defs>
        <path id="DejaVuSans-75" d="M 544 1381 
L 544 3500 
L 1119 3500 
L 1119 1403 
Q 1119 906 1312 657 
Q 1506 409 1894 409 
Q 2359 409 2629 706 
Q 2900 1003 2900 1516 
L 2900 3500 
L 3475 3500 
L 3475 0 
L 2900 0 
L 2900 538 
Q 2691 219 2414 64 
Q 2138 -91 1772 -91 
Q 1169 -91 856 284 
Q 544 659 544 1381 
z
M 1991 3584 
L 1991 3584 
z
" transform="scale(0.015625)"/>
        <path id="DejaVuSans-63" d="M 3122 3366 
L 3122 2828 
Q 2878 2963 2633 3030 
Q 2388 3097 2138 3097 
Q 1578 3097 1268 2742 
Q 959 2388 959 1747 
Q 959 1106 1268 751 
Q 1578 397 2138 397 
Q 2388 397 2633 464 
Q 2878 531 3122 666 
L 3122 134 
Q 2881 22 2623 -34 
Q 2366 -91 2075 -91 
Q 1284 -91 818 406 
Q 353 903 353 1747 
Q 353 2603 823 3093 
Q 1294 3584 2113 3584 
Q 2378 3584 2631 3529 
Q 2884 3475 3122 3366 
z
" transform="scale(0.015625)"/>
       </defs>
       <use xlink:href="#DejaVuSans-73"/>
       <use xlink:href="#DejaVuSans-74" x="52.099609"/>
       <use xlink:href="#DejaVuSans-72" x="91.308594"/>
       <use xlink:href="#DejaVuSans-75" x="132.421875"/>
       <use xlink:href="#DejaVuSans-63" x="195.800781"/>
       <use xlink:href="#DejaVuSans-74" x="250.78125"/>
       <use xlink:href="#DejaVuSans-75" x="289.990234"/>
       <use xlink:href="#DejaVuSans-72" x="353.369141"/>
       <use xlink:href="#DejaVuSans-65" x="392.232422"/>
       <use xlink:href="#DejaVuSans-64" x="453.755859"/>
       <use xlink:href="#DejaVuSans-5f" x="517.232422"/>
       <use xlink:href="#DejaVuSans-6d" x="567.232422"/>
       <use xlink:href="#DejaVuSans-6c" x="664.644531"/>
       <use xlink:href="#DejaVuSans-70" x="692.427734"/>
      </g>
     </g>
    </g>
    <g id="xtick_4">
     <g id="line2d_4">
      <g>
       <use xlink:href="#m2b9a9b07b7" x="293.847" y="176.74" style="stroke: #000000; stroke-width: 0.8"/>
      </g>
     </g>
     <g id="text_4">
      <!-- fair_concat_mlp -->
      <g transform="translate(296.467312 262.64625) rotate(-90) scale(0.1 -0.1)">
       <defs>
        <path id="DejaVuSans-66" d="M 2375 4863 
L 2375 4384 
L 1825 4384 
Q 1516 4384 1395 4259 
Q 1275 4134 1275 3809 
L 1275 3500 
L 2222 3500 
L 2222 3053 
L 1275 3053 
L 1275 0 
L 697 0 
L 697 3053 
L 147 3053 
L 147 3500 
L 697 3500 
L 697 3744 
Q 697 4328 969 4595 
Q 1241 4863 1831 4863 
L 2375 4863 
z
" transform="scale(0.015625)"/>
       </defs>
       <use xlink:href="#DejaVuSans-66"/>
       <use xlink:href="#DejaVuSans-61" x="35.205078"/>
       <use xlink:href="#DejaVuSans-69" x="96.484375"/>
       <use xlink:href="#DejaVuSans-72" x="124.267578"/>
       <use xlink:href="#DejaVuSans-5f" x="165.380859"/>
       <use xlink:href="#DejaVuSans-63" x="215.380859"/>
       <use xlink:href="#DejaVuSans-6f" x="270.361328"/>
       <use xlink:href="#DejaVuSans-6e" x="331.542969"/>
       <use xlink:href="#DejaVuSans-63" x="394.921875"/>
       <use xlink:href="#DejaVuSans-61" x="449.902344"/>
       <use xlink:href="#DejaVuSans-74" x="511.181641"/>
       <use xlink:href="#DejaVuSans-5f" x="550.390625"/>
       <use xlink:href="#DejaVuSans-6d" x="600.390625"/>
       <use xlink:href="#DejaVuSans-6c" x="697.802734"/>
       <use xlink:href="#DejaVuSans-70" x="725.585938"/>
      </g>
     </g>
    </g>
    <g id="xtick_5">
     <g id="line2d_5">
      <g>
       <use xlink:href="#m2b9a9b07b7" x="360.479" y="176.74" style="stroke: #000000; stroke-width: 0.8"/>
      </g>
     </g>
     <g id="text_5">
      <!-- gated_fusion_mlp -->
      <g transform="translate(363.099312 271.807187) rotate(-90) scale(0.1 -0.1)">
       <use xlink:href="#DejaVuSans-67"/>
       <use xlink:href="#DejaVuSans-61" x="63.476562"/>
       <use xlink:href="#DejaVuSans-74" x="124.755859"/>
       <use xlink:href="#DejaVuSans-65" x="163.964844"/>
       <use xlink:href="#DejaVuSans-64" x="225.488281"/>
       <use xlink:href="#DejaVuSans-5f" x="288.964844"/>
       <use xlink:href="#DejaVuSans-66" x="338.964844"/>
       <use xlink:href="#DejaVuSans-75" x="374.169922"/>
       <use xlink:href="#DejaVuSans-73" x="437.548828"/>
       <use xlink:href="#DejaVuSans-69" x="489.648438"/>
       <use xlink:href="#DejaVuSans-6f" x="517.431641"/>
       <use xlink:href="#DejaVuSans-6e" x="578.613281"/>
       <use xlink:href="#DejaVuSans-5f" x="641.992188"/>
       <use xlink:href="#DejaVuSans-6d" x="691.992188"/>
       <use xlink:href="#DejaVuSans-6c" x="789.404297"/>
       <use xlink:href="#DejaVuSans-70" x="817.1875"/>
      </g>
     </g>
    </g>
    <g id="text_6">
     <!-- model_name -->
     <g transform="translate(194.965781 310.341563) scale(0.1 -0.1)">
      <use xlink:href="#DejaVuSans-6d"/>
      <use xlink:href="#DejaVuSans-6f" x="97.412109"/>
      <use xlink:href="#DejaVuSans-64" x="158.59375"/>
      <use xlink:href="#DejaVuSans-65" x="222.070312"/>
      <use xlink:href="#DejaVuSans-6c" x="283.59375"/>
      <use xlink:href="#DejaVuSans-5f" x="311.376953"/>
      <use xlink:href="#DejaVuSans-6e" x="361.376953"/>
      <use xlink:href="#DejaVuSans-61" x="424.755859"/>
      <use xlink:href="#DejaVuSans-6d" x="486.035156"/>
      <use xlink:href="#DejaVuSans-65" x="583.447266"/>
     </g>
    </g>
   </g>
   <g id="matplotlib.axis_2">
    <g id="ytick_1">
     <g id="line2d_6">
      <defs>
       <path id="m01b2b8091c" d="M 0 0 
L -3.5 0 
" style="stroke: #000000; stroke-width: 0.8"/>
      </defs>
      <g>
       <use xlink:href="#m01b2b8091c" x="60.635" y="176.74" style="stroke: #000000; stroke-width: 0.8"/>
      </g>
     </g>
     <g id="text_7">
      <!-- 0.00 -->
      <g transform="translate(31.369375 180.539219) scale(0.1 -0.1)">
       <defs>
        <path id="DejaVuSans-30" d="M 2034 4250 
Q 1547 4250 1301 3770 
Q 1056 3291 1056 2328 
Q 1056 1369 1301 889 
Q 1547 409 2034 409 
Q 2525 409 2770 889 
Q 3016 1369 3016 2328 
Q 3016 3291 2770 3770 
Q 2525 4250 2034 4250 
z
M 2034 4750 
Q 2819 4750 3233 4129 
Q 3647 3509 3647 2328 
Q 3647 1150 3233 529 
Q 2819 -91 2034 -91 
Q 1250 -91 836 529 
Q 422 1150 422 2328 
Q 422 3509 836 4129 
Q 1250 4750 2034 4750 
z
" transform="scale(0.015625)"/>
        <path id="DejaVuSans-2e" d="M 684 794 
L 1344 794 
L 1344 0 
L 684 0 
L 684 794 
z
" transform="scale(0.015625)"/>
       </defs>
       <use xlink:href="#DejaVuSans-30"/>
       <use xlink:href="#DejaVuSans-2e" x="63.623047"/>
       <use xlink:href="#DejaVuSans-30" x="95.410156"/>
       <use xlink:href="#DejaVuSans-30" x="159.033203"/>
      </g>
     </g>
    </g>
    <g id="ytick_2">
     <g id="line2d_7">
      <g>
       <use xlink:href="#m01b2b8091c" x="60.635" y="147.934169" style="stroke: #000000; stroke-width: 0.8"/>
      </g>
     </g>
     <g id="text_8">
      <!-- 0.01 -->
      <g transform="translate(31.369375 151.733388) scale(0.1 -0.1)">
       <defs>
        <path id="DejaVuSans-31" d="M 794 531 
L 1825 531 
L 1825 4091 
L 703 3866 
L 703 4441 
L 1819 4666 
L 2450 4666 
L 2450 531 
L 3481 531 
L 3481 0 
L 794 0 
L 794 531 
z
" transform="scale(0.015625)"/>
       </defs>
       <use xlink:href="#DejaVuSans-30"/>
       <use xlink:href="#DejaVuSans-2e" x="63.623047"/>
       <use xlink:href="#DejaVuSans-30" x="95.410156"/>
       <use xlink:href="#DejaVuSans-31" x="159.033203"/>
      </g>
     </g>
    </g>
    <g id="ytick_3">
     <g id="line2d_8">
      <g>
       <use xlink:href="#m01b2b8091c" x="60.635" y="119.128338" style="stroke: #000000; stroke-width: 0.8"/>
      </g>
     </g>
     <g id="text_9">
      <!-- 0.02 -->
      <g transform="translate(31.369375 122.927557) scale(0.1 -0.1)">
       <defs>
        <path id="DejaVuSans-32" d="M 1228 531 
L 3431 531 
L 3431 0 
L 469 0 
L 469 531 
Q 828 903 1448 1529 
Q 2069 2156 2228 2338 
Q 2531 2678 2651 2914 
Q 2772 3150 2772 3378 
Q 2772 3750 2511 3984 
Q 2250 4219 1831 4219 
Q 1534 4219 1204 4116 
Q 875 4013 500 3803 
L 500 4441 
Q 881 4594 1212 4672 
Q 1544 4750 1819 4750 
Q 2544 4750 2975 4387 
Q 3406 4025 3406 3419 
Q 3406 3131 3298 2873 
Q 3191 2616 2906 2266 
Q 2828 2175 2409 1742 
Q 1991 1309 1228 531 
z
" transform="scale(0.015625)"/>
       </defs>
       <use xlink:href="#DejaVuSans-30"/>
       <use xlink:href="#DejaVuSans-2e" x="63.623047"/>
       <use xlink:href="#DejaVuSans-30" x="95.410156"/>
       <use xlink:href="#DejaVuSans-32" x="159.033203"/>
      </g>
     </g>
    </g>
    <g id="ytick_4">
     <g id="line2d_9">
      <g>
       <use xlink:href="#m01b2b8091c" x="60.635" y="90.322507" style="stroke: #000000; stroke-width: 0.8"/>
      </g>
     </g>
     <g id="text_10">
      <!-- 0.03 -->
      <g transform="translate(31.369375 94.121726) scale(0.1 -0.1)">
       <defs>
        <path id="DejaVuSans-33" d="M 2597 2516 
Q 3050 2419 3304 2112 
Q 3559 1806 3559 1356 
Q 3559 666 3084 287 
Q 2609 -91 1734 -91 
Q 1441 -91 1130 -33 
Q 819 25 488 141 
L 488 750 
Q 750 597 1062 519 
Q 1375 441 1716 441 
Q 2309 441 2620 675 
Q 2931 909 2931 1356 
Q 2931 1769 2642 2001 
Q 2353 2234 1838 2234 
L 1294 2234 
L 1294 2753 
L 1863 2753 
Q 2328 2753 2575 2939 
Q 2822 3125 2822 3475 
Q 2822 3834 2567 4026 
Q 2313 4219 1838 4219 
Q 1578 4219 1281 4162 
Q 984 4106 628 3988 
L 628 4550 
Q 988 4650 1302 4700 
Q 1616 4750 1894 4750 
Q 2613 4750 3031 4423 
Q 3450 4097 3450 3541 
Q 3450 3153 3228 2886 
Q 3006 2619 2597 2516 
z
" transform="scale(0.015625)"/>
       </defs>
       <use xlink:href="#DejaVuSans-30"/>
       <use xlink:href="#DejaVuSans-2e" x="63.623047"/>
       <use xlink:href="#DejaVuSans-30" x="95.410156"/>
       <use xlink:href="#DejaVuSans-33" x="159.033203"/>
      </g>
     </g>
    </g>
    <g id="ytick_5">
     <g id="line2d_10">
      <g>
       <use xlink:href="#m01b2b8091c" x="60.635" y="61.516677" style="stroke: #000000; stroke-width: 0.8"/>
      </g>
     </g>
     <g id="text_11">
      <!-- 0.04 -->
      <g transform="translate(31.369375 65.315895) scale(0.1 -0.1)">
       <defs>
        <path id="DejaVuSans-34" d="M 2419 4116 
L 825 1625 
L 2419 1625 
L 2419 4116 
z
M 2253 4666 
L 3047 4666 
L 3047 1625 
L 3713 1625 
L 3713 1100 
L 3047 1100 
L 3047 0 
L 2419 0 
L 2419 1100 
L 313 1100 
L 313 1709 
L 2253 4666 
z
" transform="scale(0.015625)"/>
       </defs>
       <use xlink:href="#DejaVuSans-30"/>
       <use xlink:href="#DejaVuSans-2e" x="63.623047"/>
       <use xlink:href="#DejaVuSans-30" x="95.410156"/>
       <use xlink:href="#DejaVuSans-34" x="159.033203"/>
      </g>
     </g>
    </g>
    <g id="text_12">
     <!-- ECE -->
     <g transform="translate(25.289688 122.600156) rotate(-90) scale(0.1 -0.1)">
      <defs>
       <path id="DejaVuSans-45" d="M 628 4666 
L 3578 4666 
L 3578 4134 
L 1259 4134 
L 1259 2753 
L 3481 2753 
L 3481 2222 
L 1259 2222 
L 1259 531 
L 3634 531 
L 3634 0 
L 628 0 
L 628 4666 
z
" transform="scale(0.015625)"/>
       <path id="DejaVuSans-43" d="M 4122 4306 
L 4122 3641 
Q 3803 3938 3442 4084 
Q 3081 4231 2675 4231 
Q 1875 4231 1450 3742 
Q 1025 3253 1025 2328 
Q 1025 1406 1450 917 
Q 1875 428 2675 428 
Q 3081 428 3442 575 
Q 3803 722 4122 1019 
L 4122 359 
Q 3791 134 3420 21 
Q 3050 -91 2638 -91 
Q 1578 -91 968 557 
Q 359 1206 359 2328 
Q 359 3453 968 4101 
Q 1578 4750 2638 4750 
Q 3056 4750 3426 4639 
Q 3797 4528 4122 4306 
z
" transform="scale(0.015625)"/>
      </defs>
      <use xlink:href="#DejaVuSans-45"/>
      <use xlink:href="#DejaVuSans-43" x="63.183594"/>
      <use xlink:href="#DejaVuSans-45" x="133.007812"/>
     </g>
    </g>
   </g>
   <g id="patch_13">
    <path d="M 60.635 176.74 
L 60.635 48.84 
" style="fill: none; stroke: #000000; stroke-width: 0.8; stroke-linejoin: miter; stroke-linecap: square"/>
   </g>
   <g id="patch_14">
    <path d="M 393.795 176.74 
L 393.795 48.84 
" style="fill: none; stroke: #000000; stroke-width: 0.8; stroke-linejoin: miter; stroke-linecap: square"/>
   </g>
   <g id="patch_15">
    <path d="M 60.635 176.74 
L 393.795 176.74 
" style="fill: none; stroke: #000000; stroke-width: 0.8; stroke-linejoin: miter; stroke-linecap: square"/>
   </g>
   <g id="patch_16">
    <path d="M 60.635 48.84 
L 393.795 48.84 
" style="fill: none; stroke: #000000; stroke-width: 0.8; stroke-linejoin: miter; stroke-linecap: square"/>
   </g>
   <g id="text_13">
    <!-- Raw vs temperature-scaled ECE -->
    <g transform="translate(131.2825 42.84) scale(0.12 -0.12)">
     <defs>
      <path id="DejaVuSans-52" d="M 2841 2188 
Q 3044 2119 3236 1894 
Q 3428 1669 3622 1275 
L 4263 0 
L 3584 0 
L 2988 1197 
Q 2756 1666 2539 1819 
Q 2322 1972 1947 1972 
L 1259 1972 
L 1259 0 
L 628 0 
L 628 4666 
L 2053 4666 
Q 2853 4666 3247 4331 
Q 3641 3997 3641 3322 
Q 3641 2881 3436 2590 
Q 3231 2300 2841 2188 
z
M 1259 4147 
L 1259 2491 
L 2053 2491 
Q 2509 2491 2742 2702 
Q 2975 2913 2975 3322 
Q 2975 3731 2742 3939 
Q 2509 4147 2053 4147 
L 1259 4147 
z
" transform="scale(0.015625)"/>
      <path id="DejaVuSans-77" d="M 269 3500 
L 844 3500 
L 1563 769 
L 2278 3500 
L 2956 3500 
L 3675 769 
L 4391 3500 
L 4966 3500 
L 4050 0 
L 3372 0 
L 2619 2869 
L 1863 0 
L 1184 0 
L 269 3500 
z
" transform="scale(0.015625)"/>
      <path id="DejaVuSans-20" transform="scale(0.015625)"/>
      <path id="DejaVuSans-76" d="M 191 3500 
L 800 3500 
L 1894 563 
L 2988 3500 
L 3597 3500 
L 2284 0 
L 1503 0 
L 191 3500 
z
" transform="scale(0.015625)"/>
      <path id="DejaVuSans-2d" d="M 313 2009 
L 1997 2009 
L 1997 1497 
L 313 1497 
L 313 2009 
z
" transform="scale(0.015625)"/>
     </defs>
     <use xlink:href="#DejaVuSans-52"/>
     <use xlink:href="#DejaVuSans-61" x="67.232422"/>
     <use xlink:href="#DejaVuSans-77" x="128.511719"/>
     <use xlink:href="#DejaVuSans-20" x="210.298828"/>
     <use xlink:href="#DejaVuSans-76" x="242.085938"/>
     <use xlink:href="#DejaVuSans-73" x="301.265625"/>
     <use xlink:href="#DejaVuSans-20" x="353.365234"/>
     <use xlink:href="#DejaVuSans-74" x="385.152344"/>
     <use xlink:href="#DejaVuSans-65" x="424.361328"/>
     <use xlink:href="#DejaVuSans-6d" x="485.884766"/>
     <use xlink:href="#DejaVuSans-70" x="583.296875"/>
     <use xlink:href="#DejaVuSans-65" x="646.773438"/>
     <use xlink:href="#DejaVuSans-72" x="708.296875"/>
     <use xlink:href="#DejaVuSans-61" x="749.410156"/>
     <use xlink:href="#DejaVuSans-74" x="810.689453"/>
     <use xlink:href="#DejaVuSans-75" x="849.898438"/>
     <use xlink:href="#DejaVuSans-72" x="913.277344"/>
     <use xlink:href="#DejaVuSans-65" x="952.140625"/>
     <use xlink:href="#DejaVuSans-2d" x="1013.664062"/>
     <use xlink:href="#DejaVuSans-73" x="1049.748047"/>
     <use xlink:href="#DejaVuSans-63" x="1101.847656"/>
     <use xlink:href="#DejaVuSans-61" x="1156.828125"/>
     <use xlink:href="#DejaVuSans-6c" x="1218.107422"/>
     <use xlink:href="#DejaVuSans-65" x="1245.890625"/>
     <use xlink:href="#DejaVuSans-64" x="1307.414062"/>
     <use xlink:href="#DejaVuSans-20" x="1370.890625"/>
     <use xlink:href="#DejaVuSans-45" x="1402.677734"/>
     <use xlink:href="#DejaVuSans-43" x="1465.861328"/>
     <use xlink:href="#DejaVuSans-45" x="1535.685547"/>
    </g>
   </g>
   <g id="legend_1">
    <g id="patch_17">
     <path d="M 256.827812 65.438437 
L 276.827812 65.438437 
L 276.827812 58.438437 
L 256.827812 58.438437 
z
" style="fill: #1f77b4"/>
    </g>
    <g id="text_14">
     <!-- raw -->
     <g transform="translate(284.827812 65.438437) scale(0.1 -0.1)">
      <use xlink:href="#DejaVuSans-72"/>
      <use xlink:href="#DejaVuSans-61" x="41.113281"/>
      <use xlink:href="#DejaVuSans-77" x="102.392578"/>
     </g>
    </g>
    <g id="patch_18">
     <path d="M 256.827812 80.116562 
L 276.827812 80.116562 
L 276.827812 73.116562 
L 256.827812 73.116562 
z
" style="fill: #ff7f0e"/>
    </g>
    <g id="text_15">
     <!-- temperature_scaled -->
     <g transform="translate(284.827812 80.116562) scale(0.1 -0.1)">
      <use xlink:href="#DejaVuSans-74"/>
      <use xlink:href="#DejaVuSans-65" x="39.208984"/>
      <use xlink:href="#DejaVuSans-6d" x="100.732422"/>
      <use xlink:href="#DejaVuSans-70" x="198.144531"/>
      <use xlink:href="#DejaVuSans-65" x="261.621094"/>
      <use xlink:href="#DejaVuSans-72" x="323.144531"/>
      <use xlink:href="#DejaVuSans-61" x="364.257812"/>
      <use xlink:href="#DejaVuSans-74" x="425.537109"/>
      <use xlink:href="#DejaVuSans-75" x="464.746094"/>
      <use xlink:href="#DejaVuSans-72" x="528.125"/>
      <use xlink:href="#DejaVuSans-65" x="566.988281"/>
      <use xlink:href="#DejaVuSans-5f" x="628.511719"/>
      <use xlink:href="#DejaVuSans-73" x="678.511719"/>
      <use xlink:href="#DejaVuSans-63" x="730.611328"/>
      <use xlink:href="#DejaVuSans-61" x="785.591797"/>
      <use xlink:href="#DejaVuSans-6c" x="846.871094"/>
      <use xlink:href="#DejaVuSans-65" x="874.654297"/>
      <use xlink:href="#DejaVuSans-64" x="936.177734"/>
     </g>
    </g>
   </g>
  </g>
  <g id="axes_2">
   <g id="patch_19">
    <path d="M 448.04 176.74 
L 781.2 176.74 
L 781.2 48.84 
L 448.04 48.84 
z
" style="fill: #ffffff"/>
   </g>
   <g id="patch_20">
    <path d="M 464.698 176.74 
L 481.356 176.74 
L 481.356 59.248397 
L 464.698 59.248397 
z
" clip-path="url(#p5d3f2d4326)" style="fill: #1f77b4"/>
   </g>
   <g id="patch_21">
    <path d="M 531.33 176.74 
L 547.988 176.74 
L 547.988 61.150972 
L 531.33 61.150972 
z
" clip-path="url(#p5d3f2d4326)" style="fill: #1f77b4"/>
   </g>
   <g id="patch_22">
    <path d="M 597.962 176.74 
L 614.62 176.74 
L 614.62 54.930476 
L 597.962 54.930476 
z
" clip-path="url(#p5d3f2d4326)" style="fill: #1f77b4"/>
   </g>
   <g id="patch_23">
    <path d="M 664.594 176.74 
L 681.252 176.74 
L 681.252 63.034562 
L 664.594 63.034562 
z
" clip-path="url(#p5d3f2d4326)" style="fill: #1f77b4"/>
   </g>
   <g id="patch_24">
    <path d="M 731.226 176.74 
L 747.884 176.74 
L 747.884 66.03724 
L 731.226 66.03724 
z
" clip-path="url(#p5d3f2d4326)" style="fill: #1f77b4"/>
   </g>
   <g id="patch_25">
    <path d="M 481.356 176.74 
L 498.014 176.74 
L 498.014 60.255413 
L 481.356 60.255413 
z
" clip-path="url(#p5d3f2d4326)" style="fill: #ff7f0e"/>
   </g>
   <g id="patch_26">
    <path d="M 547.988 176.74 
L 564.646 176.74 
L 564.646 62.764556 
L 547.988 62.764556 
z
" clip-path="url(#p5d3f2d4326)" style="fill: #ff7f0e"/>
   </g>
   <g id="patch_27">
    <path d="M 614.62 176.74 
L 631.278 176.74 
L 631.278 55.168246 
L 614.62 55.168246 
z
" clip-path="url(#p5d3f2d4326)" style="fill: #ff7f0e"/>
   </g>
   <g id="patch_28">
    <path d="M 681.252 176.74 
L 697.91 176.74 
L 697.91 65.301478 
L 681.252 65.301478 
z
" clip-path="url(#p5d3f2d4326)" style="fill: #ff7f0e"/>
   </g>
   <g id="patch_29">
    <path d="M 747.884 176.74 
L 764.542 176.74 
L 764.542 67.798394 
L 747.884 67.798394 
z
" clip-path="url(#p5d3f2d4326)" style="fill: #ff7f0e"/>
   </g>
   <g id="matplotlib.axis_3">
    <g id="xtick_6">
     <g id="line2d_11">
      <g>
       <use xlink:href="#m2b9a9b07b7" x="481.356" y="176.74" style="stroke: #000000; stroke-width: 0.8"/>
      </g>
     </g>
     <g id="text_16">
      <!-- strong_signal_only -->
      <g transform="translate(483.976313 276.293125) rotate(-90) scale(0.1 -0.1)">
       <use xlink:href="#DejaVuSans-73"/>
       <use xlink:href="#DejaVuSans-74" x="52.099609"/>
       <use xlink:href="#DejaVuSans-72" x="91.308594"/>
       <use xlink:href="#DejaVuSans-6f" x="130.171875"/>
       <use xlink:href="#DejaVuSans-6e" x="191.353516"/>
       <use xlink:href="#DejaVuSans-67" x="254.732422"/>
       <use xlink:href="#DejaVuSans-5f" x="318.208984"/>
       <use xlink:href="#DejaVuSans-73" x="368.208984"/>
       <use xlink:href="#DejaVuSans-69" x="420.308594"/>
       <use xlink:href="#DejaVuSans-67" x="448.091797"/>
       <use xlink:href="#DejaVuSans-6e" x="511.568359"/>
       <use xlink:href="#DejaVuSans-61" x="574.947266"/>
       <use xlink:href="#DejaVuSans-6c" x="636.226562"/>
       <use xlink:href="#DejaVuSans-5f" x="664.009766"/>
       <use xlink:href="#DejaVuSans-6f" x="714.009766"/>
       <use xlink:href="#DejaVuSans-6e" x="775.191406"/>
       <use xlink:href="#DejaVuSans-6c" x="838.570312"/>
       <use xlink:href="#DejaVuSans-79" x="866.353516"/>
      </g>
     </g>
    </g>
    <g id="xtick_7">
     <g id="line2d_12">
      <g>
       <use xlink:href="#m2b9a9b07b7" x="547.988" y="176.74" style="stroke: #000000; stroke-width: 0.8"/>
      </g>
     </g>
     <g id="text_17">
      <!-- signal_embedding_mlp -->
      <g transform="translate(550.608312 298.743125) rotate(-90) scale(0.1 -0.1)">
       <use xlink:href="#DejaVuSans-73"/>
       <use xlink:href="#DejaVuSans-69" x="52.099609"/>
       <use xlink:href="#DejaVuSans-67" x="79.882812"/>
       <use xlink:href="#DejaVuSans-6e" x="143.359375"/>
       <use xlink:href="#DejaVuSans-61" x="206.738281"/>
       <use xlink:href="#DejaVuSans-6c" x="268.017578"/>
       <use xlink:href="#DejaVuSans-5f" x="295.800781"/>
       <use xlink:href="#DejaVuSans-65" x="345.800781"/>
       <use xlink:href="#DejaVuSans-6d" x="407.324219"/>
       <use xlink:href="#DejaVuSans-62" x="504.736328"/>
       <use xlink:href="#DejaVuSans-65" x="568.212891"/>
       <use xlink:href="#DejaVuSans-64" x="629.736328"/>
       <use xlink:href="#DejaVuSans-64" x="693.212891"/>
       <use xlink:href="#DejaVuSans-69" x="756.689453"/>
       <use xlink:href="#DejaVuSans-6e" x="784.472656"/>
       <use xlink:href="#DejaVuSans-67" x="847.851562"/>
       <use xlink:href="#DejaVuSans-5f" x="911.328125"/>
       <use xlink:href="#DejaVuSans-6d" x="961.328125"/>
       <use xlink:href="#DejaVuSans-6c" x="1058.740234"/>
       <use xlink:href="#DejaVuSans-70" x="1086.523438"/>
      </g>
     </g>
    </g>
    <g id="xtick_8">
     <g id="line2d_13">
      <g>
       <use xlink:href="#m2b9a9b07b7" x="614.62" y="176.74" style="stroke: #000000; stroke-width: 0.8"/>
      </g>
     </g>
     <g id="text_18">
      <!-- structured_mlp -->
      <g transform="translate(617.240312 259.329063) rotate(-90) scale(0.1 -0.1)">
       <use xlink:href="#DejaVuSans-73"/>
       <use xlink:href="#DejaVuSans-74" x="52.099609"/>
       <use xlink:href="#DejaVuSans-72" x="91.308594"/>
       <use xlink:href="#DejaVuSans-75" x="132.421875"/>
       <use xlink:href="#DejaVuSans-63" x="195.800781"/>
       <use xlink:href="#DejaVuSans-74" x="250.78125"/>
       <use xlink:href="#DejaVuSans-75" x="289.990234"/>
       <use xlink:href="#DejaVuSans-72" x="353.369141"/>
       <use xlink:href="#DejaVuSans-65" x="392.232422"/>
       <use xlink:href="#DejaVuSans-64" x="453.755859"/>
       <use xlink:href="#DejaVuSans-5f" x="517.232422"/>
       <use xlink:href="#DejaVuSans-6d" x="567.232422"/>
       <use xlink:href="#DejaVuSans-6c" x="664.644531"/>
       <use xlink:href="#DejaVuSans-70" x="692.427734"/>
      </g>
     </g>
    </g>
    <g id="xtick_9">
     <g id="line2d_14">
      <g>
       <use xlink:href="#m2b9a9b07b7" x="681.252" y="176.74" style="stroke: #000000; stroke-width: 0.8"/>
      </g>
     </g>
     <g id="text_19">
      <!-- fair_concat_mlp -->
      <g transform="translate(683.872312 262.64625) rotate(-90) scale(0.1 -0.1)">
       <use xlink:href="#DejaVuSans-66"/>
       <use xlink:href="#DejaVuSans-61" x="35.205078"/>
       <use xlink:href="#DejaVuSans-69" x="96.484375"/>
       <use xlink:href="#DejaVuSans-72" x="124.267578"/>
       <use xlink:href="#DejaVuSans-5f" x="165.380859"/>
       <use xlink:href="#DejaVuSans-63" x="215.380859"/>
       <use xlink:href="#DejaVuSans-6f" x="270.361328"/>
       <use xlink:href="#DejaVuSans-6e" x="331.542969"/>
       <use xlink:href="#DejaVuSans-63" x="394.921875"/>
       <use xlink:href="#DejaVuSans-61" x="449.902344"/>
       <use xlink:href="#DejaVuSans-74" x="511.181641"/>
       <use xlink:href="#DejaVuSans-5f" x="550.390625"/>
       <use xlink:href="#DejaVuSans-6d" x="600.390625"/>
       <use xlink:href="#DejaVuSans-6c" x="697.802734"/>
       <use xlink:href="#DejaVuSans-70" x="725.585938"/>
      </g>
     </g>
    </g>
    <g id="xtick_10">
     <g id="line2d_15">
      <g>
       <use xlink:href="#m2b9a9b07b7" x="747.884" y="176.74" style="stroke: #000000; stroke-width: 0.8"/>
      </g>
     </g>
     <g id="text_20">
      <!-- gated_fusion_mlp -->
      <g transform="translate(750.504312 271.807187) rotate(-90) scale(0.1 -0.1)">
       <use xlink:href="#DejaVuSans-67"/>
       <use xlink:href="#DejaVuSans-61" x="63.476562"/>
       <use xlink:href="#DejaVuSans-74" x="124.755859"/>
       <use xlink:href="#DejaVuSans-65" x="163.964844"/>
       <use xlink:href="#DejaVuSans-64" x="225.488281"/>
       <use xlink:href="#DejaVuSans-5f" x="288.964844"/>
       <use xlink:href="#DejaVuSans-66" x="338.964844"/>
       <use xlink:href="#DejaVuSans-75" x="374.169922"/>
       <use xlink:href="#DejaVuSans-73" x="437.548828"/>
       <use xlink:href="#DejaVuSans-69" x="489.648438"/>
       <use xlink:href="#DejaVuSans-6f" x="517.431641"/>
       <use xlink:href="#DejaVuSans-6e" x="578.613281"/>
       <use xlink:href="#DejaVuSans-5f" x="641.992188"/>
       <use xlink:href="#DejaVuSans-6d" x="691.992188"/>
       <use xlink:href="#DejaVuSans-6c" x="789.404297"/>
       <use xlink:href="#DejaVuSans-70" x="817.1875"/>
      </g>
     </g>
    </g>
    <g id="text_21">
     <!-- model_name -->
     <g transform="translate(582.370781 310.341563) scale(0.1 -0.1)">
      <use xlink:href="#DejaVuSans-6d"/>
      <use xlink:href="#DejaVuSans-6f" x="97.412109"/>
      <use xlink:href="#DejaVuSans-64" x="158.59375"/>
      <use xlink:href="#DejaVuSans-65" x="222.070312"/>
      <use xlink:href="#DejaVuSans-6c" x="283.59375"/>
      <use xlink:href="#DejaVuSans-5f" x="311.376953"/>
      <use xlink:href="#DejaVuSans-6e" x="361.376953"/>
      <use xlink:href="#DejaVuSans-61" x="424.755859"/>
      <use xlink:href="#DejaVuSans-6d" x="486.035156"/>
      <use xlink:href="#DejaVuSans-65" x="583.447266"/>
     </g>
    </g>
   </g>
   <g id="matplotlib.axis_4">
    <g id="ytick_6">
     <g id="line2d_16">
      <g>
       <use xlink:href="#m01b2b8091c" x="448.04" y="176.74" style="stroke: #000000; stroke-width: 0.8"/>
      </g>
     </g>
     <g id="text_22">
      <!-- 0.00 -->
      <g transform="translate(418.774375 180.539219) scale(0.1 -0.1)">
       <use xlink:href="#DejaVuSans-30"/>
       <use xlink:href="#DejaVuSans-2e" x="63.623047"/>
       <use xlink:href="#DejaVuSans-30" x="95.410156"/>
       <use xlink:href="#DejaVuSans-30" x="159.033203"/>
      </g>
     </g>
    </g>
    <g id="ytick_7">
     <g id="line2d_17">
      <g>
       <use xlink:href="#m01b2b8091c" x="448.04" y="150.930753" style="stroke: #000000; stroke-width: 0.8"/>
      </g>
     </g>
     <g id="text_23">
      <!-- 0.02 -->
      <g transform="translate(418.774375 154.729972) scale(0.1 -0.1)">
       <use xlink:href="#DejaVuSans-30"/>
       <use xlink:href="#DejaVuSans-2e" x="63.623047"/>
       <use xlink:href="#DejaVuSans-30" x="95.410156"/>
       <use xlink:href="#DejaVuSans-32" x="159.033203"/>
      </g>
     </g>
    </g>
    <g id="ytick_8">
     <g id="line2d_18">
      <g>
       <use xlink:href="#m01b2b8091c" x="448.04" y="125.121507" style="stroke: #000000; stroke-width: 0.8"/>
      </g>
     </g>
     <g id="text_24">
      <!-- 0.04 -->
      <g transform="translate(418.774375 128.920725) scale(0.1 -0.1)">
       <use xlink:href="#DejaVuSans-30"/>
       <use xlink:href="#DejaVuSans-2e" x="63.623047"/>
       <use xlink:href="#DejaVuSans-30" x="95.410156"/>
       <use xlink:href="#DejaVuSans-34" x="159.033203"/>
      </g>
     </g>
    </g>
    <g id="ytick_9">
     <g id="line2d_19">
      <g>
       <use xlink:href="#m01b2b8091c" x="448.04" y="99.31226" style="stroke: #000000; stroke-width: 0.8"/>
      </g>
     </g>
     <g id="text_25">
      <!-- 0.06 -->
      <g transform="translate(418.774375 103.111479) scale(0.1 -0.1)">
       <defs>
        <path id="DejaVuSans-36" d="M 2113 2584 
Q 1688 2584 1439 2293 
Q 1191 2003 1191 1497 
Q 1191 994 1439 701 
Q 1688 409 2113 409 
Q 2538 409 2786 701 
Q 3034 994 3034 1497 
Q 3034 2003 2786 2293 
Q 2538 2584 2113 2584 
z
M 3366 4563 
L 3366 3988 
Q 3128 4100 2886 4159 
Q 2644 4219 2406 4219 
Q 1781 4219 1451 3797 
Q 1122 3375 1075 2522 
Q 1259 2794 1537 2939 
Q 1816 3084 2150 3084 
Q 2853 3084 3261 2657 
Q 3669 2231 3669 1497 
Q 3669 778 3244 343 
Q 2819 -91 2113 -91 
Q 1303 -91 875 529 
Q 447 1150 447 2328 
Q 447 3434 972 4092 
Q 1497 4750 2381 4750 
Q 2619 4750 2861 4703 
Q 3103 4656 3366 4563 
z
" transform="scale(0.015625)"/>
       </defs>
       <use xlink:href="#DejaVuSans-30"/>
       <use xlink:href="#DejaVuSans-2e" x="63.623047"/>
       <use xlink:href="#DejaVuSans-30" x="95.410156"/>
       <use xlink:href="#DejaVuSans-36" x="159.033203"/>
      </g>
     </g>
    </g>
    <g id="ytick_10">
     <g id="line2d_20">
      <g>
       <use xlink:href="#m01b2b8091c" x="448.04" y="73.503013" style="stroke: #000000; stroke-width: 0.8"/>
      </g>
     </g>
     <g id="text_26">
      <!-- 0.08 -->
      <g transform="translate(418.774375 77.302232) scale(0.1 -0.1)">
       <defs>
        <path id="DejaVuSans-38" d="M 2034 2216 
Q 1584 2216 1326 1975 
Q 1069 1734 1069 1313 
Q 1069 891 1326 650 
Q 1584 409 2034 409 
Q 2484 409 2743 651 
Q 3003 894 3003 1313 
Q 3003 1734 2745 1975 
Q 2488 2216 2034 2216 
z
M 1403 2484 
Q 997 2584 770 2862 
Q 544 3141 544 3541 
Q 544 4100 942 4425 
Q 1341 4750 2034 4750 
Q 2731 4750 3128 4425 
Q 3525 4100 3525 3541 
Q 3525 3141 3298 2862 
Q 3072 2584 2669 2484 
Q 3125 2378 3379 2068 
Q 3634 1759 3634 1313 
Q 3634 634 3220 271 
Q 2806 -91 2034 -91 
Q 1263 -91 848 271 
Q 434 634 434 1313 
Q 434 1759 690 2068 
Q 947 2378 1403 2484 
z
M 1172 3481 
Q 1172 3119 1398 2916 
Q 1625 2713 2034 2713 
Q 2441 2713 2670 2916 
Q 2900 3119 2900 3481 
Q 2900 3844 2670 4047 
Q 2441 4250 2034 4250 
Q 1625 4250 1398 4047 
Q 1172 3844 1172 3481 
z
" transform="scale(0.015625)"/>
       </defs>
       <use xlink:href="#DejaVuSans-30"/>
       <use xlink:href="#DejaVuSans-2e" x="63.623047"/>
       <use xlink:href="#DejaVuSans-30" x="95.410156"/>
       <use xlink:href="#DejaVuSans-38" x="159.033203"/>
      </g>
     </g>
    </g>
    <g id="text_27">
     <!-- Brier -->
     <g transform="translate(412.694688 124.797031) rotate(-90) scale(0.1 -0.1)">
      <defs>
       <path id="DejaVuSans-42" d="M 1259 2228 
L 1259 519 
L 2272 519 
Q 2781 519 3026 730 
Q 3272 941 3272 1375 
Q 3272 1813 3026 2020 
Q 2781 2228 2272 2228 
L 1259 2228 
z
M 1259 4147 
L 1259 2741 
L 2194 2741 
Q 2656 2741 2882 2914 
Q 3109 3088 3109 3444 
Q 3109 3797 2882 3972 
Q 2656 4147 2194 4147 
L 1259 4147 
z
M 628 4666 
L 2241 4666 
Q 2963 4666 3353 4366 
Q 3744 4066 3744 3513 
Q 3744 3084 3544 2831 
Q 3344 2578 2956 2516 
Q 3422 2416 3680 2098 
Q 3938 1781 3938 1306 
Q 3938 681 3513 340 
Q 3088 0 2303 0 
L 628 0 
L 628 4666 
z
" transform="scale(0.015625)"/>
      </defs>
      <use xlink:href="#DejaVuSans-42"/>
      <use xlink:href="#DejaVuSans-72" x="68.603516"/>
      <use xlink:href="#DejaVuSans-69" x="109.716797"/>
      <use xlink:href="#DejaVuSans-65" x="137.5"/>
      <use xlink:href="#DejaVuSans-72" x="199.023438"/>
     </g>
    </g>
   </g>
   <g id="patch_30">
    <path d="M 448.04 176.74 
L 448.04 48.84 
" style="fill: none; stroke: #000000; stroke-width: 0.8; stroke-linejoin: miter; stroke-linecap: square"/>
   </g>
   <g id="patch_31">
    <path d="M 781.2 176.74 
L 781.2 48.84 
" style="fill: none; stroke: #000000; stroke-width: 0.8; stroke-linejoin: miter; stroke-linecap: square"/>
   </g>
   <g id="patch_32">
    <path d="M 448.04 176.74 
L 781.2 176.74 
" style="fill: none; stroke: #000000; stroke-width: 0.8; stroke-linejoin: miter; stroke-linecap: square"/>
   </g>
   <g id="patch_33">
    <path d="M 448.04 48.84 
L 781.2 48.84 
" style="fill: none; stroke: #000000; stroke-width: 0.8; stroke-linejoin: miter; stroke-linecap: square"/>
   </g>
   <g id="text_28">
    <!-- Raw vs temperature-scaled Brier -->
    <g transform="translate(516.05125 42.84) scale(0.12 -0.12)">
     <use xlink:href="#DejaVuSans-52"/>
     <use xlink:href="#DejaVuSans-61" x="67.232422"/>
     <use xlink:href="#DejaVuSans-77" x="128.511719"/>
     <use xlink:href="#DejaVuSans-20" x="210.298828"/>
     <use xlink:href="#DejaVuSans-76" x="242.085938"/>
     <use xlink:href="#DejaVuSans-73" x="301.265625"/>
     <use xlink:href="#DejaVuSans-20" x="353.365234"/>
     <use xlink:href="#DejaVuSans-74" x="385.152344"/>
     <use xlink:href="#DejaVuSans-65" x="424.361328"/>
     <use xlink:href="#DejaVuSans-6d" x="485.884766"/>
     <use xlink:href="#DejaVuSans-70" x="583.296875"/>
     <use xlink:href="#DejaVuSans-65" x="646.773438"/>
     <use xlink:href="#DejaVuSans-72" x="708.296875"/>
     <use xlink:href="#DejaVuSans-61" x="749.410156"/>
     <use xlink:href="#DejaVuSans-74" x="810.689453"/>
     <use xlink:href="#DejaVuSans-75" x="849.898438"/>
     <use xlink:href="#DejaVuSans-72" x="913.277344"/>
     <use xlink:href="#DejaVuSans-65" x="952.140625"/>
     <use xlink:href="#DejaVuSans-2d" x="1013.664062"/>
     <use xlink:href="#DejaVuSans-73" x="1049.748047"/>
     <use xlink:href="#DejaVuSans-63" x="1101.847656"/>
     <use xlink:href="#DejaVuSans-61" x="1156.828125"/>
     <use xlink:href="#DejaVuSans-6c" x="1218.107422"/>
     <use xlink:href="#DejaVuSans-65" x="1245.890625"/>
     <use xlink:href="#DejaVuSans-64" x="1307.414062"/>
     <use xlink:href="#DejaVuSans-20" x="1370.890625"/>
     <use xlink:href="#DejaVuSans-42" x="1402.677734"/>
     <use xlink:href="#DejaVuSans-72" x="1471.28125"/>
     <use xlink:href="#DejaVuSans-69" x="1512.394531"/>
     <use xlink:href="#DejaVuSans-65" x="1540.177734"/>
     <use xlink:href="#DejaVuSans-72" x="1601.701172"/>
    </g>
   </g>
   <g id="legend_2">
    <g id="patch_34">
     <path d="M 644.232812 65.438437 
L 664.232812 65.438437 
L 664.232812 58.438437 
L 644.232812 58.438437 
z
" style="fill: #1f77b4"/>
    </g>
    <g id="text_29">
     <!-- raw -->
     <g transform="translate(672.232812 65.438437) scale(0.1 -0.1)">
      <use xlink:href="#DejaVuSans-72"/>
      <use xlink:href="#DejaVuSans-61" x="41.113281"/>
      <use xlink:href="#DejaVuSans-77" x="102.392578"/>
     </g>
    </g>
    <g id="patch_35">
     <path d="M 644.232812 80.116562 
L 664.232812 80.116562 
L 664.232812 73.116562 
L 644.232812 73.116562 
z
" style="fill: #ff7f0e"/>
    </g>
    <g id="text_30">
     <!-- temperature_scaled -->
     <g transform="translate(672.232812 80.116562) scale(0.1 -0.1)">
      <use xlink:href="#DejaVuSans-74"/>
      <use xlink:href="#DejaVuSans-65" x="39.208984"/>
      <use xlink:href="#DejaVuSans-6d" x="100.732422"/>
      <use xlink:href="#DejaVuSans-70" x="198.144531"/>
      <use xlink:href="#DejaVuSans-65" x="261.621094"/>
      <use xlink:href="#DejaVuSans-72" x="323.144531"/>
      <use xlink:href="#DejaVuSans-61" x="364.257812"/>
      <use xlink:href="#DejaVuSans-74" x="425.537109"/>
      <use xlink:href="#DejaVuSans-75" x="464.746094"/>
      <use xlink:href="#DejaVuSans-72" x="528.125"/>
      <use xlink:href="#DejaVuSans-65" x="566.988281"/>
      <use xlink:href="#DejaVuSans-5f" x="628.511719"/>
      <use xlink:href="#DejaVuSans-73" x="678.511719"/>
      <use xlink:href="#DejaVuSans-63" x="730.611328"/>
      <use xlink:href="#DejaVuSans-61" x="785.591797"/>
      <use xlink:href="#DejaVuSans-6c" x="846.871094"/>
      <use xlink:href="#DejaVuSans-65" x="874.654297"/>
      <use xlink:href="#DejaVuSans-64" x="936.177734"/>
     </g>
    </g>
   </g>
  </g>
  <g id="text_31">
   <!-- Calibration and reliability on frozen test -->
   <g transform="translate(277.030313 15.598125) scale(0.12 -0.12)">
    <defs>
     <path id="DejaVuSans-7a" d="M 353 3500 
L 3084 3500 
L 3084 2975 
L 922 459 
L 3084 459 
L 3084 0 
L 275 0 
L 275 525 
L 2438 3041 
L 353 3041 
L 353 3500 
z
" transform="scale(0.015625)"/>
    </defs>
    <use xlink:href="#DejaVuSans-43"/>
    <use xlink:href="#DejaVuSans-61" x="69.824219"/>
    <use xlink:href="#DejaVuSans-6c" x="131.103516"/>
    <use xlink:href="#DejaVuSans-69" x="158.886719"/>
    <use xlink:href="#DejaVuSans-62" x="186.669922"/>
    <use xlink:href="#DejaVuSans-72" x="250.146484"/>
    <use xlink:href="#DejaVuSans-61" x="291.259766"/>
    <use xlink:href="#DejaVuSans-74" x="352.539062"/>
    <use xlink:href="#DejaVuSans-69" x="391.748047"/>
    <use xlink:href="#DejaVuSans-6f" x="419.53125"/>
    <use xlink:href="#DejaVuSans-6e" x="480.712891"/>
    <use xlink:href="#DejaVuSans-20" x="544.091797"/>
    <use xlink:href="#DejaVuSans-61" x="575.878906"/>
    <use xlink:href="#DejaVuSans-6e" x="637.158203"/>
    <use xlink:href="#DejaVuSans-64" x="700.537109"/>
    <use xlink:href="#DejaVuSans-20" x="764.013672"/>
    <use xlink:href="#DejaVuSans-72" x="795.800781"/>
    <use xlink:href="#DejaVuSans-65" x="834.664062"/>
    <use xlink:href="#DejaVuSans-6c" x="896.1875"/>
    <use xlink:href="#DejaVuSans-69" x="923.970703"/>
    <use xlink:href="#DejaVuSans-61" x="951.753906"/>
    <use xlink:href="#DejaVuSans-62" x="1013.033203"/>
    <use xlink:href="#DejaVuSans-69" x="1076.509766"/>
    <use xlink:href="#DejaVuSans-6c" x="1104.292969"/>
    <use xlink:href="#DejaVuSans-69" x="1132.076172"/>
    <use xlink:href="#DejaVuSans-74" x="1159.859375"/>
    <use xlink:href="#DejaVuSans-79" x="1199.068359"/>
    <use xlink:href="#DejaVuSans-20" x="1258.248047"/>
    <use xlink:href="#DejaVuSans-6f" x="1290.035156"/>
    <use xlink:href="#DejaVuSans-6e" x="1351.216797"/>
    <use xlink:href="#DejaVuSans-20" x="1414.595703"/>
    <use xlink:href="#DejaVuSans-66" x="1446.382812"/>
    <use xlink:href="#DejaVuSans-72" x="1481.587891"/>
    <use xlink:href="#DejaVuSans-6f" x="1520.451172"/>
    <use xlink:href="#DejaVuSans-7a" x="1581.632812"/>
    <use xlink:href="#DejaVuSans-65" x="1634.123047"/>
    <use xlink:href="#DejaVuSans-6e" x="1695.646484"/>
    <use xlink:href="#DejaVuSans-20" x="1759.025391"/>
    <use xlink:href="#DejaVuSans-74" x="1790.8125"/>
    <use xlink:href="#DejaVuSans-65" x="1830.021484"/>
    <use xlink:href="#DejaVuSans-73" x="1891.544922"/>
    <use xlink:href="#DejaVuSans-74" x="1943.644531"/>
   </g>
  </g>
 </g>
 <defs>
  <clipPath id="p70a880418f">
   <rect x="60.635" y="48.84" width="333.16" height="127.9"/>
  </clipPath>
  <clipPath id="p5d3f2d4326">
   <rect x="448.04" y="48.84" width="333.16" height="127.9"/>
  </clipPath>
 </defs>
</svg>
